<svg width="535" height="60" viewBox="0 0 535 60" fill="none" xmlns="http://www.w3.org/2000/svg">
<path d="M2.66211 2.41309C6.20863 1.59233 11.2028 2.01276 15.375 3.5166C17.0438 4.11814 18.7036 4.94345 20.1035 6.01172C23.615 4.35439 27.5369 3.42679 31.6758 3.42676H449.291C464.322 3.42702 476.5 15.6475 476.5 30.7129C476.5 45.7785 464.322 57.9997 449.291 58H31.6758C16.6442 57.9999 4.4668 45.7786 4.4668 30.7129C4.46689 24.5986 6.47204 18.9527 9.86035 14.4023C9.62701 13.8777 9.38055 13.3883 9.11621 12.9287C7.60777 10.3063 5.61862 8.53457 3.06641 6.04785L1.9375 4.93359C1.55291 4.54785 1.4082 3.9835 1.55859 3.45996C1.70904 2.93652 2.13149 2.5359 2.66211 2.41309Z" fill="#3B75FF" stroke="#FFDF00" stroke-width="3" stroke-linecap="round" stroke-linejoin="round"/>
</svg>
