<svg id="eXlGy8SbPUf1" xmlns="http://www.w3.org/2000/svg" xmlns:xlink="http://www.w3.org/1999/xlink" viewBox="0 0 400 720" shape-rendering="geometricPrecision" text-rendering="geometricPrecision" project-id="34ac3b159e524a50b218cf5c41bd8ed5" export-id="b89341d3b5df46ef82db16363a80dab6" cached="false">
<style><![CDATA[
#eXlGy8SbPUf2_ts {animation: eXlGy8SbPUf2_ts__ts 2000ms linear 1 normal forwards}@keyframes eXlGy8SbPUf2_ts__ts { 0% {transform: translate(199.999999px,709.910441px) scale(1.976056,0.65325)} 22.5% {transform: translate(199.999999px,709.910441px) scale(1.976056,0.65325)} 37.5% {transform: translate(199.999999px,709.910441px) scale(5.66197,0.838296)} 100% {transform: translate(199.999999px,709.910441px) scale(5.66197,0.838296)}} #eXlGy8SbPUf2 {animation: eXlGy8SbPUf2_c_o 2000ms linear 1 normal forwards}@keyframes eXlGy8SbPUf2_c_o { 0% {opacity: 0} 22.5% {opacity: 0} 22.75% {opacity: 1} 40% {opacity: 1} 40.25% {opacity: 0} 100% {opacity: 0}} #eXlGy8SbPUf3_ts {animation: eXlGy8SbPUf3_ts__ts 2000ms linear 1 normal forwards}@keyframes eXlGy8SbPUf3_ts__ts { 0% {transform: translate(199.999989px,709.925658px) scale(-0.216324,0.388546)} 22.5% {transform: translate(199.999989px,709.925658px) scale(3.600562,0.680391)} 40.25% {transform: translate(199.999989px,709.925658px) scale(9.714096,2.56373);animation-timing-function: cubic-bezier(0.77,0.005,0.215,1.025)} 62.5% {transform: translate(199.999989px,709.925658px) scale(0,5.114799)} 100% {transform: translate(199.999989px,709.925658px) scale(0,5.114799)}} #eXlGy8SbPUf3 {animation: eXlGy8SbPUf3_c_o 2000ms linear 1 normal forwards}@keyframes eXlGy8SbPUf3_c_o { 0% {opacity: 1} 22.5% {opacity: 1} 22.75% {opacity: 0} 40% {opacity: 0} 40.25% {opacity: 1} 100% {opacity: 1}} #eXlGy8SbPUf4_to {animation: eXlGy8SbPUf4_to__to 2000ms linear 1 normal forwards}@keyframes eXlGy8SbPUf4_to__to { 0% {transform: translate(203.444239px,708.324648px);animation-timing-function: cubic-bezier(0.77,0.005,0.215,1.025)} 100% {transform: translate(200px,-11.514733px)}} #eXlGy8SbPUf4_ts {animation: eXlGy8SbPUf4_ts__ts 2000ms linear 1 normal forwards}@keyframes eXlGy8SbPUf4_ts__ts { 0% {transform: scale(1,1)} 2.5% {transform: scale(1.081358,0.736763);animation-timing-function: cubic-bezier(0.77,0.005,0.215,1.025)} 5% {transform: scale(0.654505,1)} 22.5% {transform: scale(1,1)} 100% {transform: scale(1,1)}} #eXlGy8SbPUf61_tr {animation: eXlGy8SbPUf61_tr__tr 2000ms linear 1 normal forwards}@keyframes eXlGy8SbPUf61_tr__tr { 0% {transform: translate(115.216966px,582.181935px) rotate(0deg)} 25% {transform: translate(115.216966px,582.181935px) rotate(0deg);animation-timing-function: cubic-bezier(0.77,0.005,0.215,1.025)} 37.5% {transform: translate(115.216966px,582.181935px) rotate(11deg);animation-timing-function: cubic-bezier(0.77,0.005,0.215,1.025)} 50% {transform: translate(115.216966px,582.181935px) rotate(0deg)} 62.5% {transform: translate(115.216966px,582.181935px) rotate(11deg);animation-timing-function: cubic-bezier(0.77,0.005,0.215,1.025)} 75% {transform: translate(115.216966px,582.181935px) rotate(0deg)} 100% {transform: translate(115.216966px,582.181935px) rotate(0deg)}} #eXlGy8SbPUf70_tr {animation: eXlGy8SbPUf70_tr__tr 2000ms linear 1 normal forwards}@keyframes eXlGy8SbPUf70_tr__tr { 0% {transform: translate(99.147017px,578.358647px) rotate(6.989693deg)} 2.5% {transform: translate(99.147017px,578.358647px) rotate(6.989693deg);animation-timing-function: cubic-bezier(0.77,0.005,0.215,1.025)} 12.5% {transform: translate(99.147017px,578.358647px) rotate(6.989693deg);animation-timing-function: cubic-bezier(0.77,0.005,0.215,1.025)} 62.5% {transform: translate(99.147017px,578.358647px) rotate(-6.064199deg);animation-timing-function: cubic-bezier(0.77,0.005,0.215,1.025)} 100% {transform: translate(99.147017px,578.358647px) rotate(6.989693deg)}} #eXlGy8SbPUf70_ts {animation: eXlGy8SbPUf70_ts__ts 2000ms linear 1 normal forwards}@keyframes eXlGy8SbPUf70_ts__ts { 0% {transform: scale(1,1)} 2.5% {transform: scale(1,0.9)} 12.5% {transform: scale(1,1)} 100% {transform: scale(1,1)}} #eXlGy8SbPUf82_to {animation: eXlGy8SbPUf82_to__to 2000ms linear 1 normal forwards}@keyframes eXlGy8SbPUf82_to__to { 0% {transform: translate(85.821623px,524.678758px)} 12.5% {transform: translate(85.821623px,524.678758px)} 14% {transform: translate(86.517173px,521.571019px)} 21% {transform: translate(85.821623px,524.678758px)} 100% {transform: translate(85.821623px,524.678758px)}} #eXlGy8SbPUf82_tr {animation: eXlGy8SbPUf82_tr__tr 2000ms linear 1 normal forwards}@keyframes eXlGy8SbPUf82_tr__tr { 0% {transform: rotate(0deg)} 12.5% {transform: rotate(0deg)} 14% {transform: rotate(-7.534553deg)} 21% {transform: rotate(0deg)} 100% {transform: rotate(0deg)}} #eXlGy8SbPUf83_to {animation: eXlGy8SbPUf83_to__to 2000ms linear 1 normal forwards}@keyframes eXlGy8SbPUf83_to__to { 0% {transform: translate(120.793005px,527.699586px)} 12.5% {transform: translate(120.793005px,527.699586px)} 14% {transform: translate(121.488555px,524.591847px)} 21% {transform: translate(120.793005px,527.699586px)} 100% {transform: translate(120.793005px,527.699586px)}} #eXlGy8SbPUf83_tr {animation: eXlGy8SbPUf83_tr__tr 2000ms linear 1 normal forwards}@keyframes eXlGy8SbPUf83_tr__tr { 0% {transform: rotate(0deg)} 12.5% {transform: rotate(0deg)} 14% {transform: rotate(18.263884deg)} 21% {transform: rotate(0deg)} 100% {transform: rotate(0deg)}} #eXlGy8SbPUf84 {animation: eXlGy8SbPUf84_c_o 2000ms linear 1 normal forwards}@keyframes eXlGy8SbPUf84_c_o { 0% {opacity: 1} 12.25% {opacity: 1} 12.5% {opacity: 0} 100% {opacity: 0}} #eXlGy8SbPUf85 {animation: eXlGy8SbPUf85_c_o 2000ms linear 1 normal forwards}@keyframes eXlGy8SbPUf85_c_o { 0% {opacity: 0} 12.25% {opacity: 0} 12.5% {opacity: 1} 21% {opacity: 1} 21.25% {opacity: 0} 100% {opacity: 0}} #eXlGy8SbPUf86 {animation: eXlGy8SbPUf86_c_o 2000ms linear 1 normal forwards}@keyframes eXlGy8SbPUf86_c_o { 0% {opacity: 0} 21% {opacity: 0} 21.25% {opacity: 1} 100% {opacity: 1}} #eXlGy8SbPUf96_ts {animation: eXlGy8SbPUf96_ts__ts 2000ms linear 1 normal forwards}@keyframes eXlGy8SbPUf96_ts__ts { 0% {transform: translate(118.32349px,541.277527px) scale(1,1)} 12.5% {transform: translate(118.32349px,541.277527px) scale(1,1)} 14% {transform: translate(118.32349px,541.277527px) scale(0.8,1.2)} 21% {transform: translate(118.32349px,541.277527px) scale(1,1)} 100% {transform: translate(118.32349px,541.277527px) scale(1,1)}} #eXlGy8SbPUf96 {animation: eXlGy8SbPUf96_c_o 2000ms linear 1 normal forwards}@keyframes eXlGy8SbPUf96_c_o { 0% {opacity: 1} 37.5% {opacity: 1} 42.5% {opacity: 0} 52.5% {opacity: 1} 100% {opacity: 1}} #eXlGy8SbPUf101_ts {animation: eXlGy8SbPUf101_ts__ts 2000ms linear 1 normal forwards}@keyframes eXlGy8SbPUf101_ts__ts { 0% {transform: translate(87.457527px,537.832245px) scale(1,1)} 12.5% {transform: translate(87.457527px,537.832245px) scale(1,1)} 14% {transform: translate(87.457527px,537.832245px) scale(0.8,1.2)} 21% {transform: translate(87.457527px,537.832245px) scale(1,1)} 100% {transform: translate(87.457527px,537.832245px) scale(1,1)}} #eXlGy8SbPUf115 {animation: eXlGy8SbPUf115_s_p 2000ms linear 1 normal forwards}@keyframes eXlGy8SbPUf115_s_p { 0% {stroke: #c401db} 10% {stroke: #fe14bb} 20% {stroke: #84ff00} 30% {stroke: #10fee2} 40% {stroke: #9715ff} 50% {stroke: #c401db} 62.5% {stroke: #fe14bb} 75% {stroke: #84ff00} 87.5% {stroke: #10fee2} 100% {stroke: #9715ff}} #eXlGy8SbPUf118_tr {animation: eXlGy8SbPUf118_tr__tr 2000ms linear 1 normal forwards}@keyframes eXlGy8SbPUf118_tr__tr { 0% {transform: translate(86.425953px,588.223325px) rotate(26.089119deg)} 25% {transform: translate(86.425953px,588.223325px) rotate(26.089119deg);animation-timing-function: cubic-bezier(0.77,0.005,0.215,1.025)} 50% {transform: translate(86.425953px,588.223325px) rotate(26.089119deg);animation-timing-function: cubic-bezier(0.77,0.005,0.215,1.025)} 62.5% {transform: translate(86.425953px,588.223325px) rotate(-14.764207deg);animation-timing-function: cubic-bezier(0.77,0.005,0.215,1.025)} 75% {transform: translate(86.425953px,588.223325px) rotate(26.089119deg)} 100% {transform: translate(86.425953px,588.223325px) rotate(26.089119deg)}} #eXlGy8SbPUf119_to {animation: eXlGy8SbPUf119_to__to 2000ms linear 1 normal forwards}@keyframes eXlGy8SbPUf119_to__to { 0% {transform: translate(88.521133px,600.760558px)} 17.5% {transform: translate(88.521133px,600.760558px);animation-timing-function: cubic-bezier(0.77,0.005,0.215,1.025)} 25% {transform: translate(87.935222px,590.777737px)} 100% {transform: translate(87.935222px,590.777737px)}} #eXlGy8SbPUf119_ts {animation: eXlGy8SbPUf119_ts__ts 2000ms linear 1 normal forwards}@keyframes eXlGy8SbPUf119_ts__ts { 0% {transform: scale(0.394818,0.493583)} 17.5% {transform: scale(0.394818,0.493583);animation-timing-function: cubic-bezier(0.77,0.005,0.215,1.025)} 25% {transform: scale(1,1)} 100% {transform: scale(1,1)}} #eXlGy8SbPUf120_to {animation: eXlGy8SbPUf120_to__to 2000ms linear 1 normal forwards}@keyframes eXlGy8SbPUf120_to__to { 0% {transform: translate(64.448362px,579.492033px)} 17.5% {transform: translate(64.448362px,579.492033px);animation-timing-function: cubic-bezier(0.77,0.005,0.215,1.025)} 25% {transform: translate(33.974812px,555.23584px)} 100% {transform: translate(33.974812px,555.23584px)}} #eXlGy8SbPUf126_to {animation: eXlGy8SbPUf126_to__to 2000ms linear 1 normal forwards}@keyframes eXlGy8SbPUf126_to__to { 0% {transform: translate(242.899682px,709.910449px)} 35.75% {transform: translate(242.899682px,709.910449px)} 40% {transform: translate(245.946887px,709.910449px)} 58.25% {transform: translate(372.899682px,709.910449px)} 100% {transform: translate(372.899682px,709.910449px)}} #eXlGy8SbPUf126_ts {animation: eXlGy8SbPUf126_ts__ts 2000ms linear 1 normal forwards}@keyframes eXlGy8SbPUf126_ts__ts { 0% {transform: scale(0,0)} 35.75% {transform: scale(0,0)} 47.25% {transform: scale(2.8,2.8)} 58.25% {transform: scale(0,0)} 100% {transform: scale(0,0)}} #eXlGy8SbPUf126 {animation: eXlGy8SbPUf126_c_o 2000ms linear 1 normal forwards}@keyframes eXlGy8SbPUf126_c_o { 0% {opacity: 0} 35.75% {opacity: 0} 36% {opacity: 1} 40% {opacity: 1} 100% {opacity: 1}} #eXlGy8SbPUf127_to {animation: eXlGy8SbPUf127_to__to 2000ms linear 1 normal forwards}@keyframes eXlGy8SbPUf127_to__to { 0% {transform: translate(157.784361px,709.910449px)} 35.75% {transform: translate(157.784361px,709.910449px)} 40% {transform: translate(154.513719px,709.910449px)} 58% {transform: translate(27.784361px,709.910449px)} 100% {transform: translate(27.784361px,709.910449px)}} #eXlGy8SbPUf127_ts {animation: eXlGy8SbPUf127_ts__ts 2000ms linear 1 normal forwards}@keyframes eXlGy8SbPUf127_ts__ts { 0% {transform: scale(0,0)} 35.75% {transform: scale(0,0)} 47% {transform: scale(2.8,2.8)} 58% {transform: scale(0,0)} 100% {transform: scale(0,0)}} #eXlGy8SbPUf127 {animation: eXlGy8SbPUf127_c_o 2000ms linear 1 normal forwards}@keyframes eXlGy8SbPUf127_c_o { 0% {opacity: 0} 35.75% {opacity: 0} 36% {opacity: 1} 40% {opacity: 1} 100% {opacity: 1}} #eXlGy8SbPUf128_to {animation: eXlGy8SbPUf128_to__to 2000ms linear 1 normal forwards}@keyframes eXlGy8SbPUf128_to__to { 0% {transform: translate(242.899682px,709.910449px)} 35.75% {transform: translate(242.899682px,709.910449px)} 40% {transform: translate(245.946887px,709.910449px)} 58% {transform: translate(372.899682px,709.910449px)} 100% {transform: translate(372.899682px,709.910449px)}} #eXlGy8SbPUf128_ts {animation: eXlGy8SbPUf128_ts__ts 2000ms linear 1 normal forwards}@keyframes eXlGy8SbPUf128_ts__ts { 0% {transform: scale(0,0)} 35.75% {transform: scale(0,0)} 47% {transform: scale(2.8,2.8)} 58% {transform: scale(0,0)} 100% {transform: scale(0,0)}} #eXlGy8SbPUf128 {animation: eXlGy8SbPUf128_c_o 2000ms linear 1 normal forwards}@keyframes eXlGy8SbPUf128_c_o { 0% {opacity: 0} 35.75% {opacity: 0} 36% {opacity: 1} 40% {opacity: 1} 100% {opacity: 1}} #eXlGy8SbPUf129_to {animation: eXlGy8SbPUf129_to__to 2000ms linear 1 normal forwards}@keyframes eXlGy8SbPUf129_to__to { 0% {transform: translate(157.784361px,709.910449px)} 35.75% {transform: translate(157.784361px,709.910449px)} 40% {transform: translate(154.513719px,709.910449px)} 58% {transform: translate(27.784361px,709.910449px)} 100% {transform: translate(27.784361px,709.910449px)}} #eXlGy8SbPUf129_ts {animation: eXlGy8SbPUf129_ts__ts 2000ms linear 1 normal forwards}@keyframes eXlGy8SbPUf129_ts__ts { 0% {transform: scale(0,0)} 35.75% {transform: scale(0,0)} 47% {transform: scale(2.8,2.8)} 58% {transform: scale(0,0)} 100% {transform: scale(0,0)}} #eXlGy8SbPUf129 {animation: eXlGy8SbPUf129_c_o 2000ms linear 1 normal forwards}@keyframes eXlGy8SbPUf129_c_o { 0% {opacity: 0} 35.75% {opacity: 0} 36% {opacity: 1} 40% {opacity: 1} 100% {opacity: 1}}
]]></style>
<defs><radialGradient id="eXlGy8SbPUf78-fill" cx="0" cy="0" r="1" spreadMethod="pad" gradientUnits="userSpaceOnUse" gradientTransform="matrix(-7.10466 -7.77733 6.49575 -5.93393 70.306922 89.990314)"><stop id="eXlGy8SbPUf78-fill-0" offset="0%" stop-color="rgba(217,49,92,0.8)"/><stop id="eXlGy8SbPUf78-fill-1" offset="14%" stop-color="rgba(217,49,93,0.78)"/><stop id="eXlGy8SbPUf78-fill-2" offset="26%" stop-color="rgba(217,49,96,0.73)"/><stop id="eXlGy8SbPUf78-fill-3" offset="38%" stop-color="rgba(217,49,102,0.65)"/><stop id="eXlGy8SbPUf78-fill-4" offset="49%" stop-color="rgba(217,49,111,0.54)"/><stop id="eXlGy8SbPUf78-fill-5" offset="54%" stop-color="rgba(217,49,116,0.47)"/><stop id="eXlGy8SbPUf78-fill-6" offset="58%" stop-color="rgba(217,54,111,0.42)"/><stop id="eXlGy8SbPUf78-fill-7" offset="77%" stop-color="rgba(219,79,90,0.19)"/><stop id="eXlGy8SbPUf78-fill-8" offset="91%" stop-color="rgba(221,94,77,0.05)"/><stop id="eXlGy8SbPUf78-fill-9" offset="100%" stop-color="rgba(222,100,73,0)"/></radialGradient><radialGradient id="eXlGy8SbPUf79-fill" cx="0" cy="0" r="1" spreadMethod="pad" gradientUnits="userSpaceOnUse" gradientTransform="matrix(9.16132 -5.20482 4.34493 7.64777 113.959 97.239)"><stop id="eXlGy8SbPUf79-fill-0" offset="0%" stop-color="rgba(217,49,92,0.8)"/><stop id="eXlGy8SbPUf79-fill-1" offset="14%" stop-color="rgba(217,49,93,0.78)"/><stop id="eXlGy8SbPUf79-fill-2" offset="26%" stop-color="rgba(217,49,96,0.73)"/><stop id="eXlGy8SbPUf79-fill-3" offset="38%" stop-color="rgba(217,49,102,0.65)"/><stop id="eXlGy8SbPUf79-fill-4" offset="49%" stop-color="rgba(217,49,111,0.54)"/><stop id="eXlGy8SbPUf79-fill-5" offset="54%" stop-color="rgba(217,49,116,0.47)"/><stop id="eXlGy8SbPUf79-fill-6" offset="58%" stop-color="rgba(217,54,111,0.42)"/><stop id="eXlGy8SbPUf79-fill-7" offset="77%" stop-color="rgba(219,79,90,0.19)"/><stop id="eXlGy8SbPUf79-fill-8" offset="91%" stop-color="rgba(221,94,77,0.05)"/><stop id="eXlGy8SbPUf79-fill-9" offset="100%" stop-color="rgba(222,100,73,0)"/></radialGradient><linearGradient id="eXlGy8SbPUf109-fill" x1="152.273" y1="62.1991" x2="148.72" y2="102.841" spreadMethod="pad" gradientUnits="userSpaceOnUse" gradientTransform="translate(0 0)"><stop id="eXlGy8SbPUf109-fill-0" offset="0%" stop-color="#2c88fd"/><stop id="eXlGy8SbPUf109-fill-1" offset="100%" stop-color="#1b59db"/></linearGradient><linearGradient id="eXlGy8SbPUf113-fill" x1="153.724" y1="64.614" x2="150.103" y2="101.335" spreadMethod="pad" gradientUnits="userSpaceOnUse" gradientTransform="translate(0 0)"><stop id="eXlGy8SbPUf113-fill-0" offset="0%" stop-color="#2c88fd"/><stop id="eXlGy8SbPUf113-fill-1" offset="100%" stop-color="#1b59db"/></linearGradient><linearGradient id="eXlGy8SbPUf114-stroke" x1="156.504" y1="65.9788" x2="153.153" y2="99.9554" spreadMethod="pad" gradientUnits="userSpaceOnUse" gradientTransform="translate(0 0)"><stop id="eXlGy8SbPUf114-stroke-0" offset="0%" stop-color="#3b75ff"/><stop id="eXlGy8SbPUf114-stroke-1" offset="100%" stop-color="#2649d4"/></linearGradient><linearGradient id="eXlGy8SbPUf115-fill" x1="0" y1="-12.5909" x2="0" y2="12.5909" spreadMethod="pad" gradientUnits="userSpaceOnUse" gradientTransform="translate(0 0)"><stop id="eXlGy8SbPUf115-fill-0" offset="0%" stop-color="#3b75ff"/><stop id="eXlGy8SbPUf115-fill-1" offset="100%" stop-color="#2649d4"/></linearGradient></defs><g id="eXlGy8SbPUf2_ts" transform="translate(199.999999,709.910441) scale(1.976056,0.65325)"><path id="eXlGy8SbPUf2" d="M220.83255,479.85595v207.56731c.21456,15.00159.057679,22.50239,4.95433,22.50239c6.1629,0,6.03823,0-10.97104,0-1.39124,0-2.71856,0-3.98195,0-17.00927,0-15.339611,0-9.176701,0c3.159992,0,3.159992-12.568073,3.159991-22.50239v-207.56731h16.01537Z" transform="translate(-212.824859,-709.925649)" opacity="0" fill="#fff" stroke-width="1.44"/></g><g id="eXlGy8SbPUf3_ts" transform="translate(199.999989,709.925658) scale(-0.216324,0.388546)"><rect id="eXlGy8SbPUf3" width="8.80066" height="141.0496" rx="0" ry="0" transform="translate(-4.400291,-141.0496)" fill="#fff" stroke-width="0"/></g><g id="eXlGy8SbPUf4_to" transform="translate(203.444239,708.324648)"><g id="eXlGy8SbPUf4_ts" transform="scale(1,1)"><g transform="translate(-106.819533,-708.324646)"><path d="M24.1986,162.775c0,0-28.85106,16.394-20.52887,51.404c0,0,2.77326,14.17,12.20667,1.667c9.431-12.502,16.9222-15.282,23.0243-15.837L24.1986,162.775Z" transform="translate(8.627187 466.357648)" fill="#255fec" stroke="#1750da" stroke-width="3" stroke-linecap="round" stroke-linejoin="round" stroke-miterlimit="10"/><path d="M147.695,229.96l-3.279-14.323h-95.5649l-3.6569,14.234c-.3138,1.751.0455,2.353.1796,2.552c4.0689,6.021,22.6148,11.145,51.0419,11.145c28.4273,0,47.7133-6.33,51.2283-11.238.125-.173.247-1.451.051-2.372v.002Z" transform="translate(8.627188 466.357648)" fill="#255fec" stroke="#1750da" stroke-width="3" stroke-linecap="round" stroke-linejoin="round" stroke-miterlimit="10"/><path d="M71.8204,218.996L68.676,241.967l-10.1711-2.409-9.3089-3.766l5.4244-19.265c0,0,7.4888.247,17.2,2.471v-.002Z" transform="translate(8.627188 466.357648)" opacity="0.5" fill="#fff"/><path d="M147.695,229.96l-3.279-14.323h-95.5649l-3.6569,14.234c-.3138,1.751.0455,2.353.1796,2.552c4.0689,6.021,22.6148,11.145,51.0419,11.145c28.4273,0,47.7133-6.33,51.2283-11.238.125-.173.247-1.451.051-2.372v.002Z" transform="translate(8.627188 466.357648)" fill="none" stroke="#1750da" stroke-width="2" stroke-linecap="round" stroke-linejoin="round" stroke-miterlimit="10"/><path d="M173.313,155.374c-.927-5.772-43.328,3.123-65.181,8.096-6.455,1.468-13.1291,1.47-19.5833.007-21.8006-4.944-64.015-13.741-64.9418-7.971-.9628,5.997,2.5194,22.088,4.1718,29.171.7281,3.126,1.7411,6.168,3.0367,9.08c2.6583,5.982,7.7283,15.203,15.2721,19.953c3.3026,2.08,5.6017,3.622,11.7661,5.244c22.222,5.848,52.8264,6.752,75.2684,1.935c8.957-1.921,13.181-4.483,17.461-7.179c5.032-3.167,8.962-8.324,11.812-13.181c3.156-5.381,5.45-11.272,6.899-17.416c1.816-7.693,4.917-22.145,4.019-27.742v.003Z" transform="translate(8.627188 466.357648)" fill="#d50400"/><path d="M173.049,155.129c-.926-5.772-43.328,3.123-65.181,8.095-6.454,1.469-13.1286,1.471-19.5827.008-21.8006-4.944-64.0151-13.741-64.9419-7.972-.9627,5.997,2.5194,22.089,4.1719,29.172.728,3.126,1.7411,6.167,3.0367,9.08c2.6583,5.982,7.7283,15.203,15.2721,19.953c3.3026,2.08,5.6016,3.622,11.766,5.244c22.2221,5.848,52.8259,6.752,75.2689,1.935c8.957-1.921,13.181-4.483,17.461-7.179c5.031-3.167,8.961-8.324,11.811-13.182c3.157-5.38,5.451-11.272,6.9-17.415c1.815-7.693,4.917-22.145,4.018-27.742v.003Z" transform="translate(8.627188 466.357648)" fill="none" stroke="#ab0300" stroke-width="2" stroke-linecap="round" stroke-linejoin="round" stroke-miterlimit="10"/><path d="M182.107,145.032c-1.028-6.076-48.118,3.287-72.388,8.521-7.168,1.545-14.5797,1.549-21.7499.007-24.2098-5.203-71.0943-14.465-72.1217-8.391-1.0681,6.311,2.7997,23.251,4.6341,30.707.8095,3.289,1.9327,6.491,3.372,9.557c2.9529,6.297,8.5832,16.002,16.9629,21.004c3.6666,2.187,6.2195,3.811,13.0664,5.519c24.6792,6.155,58.6672,7.108,83.5912,2.037c9.945-2.022,14.637-4.721,19.391-7.556c5.587-3.335,9.953-8.761,13.117-13.875c3.503-5.664,6.054-11.867,7.663-18.332c2.017-8.098,5.458-23.311,4.462-29.2v.002Z" transform="translate(8.627188 466.357648)" fill="#d50400"/><path d="M32.0581,154.903c.7113,17.343,8.691,43.531,14.7955,54.09c4.0593,2.586,24.4804,6.58,24.2266,5.928-3.5253-9.099-5.4699-27.67-6.2003-54.966.0311,0-32.5129-5.141-32.8194-5.052h-.0024Z" transform="translate(8.627188 466.357648)" opacity="0.5" fill="#fff"/><path d="M181.814,144.775c-1.027-6.076-48.117,3.286-72.387,8.52-7.168,1.545-14.5801,1.55-21.7504.008-24.2098-5.203-71.0942-14.465-72.1216-8.391-1.0681,6.311,2.7996,23.251,4.634,30.707.8095,3.288,1.9327,6.491,3.372,9.556c2.9529,6.297,8.5833,16.003,16.9629,21.004c3.6666,2.188,6.2195,3.812,13.0665,5.52c24.6791,6.155,58.6676,7.107,83.5906,2.036c9.946-2.022,14.638-4.72,19.391-7.556c5.588-3.334,9.953-8.76,13.117-13.874c3.504-5.664,6.054-11.867,7.664-18.332c2.016-8.098,5.458-23.311,4.461-29.2v.002Z" transform="translate(8.627188 466.357648)" fill="none" stroke="#ab0300" stroke-width="2" stroke-linecap="round" stroke-linejoin="round" stroke-miterlimit="10"/><path d="M161.329,148.975c0,0-5.47,41.919-20.634,63.777" transform="translate(8.627188 466.357648)" fill="none" stroke="#ab0300" stroke-width="2" stroke-linecap="round" stroke-linejoin="round" stroke-miterlimit="10"/><path d="M170.166,166.708c5.144,3.644,14.187,12.746,16.685,30.893c0,0,3.245,17.343-7.089,27.694-2.714,2.718-4.776,1.238-6.165.617-2.241-.998-.438-5.925-3.697-14.326c0,0-7.736-12.318-16.058-14.263l6.912474-27.919474.175434-1.658526c1.003-1.314,5.787092-2.121,7.409092-1.814.646.122,1.271.381,1.832.777h-.005Z" transform="translate(19.322293 466.357648)" fill="#255fec" stroke="#1750da" stroke-width="3" stroke-linecap="round" stroke-linejoin="round" stroke-miterlimit="10"/><path d="M162.562,167.745c3.966,2.715,15.564,13.121,19.085,31.349.366,1.898.527,3.826.493,5.757-.107,6.156-1.068,20.349-7.635,21.134c0,0-2.086.772-7.378-8.353-.685-1.18-1.449-2.31-2.299-3.375-2.69-3.365-8.612-10.084-14.487-12.135-.661-.231-.996-.965-.757-1.622l11.079-32.141c.283-.778,1.219-1.082,1.899-.614Z" transform="translate(19.322293 466.357648)" fill="#255fec" stroke="#1750da" stroke-width="3" stroke-linecap="round" stroke-linejoin="round" stroke-miterlimit="10"/><path d="M159.334,191.107c-.712,4.159-4.256,8.206-8.27,8.115-4.715-1.482-6.907-4.733-6.196-8.892.712-4.16,5.178-7.827,9.154-7.271c7.582,2.965,6.02,3.888,5.309,8.046l.003.002Z" transform="translate(8.627188 466.357648)" fill="#3b75ff" stroke="#1750da" stroke-width="2" stroke-linecap="round" stroke-linejoin="round" stroke-miterlimit="10"/><path d="M162.552,192.917c-.711,4.159-4.5,7.705-8.513,7.614-4.014-.092-6.584-3.668-5.873-7.828.712-4.159,4.395-7.575,8.409-7.484s6.689,3.536,5.977,7.695v.003Z" transform="translate(8.627189 466.357648)" fill="#3b75ff" stroke="#1750da" stroke-width="2" stroke-linecap="round" stroke-linejoin="round" stroke-miterlimit="10"/><path d="M101.052,119.741c-.481,0-.97-.099-1.4392-.303-21.2234-9.312-24.8995-14.268-25.8192-17.185-.2586-.825-.5604-1.657-.4286-2.4223v-7.3331c0-1.9862,1.8488-3.5982,3.8317-3.5982s3.5924,1.612,3.5924,3.5982v7.7864c.7567,1.036,4.5598,5.038,21.7069,12.56c1.818.797,2.644,2.919,1.849,4.74-.591,1.351-1.909,2.157-3.293,2.157Z" transform="translate(8.627188 466.357648)" fill="#c6c6c6" stroke="#1750da" stroke-width="2" stroke-linecap="round" stroke-linejoin="round"/><path d="M57.5017,74.1587v17.2281h.0934c0,3.2216,8.1522,5.8339,19.0488,5.8339s19.1399-2.6123,19.1399-5.8339v-17.2281h-38.2821Z" transform="translate(8.627188 466.357648)" fill="#c6c6c6" stroke="#1750da" stroke-width="2" stroke-linecap="round" stroke-linejoin="round"/><path d="M61.5297,117.255v-7.904h-30.0126v7.904.122l13.3347,2.783c1.1255.235,2.2871.235,3.415,0l13.2629-2.783v-.122Z" transform="translate(8.627188 466.357648)" fill="#c6c6c6" stroke="#1750da" stroke-width="2" stroke-linecap="round" stroke-linejoin="round"/><path d="M44.8518,111.824l-13.3347-2.782l15.0422-3.143l14.9704,3.143-13.2629,2.782c-1.1256.236-2.2871.236-3.415,0Z" transform="translate(8.627188 466.357648)" fill="#c6c6c6" stroke="#1750da" stroke-width="2" stroke-linecap="round" stroke-linejoin="round"/><path d="M46.5902,108.629c-1.322,0-2.3949-1.075-2.3949-2.399v-8.5058c0-3.2696,2.2201-6.0762,5.3957-6.827l13.0041-3.0536c1.2885-.3023,2.5769.4989,2.8787,1.7871.3017,1.2905-.4982,2.5811-1.7842,2.8833L50.6878,95.5653c-1.001.2351-1.7027,1.1226-1.7027,2.1565v8.5062c0,1.324-1.0729,2.399-2.3949,2.399v.002Z" transform="translate(8.627188 466.357648)" fill="#c6c6c6" stroke="#1750da" stroke-width="2" stroke-linecap="round" stroke-linejoin="round"/><path d="M182.056,145.41c0,8.211-37.197,14.865-83.0828,14.865s-83.4661-6.886-83.4661-15.097c0-8.212,37.5827-14.636,83.4661-14.636c45.8838,0,83.0828,6.657,83.0828,14.866v.002Z" transform="translate(8.627188 466.357648)" fill="#d50400" stroke="#ab0300" stroke-width="2" stroke-linecap="round" stroke-linejoin="round" stroke-miterlimit="10"/><path d="M98.9733,155.293c41.7917,0,75.6707-4.408,75.6707-9.847c0-5.438-33.879-9.847-75.6707-9.847-41.7918,0-75.6708,4.409-75.6708,9.847c0,5.439,33.879,9.847,75.6708,9.847Z" transform="translate(8.627189 466.357648)" fill="#d50400" stroke="#ab0300" stroke-width="2" stroke-linecap="round" stroke-linejoin="round" stroke-miterlimit="10"/><path d="M161.08,114.38c-.335,0-.663.021-.989.057.61-1.029.963-2.231.963-3.516c0-3.433-2.505-6.278-5.784-6.803.009-.161.014-.322.014-.485c0-4.9774-4.198-8.9714-9.242-8.6236-4.255.2951-7.704,3.7469-7.996,8.0096-.347,5.052,3.64,9.257,8.61,9.257.258,0,.514-.014.768-.036.616,3.174,3.403,5.568,6.751,5.568.008,0,.015,0,.02,0-1.186,1.568-1.849,3.552-1.734,5.697.234,4.315,3.702,7.841,8.008,8.139c5.041.348,9.24-3.646,9.24-8.624c0-4.977-3.863-8.645-8.632-8.645l.003.005Z" transform="translate(8.627188 466.357648)" fill="#feeec1" stroke="#ab703d" stroke-width="2" stroke-linecap="round" stroke-linejoin="round"/><path d="M138.317,86.915c.009-.1583.017-.3166.017-.4774c0-4.2458-3.437-7.6881-7.676-7.6881-3.504,0-6.457,2.3532-7.376,5.5676-.129-.0072-.259-.0096-.391-.0096-4.418,0-7.965,3.7397-7.656,8.2327.264,3.8069,3.353,6.8821,7.154,7.1244c3.8.2423,6.777-2.0798,7.812-5.3301-.003.0839-.008.1679-.008.2518c0,4.4258,3.734,7.9787,8.22,7.6687c3.752-.259,6.804-3.2813,7.105-7.0354.35-4.3778-2.967-8.0623-7.204-8.307l.003.0024Z" transform="translate(8.627189 466.357648)" fill="#feeec1" stroke="#ab703d" stroke-width="2" stroke-linecap="round" stroke-linejoin="round"/><path d="M121.478,99.0988c-.304-4.0227-3.52-7.2971-7.534-7.6545-4.193-.3742-7.814,2.37-8.813,6.1769-1.21-.4558-2.551-.6381-3.954-.4678-3.9325.475-7.0171,3.7546-7.2757,7.7126-.3185,4.857,3.5229,8.897,8.3027,8.897.853,0,1.677-.13,2.453-.367c1.564,2.338,4.277,3.84,7.33,3.691c4.206-.204,7.642-3.603,7.896-7.812.082-1.356-.163-2.646-.658-3.803c1.547-1.638,2.438-3.9,2.253-6.3708v-.0024Z" transform="translate(8.627188 466.357648)" fill="#feeec1" stroke="#ab703d" stroke-width="2" stroke-linecap="round" stroke-linejoin="round"/><path d="M145.36,106.6c-.146,0-.292.004-.436.012-.093-4.592-3.834-8.2858-8.442-8.2858-1.434,0-2.782.3598-3.965.9907-1.794-3.4639-5.904-5.5292-10.277-4.1283-2.447.7844-4.397,2.7106-5.199,5.1554-1.933,5.881,2.388,11.319,7.977,11.319c1.435,0,2.783-.359,3.966-.99c1.406,2.715,4.237,4.572,7.501,4.572.146,0,.292-.005.436-.012.095,4.69,3.997,8.444,8.739,8.281c4.284-.147,7.831-3.57,8.128-7.854.342-4.944-3.561-9.06-8.425-9.06h-.003Z" transform="translate(8.627189 466.357648)" fill="#feeec1" stroke="#ab703d" stroke-width="2" stroke-linecap="round" stroke-linejoin="round"/><path d="M149.797,138.089c5.209,0,9.431-4.23,9.431-9.447s-4.222-9.446-9.431-9.446c-5.208,0-9.431,4.229-9.431,9.446s4.223,9.447,9.431,9.447Z" transform="translate(8.627188 466.357648)" fill="#feeec1" stroke="#ab703d" stroke-width="2" stroke-linecap="round" stroke-linejoin="round"/><path d="M74.0984,128.242c5.8223,0,10.5422-4.728,10.5422-10.559c0-5.832-4.7199-10.56-10.5422-10.56s-10.5422,4.728-10.5422,10.56c0,5.831,4.7199,10.559,10.5422,10.559Z" transform="translate(8.627188 466.357648)" fill="#feeec1" stroke="#ab703d" stroke-width="2" stroke-linecap="round" stroke-linejoin="round"/><path d="M130.998,106.844c0,0,3.329-1.729,1.602-7.532l-1.602,7.532Z" transform="translate(8.627189 466.357648)" fill="#feeec1"/><path d="M130.998,106.844c0,0,3.329-1.729,1.602-7.532" transform="translate(8.627189 466.357648)" fill="none" stroke="#ab703d" stroke-width="2" stroke-linecap="round" stroke-linejoin="round"/><path d="M136.733,117.101c.039-.345.058-.698.058-1.055c0-5.582-4.708-10.061-10.365-9.67-4.773.329-8.638,4.203-8.969,8.984-.39,5.666,4.083,10.382,9.654,10.382.165,0,.33-.005.493-.012.479,4.138,4.177,7.292,8.521,6.884c3.784-.355,6.802-3.473,7.051-7.27.268-4.095-2.608-7.566-6.445-8.24l.002-.003Z" transform="translate(8.627188 466.357648)" fill="#feeec1" stroke="#ab703d" stroke-width="2" stroke-linecap="round" stroke-linejoin="round"/><path d="M72.4695,119.929c-1.9638-.151-3.7935.391-5.2759,1.406c0-.046.0024-.089.0024-.134c0-3.507-2.9457-6.324-6.4949-6.103-3.0415.19-5.5154,2.668-5.7046,5.714-.2203,3.555,2.5936,6.506,6.0926,6.506.9483,0,1.8488-.216,2.6487-.605-.0791.456-.1222.926-.1222,1.403c0,4.536,3.6714,8.214,8.2001,8.214s8.509-3.997,8.1785-8.794c-.2778-4.023-3.5109-7.293-7.5271-7.604l.0024-.003Z" transform="translate(8.627188 466.357648)" fill="#feeec1" stroke="#ab703d" stroke-width="2" stroke-linecap="round" stroke-linejoin="round"/><path d="M55.6407,119.911c-1.7722-.124-3.384.569-4.5048,1.737-1.1352-.712-2.4787-1.125-3.918-1.125-2.4955,0-4.7011,1.24-6.0423,3.135-1.3483-2.175-3.7887-3.598-6.5547-3.502-3.7456.132-6.8446,3.119-7.1128,6.863-.0982,1.37.1796,2.667.7352,3.802-2.3158.792-3.9587,3.039-3.839,5.652.1318,2.871,2.4476,5.231,5.3119,5.409c3.3025.206,6.0422-2.416,6.0422-5.678c0-.437-.0503-.861-.1437-1.271c2.1937-.214,4.1049-1.392,5.3143-3.1c1.3052,2.104,3.633,3.507,6.2865,3.507c2.9481,0,5.4915-1.727,6.6817-4.226.4287.103.8741.158,1.334.158c3.257,0,5.8746-2.747,5.6686-6.054-.1748-2.817-2.4499-5.115-5.2615-5.311l.0024.004Z" transform="translate(8.627188 466.357648)" fill="#feeec1" stroke="#ab703d" stroke-width="2" stroke-linecap="round" stroke-linejoin="round"/><path d="M40.9315,145.962c4.4256,0,8.0132-3.594,8.0132-8.026c0-4.433-3.5876-8.027-8.0132-8.027s-8.0133,3.594-8.0133,8.027c0,4.432,3.5877,8.026,8.0133,8.026Z" transform="translate(8.627187 466.357648)" fill="#feeec1" stroke="#ab703d" stroke-width="2" stroke-linecap="round" stroke-linejoin="round"/><path d="M62.7178,124.866c-4.0234-.292-7.4552,2.488-8.1976,6.24-.8933-.271-1.8561-.387-2.8523-.307-3.8294.295-6.9093,3.425-7.144,7.266-.2778,4.519,3.3002,8.271,7.7523,8.271c3.7695,0,6.9116-2.692,7.6181-6.259.7112.216,1.4632.331,2.2463.331c4.4713,0,8.0612-3.785,7.7475-8.333-.2635-3.826-3.3505-6.93-7.1703-7.206v-.003Z" transform="translate(8.627187 466.357648)" fill="#feeec1" stroke="#ab703d" stroke-width="2" stroke-linecap="round" stroke-linejoin="round"/><path d="M70.0293,142.874c0,0-2.9601-2.499-1.9423-7.131l1.9423,7.131Z" transform="translate(8.627188 466.357648)" fill="#feeec1"/><path d="M70.0293,142.874c0,0-2.9601-2.499-1.9423-7.131" transform="translate(8.627188 466.357648)" fill="none" stroke="#ab703d" stroke-width="2" stroke-linecap="round" stroke-linejoin="round"/><path d="M100.243,107.979c-1.3338-.099-2.6054.122-3.7502.587-1.0202-3.233-4.1312-5.539-7.7474-5.32-3.7432.225-6.8086,3.217-7.1272,6.959-.1173,1.389.1365,2.705.673,3.866-4.4209.075-7.9438,3.846-7.6157,8.363.2802,3.821,3.3744,6.908,7.1918,7.174c4.5407.317,8.3222-3.279,8.3222-7.76c0-1.194-.2706-2.326-.752-3.339.7209-.021,1.4154-.139,2.074-.345.8477,3.701,4.1551,6.465,8.109,6.465c4.6675,0,8.4375-3.85,8.3195-8.552-.107-4.248-3.465-7.787-7.697-8.098Z" transform="translate(8.627188 466.357648)" fill="#feeec1" stroke="#ab703d" stroke-width="2" stroke-linecap="round" stroke-linejoin="round"/><path d="M93.794,137.964c5.9744,0,10.818-4.851,10.818-10.835s-4.8436-10.836-10.818-10.836-10.8177,4.852-10.8177,10.836s4.8432,10.835,10.8177,10.835Z" transform="translate(8.627188 466.357648)" fill="#feeec1" stroke="#ab703d" stroke-width="2" stroke-linecap="round" stroke-linejoin="round"/><path d="M121.986,124.31c.009-.175.017-.35.017-.53c0-4.712-3.813-8.53-8.517-8.53-3.887,0-7.165,2.609-8.185,6.176-.144-.007-.288-.012-.434-.012-4.9021,0-8.8369,4.15-8.4944,9.135.2922,4.224,3.7194,7.638,7.9394,7.906c4.037.257,7.517-2.307,8.669-5.915-.002.094-.007.187-.007.281c0,4.91,4.143,8.851,9.12,8.508c4.162-.288,7.551-3.641,7.881-7.805.388-4.858-3.29-8.946-7.992-9.217l.003.003Z" transform="translate(8.627188 466.357648)" fill="#feeec1" stroke="#ab703d" stroke-width="2" stroke-linecap="round" stroke-linejoin="round"/><path d="M124.862,140.466c5.516,0,9.987-4.479,9.987-10.003c0-5.525-4.471-10.003-9.987-10.003-5.515,0-9.986,4.478-9.986,10.003c0,5.524,4.471,10.003,9.986,10.003Z" transform="translate(8.627188 466.357648)" fill="#feeec1" stroke="#ab703d" stroke-width="2" stroke-linecap="round" stroke-linejoin="round"/><path d="M139.751,132.917c-1.188,0-2.328.201-3.389.568-.471-3.843-3.74-6.819-7.706-6.819-4.289,0-7.767,3.483-7.767,7.779s3.478,7.779,7.767,7.779c.256,0,.507-.012.757-.038-.041.376-.065.76-.065,1.149c0,5.754,4.658,10.42,10.403,10.42c5.746,0,10.404-4.666,10.404-10.42c0-5.755-4.658-10.421-10.404-10.421v.003Z" transform="translate(8.627189 466.357648)" fill="#feeec1" stroke="#ab703d" stroke-width="2" stroke-linecap="round" stroke-linejoin="round"/><path d="M169.223,128.033c-1.334-.099-2.606.122-3.751.587-1.02-3.233-4.131-5.538-7.747-5.32-3.743.225-6.809,3.217-7.127,6.959-.118,1.389.136,2.706.673,3.867-4.421.074-7.944,3.845-7.616,8.362.28,3.821,3.374,6.908,7.192,7.175c4.54.316,8.322-3.279,8.322-7.76c0-1.195-.271-2.327-.752-3.34.721-.021,1.415-.139,2.074-.345.848,3.701,4.155,6.465,8.109,6.465c4.668,0,8.437-3.85,8.32-8.552-.108-4.248-3.466-7.786-7.697-8.098Z" transform="translate(8.627189 466.357648)" fill="#feeec1" stroke="#ab703d" stroke-width="2" stroke-linecap="round" stroke-linejoin="round"/><path d="M29.7475,77.2854c0,0-17.4323,19.9028-9.7088,66.3146.3688,2.224,2.0333,13.153,81.9263,13.337c0,0,76.008.557,76.564-14.263c0,0,4.809-37.047-8.138-64.8345c0,0-50.395-14.635-140.6435-.5565v.0024Z" transform="translate(8.627188 466.357648)" opacity="0.5" fill="#96e3ed"/><g transform="translate(8.627188 466.357648)" mask="url(#eXlGy8SbPUf51)"><g><path d="M29.3757,77.2849c0,0-17.4323,19.9028-9.7088,66.3151.3688,2.223,2.0332,13.152,81.9261,13.337c0,0,76.009.556,76.564-14.263c0,0,4.809-37.047-8.138-64.835c0,0-50.395-14.635-140.6433-.5565v.0024Z" opacity="0.5" fill="#fff"/></g><mask id="eXlGy8SbPUf51" mask-type="luminance" x="-150%" y="-150%" height="400%" width="400%"><path d="M71.2004,21.4375c0,0-66.23507,95.3975-25.4575,186.5345c0,0-3.1445,6.391,24.9665,7.501c0,0-21.6377-89.47,18.031-193.6685l-17.54-.3694v.0024Z" transform="translate(.000001 0)" fill="#fff"/></mask></g><path d="M178.898,143.398c0,0,4.809-37.047-8.138-64.835" transform="translate(8.627188 466.357648)" fill="none" stroke="#96e3ed" stroke-width="3" stroke-linecap="round" stroke-linejoin="round" stroke-miterlimit="10"/><path d="M30.1164,78.0063c0,0-17.4323,19.9028-9.7088,66.3147" transform="translate(8.627188 466.357648)" fill="none" stroke="#96e3ed" stroke-width="3" stroke-linecap="round" stroke-linejoin="round" stroke-miterlimit="10"/><path d="M174.005,75.6103c-3.039-10.0581-18.203-45.0229-69.873-66.92152-1.353-.57331-2.797-.85157-4.2436-.83238-1.4465-.0168-2.893.25907-4.2437.83238C43.9753,30.5874,28.8109,65.5522,25.7719,75.6103c-.6419,2.1254.4741,4.5074,2.608,5.1071c28.7385,8.0551,113.0691,9.3529,143.0171,0c2.117-.6621,3.252-2.9793,2.608-5.1071Z" transform="translate(8.627188 466.357648)" fill="#d50400"/><path d="M71.8446,24.8491c0,0-20.3996,23.0572-28.8463,59.7539c1.8656.8204,28.1254,1.8399,28.3242,1.8711c1.6668-19.6485,8.6383-38.1744,15.8445-61.2532l-15.3224-.3694v-.0024Z" transform="translate(8.627188 466.357648)" opacity="0.5" fill="#fff"/><path d="M174.163,75.6103C171.124,65.5522,155.96,30.5874,104.29,8.68878c-1.353-.57331-2.797-.85157-4.243-.83238-1.4469-.0168-2.8934.25907-4.2442.83238C44.1334,30.5874,28.9667,65.5522,25.9276,75.6103c-.6418,2.1254.4742,4.5074,2.608,5.1071c28.7385,8.0551,113.0694,9.3529,143.0174,0c2.117-.6621,3.252-2.9793,2.608-5.1071h.002Z" transform="translate(8.627188 466.357648)" fill="none" stroke="#ab0300" stroke-width="3" stroke-linecap="round" stroke-linejoin="round" stroke-miterlimit="10"/><path d="M99.4149,2.00144c-1.862-.02605-3.7239.40198-5.4626,1.29155C78.3752,11.2508,65.3814,20.3214,54.5579,29.7457c-1.0851.9454-.6165,3.0111.7152,3.1637c28.5062,3.2568,53.7969,4.3623,88.7149.3945c1.338-.1526,1.807-2.2258.722-3.1786-10.91-9.562-24.046-18.7666-39.829-26.83231-1.742-.88957-3.601-1.32133-5.463-1.29155h-.0031Z" transform="translate(8.627188 466.357648)" fill="#255fec"/><path d="M99.8558,2.41113c0,0-13.0806,3.69431-36.5182,32.19207l20.8055,2.3002c0,0,0-12.6475,15.7127-34.49227Z" transform="translate(8.627189 466.357648)" opacity="0.5" fill="#fff"/><path d="M99.6801,2.40623c-1.862-.02606-3.724.40198-5.4627,1.29155C78.6403,11.6555,65.6466,20.7262,54.8231,30.1504c-1.0852.9454-.6166,3.0112.7152,3.1638c28.5061,3.2568,53.7967,4.3622,88.7147.3945c1.338-.1526,1.807-2.2258.722-3.1786-10.91-9.562-24.046-18.7666-39.829-26.83232-1.742-.88957-3.601-1.32133-5.4628-1.29155h-.0031Z" transform="translate(8.627189 466.357648)" fill="none" stroke="#1750da" stroke-width="3" stroke-linecap="round" stroke-linejoin="round" stroke-miterlimit="10"/><g id="eXlGy8SbPUf61_tr" transform="translate(115.216966,582.181935) rotate(0)"><g transform="translate(-115.216954,-582.181933)"><path d="M140.414,138.86c0,0-2.426,5.527.529,9.571c2.081,2.852,1.721,6.03,1.721,6.03s.134,3.281,3.438,2.624c3.309-.658,4.167-7.08,2.481-11.013c0,0,10.76,6.215,17.856,5.338.976-.122,1.916-.519,2.569-1.247.729-.81,1.726-1.732-.547-3.698c0,0,1.23.336,2.381,0c1.701-.489,2.477-2.41,1.783-4.024-.313-.729-.879-1.426-1.891-1.584c0,0,3.525-1.029,2.086-3.744-.529-1.003-1.474-1.732-2.553-2.093-1.269-.428-3.51-1.167-7.631-2.985-16.591-7.309-16.534-3.8-16.534-3.8l-5.688,10.62v.005Z" transform="translate(8.627189 466.357648)" fill="#ebabab" stroke="#121512" stroke-width="2" stroke-linecap="round" stroke-linejoin="round"/><path d="M157.606,142.533c0,0,8.262,3.586,10.914,3.932l-10.914-3.932Z" transform="translate(8.627188 466.357648)" fill="#e6ab9d"/><path d="M157.606,142.533c0,0,8.262,3.586,10.914,3.932" transform="translate(8.627188 466.357648)" fill="none" stroke="#121512" stroke-width="2" stroke-linecap="round" stroke-linejoin="round"/><path d="M160.684,137.317c.396.199,5.323,2.883,9.984,3.571l-9.984-3.571Z" transform="translate(8.627189 466.357648)" fill="#e6ab9d"/><path d="M160.684,137.317c.396.199,5.323,2.883,9.984,3.571" transform="translate(8.627189 466.357648)" fill="none" stroke="#121512" stroke-width="2" stroke-linecap="round" stroke-linejoin="round"/><path d="M102.257,126.799c0,0,15.477,1.966,35.315,17.501c0,0,9.922-4.915,15.076-16.518c0,0-22.418-20.058-49.399-20.848-26.9808-.784-11.7049,18.683-.992,19.865Z" transform="translate(8.627188 466.357648)"/></g></g><path d="M74.2851,105.312c0,0-9.512,10.664-14.2851,40.279c0,0,15.7388,4.106,65.35,1.711-1.77-8.308-3.117-16.185-3.644-24.091-1.984-29.6951-47.4158-17.899-47.4158-17.899h-.0051Z" transform="translate(8.627188 466.357648)"/><path d="M119.302,132.91c-1.09,0-2.136.18-3.116.509-1.87-3.238-5.364-5.419-9.368-5.419C100.842,128,96,132.853,96,138.835c0,5.983,4.845,10.836,10.818,10.836c1.664,0,3.24-.377,4.648-1.051c1.789,2.38,4.632,3.92,7.836,3.92c5.413,0,9.8-4.395,9.8-9.816s-4.387-9.816-9.8-9.816v.002Z" transform="translate(8.627188 466.357648)" fill="#cae9d7" stroke="#a1a995" stroke-width="2" stroke-linecap="round" stroke-linejoin="round"/><g id="eXlGy8SbPUf70_tr" transform="translate(99.147017,578.358647) rotate(6.989693)"><g id="eXlGy8SbPUf70_ts" transform="scale(1,1)"><g transform="translate(-99.147001,-578.358643)"><path d="M42.0449,55.176l2.6454.9734l3.9753-10.7325-2.6453-.9735L42.0449,55.176Z" transform="translate(8.627188 466.357648)" fill="#1750da" stroke="#002281" stroke-width="2"/><path d="M47.878,52.8572c-3.2519-.3614-6.4804,1.304-9.0601,4.5545-2.5738,3.243-4.4129,7.9728-4.8418,13.426-.4288,5.4534.641,10.5072,2.6647,14.2613c2.0283,3.7627,4.9412,6.1106,8.1931,6.4721s6.4803-1.304,9.0601-4.5545c2.5739-3.2431,4.413-7.9735,4.8418-13.427.4287-5.4533-.6411-10.5063-2.6648-14.2603-2.0283-3.7627-4.9411-6.1107-8.193-6.4721Z" transform="translate(8.627188 466.357648)" fill="#173cb3" stroke="#002281" stroke-width="2"/><path d="M78.6438,29.2198c0,0-29.637,3.8426-34.5559,32.9922s20.9664,47.271,26.6959,48.615c9.2891.974,16.953,8.423,42.4342,1.629c0,0,28.759-6.588,40.443-22.7344c0,0-2.571-68.6678-75.0172-60.5018Z" transform="translate(8.627188 466.357648)"/><path d="M94.8243,50.0193c0,0-30.2247-4.8535-37.7385,19.4999C49.5719,93.8725,73.1739,103.76,73.1739,103.76s17.3844,7.777,39.7761,2.149c22.39-5.618,19.673-29.3707,19.673-29.3707s-1.491-23.6141-37.7977-26.5283l-.001.0093Z" transform="translate(8.627188 466.357648)" fill="#ebabab"/><path d="M89.064,108.53c-9.6553-1.012-15.8669-3.724-16.2915-3.919-.2273-.089-24.277-10.4937-16.6048-35.3666c7.5404-24.4258,37.4485-20.3486,38.7538-20.1553c10.5535.8435,24.8325,4.0904,33.1435,14.7064c5.029,6.4248,5.462,12.4334,5.482,12.6895.027.2003,2.545,24.581-20.38,30.331-9.158,2.303-17.4539,2.411-24.103,1.714Zm4.5319-57.7176c-2.3599-.2475-8.2841-.6336-14.6778.7557-10.8887,2.3663-17.9287,8.4941-20.934,18.2336-7.1838,23.2781,15.318,33.0023,15.5537,33.1023.1898.086,17.3861,7.58,39.1742,2.105c21.322-5.3538,19.082-27.4193,18.971-28.3527-.068-.976-1.927-22.8886-36.9287-25.6942-.0187-.0019-.0468-.0049-.0749-.0078-.0188-.002-.4008-.0609-1.0751-.1316l-.0084-.0103Z" transform="translate(8.627189 466.357648)"/><g transform="translate(8.627188 466.357648)" mask="url(#eXlGy8SbPUf80)"><g><path d="M75.1806,93.8688c3.5225-3.3311,3.1113-9.4415-.9184-13.6481s-10.152-4.9163-13.6745-1.5852-3.1113,9.4416.9185,13.6482c4.0297,4.2065,10.1519,4.9162,13.6744,1.5851Z" opacity="0.25" fill="url(#eXlGy8SbPUf78-fill)"/><path d="M122.738,99.4455c5.133-2.767,7.411-8.4534,5.087-12.7008s-8.37-5.4476-13.504-2.6806c-5.133,2.767-7.411,8.4534-5.087,12.7008c2.324,4.2471,8.37,5.4481,13.504,2.6806Z" opacity="0.25" fill="url(#eXlGy8SbPUf79-fill)"/></g><mask id="eXlGy8SbPUf80" mask-type="luminance" x="-150%" y="-150%" height="400%" width="400%"><path d="M94.9752,51.7472c0,0-29.4262-4.7039-36.7231,18.7504-7.2884,23.4647,15.6955,33.0144,15.6955,33.0144s16.9301,7.503,38.7194,2.113c21.789-5.389,19.124-28.2802,19.124-28.2802s-1.477-22.7567-36.8158-25.5976Z" transform="translate(.000001 0.000001)" fill="#fff"/></mask></g><g id="eXlGy8SbPUf82_to" transform="translate(85.821623,524.678758)"><g id="eXlGy8SbPUf82_tr" transform="rotate(0)"><path d="M71.0147,60.0697c-.309-.0324-.5932-.2127-.7419-.5105-.2363-.4574-.0543-1.0215.415-1.2545.2694-.1316,6.6471-3.272,12.9382-.7781.4818.1916.7186.7337.5267,1.2121s-.7372.7128-1.219.5212c-5.4912-2.1749-11.3376.6826-11.3977.714-.1699.0856-.3433.1144-.5213.0958Z" transform="translate(-77.194435,-58.32111)"/></g></g><g id="eXlGy8SbPUf83_to" transform="translate(120.793005,527.699586)"><g id="eXlGy8SbPUf83_tr" transform="rotate(0)"><path d="M118.058,63.6209c-.15-.0157-.296-.0687-.429-.1578-.053-.0338-5.491-3.6234-11.21-2.1727-.505.1257-1.014-.1722-1.151-.6756-.136-.5035.172-1.0073.678-1.1423c6.555-1.6639,12.488,2.2691,12.735,2.4361.434.29.543.8753.253,1.2963-.201.2987-.548.441-.876.4067v.0093Z" transform="translate(-112.165817,-61.341938)"/></g></g><path id="eXlGy8SbPUf84" d="M101.977,99.745c-.168-.0177-.342-.0829-.481-.2009-9.2746-7.284-18.0991-2.1992-18.4719-1.9844-.4441.2638-1.0254.1182-1.2916-.3236-.2663-.4417-.1302-1.02.3233-1.2828.1014-.0647,10.2829-5.9947,20.6082,2.1142.411.3253.482.9066.156,1.3144-.207.2604-.523.3779-.841.3445l-.002.0186Z" transform="matrix(-1 0 0-1 193.026939 654.437684)"/><ellipse id="eXlGy8SbPUf85" rx="3.676509" ry="5.994336" transform="matrix(.827251 0.237866-.206788 0.719168 99.323639 558.173087)" opacity="0" fill="#df4e4a" stroke="#000" stroke-width="2"/><g id="eXlGy8SbPUf86" opacity="0"><path d="M80.8508,85.6403l25.2102,2.644-.363,3.4796-25.5477-2.6793.7005-3.4443Z" transform="translate(8.627189 466.357648)" fill="#fff"/><path d="M105.686,91.8758L80.1386,89.1964c0,0-.0646-.0162-.0804-.046-.0159-.0299-.0317-.0598-.0184-.096l.7005-3.4443c.0058-.0558.0669-.0964.1231-.0905l25.2006,2.643c.066.0069.107.0676.101.1234l-.363,3.4796c-.007.0652-.068.1058-.124.0999l.008.0103ZM80.294,88.9776l25.295,2.6528.339-3.247L80.9421,85.763l-.6575,3.2136.0094.001Z" transform="translate(8.627188 466.357648)" fill="#fff"/><path d="M80.4651,89.3345l25.1169,2.6341c0,0-1.096,11.3134-13.9851,9.8954c0,0-12.0219-.743-11.1318-12.5295Z" transform="translate(8.627188 466.357648)" fill="#df4e4a"/><path d="M82.4878,97.1652c0,0,10.5074-6.1498,19.4942,2.2608c0,0-10.744,6.783-19.4942-2.2608Z" transform="translate(8.627188 466.357648)" fill="#f27584"/><path d="M90.7919,102.682c-3.924-.411-6.9058-1.956-8.8756-4.58-3.8389-5.1243-2.3695-12.4853-2.3084-12.7987.0964-.4696.537-.7902,1.024-.7391l25.5851,2.6832c.515.0541.893.5169.839,1.0286l-.03.2884c-.389,3.8156-1.572,15.4206-15.9251,14.1506-.103-.011-.206-.022-.309-.033ZM81.3272,86.5182c-.2425,1.9592-.5366,6.951,2.1063,10.4731c1.6873,2.2462,4.3066,3.5457,7.8336,3.8597c11.8849,1.058,13.3469-7.4981,13.8189-11.841L81.3272,86.5182Z" transform="translate(8.627189 466.357648)"/><path d="M105.253,92.7614L80.4919,90.1645c-.5151-.054-.8928-.5168-.8393-1.0286.0534-.5117.5186-.8861,1.0337-.8321l24.7607,2.5968c.515.0541.893.5169.84,1.0286-.054.5117-.519.8862-1.034.8322Z" transform="translate(8.627187 466.357648)"/><path d="M101.977,99.745c-.168-.0177-.342-.0829-.481-.2009-9.2746-7.284-18.0991-2.1992-18.4719-1.9844-.4441.2638-1.0254.1182-1.2916-.3236-.2663-.4417-.1302-1.02.3233-1.2828.1014-.0647,10.2829-5.9947,20.6082,2.1142.411.3253.482.9066.156,1.3144-.207.2604-.523.3779-.841.3445l-.002.0186Z" transform="translate(8.627188 466.357648)"/></g><path d="M99.0982,84.1588c-.4214-.0442-.7753-.3729-.8346-.8024-.0209-.1621-.5702-3.6057-4.2361-3.8585-.0655-.0069-.1321-.0044-.1967-.0206-3.7788-.6221-5.0186,2.728-5.0716,2.8729-.1742.4897-.712.7437-1.1957.5706-.4931-.1739-.7497-.7088-.5764-1.1891.605-1.7142,2.8255-4.7545,7.0755-4.1113c4.2544.2393,5.8351,3.6877,6.0724,5.4903.07.5151-.2918.9851-.8091,1.0438-.0769.0107-.1528.0121-.2184.0053l-.0093-.001Z" transform="translate(8.627188 466.357648)" fill="#231f20"/><path d="M101.977,99.745c-.168-.0177-.342-.0829-.481-.2009-9.2746-7.284-18.0991-2.1992-18.4719-1.9844-.4441.2638-1.0254.1182-1.2916-.3236-.2663-.4417-.1302-1.02.3233-1.2828.1014-.0647,10.2829-5.9947,20.6082,2.1142.411.3253.482.9066.156,1.3144-.207.2604-.523.3779-.841.3445l-.002.0186Z" transform="matrix(-.92 0 0-1 202.658851 639.241196)"/><g id="eXlGy8SbPUf96_ts" transform="translate(118.32349,541.277527) scale(1,1)"><g id="eXlGy8SbPUf96" transform="translate(-118.32349,-541.277527)"><path d="M100.044,74.74c.047,3.8049,3.933,6.846,9.772,6.7812s9.649-3.1831,9.601-6.988-3.934-6.846-9.772-6.7811c-5.839.0648-9.6488,3.183-9.601,6.9879Z" transform="translate(8.627188 466.357648)" fill="#fff"/><path d="M106.819,67.879c1.975,1.4016,3.159,3.9337,2.872,6.6783-.359,3.4424-2.887,6.0742-5.935,6.4317-2.693-1.2323-4.299-3.4418-4.3176-5.9833-.0303-3.4268,2.8296-6.3342,7.3796-7.1174l.001-.0093Z" transform="translate(8.627188 466.357648)" fill="#005ca3"/><path d="M107.939,82.6314c-5.169-.5422-8.794-3.5465-8.8444-7.5963-.059-4.5115,4.3594-7.8386,10.5014-7.9092c6.142-.0613,10.643,3.1666,10.702,7.6781s-4.36,7.8386-10.502,7.9092c-.635.0086-1.257-.019-1.857-.0818Zm-7.015-7.6207c.046,3.466,3.772,5.945,8.853,5.8853s8.746-2.6099,8.701-6.0759-3.773-5.9357-8.853-5.8853c-5.081.0597-8.746,2.6099-8.701,6.0759Z" transform="translate(8.627187 466.357648)"/><path d="M105.874,81.7378c-.253-.0265-.495-.1554-.652-.3787-.289-.4066-.201-.9712.218-1.2658.03-.0157,2.879-2.0965,3.284-5.5154.399-3.3723-1.533-5.0893-1.55-5.1098-.382-.3317-.417-.8997-.084-1.2786s.905-.4131,1.287-.0814c.113.0965,2.667,2.3772,2.16,6.6883-.499,4.2366-3.897,6.6738-4.04,6.781-.184.1311-.408.183-.623.1604Z" transform="translate(8.627188 466.357648)"/></g></g><g id="eXlGy8SbPUf101_ts" transform="translate(87.457527,537.832245) scale(1,1)"><g transform="translate(-87.457527,-537.832245)"><path d="M88.4677,73.5352c-.8234,3.7136-5.2451,5.8929-10.9553,4.6356-5.7101-1.2573-8.793-5.0983-7.9697-8.8119s5.245-5.8928,10.9552-4.6355c5.7102,1.2572,8.7931,5.0983,7.9698,8.8118Z" transform="translate(8.627188 466.357648)" fill="#fff"/><path d="M75.7969,64.4088c2.2699,1.2914,3.6932,3.9803,3.3955,6.9212-.3216,3.0796-2.4292,5.4921-5.0849,6.173-3.7239-1.7826-5.5821-4.9309-4.9111-8.002.6025-2.7773,3.1055-4.7157,6.6099-5.0913l-.0094-.0009Z" transform="translate(8.627187 466.357648)" fill="#005ca3"/><path d="M75.3027,78.569c-.2435-.0255-.4856-.1544-.6432-.3684-.2982-.4075-.2109-.9721.1987-1.2677.03-.0157,2.8945-2.1514,3.3086-5.6633.4044-3.4189-1.4758-5.1774-1.5533-5.2514-.3716-.3399-.3976-.907-.0655-1.2766s.9037-.4037,1.2847-.0628c.113.0965,2.6628,2.4238,2.148,6.8093-.508,4.3203-3.9022,6.8143-4.0459,6.9215-.1851.1405-.4177.1913-.6331.1687l.001-.0093Z" transform="translate(8.627188 466.357648)"/><path d="M79.1285,79.6477c-.5993-.0629-1.2135-.1649-1.8342-.2958-2.9337-.6463-5.3347-1.9516-6.9243-3.7737s-2.2148-3.9945-1.7375-6.1172c.468-2.1236,1.9433-3.8312,4.1664-4.8114c2.2138-.9812,4.9398-1.1561,7.8735-.5099c5.9966,1.325,9.6432,5.4791,8.6711,9.8919-.8767,3.9525-5.0362,6.1592-10.2066,5.6264l-.0084-.0103Zm-.4779-14.0082c-1.9104-.2003-3.6857.0273-5.1149.6581-1.6779.7458-2.7843,2.003-3.1255,3.5474s.1343,3.1556,1.3349,4.5324c1.3201,1.5023,3.4266,2.6356,5.9437,3.1911c4.9697,1.095,9.1197-.5672,9.8706-3.9498s-2.308-6.6379-7.2777-7.7328c-.5457-.1231-1.0953-.209-1.6198-.264l-.0113.0176Z" transform="translate(8.627189 466.357648)"/></g></g><g><path d="M148.409,61.888l-2.792.3764-1.572-11.3429l2.792-.3764l1.572,11.3429Z" transform="translate(8.627189 466.357648)" fill="#1750da" stroke="#002281" stroke-width="2"/><path d="M160.902,83.5795c-1.458,11.1809-8.635,19.6535-16.03,18.9245-7.396-.73-12.209-10.3847-10.752-21.5656c1.458-11.1809,8.635-19.6536,16.031-18.9243c7.395.7293,12.209,10.3845,10.751,21.5654Z" transform="translate(8.627189 466.357648)" fill="#173cb3"/><path d="M163.441,84.1108c-1.318,10.1088-7.805,17.7692-14.49,17.1102-6.684-.659-11.034-9.3886-9.716-19.4974c1.318-10.1087,7.805-17.7691,14.489-17.11c6.685.6592,11.035,9.3884,9.717,19.4972Z" transform="translate(8.627188 466.357648)" fill="url(#eXlGy8SbPUf109-fill)"/><path d="M165.529,84.0168c-1.219,9.3534-7.237,16.4402-13.441,15.828-6.203-.6118-10.244-8.6901-9.024-18.0435c1.219-9.3533,7.237-16.4398,13.441-15.828c6.203.6118,10.244,8.6901,9.024,18.0435Z" transform="translate(8.627189 466.357648)" fill="#235af1"/><path d="M150.581,61.5614c2.415.3323,4.534,1.5687,6.253,3.4409.448.2248.879.4881,1.293.786c2.604.7935,4.715,2.8797,6.124,5.6961c1.577,3.1529,2.304,7.2679,1.877,11.6922l-.101.8884c-.621,4.7598-2.464,8.9659-4.969,11.9163-1.686,1.985-3.694,3.4202-5.839,4.0467-1.375.888-2.845,1.466-4.36,1.658-1.8.971-3.725,1.46-5.686,1.343l-.367-.03c-3.918-.386-7.089-3.1309-9.081-7.1267-1.994-4.0001-2.842-9.3089-2.103-14.9823l.074-.5302c.804-5.4551,2.953-10.2627,5.833-13.6636c2.971-3.5068,6.769-5.5639,10.687-5.1774l.365.0426Z" transform="translate(8.627189 466.357648)" fill="none" stroke="#002281"/><ellipse rx="13.4512" ry="20.4224" transform="matrix(.995513 0.098173-.129249 0.991307 156.138459 548.616859)" fill="#173cb3"/><path d="M153.789,64.1184c3.563.3515,6.44,2.8473,8.245,6.4687c1.807,3.626,2.574,8.4356,1.904,13.5729-.669,5.1373-2.655,9.6753-5.35,12.8574-2.691,3.1786-6.138,5.0506-9.701,4.6986-3.563-.351-6.441-2.8467-8.246-6.4684-1.807-3.6261-2.574-8.4356-1.904-13.5729s2.655-9.6754,5.35-12.8575c2.691-3.1782,6.139-5.0502,9.702-4.6988Z" transform="translate(8.627188 466.357648)" fill="url(#eXlGy8SbPUf113-fill)" stroke="#002f9f"/><path d="M156.439,66.4745c2.881.2841,5.324,2.3086,6.91,5.48c1.584,3.1673,2.281,7.4252,1.682,12.0185s-2.374,8.6072-4.734,11.3857c-2.362,2.7821-5.264,4.2805-8.145,3.9964-2.881-.2843-5.324-2.3097-6.91-5.4811-1.584-3.1673-2.28-7.4252-1.681-12.0183.599-4.5933,2.373-8.6075,4.733-11.3858c2.362-2.782,5.264-4.2795,8.145-3.9954Z" transform="translate(8.627188 466.357648)" fill="#2b86fb" stroke="url(#eXlGy8SbPUf114-stroke)"/><ellipse id="eXlGy8SbPUf115" rx="6.92002" ry="12.5909" transform="matrix(.995513 0.098173-.129249 0.991307 163.341797 549.425654)" fill="url(#eXlGy8SbPUf115-fill)" stroke="#c401db" stroke-width="2"/><path d="M103.595,20.8246c11.968,1.6147,21.583,4.7986,28.998,9.7265c7.645,5.0816,12.899,11.9853,15.984,20.807l.005.0085.03.0872c.63,1.8163-.326,3.7488-2.106,4.4039l-.175.0594c-.393.1222-.793.1751-1.185.1651l-.166-.0082c-1.319-.0938-2.547-.9002-3.099-2.1651l-.101-.2586c-1.741-5.0102-4.683-10.8297-11.182-15.7824-6.512-4.9622-16.687-9.1248-33.0205-10.6283-15.8663-.784-26.2721,1.7271-33.2807,5.525-6.9965,3.7915-10.7031,8.9183-13.0837,13.5582l-.0307.0592-.0374.0542c-.3502.5057-.6743,1.0166-1.1031,1.6972l-.0908.1453-.1342.1061c-.7055.5597-1.606.8336-2.5114.7696l-.0006-.0012c-.3936-.0267-.783-.117-1.1568-.2726l-.1604-.0705c-1.779-.8391-2.5955-2.9428-1.7273-4.7269l.3866-.778c4.06-7.9716,9.9572-13.8567,17.9012-17.7122c8.1778-3.969,18.467-5.7597,31.0532-5.5443l.0049.0004.8547.0302c2.2983.1055,6.508.4279,7.958.5932l.011.0012l1.165.1509Z" transform="translate(8.627188 466.357648)" fill="#235af1" stroke="#002281" stroke-width="2"/></g></g></g></g><path d="M89.9566,152.949c6.0511,0,10.9564-4.913,10.9564-10.975c0-6.061-4.9053-10.974-10.9564-10.974s-10.9566,4.913-10.9566,10.974c0,6.062,4.9054,10.975,10.9566,10.975Z" transform="translate(8.627189 466.357648)" fill="#cae9d7" stroke="#a1a995" stroke-width="2" stroke-linecap="round" stroke-linejoin="round"/><g id="eXlGy8SbPUf118_tr" transform="translate(86.425953,588.223325) rotate(26.089119)"><g transform="translate(-83.28161,-588.066354)"><g id="eXlGy8SbPUf119_to" transform="translate(88.521133,600.760558)"><g id="eXlGy8SbPUf119_ts" transform="scale(0.394818,0.493583)"><path d="M69.5,131.5c0,0-33.1412-10.703-48.0667-29.708L39.42,88.6864c0,0,13.9004,13.5626,36.1069,18.8106c22.2066,5.247,19.3773,26.956-6.0294,23.998l.0025.005Z" transform="translate(-79.308035,-124.420089)"/></g></g><g id="eXlGy8SbPUf120_to" transform="translate(64.448362,579.492033)"><g transform="translate(-33.974812,-555.23584)"><path d="M34.1683,77.9228c-2.682-5.6064-8.5182-5.9535-8.5182-5.9535-6.5934-1.3559-7.7721,4.9791-7.7721,4.9791-8.92285,2.3127-6.4722,8.1545-6.4722,8.1545-2.231.4604-2.65511,2.5863-2.65511,2.5863C5.21472,97.7799,17.4738,107.543,26.0245,105.78c15.0993-3.116,15.8382-13.5401,15.8382-13.5401s2.8327-9.7424-2.4644-13.7752c-4.004-3.0491-5.2068-.6144-5.2068-.6144" transform="translate(8.627188 466.357648)" fill="#ebabab"/><path d="M15.3306,93.7636c0,0,3.0165,6.2484,8.3408,2.8952c3.7667-2.3731.4386-6.5846-1.8278-8.8393-1.143-1.1404-2.5242-2.0237-4.0601-2.5362-2.2152-.7392-5.486-1.2794-7.82102.6564-4.94273,4.0861.30902,11.6865.30902,11.6865s6.2012,10.0208,17.3842,7.8188c0,0,8.0373-1.119,12.933-8.8218c1.7566-2.7654,2.4845-6.0535,2.2056-9.2949-.2909-3.4167-1.3138-7.7704-4.5047-9.4106-5.5693-2.8569-10.4842,1.88-10.4842,1.88s-5.6697,6.1461-2.0132,10.1563c3.6565,4.0103,9.8028-3.9382,9.8028-3.9382" transform="translate(8.627188 466.357648)" fill="none" stroke="#131712" stroke-width="2" stroke-linecap="round" stroke-miterlimit="10"/><path d="M26.6977,80.9978c0,0-1.8125-3.0233-6.9826-3.6025s-8.7019,2.5847-8.6464,7.2246" transform="translate(8.627187 466.357648)" fill="none" stroke="#131712" stroke-width="2" stroke-linecap="round" stroke-miterlimit="10"/><path d="M33.0975,76.7697c0,0-2.7127-4.0725-6.484-4.8358s-8.5055,1.1579-9.8834,4.9901" transform="translate(8.627188 466.357648)" fill="none" stroke="#131712" stroke-width="2" stroke-linecap="round" stroke-miterlimit="10"/></g></g></g></g><path d="M79.7961,130.721c-4.2858-1.744-9.0734.194-11.0315,4.216-.4843-.275-.9965-.515-1.5406-.707-5.1322-1.815-10.7898,1.075-12.2719,6.423-1.2416,4.482,1.0207,9.276,5.2669,11.154c5.008,2.216,10.7289-.249,12.658-5.231.2463.115.4989.22.7608.313c4.6716,1.651,9.8172-.962,11.196-5.809c1.1955-4.201-1.0039-8.713-5.0408-10.357l.0031-.002Z" transform="translate(8.627188 466.357648)" fill="#e5f4eb" stroke="#d0d4ca" stroke-width="2" stroke-linecap="round" stroke-linejoin="round"/></g></g></g><g id="eXlGy8SbPUf126_to" transform="translate(242.899682,709.910449)"><g id="eXlGy8SbPUf126_ts" transform="scale(0,0)"><path id="eXlGy8SbPUf126" d="M56.40932,679.97033c0-16.54387,13.41146-29.95532,29.95532-29.95532s29.95532,13.41146,29.95532,29.95532c0,0,0,0,0,0h-59.91065c0,0,0,0,0,0h.00001Z" transform="translate(-86.364635,-679.97033)" opacity="0" fill="#fff" stroke-width="0"/></g></g><g id="eXlGy8SbPUf127_to" transform="translate(157.784361,709.910449)"><g id="eXlGy8SbPUf127_ts" transform="scale(0,0)"><path id="eXlGy8SbPUf127" d="M56.40932,679.97033c0-16.54387,13.41146-29.95532,29.95532-29.95532s29.95532,13.41146,29.95532,29.95532c0,0,0,0,0,0h-59.91065c0,0,0,0,0,0h.00001Z" transform="translate(-86.364635,-679.97033)" opacity="0" fill="#fff" stroke-width="0"/></g></g><g id="eXlGy8SbPUf128_to" transform="translate(242.899682,709.910449)"><g id="eXlGy8SbPUf128_ts" transform="scale(0,0)"><path id="eXlGy8SbPUf128" d="M56.40932,679.97033c0-16.54387,13.41146-29.95532,29.95532-29.95532s29.95532,13.41146,29.95532,29.95532c0,0,0,0,0,0h-59.91065c0,0,0,0,0,0h.00001Z" transform="translate(-86.364635,-679.97033)" opacity="0" fill="#fff" stroke-width="0"/></g></g><g id="eXlGy8SbPUf129_to" transform="translate(157.784361,709.910449)"><g id="eXlGy8SbPUf129_ts" transform="scale(0,0)"><path id="eXlGy8SbPUf129" d="M56.40932,679.97033c0-16.54387,13.41146-29.95532,29.95532-29.95532s29.95532,13.41146,29.95532,29.95532c0,0,0,0,0,0h-59.91065c0,0,0,0,0,0h.00001Z" transform="translate(-86.364635,-679.97033)" opacity="0" fill="#fff" stroke-width="0"/></g></g></svg>
