<svg id="eyuf8SQV2KH1" xmlns="http://www.w3.org/2000/svg" xmlns:xlink="http://www.w3.org/1999/xlink" viewBox="0 0 319 384" shape-rendering="geometricPrecision" text-rendering="geometricPrecision" project-id="831f04d8e35645999edcc972be5fbaa7" export-id="3aa02c763a4b43a9ab5a04681b32ad4b" cached="false">
<style><![CDATA[
#eyuf8SQV2KH172_to {animation: eyuf8SQV2KH172_to__to 3000ms linear infinite normal forwards}@keyframes eyuf8SQV2KH172_to__to { 0% {transform: translate(143.387258px,-556.789938px);animation-timing-function: cubic-bezier(0.84,-0.01,0.43,1.025)} 100% {transform: translate(396.594081px,-246.289938px)}} #eyuf8SQV2KH173_to {animation: eyuf8SQV2KH173_to__to 3000ms linear infinite normal forwards}@keyframes eyuf8SQV2KH173_to__to { 0% {transform: translate(171.079462px,-567.30894px);animation-timing-function: cubic-bezier(0.84,-0.01,0.43,1.025)} 100% {transform: translate(424.286286px,-256.80894px)}}
]]></style>
<defs><linearGradient id="eyuf8SQV2KH5-fill" x1="0.555396" y1="0.001631" x2="0.571811" y2="1" spreadMethod="pad" gradientUnits="objectBoundingBox" gradientTransform="translate(0 0)"><stop id="eyuf8SQV2KH5-fill-0" offset="0%" stop-color="#fff"/><stop id="eyuf8SQV2KH5-fill-1" offset="100%" stop-color="rgba(255,255,255,0)"/></linearGradient><linearGradient id="eyuf8SQV2KH7-fill" x1="142.362" y1="76" x2="142.362" y2="48" spreadMethod="pad" gradientUnits="userSpaceOnUse" gradientTransform="translate(0 0)"><stop id="eyuf8SQV2KH7-fill-0" offset="0%" stop-color="#ffaadf"/><stop id="eyuf8SQV2KH7-fill-1" offset="61.5385%" stop-color="#fff"/></linearGradient><linearGradient id="eyuf8SQV2KH13-fill" x1="145.736" y1="112" x2="145.736" y2="84" spreadMethod="pad" gradientUnits="userSpaceOnUse" gradientTransform="translate(0 0)"><stop id="eyuf8SQV2KH13-fill-0" offset="0%" stop-color="#ffaadf"/><stop id="eyuf8SQV2KH13-fill-1" offset="61.5385%" stop-color="#fff"/></linearGradient><filter id="eyuf8SQV2KH20-filter" x="-150%" y="-150%" width="400%" height="400%"><feColorMatrix id="eyuf8SQV2KH20-filter-grayscale-0" type="matrix" values="0.2126 0.7152 0.0722 0 0 0.2126 0.7152 0.0722 0 0 0.2126 0.7152 0.0722 0 0 0 0 0 1 0" result="result"/></filter><filter id="eyuf8SQV2KH57-filter" x="-150%" y="-150%" width="400%" height="400%"><feColorMatrix id="eyuf8SQV2KH57-filter-grayscale-0" type="matrix" values="0.2126 0.7152 0.0722 0 0 0.2126 0.7152 0.0722 0 0 0.2126 0.7152 0.0722 0 0 0 0 0 1 0" result="result"/></filter></defs><rect width="286" height="357" rx="0" ry="0" transform="translate(18.25 9.5)" fill="#ffabdf"/><ellipse rx="71.173688" ry="18.981506" transform="matrix(0 0 0 0 157.162709 329.464507)" fill="#fff" fill-opacity="0.5" stroke-width="0"/><ellipse rx="71.173688" ry="18.981506" transform="matrix(0 0 0 0 174.162709 325.464507)" fill-opacity="0.2" stroke-width="0"/><path d="M138.465998,21.5859L86.1762,328.558h142.881463L173.871997,21.5859h-35.405999Z" transform="matrix(0 0 0 0 157.616935 21.5859)" fill="url(#eyuf8SQV2KH5-fill)" fill-opacity="0.5" stroke-width="0.768"/><g display="none"><path d="M113.259,61.104c-.98,0-1.316.476-1.316,1.036c0,.644.616.952,1.372,1.148c1.624.392,3.22.868,4.816,1.512c3.08,1.232,4.872,3.052,4.872,6.552c0,3.808-2.884,6.916-8.064,7-3.22.056-6.636-.504-9.156-2.296-1.568-1.12-2.156-2.716-1.148-4.284c1.008-1.596,2.408-1.82,4.256-.896c1.232.616,3.416,1.624,4.928,1.624.784,0,1.652-.14,1.652-.952c0-.756-.672-1.008-1.54-1.204-1.036-.224-2.492-.616-3.612-1.064-3.892-1.54-5.768-3.808-5.768-7.056c0-3.64,2.604-6.972,8.316-6.972c3.528,0,6.328,1.092,8.372,2.548c1.4,1.008,1.96,2.436,1.064,4.032-.896,1.624-2.604,1.848-4.284.896-1.092-.616-3.136-1.624-4.76-1.624Zm12.227-2.884c.28-2.184,1.82-2.968,3.36-2.968s3.08.784,3.36,2.968c.532,4.116.532,12.348-.028,16.828-.252,2.016-1.288,3.304-3.332,3.304s-3.08-1.288-3.332-3.304c-.56-4.48-.56-12.712-.028-16.828Zm9.748.056c.28-2.184,1.484-3.024,3.024-3.024c1.428,0,2.296.812,3.164,1.82c1.4,1.652,4.536,5.74,6.048,8.568h.14c-.056-3.136-.028-5.908.168-7.364.28-2.184,1.68-3.024,3.22-3.024s2.94.84,3.248,3.024c.56,3.948.532,12.348-.028,16.828-.252,2.016-1.008,3.22-2.716,3.248-1.428.028-2.016-.28-3.332-1.596-1.204-1.204-4.144-5.012-6.188-8.736h-.14c.084,3.08,0,5.572-.196,7.084-.252,2.016-1.204,3.248-3.248,3.248s-2.884-1.232-3.136-3.248c-.56-4.48-.56-12.712-.028-16.828Zm21.381,8.54c0-7.672,4.592-11.564,11.592-11.564c2.352,0,4.676.476,6.636,1.904c1.092.784,1.708,2.324.84,4.004-1.148,2.212-2.996,2.268-4.368,1.68-.784-.336-1.792-.784-3.22-.784-2.436,0-4.424,1.456-4.424,4.872s2.128,4.816,4.424,4.816c1.596,0,2.716-.448,3.332-1.12v-1.008c-.336.028-1.176,0-1.624-.056-1.624-.196-2.408-1.064-2.408-2.436c0-1.512.868-2.296,2.492-2.464c1.652-.168,3.808-.112,5.208.112c1.512.252,2.38,1.036,2.492,2.716.168,2.604-.028,5.628-.924,6.972-1.232,1.848-4.368,3.892-8.344,3.892-7,0-11.704-3.864-11.704-11.536Zm23.41-8.596c.28-2.184,1.792-2.968,3.332-2.968s2.996.784,3.332,2.968c.504,3.248.616,10.276.28,12.964c1.82-.224,4.732-.168,7.028.196c2.016.308,3.192,1.288,3.192,3.332s-1.176,3.136-3.22,3.388c-3.108.392-7.56.364-10.304,0-2.044-.28-3.276-1.344-3.612-3.36-.644-3.892-.56-12.404-.028-16.52ZM213.8,71.968c1.12.168,2.492.728,2.492,2.94c0,2.24-1.4,2.856-2.52,3.08-2.52.476-8.848.448-11.312.224-2.044-.196-3.108-1.372-3.444-3.388-.616-3.64-.504-12.292-.028-16.1.308-2.436,1.736-3.164,3.472-3.36c1.456-.168,9.184-.168,11.256.252c1.12.224,2.576.728,2.576,2.94c0,2.24-1.456,2.828-2.576,3.052-1.932.392-6.104.392-7.952.168l.056,1.988c2.24-.168,4.34-.196,6.412,0c1.12.112,2.688.728,2.688,2.94c0,2.24-1.568,2.968-2.688,3.08-2.212.224-4.312.224-6.44.056l-.084,2.016c1.428-.224,6.02-.224,8.092.112Z" fill="url(#eyuf8SQV2KH7-fill)"/><g mask="url(#eyuf8SQV2KH10)"><path d="M113.315,63.288l-.753,2.904.024.0063.025.0059.704-2.9162Zm4.816,1.512l-1.123,2.7821.009.0033L118.131,64.8Zm-3.192,13.552l-.049-2.9996-.003.0001.052,2.9995Zm-9.156-2.296l-1.744,2.4412.005.0037l1.739-2.4449Zm-1.148-4.284l2.523,1.6223.007-.0101.006-.0102-2.536-1.602Zm4.256-.896l1.341-2.6833v0l-1.341,2.6833Zm5.04-.532l.66-2.9263-.013-.003-.013-.0029-.634,2.9322Zm-3.612-1.064l1.114-2.7855-.011-.0041-1.103,2.7896Zm10.92-11.48l1.753-2.4346-.007-.0044-.006-.0045-1.74,2.4435Zm1.064,4.032l-2.616-1.4686-.006.0097-.005.0097l2.627,1.4492Zm-4.284.896l1.479-2.6101-.005-.0028-1.474,2.6129Zm-4.76-1.624v-3c-.937,0-2.103.2268-3.051,1.095-.986.902-1.265,2.0606-1.265,2.941h3h3c0,.3204-.112.961-.684,1.485-.536.4902-1.044.479-1,.479v-3Zm-1.316,1.036h-3c0,1.4797.788,2.5459,1.63,3.1623.716.5243,1.506.7644,1.989.8897l.753-2.904.753-2.904c-.273-.0707-.169-.0826.05.0777.137.1005.358.2966.542.6204.194.3426.283.7153.283,1.0579h-3Zm1.372,1.148l-.704,2.9162c1.521.3672,2.97.8022,4.397,1.3779L118.131,64.8l1.122-2.7821c-1.765-.7123-3.507-1.2293-5.234-1.6461l-.704,2.9162Zm4.816,1.512l-1.114,2.7854c1.285.514,1.974,1.0265,2.358,1.5084.336.4225.628,1.0576.628,2.2582h3h3c0-2.2994-.604-4.3243-1.934-5.9948-1.282-1.6111-3.029-2.6246-4.824-3.3426L118.131,64.8Zm4.872,6.552h-3c0,1.1175-.408,2.0302-1.125,2.6923-.728.6727-1.99,1.2757-3.988,1.3081l.049,2.9996.048,2.9996c3.182-.0516,5.953-1.0446,7.961-2.8989c2.02-1.8649,3.055-4.4102,3.055-7.1007h-3Zm-8.064,7l-.052-2.9995c-2.941.0511-5.601-.4865-7.366-1.7414l-1.738,2.4449-1.739,2.4449c3.276,2.3291,7.448,2.9115,10.947,2.8506l-.052-2.9995Zm-9.156-2.296l1.743-2.4412c-.193-.1381-.306-.2554-.365-.3306-.057-.0736-.053-.0932-.041-.0517.014.0492.021.12.011.1876-.011.0637-.026.0563.027-.0258l-2.523-1.6223-2.524-1.6223c-.935,1.4541-1.23,3.1411-.746,4.7818.458,1.5508,1.513,2.7368,2.674,3.5657l1.744-2.4412Zm-1.148-4.284l2.536,1.602c.104-.1647.153-.1905.117-.1628-.019.0147-.054.038-.104.061-.051.0231-.104.0398-.154.0497-.103.0204-.133.0005-.049.0179.092.019.277.0741.568.2195l1.342-2.6833l1.341-2.6833c-1.229-.6148-2.749-1.077-4.367-.7566-1.722.341-2.95,1.4414-3.767,2.7339l2.537,1.602Zm4.256-.896l-1.342,2.6833c.654.3271,1.62.7887,2.659,1.1732.972.3594,2.305.7675,3.611.7675v-3-3c-.207,0-.721-.0959-1.528-.3945-.739-.2735-1.481-.6239-2.059-.9128l-1.341,2.6833Zm4.928,1.624v3c.465,0,1.402-.0242,2.313-.4188.5-.2169,1.118-.5987,1.608-1.2646.512-.6972.731-1.4976.731-2.2686h-3-3c0-.365.11-.8434.435-1.286.302-.4113.654-.6058.84-.6862.178-.077.286-.0869.261-.0835-.015.002-.073.0077-.188.0077v3Zm1.652-.952h3c0-1.5112-.785-2.6527-1.795-3.3179-.778-.5121-1.651-.7146-2.085-.8124l-.66,2.9263-.661,2.9263c.175.0394.262.0649.301.0781.043.0149-.047-.0098-.194-.1065-.161-.1061-.418-.318-.625-.6767-.214-.372-.281-.7414-.281-1.0172h3Zm-1.54-1.204l.634-2.9322c-.946-.2045-2.225-.5542-3.132-.9172L110.319,69.28l-1.114,2.7854c1.332.533,2.965.9673,4.092,1.2108l.634-2.9322Zm-3.612-1.064l1.103-2.7896c-1.657-.6558-2.601-1.3589-3.127-1.9999-.478-.5827-.744-1.2735-.744-2.2665h-3-3c0,2.255.671,4.3222,2.104,6.0705c1.386,1.69,3.325,2.8909,5.56,3.7751l1.104-2.7896Zm-5.768-7.056h3c0-1.0964.381-2.0143,1.075-2.669.691-.6525,1.973-1.303,4.241-1.303v-3-3c-3.445,0-6.321,1.0155-8.359,2.939-2.036,1.9213-2.957,4.4894-2.957,7.033h3Zm8.316-6.972v3c2.881,0,5.076.884,6.631,1.9915L121.239,57.8l1.74-2.4435c-2.533-1.8045-5.937-3.1045-10.112-3.1045v3Zm8.372,2.548l-1.753,2.4346c.158.1136.239.2016.274.2459.032.0412.015.0322-.004-.0297-.009-.0299-.016-.0648-.018-.1021-.003-.0372-.001-.0678.002-.0884.006-.0441.011-.0117-.053.1031l2.616,1.4686l2.616,1.4686c.788-1.4045,1.054-2.9954.588-4.5604-.444-1.4938-1.447-2.6054-2.515-3.3748L121.239,57.8Zm1.064,4.032l-2.627-1.4492c-.041.075-.048.0556.015.009.065-.049.145-.0821.213-.0947.06-.0113.063.002-.008-.0131-.073-.0156-.208-.0585-.398-.1661l-1.479,2.6101-1.479,2.6101c1.28.7253,2.846,1.1596,4.466.8568c1.708-.3192,3.082-1.3888,3.923-2.9137l-2.626-1.4492Zm-4.284.896l1.474-2.6129c-.622-.3505-1.542-.8294-2.572-1.2281-.984-.3805-2.306-.783-3.662-.783v3v3c.267,0,.78.1015,1.497.379.67.2593,1.318.5924,1.789.8579l1.474-2.6129Zm7.467-4.508l2.975.3846v-.0031l-2.975-.3815Zm6.72,0l-2.976.3815v.0031l2.976-.3846Zm-.028,16.828l-2.977-.3721l2.977.3721Zm-6.664,0l2.976-.3721-2.976.3721Zm-.028-16.828l2.975.3815c.029-.2221.076-.3147.084-.329.006-.0098-.004.0082-.028.0264-.038.029.038-.0469.329-.0469v-3-3c-1.25,0-2.714.3161-3.977,1.2831-1.324,1.0136-2.13,2.5177-2.359,4.3034l2.976.3815Zm3.36-2.968v3c.29,0,.366.0759.328.0469-.024-.0182-.034-.0362-.028-.0264.008.0143.055.1069.084.329l2.976-.3815l2.975-.3815c-.229-1.7857-1.035-3.2898-2.359-4.3034-1.263-.967-2.727-1.2831-3.976-1.2831v3Zm3.36,2.968l-2.976.3846c.498,3.8521.501,11.8296-.029,16.0713l2.977.3721l2.976.3721c.59-4.7183.593-13.2048.027-17.5847l-2.975.3846Zm-.028,16.828l-2.977-.3721c-.078.6249-.236.7593-.191.7125.029-.0308.068-.0545.088-.0623.012-.0045-.057.0259-.252.0259v3v3c1.7,0,3.307-.5628,4.511-1.8284c1.137-1.1948,1.623-2.7124,1.797-4.1035l-2.976-.3721Zm-3.332,3.304v-3c-.196,0-.265-.0304-.253-.0259.02.0078.059.0315.088.0623.045.0468-.113-.0876-.191-.7125l-2.976.3721-2.977.3721c.174,1.3911.66,2.9087,1.797,4.1035c1.204,1.2656,2.811,1.8284,4.512,1.8284v-3Zm-3.332-3.304l2.976-.3721c-.53-4.2417-.527-12.2192-.029-16.0713l-2.975-.3846-2.976-.3846c-.566,4.3799-.563,12.8664.027,17.5847l2.977-.3721Zm9.72-16.772l2.975.3846.001-.0031-2.976-.3815Zm6.188-1.204l2.289-1.9396-.008-.009-.008-.009-2.273,1.9576Zm6.048,8.568l-2.645,1.4145.847,1.5855h1.798v-3Zm.14,0v3h3.054l-.054-3.0536-3,.0536Zm.168-7.364l2.973.4002.002-.0093.001-.0094-2.976-.3815Zm6.468,0l-2.97.4189v.0024l2.97-.4213Zm-.028,16.828l2.977.3721-2.977-.3721Zm-2.716,3.248l-.049-2.9996-.01.0002.059,2.9994Zm-3.332-1.596l2.121-2.1213-2.121,2.1213Zm-6.188-8.736l2.63-1.4435-.854-1.5565h-1.776v3Zm-.14,0v-3h-3.083l.084,3.0818l2.999-.0818Zm-.196,7.084l-2.975-.3857-.002.0136l2.977.3721Zm-6.384,0l2.977-.3721-2.977.3721Zm-.028-16.828l2.976.3815c.039-.3055.098-.4662.127-.5286.025-.0549.021-.0251-.04.0306-.062.0569-.126.0882-.161.0998-.025.0087.007-.0073.122-.0073v-3-3c-1.319,0-2.795.3697-4.008,1.4785-1.2,1.0968-1.79,2.5948-1.992,4.164l2.976.3815Zm3.024-3.024v3c.036,0,.057.0025.068.004.01.0016.015.003.017.0036s.006.0021.015.0063c.009.0045.027.0134.052.0302.132.0861.339.2692.739.7335l2.273-1.9576l2.273-1.9576c-.944-1.0969-2.59-2.8624-5.437-2.8624v3Zm3.164,1.82l-2.289,1.9396c1.355,1.598,4.329,5.4953,5.692,8.0429L147.47,65.64l2.646-1.4145c-1.662-3.1084-4.959-7.3871-6.405-9.0931l-2.289,1.9396Zm6.048,8.568v3h.14v-3-3h-.14v3Zm.14,0l3-.0536c-.057-3.1786-.019-5.7191.141-6.9102l-2.973-.4002-2.973-.4002c-.232,1.7209-.25,4.7244-.194,7.8178l2.999-.0536Zm.168-7.364l2.976.3815c.033-.2578.087-.3839.107-.424.018-.0344.015-.017-.021.0127-.08.067-.079.0058.158.0058v-3-3c-1.303,0-2.772.3588-4.007,1.3918-1.263,1.0564-1.972,2.5587-2.189,4.2507l2.976.3815Zm3.22-3.024v3c.235,0,.241.0602.168-.0001-.031-.0258-.029-.0377-.008.0032.024.0465.081.1782.118.4398l2.97-.4189l2.971-.4189c-.238-1.6829-.956-3.1721-2.215-4.219-1.235-1.0263-2.699-1.3861-4.004-1.3861v3Zm3.248,3.024l-2.97.4213c.517,3.6447.498,11.7745-.035,16.0346l2.977.3721l2.977.3721c.587-4.6999.624-13.3701.021-17.6214l-2.97.4213Zm-.028,16.828l-2.977-.3721c-.045.366-.105.6144-.158.7728-.053.1576-.082.1748-.043.1239.052-.0662.153-.1606.294-.2266.131-.0617.194-.0508.119-.0496l.049,2.9996.049,2.9996c1.66-.0272,3.169-.685,4.221-2.0332.922-1.183,1.27-2.6215,1.423-3.8423l-2.977-.3721Zm-2.716,3.248l-.059-2.9994c-.255.005-.361-.0082-.392-.0133-.009-.0015.022.0048.054.0202.018.0087-.029-.0099-.167-.1224-.146-.1188-.346-.302-.647-.6024L148.17,76.756l-2.121,2.1213c.675.6757,1.455,1.4035,2.434,1.8792c1.092.5301,2.133.6135,3.078.5949l-.059-2.9994Zm-3.332-1.596l2.121-2.1213c-.963-.9636-3.742-4.5286-5.679-8.0582l-2.63,1.4435-2.63,1.4435c2.151,3.9184,5.252,7.9694,6.697,9.4138l2.121-2.1213Zm-6.188-8.736v-3h-.14v3v3h.14v-3Zm-.14,0l-2.999.0818c.083,3.0223-.006,5.3335-.172,6.6165l2.975.3857l2.975.3857c.226-1.741.306-4.4138.22-7.5515l-2.999.0818Zm-.196,7.084l-2.977-.3721c-.039.3182-.097.5196-.142.6339-.043.1089-.062.1097-.022.0664.049-.052.11-.0888.147-.1027.024-.0093-.042.0225-.254.0225v3v3c1.668,0,3.278-.5292,4.485-1.8162c1.126-1.2012,1.572-2.7192,1.74-4.0597l-2.977-.3721Zm-3.248,3.248v-3c-.213,0-.26-.0322-.209-.0121.066.0263.15.0824.213.1528.051.0575.032.0621-.014-.0624-.047-.1296-.106-.3511-.149-.6984l-2.977.3721-2.977.3721c.158,1.2652.549,2.7819,1.629,3.9992c1.19,1.34,2.809,1.8767,4.484,1.8767v-3Zm-3.136-3.248l2.977-.3721c-.53-4.2417-.528-12.2192-.03-16.0713l-2.975-.3846-2.975-.3846c-.566,4.3799-.564,12.8664.026,17.5847l2.977-.3721Zm39.581-17.948l-1.766,2.4247.008.0062.009.0061l1.749-2.437Zm.84,4.004l2.663,1.3819.003-.0048-2.666-1.3771Zm-4.368,1.68l-1.181,2.7574v0l1.181-2.7574Zm.112,7.784l2.212,2.0272.788-.8603v-1.1669h-3Zm0-1.008h3v-3.2604l-3.249.2708.249,2.9896Zm-1.624-.056l.372-2.9769-.012-.0015-.36,2.9784Zm.084-4.9l-.303-2.9846-.005.0005.308,2.9841Zm5.208.112l.494-2.9592-.01-.0016-.01-.0015-.474,2.9623Zm2.492,2.716l2.994-.1931v-.0065l-2.994.1996Zm-.924,6.972l2.497,1.6641v0L176.663,74.46Zm-20.048-7.644h3c0-3.229.951-5.2552,2.243-6.4894c1.316-1.2566,3.387-2.0746,6.349-2.0746v-3-3c-4.037,0-7.762,1.128-10.493,3.7354-2.753,2.6298-4.099,6.3856-4.099,10.8286h3Zm11.592-11.564v3c1.969,0,3.595.3996,4.87,1.3287l1.766-2.4247l1.767-2.4247c-2.645-1.9269-5.667-2.4793-8.403-2.4793v3Zm6.636,1.904l-1.749,2.437c.017.0123.01.0178.003-.009-.004-.016-.002-.0215-.004-.0063-.001.0152-.012.0831-.075.2052l2.665,1.3771l2.666,1.3771c1.602-3.1009.453-6.2321-1.756-7.8181l-1.75,2.437Zm.84,4.004l-2.662-1.3819c-.138.2645-.244.3649-.271.3884-.021.0185-.009.004.026-.0059.054-.0149-.035.0263-.279-.078L171.315,62.84l-1.181,2.7574c1.128.4837,2.649.7909,4.256.342c1.698-.474,3.06-1.6714,3.956-3.3975L175.683,61.16Zm-4.368,1.68l1.182-2.7574c-.793-.34-2.302-1.0266-4.402-1.0266v3v3c.757,0,1.264.2094,2.039.5414l1.181-2.7574Zm-3.22-.784v-3c-1.802,0-3.739.5462-5.232,2.0197-1.51,1.4899-2.192,3.5572-2.192,5.8523h3h3c0-1.1209.313-1.4896.406-1.5817.11-.1085.385-.2903,1.018-.2903v-3Zm-4.424,4.872h-3c0,2.356.754,4.4118,2.287,5.8654c1.494,1.4179,3.401,1.9506,5.137,1.9506v-3-3c-.559,0-.864-.1673-1.008-.3034-.106-.1004-.416-.4526-.416-1.5126h-3Zm4.424,4.816v3c2.078,0,4.155-.5781,5.544-2.0928l-2.212-2.0272-2.211-2.0272c.082-.0892.095-.0532-.084.0096-.179.063-.511.1376-1.037.1376v3Zm3.332-1.12h3v-1.008h-3-3v1.008h3Zm0-1.008l-.249-2.9896c.034-.0028.01.0002-.093.0006-.089.0002-.202-.0015-.325-.0058-.267-.009-.488-.026-.585-.038l-.372,2.9768-.372,2.9768c.597.0746,1.652.1183,2.246.0688l-.25-2.9896Zm-1.624-.056l.36-2.9784c-.371-.0448-.241-.1172-.015.117.11.1142.183.2427.221.35.035.0979.026.135.026.0754h-3-3c0,1.2748.38,2.6485,1.438,3.7434c1.024,1.0602,2.358,1.5198,3.611,1.671l.359-2.9784Zm-2.408-2.436h3c0-.0945.014-.0643-.025.041-.043.1182-.127.259-.253.38-.118.1145-.212.1525-.214.1534-.001,0,.001-.0006.004-.0016s.007-.0025.013-.0043c.012-.0036.03-.0086.055-.0141.05-.0113.122-.0241.221-.0343l-.309-2.9841-.308-2.9841c-1.186.1227-2.552.5115-3.632,1.5551-1.143,1.1055-1.552,2.5395-1.552,3.893h3Zm2.492-2.464l.304,2.9846c1.417-.1441,3.31-.0895,4.43.0897l.474-2.9623.474-2.9623c-1.679-.2688-4.098-.3262-5.985-.1343l.303,2.9846Zm5.208.112l-.493,2.9592c.089.0147.152.0301.196.0426.021.0062.036.0114.047.0152.005.0018.009.0033.011.0043.001.0005.002.0009.003.0012c0,.0003.001.0004.001.0004-.001-.0001-.019-.0088-.05-.03-.031-.0216-.069-.0524-.108-.0928-.019-.0198-.037-.0405-.053-.0618-.017-.0212-.031-.0419-.043-.0613-.025-.0396-.038-.0689-.042-.081-.005-.0114,0-.0025.007.033.007.0359.017.0965.023.1866l2.993-.1996l2.994-.1996c-.089-1.3252-.509-2.6865-1.55-3.7715-1.019-1.0613-2.305-1.5145-3.442-1.7041l-.494,2.9592Zm2.492,2.716l-2.993.1931c.075,1.171.065,2.3964-.051,3.4314-.058.516-.137.9383-.225,1.2586-.094.3407-.168.4502-.151.4248l2.496,1.6641l2.497,1.6641c.866-1.2996,1.195-3.0007,1.346-4.3436.164-1.464.168-3.0526.075-4.4856l-2.994.1931Zm-.924,6.972l-2.496-1.6641c-.64.9606-2.809,2.5561-5.848,2.5561v3v3c4.914,0,9.017-2.4925,10.841-5.2279L176.663,74.46Zm-8.344,3.892v-3c-2.969,0-5.077-.8151-6.424-2.0784-1.314-1.2342-2.28-3.2501-2.28-6.4576h-3-3c0,4.4645,1.387,8.2166,4.174,10.8324c2.756,2.5867,6.5,3.7036,10.53,3.7036v-3ZM180.025,58.22l2.975.3846.001-.0031-2.976-.3815Zm6.664,0l-2.965.4562v.0038l2.965-.46Zm.28,12.964l-2.977-.3721-.477,3.8199l3.82-.4703-.366-2.9775Zm7.028.196l-.47,2.963.009.0013.008.0013.453-2.9656Zm-.028,6.72l-.367-2.9775-.008.0011.375,2.9764Zm-10.304,0l-.407,2.9723.012.0016.395-2.9739Zm-3.612-3.36l-2.96.4897.001.0035l2.959-.4932Zm-.028-16.52l2.976.3815c.029-.229.078-.3263.087-.3431.006-.0117-.004.0085-.033.0303-.049.0382.013-.0367.302-.0367v-3-3c-1.251,0-2.715.3171-3.976,1.2933-1.317,1.0202-2.105,2.5247-2.332,4.2932l2.976.3815Zm3.332-2.968v3c.281,0,.324.0707.267.0263-.028-.0217-.03-.0353-.014-.0058.019.035.075.1533.114.4037l2.965-.4562l2.965-.4562c-.264-1.7149-1.034-3.1932-2.329-4.2082-1.254-.9823-2.709-1.3036-3.968-1.3036v3Zm3.332,2.968l-2.965.46c.221,1.4207.372,3.8283.421,6.2908.048,2.4771-.013,4.7244-.153,5.8411l2.977.3721l2.977.3721c.196-1.5713.247-4.182.197-6.7029-.049-2.5355-.206-5.2659-.49-7.0932l-2.964.46Zm.28,12.964l.366,2.9775c1.511-.1859,4.14-.1438,6.192.1815l.47-2.963.47-2.963c-2.54-.4027-5.735-.4726-7.865-.2105l.367,2.9775Zm7.028.196l-.453,2.9656c.32.0488.519.1117.63.1591.105.0446.107.0641.067.0253-.046-.0462-.074-.099-.082-.119-.003-.0077.03.0752.03.301h3h3c0-1.6312-.491-3.2267-1.732-4.452-1.169-1.1533-2.665-1.6406-4.007-1.8456l-.453,2.9656Zm3.192,3.332h-3c0,.2255-.033.3239-.037.3373-.002.0036.014-.0334.052-.0725.077-.0783-.003.0718-.602.1457l.367,2.9775.367,2.9775c1.445-.1781,2.975-.7,4.151-1.8983c1.219-1.2422,1.702-2.8474,1.702-4.4672h-3Zm-3.22,3.388l-.375-2.9764c-2.858.3604-7.051.3319-9.535.0025L183.665,78.1l-.395,2.9739c3.005.3986,7.716.4261,11.074.0025L193.969,78.1Zm-10.304,0l.407-2.9722c-.606-.0831-.796-.2405-.83-.272-.013-.0117-.149-.1217-.23-.609l-2.959.4932-2.959.4932c.255,1.5287.903,2.9587,2.101,4.053c1.177,1.0745,2.625,1.5891,4.063,1.786l.407-2.9722Zm-3.612-3.36l2.96-.4897c-.584-3.5287-.518-11.7349-.013-15.6457l-2.975-.3846-2.975-.3846c-.559,4.3212-.661,13.139.043,17.3943l2.96-.4897ZM213.8,71.968l-.481,2.9613.018.0029.018.0026.445-2.9668Zm-.028,6.02l.557,2.9479.015-.003.016-.0032-.588-2.9417Zm-11.312.224l-.287,2.9863.008.0007.007.0007.272-2.9877Zm-3.444-3.388l2.959-.4932-.001-.0074-2.958.5006Zm-.028-16.1l-2.977-.3763v.0042l2.977.3721Zm3.472-3.36l.336,2.9811.008-.0009-.344-2.9802Zm11.256.252l-.596,2.9402.007.0015.589-2.9417Zm0,5.992l-.589-2.9418-.008.0017.597,2.9401Zm-7.952.168l.361-2.9782-3.458-.4191.098,3.4818l2.999-.0845Zm.056,1.988l-2.999.0845.088,3.1422l3.135-.2351-.224-2.9916Zm6.412,0l.298-2.9851-.008-.0008-.008-.0008-.282,2.9867Zm0,6.02l-.299-2.9851-.004.0004.303,2.9847Zm-6.44.056l.236-2.9907-3.104-.245-.13,3.1108l2.998.1249Zm-.084,2.016l-2.998-.1249-.152,3.6557l3.615-.567-.465-2.9638Zm8.092.112l-.445,2.9668c.064.0097.115.0199.155.0297.039.0097.061.0175.069.0206.017.0063-.043-.0141-.127-.0901-.042-.038-.082-.0826-.116-.1311-.033-.0485-.053-.089-.063-.113-.019-.0487.019.0129.019.2571h3h3c0-1.7811-.584-3.3477-1.812-4.46-1.121-1.0151-2.43-1.326-3.235-1.4468L213.8,71.968Zm2.492,2.94h-3c0,.2472-.038.3223-.026.2918.005-.0142.019-.0434.044-.0803.025-.0367.054-.0702.084-.0983.059-.0559.094-.0649.058-.0497-.017.0076-.048.0193-.095.0329-.046.0137-.103.0278-.174.0419l.589,2.9417.588,2.9417c.789-.1578,2.064-.5192,3.15-1.5429c1.185-1.1179,1.782-2.672,1.782-4.4788h-3Zm-2.52,3.08l-.557-2.9479c-.972.1835-2.943.298-5.154.3226-2.159.024-4.243-.0396-5.33-.1384l-.271,2.9877-.272,2.9877c1.377.1252,3.69.1876,5.94.1626c2.199-.0244,4.652-.1339,6.201-.4264l-.557-2.9479Zm-11.312.224l.286-2.9863c-.253-.0243-.391-.0708-.451-.0968-.053-.0228-.063-.0363-.063-.0366-.004-.0032-.039-.0389-.089-.1492-.053-.1163-.118-.3105-.168-.6123l-2.959.4932-2.959.4932c.233,1.4022.775,2.8468,1.906,3.9915c1.16,1.175,2.65,1.74,4.21,1.8896l.287-2.9863Zm-3.444-3.388l2.958-.5006c-.262-1.547-.392-4.3983-.382-7.4762.011-3.0436.156-6.0212.373-7.7511l-2.977-.3721-2.977-.3721c-.26,2.0781-.408,5.3305-.419,8.4749-.01,3.1101.112,6.4048.466,8.4978l2.958-.5006Zm-.028-16.1l2.976.3763c.044-.344.112-.513.142-.5735.024-.0488.028-.039.004-.0192-.03.0251.09-.0953.686-.1625l-.336-2.9811-.337-2.9811c-1.14.1288-2.602.4704-3.857,1.5175-1.326,1.1066-2.029,2.6656-2.255,4.4473l2.977.3763Zm3.472-3.36l.344,2.9802c.503-.058,2.601-.107,5.013-.075c2.455.0326,4.598.1442,5.303.287l.596-2.9402.596-2.9402c-1.368-.2772-4.125-.3756-6.415-.406-2.335-.031-4.828.004-5.781.114l.344,2.9802Zm11.256.252l-.589,2.9417c.097.0193.175.0374.242.0552.066.0179.112.0334.143.0452.064.0248.032.0227-.037-.0365-.036-.0307-.075-.0713-.112-.1209-.037-.05-.062-.0963-.077-.1309-.03-.0722.006-.037.006.1862h3h3c0-1.8493-.653-3.4144-1.92-4.4966-1.115-.9526-2.402-1.252-3.068-1.3851l-.588,2.9417Zm2.576,2.94h-3c0,.2337-.038.2924-.019.2471.009-.021.026-.0547.053-.0938.028-.0389.059-.0721.087-.0981.057-.0508.083-.0531.031-.0317-.025.0103-.063.0242-.118.0398s-.12.0313-.199.047l.589,2.9417.588,2.9417c.75-.15,2.029-.4908,3.13-1.4849c1.22-1.1013,1.858-2.6629,1.858-4.5088h-3Zm-2.576,3.052l-.597-2.9401c-.677.1375-1.97.2348-3.452.2554-1.454.0201-2.808-.0365-3.542-.1255l-.361,2.9782-.361,2.9782c1.114.135,2.769.1904,4.347.1685c1.548-.0214,3.308-.1201,4.562-.3746l-.596-2.9401Zm-7.952.168l-2.999.0845.056,1.988l2.999-.0845l2.999-.0845-.056-1.988-2.999.0845Zm.056,1.988l.224,2.9916c2.127-.1596,4.05-.1804,5.905-.0049l.283-2.9867.282-2.9867c-2.288-.2165-4.566-.1814-6.919-.0049l.225,2.9916Zm6.412,0l-.299,2.9851c.04.004.078.0099.112.0172.035.0072.06.0148.076.0205s.018.0079.01.0033c-.009-.0049-.03-.0177-.059-.0414-.029-.0244-.061-.0568-.092-.0965-.014-.0195-.028-.039-.039-.058-.011-.0189-.02-.0359-.026-.0498-.013-.029-.012-.0379-.008-.0174.004.0214.013.0778.013.177h3h3c0-1.9066-.722-3.4909-2.001-4.5597-1.158-.968-2.489-1.2755-3.389-1.3654l-.298,2.9851Zm2.688,2.94h-3c0,.1048-.009.1708-.016.2047-.006.0333-.011.0398-.006.0271.006-.013.018-.0356.037-.0624.019-.0265.04-.0492.06-.0671.039-.0349.059-.0385.037-.03-.01.0039-.025.0089-.045.0135-.019.0046-.038.0075-.054.0091l.299,2.9851.298,2.9851c1.004-.1004,2.337-.4809,3.466-1.4914c1.222-1.0928,1.924-2.6745,1.924-4.5737h-3Zm-2.688,3.08l-.303-2.9847c-2.015.2041-3.934.2053-5.901.05l-.236,2.9907-.236,2.9907c2.288.1807,4.569.1819,6.978-.062l-.302-2.9847Zm-6.44.056l-2.998-.1249-.084,2.016l2.998.1249l2.997.1249.084-2.016-2.997-.1249Zm-.084,2.016l.465,2.9638c.444-.0698,1.728-.1319,3.313-.1179c1.556.0137,3.033.0976,3.833.2274l.481-2.9613.48-2.9613c-1.272-.2062-3.126-.2903-4.741-.3046-1.587-.014-3.313.0359-4.296.1901l.465,2.9638Z" fill="#c72489"/><mask id="eyuf8SQV2KH10" mask-type="luminance" x="-150%" y="-150%" height="400%" width="400%"><rect width="119" height="30" rx="0" ry="0" transform="translate(100.5 52)" fill="#fff"/><path d="M113.259,61.104c-.98,0-1.316.476-1.316,1.036c0,.644.616.952,1.372,1.148c1.624.392,3.22.868,4.816,1.512c3.08,1.232,4.872,3.052,4.872,6.552c0,3.808-2.884,6.916-8.064,7-3.22.056-6.636-.504-9.156-2.296-1.568-1.12-2.156-2.716-1.148-4.284c1.008-1.596,2.408-1.82,4.256-.896c1.232.616,3.416,1.624,4.928,1.624.784,0,1.652-.14,1.652-.952c0-.756-.672-1.008-1.54-1.204-1.036-.224-2.492-.616-3.612-1.064-3.892-1.54-5.768-3.808-5.768-7.056c0-3.64,2.604-6.972,8.316-6.972c3.528,0,6.328,1.092,8.372,2.548c1.4,1.008,1.96,2.436,1.064,4.032-.896,1.624-2.604,1.848-4.284.896-1.092-.616-3.136-1.624-4.76-1.624Zm12.227-2.884c.28-2.184,1.82-2.968,3.36-2.968s3.08.784,3.36,2.968c.532,4.116.532,12.348-.028,16.828-.252,2.016-1.288,3.304-3.332,3.304s-3.08-1.288-3.332-3.304c-.56-4.48-.56-12.712-.028-16.828Zm9.748.056c.28-2.184,1.484-3.024,3.024-3.024c1.428,0,2.296.812,3.164,1.82c1.4,1.652,4.536,5.74,6.048,8.568h.14c-.056-3.136-.028-5.908.168-7.364.28-2.184,1.68-3.024,3.22-3.024s2.94.84,3.248,3.024c.56,3.948.532,12.348-.028,16.828-.252,2.016-1.008,3.22-2.716,3.248-1.428.028-2.016-.28-3.332-1.596-1.204-1.204-4.144-5.012-6.188-8.736h-.14c.084,3.08,0,5.572-.196,7.084-.252,2.016-1.204,3.248-3.248,3.248s-2.884-1.232-3.136-3.248c-.56-4.48-.56-12.712-.028-16.828Zm21.381,8.54c0-7.672,4.592-11.564,11.592-11.564c2.352,0,4.676.476,6.636,1.904c1.092.784,1.708,2.324.84,4.004-1.148,2.212-2.996,2.268-4.368,1.68-.784-.336-1.792-.784-3.22-.784-2.436,0-4.424,1.456-4.424,4.872s2.128,4.816,4.424,4.816c1.596,0,2.716-.448,3.332-1.12v-1.008c-.336.028-1.176,0-1.624-.056-1.624-.196-2.408-1.064-2.408-2.436c0-1.512.868-2.296,2.492-2.464c1.652-.168,3.808-.112,5.208.112c1.512.252,2.38,1.036,2.492,2.716.168,2.604-.028,5.628-.924,6.972-1.232,1.848-4.368,3.892-8.344,3.892-7,0-11.704-3.864-11.704-11.536Zm23.41-8.596c.28-2.184,1.792-2.968,3.332-2.968s2.996.784,3.332,2.968c.504,3.248.616,10.276.28,12.964c1.82-.224,4.732-.168,7.028.196c2.016.308,3.192,1.288,3.192,3.332s-1.176,3.136-3.22,3.388c-3.108.392-7.56.364-10.304,0-2.044-.28-3.276-1.344-3.612-3.36-.644-3.892-.56-12.404-.028-16.52ZM213.8,71.968c1.12.168,2.492.728,2.492,2.94c0,2.24-1.4,2.856-2.52,3.08-2.52.476-8.848.448-11.312.224-2.044-.196-3.108-1.372-3.444-3.388-.616-3.64-.504-12.292-.028-16.1.308-2.436,1.736-3.164,3.472-3.36c1.456-.168,9.184-.168,11.256.252c1.12.224,2.576.728,2.576,2.94c0,2.24-1.456,2.828-2.576,3.052-1.932.392-6.104.392-7.952.168l.056,1.988c2.24-.168,4.34-.196,6.412,0c1.12.112,2.688.728,2.688,2.94c0,2.24-1.568,2.968-2.688,3.08-2.212.224-4.312.224-6.44.056l-.084,2.016c1.428-.224,6.02-.224,8.092.112Z" transform="translate(.000001 0.000001)"/></mask></g><path d="M114.696,110.488c0-4.088,1.008-12.768,2.072-16.548.588-2.072,2.044-2.688,3.752-2.688c1.764,0,2.968,1.036,3.668,2.408.924,1.792,1.988,4.9,3.248,9.1h.112c1.26-4.2,2.464-7.392,3.276-9.1.672-1.4,1.876-2.408,3.64-2.408c1.708,0,3.164.616,3.752,2.688c1.064,3.78,2.072,12.46,2.072,16.548c0,2.044-.672,3.612-2.688,3.836s-2.94-.728-3.416-2.688c-.364-1.484-.784-5.096-1.036-8.82h-.14c-.924,3.808-1.932,7.252-2.688,9.044-.56,1.344-1.4,1.932-2.828,1.932s-2.268-.588-2.828-1.932c-.728-1.708-1.792-5.404-2.688-9.044h-.14c-.252,3.724-.672,7.336-1.036,8.82-.476,1.96-1.4,2.912-3.416,2.688s-2.688-1.792-2.688-3.836Zm38.14,3.864c-6.048,0-10.864-4.032-10.864-11.536c0-7.532,4.816-11.564,10.864-11.564s10.864,4.032,10.864,11.564c0,7.504-4.816,11.536-10.864,11.536Zm0-6.748c2.296,0,3.724-1.876,3.724-4.788c0-2.94-1.4-4.816-3.724-4.816s-3.724,1.848-3.724,4.816c0,2.94,1.4,4.788,3.724,4.788Zm23.057-16.24c5.32.476,10.024,3.92,10.024,11.452s-4.704,10.976-10.024,11.424c-2.016.168-4.06.168-6.16-.084-2.044-.252-3.108-1.372-3.584-3.416-.616-2.688-.588-13.104-.084-15.82.448-2.464,2.044-3.304,3.668-3.472c2.072-.224,4.088-.28,6.16-.084Zm-.504,15.932c1.736-.168,3.528-1.596,3.528-4.48s-1.792-4.368-3.528-4.536c-.84-.084-1.82-.084-2.66,0c.224,1.708.168,7.28-.056,9.016.868.084,1.848.084,2.716,0Zm27.705.672c1.12.168,2.492.728,2.492,2.94c0,2.24-1.4,2.856-2.52,3.08-2.52.476-8.848.448-11.312.224-2.044-.196-3.108-1.372-3.444-3.388-.616-3.64-.504-12.292-.028-16.1.308-2.436,1.736-3.164,3.472-3.36c1.456-.168,9.184-.168,11.256.252c1.12.224,2.576.728,2.576,2.94c0,2.24-1.456,2.828-2.576,3.052-1.932.392-6.104.392-7.952.168l.056,1.988c2.24-.168,4.34-.196,6.412,0c1.12.112,2.688.728,2.688,2.94c0,2.24-1.568,2.968-2.688,3.08-2.212.224-4.312.224-6.44.056l-.084,2.016c1.428-.224,6.02-.224,8.092.112Z" fill="url(#eyuf8SQV2KH13-fill)"/><g mask="url(#eyuf8SQV2KH16)"><path d="M116.768,93.94l-2.886-.819-.001.0061l2.887.8129Zm7.42-.28l-2.672,1.3634.006.0115l2.666-1.3749Zm3.248,9.1l-2.873.862.641,2.138h2.232v-3Zm.112,0v3h2.232l.642-2.138-2.874-.862Zm3.276-9.1l-2.704-1.2982-.005.0101l2.709,1.2881Zm7.392.28l2.888-.8129-.002-.0061-2.886.819Zm-4.032,17.696l2.916-.708-.002-.007-2.914.715Zm-1.036-8.82l2.993-.203-.189-2.797h-2.804v3Zm-.14,0v-3h-2.359l-.556,2.293l2.915.707Zm-2.688,9.044l-2.764-1.166-.005.012l2.769,1.154Zm-5.656,0l2.77-1.154-.005-.011-.005-.011-2.76,1.176Zm-2.688-9.044l2.913-.717-.562-2.283h-2.351v3Zm-.14,0v-3h-2.804l-.189,2.797l2.993.203Zm-1.036,8.82l-2.913-.715-.002.007l2.915.708Zm-3.416,2.688l.332-2.982-.332,2.982Zm-2.688-3.836h3c0-3.88.987-12.2772,1.96-15.7351l-2.888-.8129-2.887-.8129c-1.155,4.1021-2.185,13.0649-2.185,17.3609h3Zm2.072-16.548l2.886.819c.069-.2421.137-.3517.161-.3857.007-.0093.012-.0151.014-.0183.002-.0016.003-.0026.003-.0033.001-.0006.001-.0009.001-.0009s0,.0001,0,.0004c-.001.0002-.001.0005-.001.0008-.001.0007-.001.0007-.001.0002.001-.0003.163-.1002.689-.1002v-3-3c-1.181,0-2.601.2081-3.903,1.0338-1.369.8684-2.273,2.207-2.735,3.8352l2.886.819Zm3.752-2.688v3c.258,0,.396.0644.502.1392.133.0942.316.284.494.6322l2.672-1.3634l2.673-1.3634c-1.065-2.0868-3.157-4.0446-6.341-4.0446v3Zm3.668,2.408l-2.666,1.3749c.777,1.5076,1.771,4.3533,3.041,8.5871l2.873-.862l2.874-.862c-1.25-4.1662-2.385-7.5365-3.455-9.6129L124.188,93.66Zm3.248,9.1v3h.112v-3-3h-.112v3Zm.112,0l2.874.862c1.239-4.1319,2.393-7.1614,3.112-8.6739l-2.71-1.2881-2.709-1.2881c-.905,1.9035-2.16,5.258-3.44,9.5261l2.873.862Zm3.276-9.1l2.705,1.2982c.158-.33.323-.4969.435-.5755.087-.0619.223-.1307.5-.1307v-3-3c-3.155,0-5.285,1.9029-6.344,4.1098l2.704,1.2982Zm3.64-2.408v3c.527,0,.689.0999.689.1002.001.0005.001.0004,0-.0002c0-.0003-.001-.0006-.001-.0008c0-.0003,0-.0004,0-.0004s0,.0003,0,.0009c.001.0007.002.0017.003.0033.003.0032.008.009.014.0183.024.034.093.1436.161.3857l2.886-.819l2.886-.819c-.462-1.6282-1.366-2.9668-2.735-3.8352-1.301-.8257-2.721-1.0338-3.903-1.0338v3Zm3.752,2.688l-2.887.8129c.973,3.4579,1.959,11.8551,1.959,15.7351h3h3c0-4.296-1.029-13.2588-2.184-17.3609l-2.888.8129Zm2.072,16.548h-3c0,.354-.03.616-.069.797-.039.182-.077.237-.066.219.019-.031.075-.099.161-.151.079-.048.091-.026-.045-.011l.331,2.982.332,2.982c1.846-.206,3.372-1.115,4.316-2.633.843-1.356,1.04-2.907,1.04-4.185h-3Zm-2.688,3.836l-.331-2.982c-.256.029-.336.003-.302.011.019.005.062.017.118.045.057.028.111.063.158.102.096.081.105.129.063.047-.047-.091-.124-.28-.206-.619l-2.916.708-2.915.708c.297,1.224.853,2.693,2.118,3.754c1.367,1.146,3.018,1.377,4.545,1.208l-.332-2.982Zm-3.416-2.688l2.914-.715c-.295-1.201-.704-4.574-.957-8.308l-2.993.203-2.993.203c.252,3.714.682,7.565,1.116,9.332l2.913-.715Zm-1.036-8.82v-3h-.14v3v3h.14v-3Zm-.14,0l-2.915-.707c-.921,3.794-1.882,7.034-2.537,8.585l2.764,1.166l2.764,1.166c.858-2.033,1.913-5.681,2.84-9.503l-2.916-.707Zm-2.688,9.044l-2.769-1.154c-.069.166-.116.234-.123.244-.003.003.004-.007.023-.026.02-.019.047-.043.082-.067s.069-.043.101-.057c.031-.014.052-.02.058-.021.011-.003-.045.013-.2.013v3v3c1.129,0,2.343-.236,3.439-.989c1.083-.745,1.738-1.779,2.159-2.789l-2.77-1.154Zm-2.828,1.932v-3c-.154,0-.21-.016-.199-.013.006.001.027.007.058.021s.066.033.101.057c.034.024.062.048.081.067s.027.029.024.026c-.007-.01-.054-.078-.123-.244l-2.77,1.154-2.769,1.154c.421,1.01,1.076,2.044,2.159,2.789c1.096.753,2.31.989,3.438.989v-3Zm-2.828-1.932l2.76-1.176c-.621-1.457-1.635-4.932-2.535-8.585l-2.913.717-2.913.717c.893,3.627,2.006,7.544,2.842,9.503l2.759-1.176Zm-2.688-9.044v-3h-.14v3v3h.14v-3Zm-.14,0l-2.993-.203c-.252,3.734-.662,7.107-.956,8.308l2.913.715l2.914.715c.433-1.767.864-5.618,1.115-9.332l-2.993-.203Zm-1.036,8.82l-2.915-.708c-.082.339-.159.528-.206.619-.042.082-.033.034.063-.047.047-.039.101-.074.158-.102.056-.028.098-.04.118-.045.033-.008-.047.018-.302-.011l-.332,2.982-.331,2.982c1.527.169,3.178-.062,4.545-1.208c1.264-1.061,1.82-2.53,2.118-3.754l-2.916-.708Zm-3.416,2.688l.332-2.982c-.136-.015-.124-.037-.045.011.086.052.141.12.161.151.011.018-.028-.037-.067-.219-.039-.181-.069-.443-.069-.797h-3-3c0,1.278.198,2.829,1.041,4.185.944,1.518,2.47,2.427,4.316,2.633l.331-2.982Zm35.452.028v-3c-2.354,0-4.269-.776-5.586-2.083-1.302-1.293-2.278-3.363-2.278-6.453h-3-3c0,4.414,1.433,8.112,4.051,10.711c2.603,2.585,6.12,3.825,9.813,3.825v-3Zm-10.864-11.536h3c0-3.1067.978-5.1841,2.28-6.4795c1.316-1.309,3.23-2.0845,5.584-2.0845v-3-3c-3.693,0-7.211,1.2405-9.815,3.8305-2.618,2.6036-4.049,6.3082-4.049,10.7335h3Zm10.864-11.564v3c2.355,0,4.269.7755,5.585,2.0845c1.302,1.2954,2.279,3.3728,2.279,6.4795h3h3c0-4.4253-1.43-8.1299-4.048-10.7335-2.604-2.59-6.122-3.8305-9.816-3.8305v3ZM163.7,102.816h-3c0,3.09-.975,5.16-2.277,6.453-1.317,1.307-3.232,2.083-5.587,2.083v3v3c3.694,0,7.211-1.24,9.814-3.825c2.618-2.599,4.05-6.297,4.05-10.711h-3Zm-10.864,4.788v3c2.055,0,3.871-.882,5.097-2.467c1.163-1.504,1.627-3.412,1.627-5.321h-3-3c0,1.003-.249,1.489-.374,1.651-.055.072-.092.091-.108.099s-.084.038-.242.038v3Zm3.724-4.788h3c0-1.904-.449-3.8199-1.608-5.3343C156.723,95.8767,154.897,95,152.836,95v3v3c.171,0,.241.032.255.039.012.006.045.022.097.09.121.159.372.651.372,1.687h3ZM152.836,98v-3c-2.046,0-3.875.8579-5.111,2.4664-1.166,1.5161-1.613,3.4376-1.613,5.3496h3h3c0-1.056.254-1.542.369-1.692.049-.064.078-.078.09-.084.014-.007.088-.04.265-.04v-3Zm-3.724,4.816h-3c0,1.904.449,3.819,1.616,5.33c1.237,1.601,3.063,2.458,5.108,2.458v-3-3c-.177,0-.251-.033-.267-.041-.013-.006-.043-.021-.092-.084-.114-.148-.365-.627-.365-1.663h-3Zm26.781-11.452l-.283,2.9867.008.0007.007.0007.268-2.9881Zm0,22.876l.249,2.99.002-.001-.251-2.989Zm-6.16-.084l-.367,2.977.009.002.358-2.979Zm-3.584-3.416l-2.924.67.002.01l2.922-.68Zm-.084-15.82l2.949.5474.002-.0107-2.951-.5367Zm3.668-3.472l.308,2.9841.014-.0015-.322-2.9826Zm5.656,15.848l-.289-2.986.289,2.986Zm0-9.016l-.299,2.985.01.001.289-2.986Zm-2.66,0l-.299-2.9851-3.078.3078.402,3.0674l2.975-.3901Zm-.056,9.016l-2.976-.384-.396,3.072l3.083.298.289-2.986Zm3.22-15.932l-.268,2.9881c2.118.1894,3.904.9492,5.141,2.2012c1.201,1.2139,2.151,3.1559,2.151,6.2627h3h3c0-4.4252-1.402-7.9712-3.884-10.4813-2.444-2.472-5.67-3.6722-8.873-3.9588l-.267,2.9881Zm10.024,11.452h-3c0,3.108-.951,5.048-2.149,6.257-1.234,1.247-3.015,2-5.127,2.178l.252,2.989.251,2.989c3.209-.27,6.44-1.463,8.887-3.933c2.484-2.508,3.886-6.056,3.886-10.48h-3ZM175.893,114.24l-.249-2.99c-1.847.154-3.685.152-5.554-.073l-.357,2.979-.358,2.979c2.332.279,4.582.277,6.767.095l-.249-2.99Zm-6.16-.084l.367-2.977c-.53-.066-.644-.198-.652-.206-.038-.037-.22-.235-.377-.913l-2.922.68-2.922.68c.318,1.366.907,2.75,2.03,3.847c1.154,1.126,2.595,1.68,4.109,1.866l.367-2.977Zm-3.584-3.416l2.924-.67c-.091-.395-.196-1.318-.273-2.717-.072-1.332-.11-2.917-.113-4.519-.007-3.3186.134-6.3262.327-7.3666l-2.949-.5474-2.95-.5474c-.311,1.6756-.435,5.234-.428,8.4744.003,1.677.043,3.37.122,4.832.076,1.395.198,2.782.416,3.731l2.924-.67Zm-.084-15.82l2.951.5367c.061-.3361.146-.532.204-.6368.056-.0998.104-.1478.139-.1761.072-.0591.259-.1679.682-.2117l-.308-2.9841-.309-2.9841c-1.201.1242-2.623.5194-3.867,1.5383-1.287,1.0543-2.112,2.555-2.444,4.3811l2.952.5367Zm3.668-3.472l.322,2.9826c1.915-.207,3.724-.2531,5.555-.0799l.283-2.9867.282-2.9867c-2.313-.2188-4.536-.1529-6.765.0881l.323,2.9826Zm5.656,15.848l.289,2.986c3.295-.319,6.239-3.059,6.239-7.466h-3-3c0,.793-.232,1.129-.343,1.251-.134.149-.308.227-.474.243l.289,2.986Zm3.528-4.48h3c0-4.3559-2.894-7.1983-6.239-7.5221l-.289,2.9861-.289,2.986c.132.013.307.082.456.25.127.144.361.505.361,1.3h3Zm-3.528-4.536l.298-2.9851c-1.038-.1039-2.218-.1039-3.257,0l.299,2.9851.298,2.985c.642-.064,1.422-.064,2.063,0l.299-2.985Zm-2.66,0l-2.975.3901c.081.6181.129,2.2379.115,4.0839-.014,1.83-.086,3.491-.172,4.158l2.976.384l2.975.384c.138-1.069.207-3.062.221-4.879.013-1.801-.023-3.8212-.166-4.9111l-2.974.3901Zm-.056,9.016l-.289,2.986c1.06.103,2.234.103,3.294,0l-.289-2.986-.289-2.986c-.676.065-1.462.065-2.138,0l-.289,2.986Zm30.421.672l-.48,2.961.017.003.018.003.445-2.967Zm-.028,6.02l.557,2.948.016-.003.015-.003-.588-2.942Zm-11.312.224l-.286,2.986.007.001.007.001.272-2.988Zm-3.444-3.388l2.959-.493-.001-.008-2.958.501Zm-.028-16.1l-2.976-.3763-.001.0042l2.977.3721Zm3.472-3.36l.337,2.9811.007-.0009-.344-2.9802Zm11.256.252l-.596,2.9402.008.0015.588-2.9417Zm0,5.992l-.588-2.9418-.008.0017.596,2.9401Zm-7.952.168l.361-2.9782-3.458-.4191.098,3.4818l2.999-.0845Zm.056,1.988l-2.999.0845.089,3.1425l3.134-.235-.224-2.992Zm6.412,0l.299-2.9851-.008-.0008-.008-.0008-.283,2.9867Zm0,6.02l-.298-2.985h-.004l.302,2.985Zm-6.44.056l.236-2.991-3.104-.245-.129,3.111l2.997.125Zm-.084,2.016l-2.997-.125-.153,3.656l3.615-.567-.465-2.964Zm8.092.112l-.445,2.967c.065.009.115.02.155.029.039.01.062.018.07.021.016.006-.044-.014-.128-.09-.042-.038-.082-.083-.115-.131-.034-.049-.054-.089-.063-.113-.02-.049.018.013.018.257h3h3c0-1.781-.584-3.348-1.812-4.46-1.121-1.015-2.43-1.326-3.235-1.447l-.445,2.967Zm2.492,2.94h-3c0,.247-.038.322-.026.292.006-.014.019-.044.044-.08.025-.037.054-.071.084-.099.059-.056.094-.065.059-.049-.018.007-.049.019-.095.032-.047.014-.104.028-.174.042l.588,2.942.588,2.942c.79-.158,2.064-.519,3.15-1.543c1.186-1.118,1.782-2.672,1.782-4.479h-3Zm-2.52,3.08l-.557-2.948c-.971.184-2.942.298-5.153.323-2.16.024-4.243-.04-5.33-.139l-.272,2.988-.272,2.988c1.378.125,3.69.187,5.94.162c2.2-.024,4.652-.134,6.201-.426l-.557-2.948Zm-11.312.224l.286-2.986c-.253-.025-.39-.071-.451-.097-.052-.023-.063-.036-.063-.037-.003-.003-.039-.039-.089-.149-.052-.116-.117-.31-.168-.612l-2.959.493-2.959.493c.234,1.402.776,2.847,1.906,3.992c1.161,1.175,2.65,1.74,4.211,1.889l.286-2.986Zm-3.444-3.388l2.958-.501c-.262-1.547-.392-4.398-.381-7.476.01-3.0434.156-6.021.372-7.7509l-2.977-.3721-2.977-.3721c-.26,2.0781-.408,5.3305-.418,8.4751-.011,3.11.111,6.405.465,8.498l2.958-.501Zm-.028-16.1l2.976.3763c.044-.344.113-.513.142-.5735.025-.0488.028-.039.004-.0192-.03.0251.091-.0953.687-.1625l-.337-2.9811-.336-2.9811c-1.141.1288-2.602.4704-3.857,1.5175-1.327,1.1066-2.03,2.6656-2.255,4.4473l2.976.3763Zm3.472-3.36l.344,2.9802c.503-.058,2.602-.107,5.013-.075c2.455.0326,4.599.1442,5.303.287l.596-2.9402.596-2.9402c-1.367-.2772-4.124-.3756-6.415-.406-2.335-.031-4.828.004-5.781.114l.344,2.9802Zm11.256.252l-.588,2.9417c.096.0193.175.0374.241.0552.066.0179.112.0334.143.0452.065.0248.033.0227-.036-.0365-.036-.0307-.076-.0713-.113-.1209-.037-.05-.062-.0963-.076-.1309-.031-.0722.005-.037.005.1862h3h3c0-1.8493-.652-3.4144-1.919-4.4966-1.116-.9526-2.403-1.252-3.069-1.3851l-.588,2.9417Zm2.576,2.94h-3c0,.2337-.037.2924-.019.2471.009-.021.026-.0547.054-.0938.027-.0389.058-.0721.087-.0981.056-.0508.082-.0531.03-.0317-.025.0103-.063.0242-.118.0398s-.12.0313-.198.047l.588,2.9417.588,2.942c.751-.15,2.029-.491,3.13-1.4852c1.22-1.1013,1.858-2.6629,1.858-4.5088h-3Zm-2.576,3.052l-.596-2.9401c-.678.1375-1.971.2348-3.453.2554-1.453.0201-2.808-.0365-3.542-.1255l-.361,2.9782-.361,2.978c1.114.135,2.77.191,4.347.169c1.549-.022,3.308-.12,4.563-.375l-.597-2.94Zm-7.952.168l-2.999.0845.056,1.988l2.999-.0845l2.999-.0845-.056-1.988-2.999.0845Zm.056,1.988l.224,2.992c2.128-.16,4.05-.181,5.906-.005l.282-2.987.283-2.9867c-2.289-.2165-4.567-.1814-6.919-.0049l.224,2.9916Zm6.412,0l-.298,2.985c.039.004.077.01.112.017.034.008.059.015.075.021s.019.008.01.003-.03-.018-.058-.041c-.03-.025-.062-.057-.092-.097-.015-.019-.028-.039-.039-.058-.012-.019-.02-.036-.026-.05-.013-.029-.013-.037-.009-.017.004.021.013.078.013.177h3h3c0-1.907-.721-3.4909-2-4.5597-1.159-.968-2.49-1.2755-3.389-1.3654l-.299,2.9851Zm2.688,2.94h-3c0,.105-.009.171-.016.205-.006.033-.011.039-.005.027.005-.013.017-.036.036-.063.02-.026.041-.049.061-.067.039-.035.058-.038.037-.03-.01.004-.026.009-.045.014-.02.004-.039.007-.054.009l.298,2.985.299,2.985c1.004-.1,2.336-.481,3.465-1.491c1.222-1.093,1.924-2.675,1.924-4.574h-3Zm-2.688,3.08l-.302-2.985c-2.016.204-3.935.206-5.902.05l-.236,2.991-.236,2.991c2.289.18,4.57.182,6.978-.062l-.302-2.985Zm-6.44.056l-2.997-.125-.084,2.016l2.997.125l2.997.125.084-2.016-2.997-.125Zm-.084,2.016l.465,2.964c.445-.07,1.728-.132,3.313-.118c1.556.014,3.033.098,3.834.227l.48-2.961.48-2.961c-1.271-.207-3.126-.291-4.741-.305-1.586-.014-3.313.036-4.296.19l.465,2.964Z" fill="#c72489"/><mask id="eyuf8SQV2KH16" mask-type="luminance" x="-150%" y="-150%" height="400%" width="400%"><rect width="98" height="30" rx="0" ry="0" transform="translate(111.5 88)" fill="#fff"/><path d="M114.696,110.488c0-4.088,1.008-12.768,2.072-16.548.588-2.072,2.044-2.688,3.752-2.688c1.764,0,2.968,1.036,3.668,2.408.924,1.792,1.988,4.9,3.248,9.1h.112c1.26-4.2,2.464-7.392,3.276-9.1.672-1.4,1.876-2.408,3.64-2.408c1.708,0,3.164.616,3.752,2.688c1.064,3.78,2.072,12.46,2.072,16.548c0,2.044-.672,3.612-2.688,3.836s-2.94-.728-3.416-2.688c-.364-1.484-.784-5.096-1.036-8.82h-.14c-.924,3.808-1.932,7.252-2.688,9.044-.56,1.344-1.4,1.932-2.828,1.932s-2.268-.588-2.828-1.932c-.728-1.708-1.792-5.404-2.688-9.044h-.14c-.252,3.724-.672,7.336-1.036,8.82-.476,1.96-1.4,2.912-3.416,2.688s-2.688-1.792-2.688-3.836Zm38.14,3.864c-6.048,0-10.864-4.032-10.864-11.536c0-7.532,4.816-11.564,10.864-11.564s10.864,4.032,10.864,11.564c0,7.504-4.816,11.536-10.864,11.536Zm0-6.748c2.296,0,3.724-1.876,3.724-4.788c0-2.94-1.4-4.816-3.724-4.816s-3.724,1.848-3.724,4.816c0,2.94,1.4,4.788,3.724,4.788Zm23.057-16.24c5.32.476,10.024,3.92,10.024,11.452s-4.704,10.976-10.024,11.424c-2.016.168-4.06.168-6.16-.084-2.044-.252-3.108-1.372-3.584-3.416-.616-2.688-.588-13.104-.084-15.82.448-2.464,2.044-3.304,3.668-3.472c2.072-.224,4.088-.28,6.16-.084Zm-.504,15.932c1.736-.168,3.528-1.596,3.528-4.48s-1.792-4.368-3.528-4.536c-.84-.084-1.82-.084-2.66,0c.224,1.708.168,7.28-.056,9.016.868.084,1.848.084,2.716,0Zm27.705.672c1.12.168,2.492.728,2.492,2.94c0,2.24-1.4,2.856-2.52,3.08-2.52.476-8.848.448-11.312.224-2.044-.196-3.108-1.372-3.444-3.388-.616-3.64-.504-12.292-.028-16.1.308-2.436,1.736-3.164,3.472-3.36c1.456-.168,9.184-.168,11.256.252c1.12.224,2.576.728,2.576,2.94c0,2.24-1.456,2.828-2.576,3.052-1.932.392-6.104.392-7.952.168l.056,1.988c2.24-.168,4.34-.196,6.412,0c1.12.112,2.688.728,2.688,2.94c0,2.24-1.568,2.968-2.688,3.08-2.212.224-4.312.224-6.44.056l-.084,2.016c1.428-.224,6.02-.224,8.092.112Z" transform="translate(0 0.000001)"/></mask></g><path d="M100.521,142.928v3.616c0,.832-.6245,1.36-1.4245,1.36s-1.424-.528-1.424-1.36v-10.624c0-.96.64-1.6,1.6-1.6h4.5125c3.2,0,4.512,2.064,4.512,4.304c0,1.552-.64,3.024-2.096,3.776l2.048,3.44c.384.64.24,1.44-.448,1.856-.672.4-1.44.24-1.856-.48l-2.544-4.288h-2.88Zm0-6.08v3.552h3.024c1.44,0,1.904-.816,1.904-1.776s-.464-1.776-1.904-1.776h-3.024Zm18.303,6.032c0,.96-.432,1.44-1.424,1.44h-4.944c.24.704,1.024,1.184,1.968,1.184.912,0,1.648-.24,2.24-.496.592-.24,1.136.048,1.376.544.24.512.208,1.136-.384,1.504-.816.512-1.984.8-3.328.8-2.704,0-4.752-2.032-4.752-4.704c0-2.704,1.904-4.752,4.688-4.752c2.592,0,4.56,2.08,4.56,4.48Zm-6.432-.832h3.68c-.192-.688-.944-1.248-1.808-1.248s-1.664.56-1.872,1.248Zm12.147,5.808c-2.784,0-4.752-2.016-4.752-4.752c0-2.688,1.968-4.704,4.752-4.704c1.728,0,3.008.736,3.744,1.776.384.544.272,1.344-.304,1.792-.544.416-1.44.352-1.856-.208-.32-.432-.752-.896-1.584-.896-1.2,0-1.968.96-1.968,2.24c0,1.296.768,2.288,1.968,2.288.896,0,1.44-.448,1.808-.928.432-.56,1.232-.608,1.792-.112.496.448.56,1.2.224,1.712-.688,1.056-2.096,1.792-3.824,1.792Zm9.758-9.456c2.688,0,4.752,2.048,4.752,4.688c0,2.656-2.064,4.768-4.752,4.768s-4.768-2.112-4.768-4.768c0-2.64,2.08-4.688,4.768-4.688Zm0,2.464c-1.152,0-1.984.944-1.984,2.224c0,1.296.832,2.304,1.984,2.304c1.12,0,1.968-1.008,1.968-2.304c0-1.28-.848-2.224-1.968-2.224Zm11.421.208c-.304-.128-.592-.192-.88-.192-.912,0-1.728.864-1.728,2.112v3.584c0,.832-.592,1.328-1.392,1.328s-1.392-.496-1.392-1.328v-6.848c0-.832.592-1.328,1.392-1.328.656,0,1.184.352,1.344.928.464-.592,1.296-.928,2.016-.928.656,0,1.2.112,1.616.4.384.256.64.88.352,1.552-.272.624-.928.88-1.328.72Zm8.157-.048h-1.536c-1.248,0-1.744,1.008-1.744,2.08c0,1.104.496,2.128,1.744,2.128h1.536v-4.208Zm.96,6.672h-2.688c-2.752,0-4.336-2.048-4.336-4.592c0-2.496,1.584-4.544,4.336-4.544h1.728v-3.088c0-.832.592-1.36,1.392-1.36s1.392.528,1.392,1.36v10.384c0,1.216-.64,1.84-1.824,1.84Zm11.007-12.256v11.136c0,.832-.592,1.328-1.392,1.328s-1.392-.496-1.392-1.328v-11.136c0-.832.592-1.328,1.392-1.328s1.392.496,1.392,1.328Zm4.711,4.288v6.848c0,.832-.592,1.328-1.392,1.328s-1.392-.496-1.392-1.328v-6.848c0-.832.592-1.328,1.392-1.328s1.392.496,1.392,1.328Zm-3.008-4c0-.88.736-1.616,1.616-1.616s1.616.736,1.616,1.616-.736,1.616-1.616,1.616-1.616-.736-1.616-1.616Zm13.175,6.224v4.624c0,.832-.592,1.328-1.392,1.328s-1.392-.496-1.392-1.328v-4.336c0-.8-.528-1.376-1.328-1.376-.784,0-1.344.56-1.344,1.328v4.384c0,.832-.592,1.328-1.392,1.328s-1.392-.496-1.392-1.328v-6.848c0-.832.592-1.328,1.392-1.328.656,0,1.184.352,1.344.928.464-.624,1.28-.928,2.16-.928c1.712,0,3.344.992,3.344,3.552Zm10.521.928c0,.96-.432,1.44-1.424,1.44h-4.944c.24.704,1.024,1.184,1.968,1.184.912,0,1.648-.24,2.24-.496.592-.24,1.136.048,1.376.544.24.512.208,1.136-.384,1.504-.816.512-1.984.8-3.328.8-2.704,0-4.752-2.032-4.752-4.704c0-2.704,1.904-4.752,4.688-4.752c2.592,0,4.56,2.08,4.56,4.48Zm-6.432-.832h3.68c-.192-.688-.944-1.248-1.808-1.248s-1.664.56-1.872,1.248Zm11.267,3.504c.768,0,1.184-.24,1.184-.64c0-.448-.384-.688-1.488-.848-1.568-.224-3.408-.752-3.408-2.736c0-1.92,1.824-2.928,3.76-2.928c1.152,0,2.224.288,2.912.784.528.384.56,1.072.256,1.536s-.768.64-1.392.352c-.656-.304-1.168-.384-1.792-.384-.736,0-1.088.304-1.088.608c0,.48.72.64,1.904.8c1.76.24,3.024,1.104,3.024,2.784c0,1.84-1.712,2.944-3.664,2.976-1.472.032-2.816-.288-3.696-1.104-.464-.432-.512-1.072-.112-1.568.384-.464,1.104-.576,1.632-.208.432.304,1.168.576,1.968.576ZM210.16,138.4c2.688,0,4.752,2.048,4.752,4.688c0,2.656-2.064,4.768-4.752,4.768s-4.768-2.112-4.768-4.768c0-2.64,2.08-4.688,4.768-4.688Zm0,2.464c-1.152,0-1.984.944-1.984,2.224c0,1.296.832,2.304,1.984,2.304c1.12,0,1.968-1.008,1.968-2.304c0-1.28-.848-2.224-1.968-2.224Zm9.773-3.072v.768h2.112c.688,0,1.088.592,1.088,1.248c0,.64-.4,1.248-1.088,1.248h-2.112v5.52c0,.832-.592,1.328-1.392,1.328s-1.392-.496-1.392-1.328v-5.52h-.592c-.688,0-1.008-.592-1.008-1.248c0-.64.32-1.248,1.008-1.248h.592v-1.04c0-1.968,1.12-3.2,3.504-3.2.592,0,1.28.096,1.856.384.48.24.8.848.528,1.552-.256.656-.864.944-1.376.72-.288-.128-.576-.176-.88-.176-.448,0-.848.304-.848.992ZM81.5762,156.928v1.632h2.112c.688,0,1.088.608,1.088,1.248c0,.656-.4,1.248-1.088,1.248h-2.112v3.328c0,.688.4.992.848.992.304,0,.592-.048.88-.176.512-.224,1.12.064,1.376.72.272.704-.048,1.312-.528,1.552-.576.288-1.264.384-1.856.384-2.384,0-3.504-1.232-3.504-3.2v-3.6h-.592c-.688,0-1.008-.608-1.008-1.248c0-.656.32-1.248,1.008-1.248h.592v-1.632c0-.832.592-1.328,1.392-1.328s1.392.496,1.392,1.328Zm12.5547,5.024v4.624c0,.832-.592,1.328-1.392,1.328s-1.392-.496-1.392-1.328v-4.336c0-.8-.528-1.376-1.328-1.376-.784,0-1.344.56-1.344,1.328v4.384c0,.832-.592,1.328-1.392,1.328s-1.392-.496-1.392-1.328v-11.136c0-.832.592-1.328,1.392-1.328s1.392.496,1.392,1.328v3.824c.416-.56,1.264-.864,2.112-.864c1.712,0,3.344.992,3.344,3.552Zm10.5201.928c0,.96-.432,1.44-1.424,1.44h-4.9436c.24.704,1.024,1.184,1.9676,1.184.912,0,1.648-.24,2.24-.496.592-.24,1.136.048,1.376.544.24.512.208,1.136-.384,1.504-.816.512-1.984.8-3.328.8-2.7036,0-4.7516-2.032-4.7516-4.704c0-2.704,1.904-4.752,4.6876-4.752c2.592,0,4.56,2.08,4.56,4.48Zm-6.4316-.832h3.6796c-.192-.688-.944-1.248-1.808-1.248-.8636,0-1.6636.56-1.8716,1.248Zm19.7606.08v4.448c0,.832-.528,1.328-1.328,1.328s-1.328-.496-1.328-1.328v-4.336c0-.8-.368-1.376-1.088-1.376-.704,0-1.104.56-1.104,1.328v4.384c0,.832-.56,1.328-1.36,1.328s-1.36-.496-1.36-1.328v-6.848c0-.832.56-1.328,1.36-1.328.656,0,1.152.352,1.312.928.352-.56,1.04-.928,1.92-.928.96,0,1.84.4,2.4,1.248.64-.976,1.616-1.248,2.368-1.248c1.648,0,3.056,1.072,3.056,3.552v4.624c0,.832-.528,1.328-1.328,1.328s-1.328-.496-1.328-1.328v-4.336c0-.8-.368-1.376-1.088-1.376-.56,0-1.104.416-1.104,1.264Zm10.791-3.568h3.072c1.04,0,1.6.624,1.6,1.6v6.528c0,.832-.64,1.168-1.424,1.168-.608,0-1.2-.352-1.264-.912-.384.544-1.248.912-2.176.912-2.688,0-4.464-1.904-4.464-4.688s1.968-4.608,4.656-4.608Zm1.888,2.464h-1.76c-1.28,0-2,.912-2,2.144c0,1.216.72,2.224,1.872,2.224c1.168,0,1.888-.832,1.888-2.352v-2.016Zm7.322-1.296v6.848c0,.832-.592,1.328-1.392,1.328s-1.392-.496-1.392-1.328v-6.848c0-.832.592-1.328,1.392-1.328s1.392.496,1.392,1.328Zm-3.008-4c0-.88.736-1.616,1.616-1.616s1.616.736,1.616,1.616-.736,1.616-1.616,1.616-1.616-.736-1.616-1.616Zm13.175,6.224v4.624c0,.832-.592,1.328-1.392,1.328s-1.392-.496-1.392-1.328v-4.336c0-.8-.528-1.376-1.328-1.376-.784,0-1.344.56-1.344,1.328v4.384c0,.832-.592,1.328-1.392,1.328s-1.392-.496-1.392-1.328v-6.848c0-.832.592-1.328,1.392-1.328.656,0,1.184.352,1.344.928.464-.624,1.28-.928,2.16-.928c1.712,0,3.344.992,3.344,3.552Zm10.502,5.904c-2.784,0-4.752-2.016-4.752-4.752c0-2.688,1.968-4.704,4.752-4.704c1.728,0,3.008.736,3.744,1.776.384.544.272,1.344-.304,1.792-.544.416-1.44.352-1.856-.208-.32-.432-.752-.896-1.584-.896-1.2,0-1.968.96-1.968,2.24c0,1.296.768,2.288,1.968,2.288.896,0,1.44-.448,1.808-.928.432-.56,1.232-.608,1.792-.112.496.448.56,1.2.224,1.712-.688,1.056-2.096,1.792-3.824,1.792Zm13.71-5.904v4.624c0,.832-.592,1.328-1.392,1.328s-1.392-.496-1.392-1.328v-4.336c0-.8-.528-1.376-1.328-1.376-.784,0-1.344.56-1.344,1.328v4.384c0,.832-.592,1.328-1.392,1.328s-1.392-.496-1.392-1.328v-11.136c0-.832.592-1.328,1.392-1.328s1.392.496,1.392,1.328v3.824c.416-.56,1.264-.864,2.112-.864c1.712,0,3.344.992,3.344,3.552Zm5.929-3.392h3.072c1.04,0,1.6.624,1.6,1.6v6.528c0,.832-.64,1.168-1.424,1.168-.608,0-1.2-.352-1.264-.912-.384.544-1.248.912-2.176.912-2.688,0-4.464-1.904-4.464-4.688s1.968-4.608,4.656-4.608Zm1.888,2.464h-1.76c-1.28,0-2,.912-2,2.144c0,1.216.72,2.224,1.872,2.224c1.168,0,1.888-.832,1.888-2.352v-2.016Zm9.77.048c-.304-.128-.592-.192-.88-.192-.912,0-1.728.864-1.728,2.112v3.584c0,.832-.592,1.328-1.392,1.328s-1.392-.496-1.392-1.328v-6.848c0-.832.592-1.328,1.392-1.328.656,0,1.184.352,1.344.928.464-.592,1.296-.928,2.016-.928.656,0,1.2.112,1.616.4.384.256.64.88.352,1.552-.272.624-.928.88-1.328.72Zm6.749-2.512h3.072c1.04,0,1.6.624,1.6,1.6v6.528c0,.832-.64,1.168-1.424,1.168-.608,0-1.2-.352-1.264-.912-.384.544-1.248.912-2.176.912-2.688,0-4.464-1.904-4.464-4.688s1.968-4.608,4.656-4.608Zm1.888,2.464h-1.76c-1.28,0-2,.912-2,2.144c0,1.216.72,2.224,1.872,2.224c1.168,0,1.888-.832,1.888-2.352v-2.016Zm8.81,6.832c-2.784,0-4.752-2.016-4.752-4.752c0-2.688,1.968-4.704,4.752-4.704c1.728,0,3.008.736,3.744,1.776.384.544.272,1.344-.304,1.792-.544.416-1.44.352-1.856-.208-.32-.432-.752-.896-1.584-.896-1.2,0-1.968.96-1.968,2.24c0,1.296.768,2.288,1.968,2.288.896,0,1.44-.448,1.808-.928.432-.56,1.232-.608,1.792-.112.496.448.56,1.2.224,1.712-.688,1.056-2.096,1.792-3.824,1.792Zm9.054-10.928v1.632h2.112c.688,0,1.088.608,1.088,1.248c0,.656-.4,1.248-1.088,1.248h-2.112v3.328c0,.688.4.992.848.992.304,0,.592-.048.88-.176.512-.224,1.12.064,1.376.72.272.704-.048,1.312-.528,1.552-.576.288-1.264.384-1.856.384-2.384,0-3.504-1.232-3.504-3.2v-3.6h-.592c-.688,0-1.008-.608-1.008-1.248c0-.656.32-1.248,1.008-1.248h.592v-1.632c0-.832.592-1.328,1.392-1.328s1.392.496,1.392,1.328Zm13.083,5.952c0,.96-.432,1.44-1.424,1.44h-4.944c.24.704,1.024,1.184,1.968,1.184.912,0,1.648-.24,2.24-.496.592-.24,1.136.048,1.376.544.24.512.208,1.136-.384,1.504-.816.512-1.984.8-3.328.8-2.704,0-4.752-2.032-4.752-4.704c0-2.704,1.904-4.752,4.688-4.752c2.592,0,4.56,2.08,4.56,4.48Zm-6.432-.832h3.68c-.192-.688-.944-1.248-1.808-1.248s-1.664.56-1.872,1.248Zm13.107-.976c-.304-.128-.592-.192-.88-.192-.912,0-1.728.864-1.728,2.112v3.584c0,.832-.592,1.328-1.392,1.328s-1.392-.496-1.392-1.328v-6.848c0-.832.592-1.328,1.392-1.328.656,0,1.184.352,1.344.928.464-.592,1.296-.928,2.016-.928.656,0,1.2.112,1.616.4.384.256.64.88.352,1.552-.272.624-.928.88-1.328.72Zm2.573,5.328c0-.88.736-1.616,1.616-1.616s1.616.736,1.616,1.616-.736,1.616-1.616,1.616-1.616-.736-1.616-1.616Zm3.232-10.88l-.336,6.944c-.032.832-.64,1.2-1.28,1.2s-1.248-.368-1.28-1.2l-.336-6.944c-.032-.832.656-1.52,1.616-1.52s1.648.688,1.616,1.52Z" fill="#fff"/></g><g clip-path="url(#eyuf8SQV2KH55)" filter="url(#eyuf8SQV2KH20-filter)"><g style="mix-blend-mode:luminosity" opacity="0.5"><ellipse rx="71.173688" ry="18.981506" transform="matrix(.368221 0 0 0.323341 243.590603 295.155506)" fill-opacity="0.3" stroke-width="0"/><path d="M230.911,273.26v14.164c0,0-5.828-.378-5.441,3.633c0,0-.545,4.995,7.332,4.774c0,0,6.124-.163,6.235-3.582v-18.123l-8.126-.866Z" fill="#3e2b2f"/><path d="M232.309,296.489c-2.868,0-4.962-.697-6.242-2.071-1.286-1.387-1.273-2.989-1.253-3.36-.092-1.121.216-2.052.925-2.775c1.247-1.269,3.407-1.497,4.516-1.523v-14.23l9.438,1.01v18.709c-.124,4.005-6.596,4.227-6.872,4.233-.17,0-.341.007-.512.007Zm-1.805-8.427c-1.004,0-2.907.195-3.826,1.14-.447.455-.624,1.042-.552,1.797v.065.065c0,.052-.111,1.329.926,2.429c1.089,1.153,3.019,1.7,5.736,1.628.053,0,5.514-.228,5.599-2.95v-17.518l-6.813-.729v14.132l-.696-.046c-.098,0-.223-.013-.367-.013h-.007Z"/><path d="M252.683,273.26v14.164c0,0-5.829-.378-5.441,3.633c0,0-.545,4.995,7.331,4.774c0,0,6.124-.163,6.236-3.582v-18.123l-8.126-.866Z" fill="#3e2b2f"/><path d="M254.074,296.489c-2.868,0-4.962-.697-6.242-2.071-1.286-1.387-1.273-2.989-1.253-3.36-.092-1.121.216-2.052.925-2.775c1.247-1.269,3.407-1.497,4.516-1.523v-14.23l9.439,1.01v18.709c-.125,4.005-6.597,4.227-6.873,4.233-.17,0-.341.007-.512.007Zm-1.798-8.427c-1.004,0-2.908.195-3.827,1.14-.446.455-.623,1.042-.551,1.797v.065.065c0,.052-.111,1.329.926,2.429c1.089,1.153,3.019,1.7,5.736,1.628.053,0,5.514-.228,5.599-2.95v-17.518l-6.813-.729v14.132l-.696-.046c-.098,0-.223-.013-.367-.013h-.007Z"/><path d="M257.579,214.845c0,0,7.876-6.187,14.224-.762c0,0,3.065,3.581,1.752,7.704c0,0,5.796-.541,7.332,4.343c0,0,1.424,4.344-2.081,7.379c0,0,6.564,1.628,6.019,7.052c0,0,.328,4.67-4.378,6.728c0,0,4.378,3.692,2.842,8.029c0,0-1.529,4.669-6.675,4.448c0,0,2.953,4.448-.657,8.792c0,0-3.826,3.907-9.077,1.517c0,0,.984,5.861-4.483,7.378c0,0-6.892,1.739-9.406-3.041c0,0-.768,5.099-7.66,4.448h1.313c-6.892.651-7.66-4.448-7.66-4.448-2.513,4.774-9.405,3.041-9.405,3.041-5.468-1.517-4.483-7.378-4.483-7.378-5.251,2.39-9.078-1.517-9.078-1.517-3.61-4.344-.656-8.792-.656-8.792-5.139.215-6.675-4.448-6.675-4.448-1.53-4.343,2.842-8.029,2.842-8.029-4.706-2.065-4.378-6.728-4.378-6.728-.545-5.424,6.019-7.052,6.019-7.052-3.499-3.042-2.081-7.379-2.081-7.379c1.529-4.884,7.332-4.343,7.332-4.343-1.313-4.123,1.752-7.704,1.752-7.704c6.347-5.425,14.223.762,14.223.762s2.081-7.053,11.047-6.949c0,0,7.332-1.302,12.143,6.949h-.007Z" fill="#fff"/><path d="M246.5,279.589c-.171,0-.341,0-.519-.013-4.542.189-6.432-2.129-7.187-3.692-3.098,3.744-9.11,2.286-9.386,2.214-4.47-1.244-5.041-5.119-5.041-7.033-5.1,1.68-8.795-2.006-8.834-2.045-2.855-3.432-1.95-6.955-1.241-8.616-4.719-.403-6.229-4.832-6.248-4.877-1.274-3.615,1.102-6.741,2.349-8.063-3.892-2.227-3.918-6.31-3.898-6.876-.388-4.084,2.96-6.428,5.454-7.372-2.776-3.185-1.542-7.105-1.483-7.288c1.28-4.089,5.296-4.727,7.108-4.799-.788-4.038,1.969-7.326,2.094-7.47.02-.026.046-.052.072-.071c5.533-4.735,12.182-1.153,14.342.247.328-.729.945-1.843,1.988-2.95c1.563-1.667,4.418-3.64,9.17-3.64.052,0,.098,0,.151,0c.374-.052,2.179-.267,4.496.404c2.225.644,5.356,2.253,7.889,6.258c2.035-1.342,8.822-5.138,14.453-.319.027.019.053.045.073.071.124.15,2.888,3.432,2.093,7.47c1.812.072,5.829.71,7.109,4.806.059.169,1.293,4.09-1.484,7.274c2.495.944,5.835,3.289,5.455,7.372.013.567-.013,4.65-3.919,6.877c1.247,1.322,3.63,4.448,2.35,8.075-.013.033-1.516,4.454-6.242,4.865.709,1.66,1.628,5.17-1.201,8.576-.072.079-3.768,3.764-8.868,2.084c0,1.915-.571,5.79-5.027,7.027-.289.072-6.301,1.53-9.399-2.208-.722,1.498-2.495,3.706-6.669,3.706v.006Zm-1.175-1.361h1.313c.092,0,.17.02.249.052c4.785-.188,5.415-3.777,5.448-3.946.046-.28.263-.495.545-.541.275-.045.558.092.689.339c2.251,4.272,8.598,2.729,8.664,2.709c4.811-1.335,4.037-6.427,3.997-6.642-.039-.235.059-.476.25-.626.19-.143.453-.175.669-.071c4.752,2.162,8.192-1.237,8.336-1.381c3.21-3.861.683-7.814.578-7.977-.132-.202-.145-.469-.02-.678.125-.214.354-.338.597-.325c4.595.195,6.006-3.96,6.019-3.999c1.372-3.887-2.606-7.3-2.645-7.332-.171-.144-.256-.365-.223-.593.033-.221.177-.41.387-.501c4.233-1.856,3.991-6.044,3.984-6.089c0-.039,0-.072,0-.111.486-4.793-5.277-6.297-5.526-6.356-.237-.059-.421-.241-.48-.482-.059-.234.02-.482.204-.645c3.118-2.709,1.936-6.531,1.884-6.688-1.359-4.337-6.59-3.901-6.643-3.894-.216.019-.433-.072-.571-.241s-.184-.397-.118-.606c1.122-3.529-1.3-6.681-1.595-7.052-5.861-4.956-13.272.755-13.344.814-.151.117-.341.162-.531.13-.191-.033-.348-.15-.447-.313-4.509-7.73-11.178-6.681-11.46-6.629-.039.006-.079.013-.125.013-.065,0-.131,0-.19,0-8.211,0-10.2,6.414-10.22,6.479-.059.209-.223.372-.433.437s-.433.026-.604-.111c-.301-.234-7.495-5.757-13.343-.814-.296.371-2.718,3.543-1.595,7.053.065.208.019.436-.119.605-.137.17-.354.261-.571.241-.216-.019-5.29-.423-6.642,3.888-.052.17-1.234,3.986,1.884,6.695.184.156.262.404.203.645-.059.234-.243.423-.479.481-.243.059-6.006,1.563-5.526,6.356c0,.039,0,.072,0,.111-.014.169-.224,4.246,3.984,6.089.203.091.348.28.38.501.033.222-.052.443-.223.593-.039.033-4.01,3.458-2.651,7.32.059.182,1.457,4.207,6.025,4.011.243,0,.479.118.597.333.125.214.112.475-.026.677-.105.163-2.632,4.116.617,8.016.105.105,3.551,3.504,8.303,1.342.217-.098.479-.072.669.072.191.143.289.384.25.625-.033.215-.807,5.307,4.017,6.649.046.013,6.406,1.543,8.651-2.716.131-.247.413-.384.689-.339.282.046.499.267.538.547.026.163.663,3.758,5.441,3.947.079-.033.164-.052.25-.052l.039-.02Z"/><path d="M226.566,215.06l3.939-21.602c0,0,14.223-7.599,29.319,0l3.827,21.491c0,0-17.177,4.558-37.085.111Z" fill="#ff4438"/><g mask="url(#eyuf8SQV2KH36)"><g><path d="M234.78,188.514l-4.269,32.343l2.603.339l4.269-32.344-2.603-.338Z" fill="#fff"/><path d="M240.579,188.504l-1.692,32.577l2.622.134l1.692-32.577-2.622-.134Z" fill="#fff"/><path d="M249.103,188.502l-2.622.134l1.692,32.577l2.622-.134-1.692-32.577Z" fill="#fff"/><path d="M255.198,188.518l-2.603.339l4.269,32.343l2.603-.338-4.269-32.344Z" fill="#fff"/></g><mask id="eyuf8SQV2KH36" mask-type="luminance" x="-150%" y="-150%" height="400%" width="400%"><path d="M226.678,215.274l3.938-21.601c0,0,14.223-7.599,29.32,0l3.826,21.491c0,0-17.177,4.558-37.084.11Z" fill="#fff"/></mask></g><path d="M244.702,217.645c-5.474,0-11.743-.488-18.28-1.954-.341-.078-.565-.41-.499-.749l3.938-21.601c.033-.195.158-.364.335-.456.144-.078,14.703-7.671,29.924-.006.183.091.315.267.347.469l3.827,21.49c.059.332-.151.658-.479.743-.118.032-7.975,2.064-19.12,2.064h.007Zm-17.374-3.087c17.242,3.706,32.45.625,35.575-.098l-3.663-20.565c-13.377-6.558-26.123-.971-28.138,0l-3.768,20.663h-.006Z"/><path d="M257.323,227.674c-.367,0-.695-.241-.794-.612-.033-.13-.847-3.035-4.142-3.08-.19-.014-3.675-.189-5.047,2.585-.151.299-.466.475-.801.449-.334-.026-.617-.247-.722-.566-.052-.163-1.372-4.071-6.196-3.934-.019,0-2.888.144-4.693,2.358-.282.351-.801.403-1.155.123s-.407-.794-.125-1.146c2.291-2.807,5.77-2.956,5.914-2.963c4.056-.111,6.17,2.156,7.128,3.699c2.12-2.435,5.586-2.24,5.75-2.227c3.61.046,5.29,2.833,5.664,4.305.112.436-.151.879-.59.989-.066.02-.138.026-.204.026l.013-.006Z"/><path d="M246.494,257.096c-.309,0-.624-.006-.946-.019-.328.006-9.366.169-14.098-6.591-.256-.371-.164-.879.203-1.133.374-.254.886-.163,1.142.202c4.227,6.03,12.681,5.894,12.767,5.894c8.808.364,11.525-4.943,11.552-4.995.196-.404.689-.573,1.096-.378s.577.684.38,1.088c-.124.247-3.019,5.932-12.09,5.932h-.006Z"/><path d="M229.894,263.687c-.978,0-2.113-.632-3.38-1.889-.256-.254-.256-.664,0-.918s.669-.254.925,0c1.516,1.504,2.324,1.543,2.599,1.491.329-.059.466-.326.466-.326.171-.384-.682-1.178-1.365-1.576-3.4-2.22-2.835-8.993-2.816-9.286.033-.358.348-.619.709-.593.361.033.63.346.598.704-.151,1.745-.059,6.59,2.198,8.062.243.143,2.6,1.569,1.878,3.204-.04.098-.434.899-1.425,1.081-.124.026-.256.033-.387.033v.013Z"/><path d="M227.308,265.77c-.112,0-.223-.006-.341-.026-1.018-.156-1.976-1.009-2.836-2.52-.177-.312-.066-.71.25-.886.315-.175.715-.065.892.248.847,1.485,1.536,1.81,1.871,1.869.315.059.545-.072.61-.124.381-.495-.459-1.771-1.011-2.351-.249-.26-.236-.677.033-.918.263-.247.683-.234.926.033.249.267,2.402,2.637.997,4.154-.092.092-.597.528-1.391.528v-.007Z"/><path d="M224.643,267.112c-.637,0-1.26-.326-1.844-.964-.204-.241-4.411-5.425-4.45-14.242c0-.358.288-.651.656-.651.361,0,.656.286.656.651.04,8.336,4.089,13.35,4.135,13.402.296.326.611.515.854.515.197,0,.334-.131.334-.131.407-.43-.301-1.738-.754-2.312-.224-.286-.171-.69.118-.911.289-.222.696-.17.919.117.203.26,1.975,2.611.689,3.985-.04.046-.519.554-1.3.56h-.013v-.019Z"/><path d="M260.152,264.09c-.131,0-.262-.013-.387-.032-.998-.183-1.385-.99-1.424-1.081-.722-1.641,1.628-3.068,1.903-3.23c2.232-1.459,2.324-6.304,2.173-8.049-.033-.359.236-.678.597-.704s.683.235.709.593c.026.286.584,7.066-2.783,9.267-.709.417-1.562,1.211-1.392,1.595.007.013.151.274.48.326.275.045,1.089-.013,2.586-1.498.256-.254.669-.254.925,0s.256.664,0,.918c-1.267,1.257-2.402,1.889-3.38,1.889l-.007.006Z"/><path d="M262.732,266.174c-.794,0-1.293-.436-1.352-.495-1.444-1.556.709-3.927.958-4.187.25-.261.663-.274.926-.033.262.241.275.658.032.918-.551.587-1.391,1.856-1.01,2.351.072.053.295.183.61.124.335-.058,1.024-.384,1.871-1.869.177-.312.577-.423.892-.247.315.175.427.573.25.885-.86,1.518-1.812,2.364-2.836,2.521-.118.019-.229.026-.341.026v.006Z"/><path d="M265.403,267.516h-.013c-.788,0-1.26-.508-1.313-.567-1.273-1.361.493-3.712.703-3.972.223-.287.636-.332.919-.117.288.221.341.631.118.911-.46.593-1.162,1.876-.762,2.299c0,0,.132.15.361.143.243,0,.552-.195.867-.54.019-.026,4.069-5.041,4.109-13.376c0-.358.295-.651.656-.651s.656.293.656.651c-.039,8.824-4.253,14.001-4.43,14.222-.611.665-1.228.99-1.871.99v.007Z"/><path d="M239.667,244.736c3.941,0,7.135-3.782,7.135-8.447c0-4.664-3.194-8.446-7.135-8.446-3.94,0-7.134,3.782-7.134,8.446c0,4.665,3.194,8.447,7.134,8.447Z" fill="#ffd200"/><path d="M239.667,245.387c-4.292,0-7.791-4.083-7.791-9.098c0-5.014,3.492-9.097,7.791-9.097c4.3,0,7.792,4.083,7.792,9.097c0,5.015-3.492,9.098-7.792,9.098Zm0-16.893c-3.57,0-6.478,3.497-6.478,7.795c0,4.299,2.908,7.796,6.478,7.796c3.571,0,6.479-3.497,6.479-7.796c0-4.298-2.908-7.795-6.479-7.795Z"/><path d="M251.127,244.495c3.654,0,6.617-3.508,6.617-7.834c0-4.327-2.963-7.835-6.617-7.835s-6.616,3.508-6.616,7.835c0,4.326,2.962,7.834,6.616,7.834Z" fill="#ffd200"/><path d="M251.127,245.146c-4.01,0-7.272-3.803-7.272-8.485c0-4.683,3.262-8.486,7.272-8.486c4.011,0,7.273,3.803,7.273,8.486c0,4.682-3.262,8.485-7.273,8.485Zm0-15.668c-3.281,0-5.959,3.223-5.959,7.183c0,3.959,2.671,7.183,5.959,7.183c3.289,0,5.96-3.224,5.96-7.183c0-3.96-2.671-7.183-5.96-7.183Z"/><path d="M247.586,241.773c2.019,0,3.656-2.286,3.656-5.106c0-2.819-1.637-5.105-3.656-5.105s-3.656,2.286-3.656,5.105c0,2.82,1.637,5.106,3.656,5.106Z"/><path d="M235.554,241.773c2.019,0,3.656-2.286,3.656-5.106c0-2.819-1.637-5.105-3.656-5.105s-3.656,2.286-3.656,5.105c0,2.82,1.637,5.106,3.656,5.106Z"/><path d="M245.831,253.052c3.32,0,6.012-2.481,6.012-5.542s-2.692-5.542-6.012-5.542c-3.321,0-6.013,2.481-6.013,5.542s2.692,5.542,6.013,5.542Z" fill="#f5333f"/><path d="M245.831,253.703c-3.676,0-6.669-2.774-6.669-6.193s2.993-6.187,6.669-6.187c3.675,0,6.668,2.775,6.668,6.187c0,3.413-2.993,6.193-6.668,6.193Zm0-11.077c-2.954,0-5.356,2.195-5.356,4.884c0,2.69,2.402,4.891,5.356,4.891c2.953,0,5.356-2.195,5.356-4.891s-2.403-4.884-5.356-4.884Z"/></g><clipPath id="eyuf8SQV2KH55"><rect width="79.0458" height="107.986" rx="0" ry="0" transform="matrix(1 0 0 1.144657 206.462 188.503)" fill="#fff"/></clipPath></g><g clip-path="url(#eyuf8SQV2KH101)" filter="url(#eyuf8SQV2KH57-filter)"><g style="mix-blend-mode:luminosity" opacity="0.5"><ellipse rx="71.173688" ry="18.981506" transform="matrix(.368221 0 0 0.323341 68.590603 290.155506)" fill-opacity="0.3" stroke-width="0"/><path d="M84.2669,268.948l-7.5054,14.169c0,0,1.7585,4.072-1.471,6.68-3.2212,2.606-6.4624-.586-6.4624-.586s-3.0935-1.8-.6175-8.042c2.4663-6.248,6.0145-13.904,6.0145-13.904l10.0418,1.683Z" fill="#3e2b2f"/><path d="M73.3766,291.353c.7578-.135,1.5396-.468,2.2961-1.083c3.0209-2.444,2.09-6.072,1.7441-7.1l7.7721-14.672-11.3305-1.903-.1975.415c-.0377.074-3.5829,7.747-6.0333,13.942-2.4436,6.185.2884,8.387.8013,8.735.9443.905,2.8554,2.036,4.9312,1.668l.0165-.002Zm9.9613-21.945l-7.2507,13.693.1158.267c.0608.15,1.5286,3.69-1.2919,5.973-2.7686,2.239-5.5335-.43-5.6558-.544l-.1179-.089c-.0956-.059-2.5872-1.678-.3657-7.3c2.1039-5.331,5.0371-11.772,5.8146-13.455l8.7628,1.47-.0112-.015Z"/><path d="M67.3367,266.011L59.8313,280.18c0,0,1.7585,4.072-1.471,6.68-3.2212,2.606-6.4624-.586-6.4624-.586s-3.0934-1.8-.6175-8.042c2.4663-6.248,6.0145-13.904,6.0145-13.904l10.0418,1.683Z" fill="#3e2b2f"/><path d="M56.4464,288.415c.7578-.134,1.5396-.467,2.2961-1.082c3.0209-2.445,2.09-6.072,1.7441-7.1l7.7721-14.673-11.3305-1.902-.1975.415c-.0377.074-3.5829,7.747-6.0333,13.942-2.4436,6.185.2885,8.387.8014,8.735.9442.905,2.8553,2.036,4.9311,1.668l.0165-.003ZM66.416,266.47l-7.2508,13.693.1158.266c.0609.15,1.5287,3.691-1.2918,5.973-2.7537,2.228-5.535-.438-5.6573-.552l-.1179-.088c-.0956-.06-2.5872-1.679-.3657-7.301c2.1039-5.331,5.037-11.772,5.8146-13.455l8.7628,1.47-.0097-.006Z"/><path d="M54.8595,252.402c-.2268.015-7.1957,4.046-9.7837,6.819-2.5879,2.773-2.4843,5.863-4.7387,5.283-2.2528-.572-.0103-3.85-.0103-3.85s-2.0172,3.255-3.1213,1.837c-1.104-1.417,1.1589-3.491,1.1589-3.491s-2.4616,2.387-3.421.877c-.9593-1.511,1.6011-3.68,1.6011-3.68s7.5294-7.399,14.7676-11.824" fill="#ffd200"/><path d="M41.2276,265.157c1.0955-.194,1.6569-1.282,2.2507-2.426.4995-.959,1.0692-2.048,2.045-3.099c2.4738-2.652,8.9343-6.39,9.5077-6.652.266-.081.4502-.333.4318-.626-.0258-.333-.316-.577-.6514-.551-.6131.041-7.6509,4.303-10.1735,7.014-1.0901,1.173-1.723,2.383-2.2361,3.361-.8349,1.601-1.1115,1.954-1.9048,1.748-.3559-.088-.4512-.241-.4979-.359-.2225-.577.3122-1.719.6998-2.354.0662-.105.1204-.182.1528-.238.1716-.275.089-.641-.1895-.82-.2785-.178-.6477-.104-.829.164-.0271.039-.0812.116-.1528.238-.5642.835-1.3582,1.669-1.7871,1.694-.0329.006-.0921.008-.1926-.126-.596-.765.5126-2.118,1.0255-2.623.0368-.032.0586-.053.0721-.072.2396-.228.2477-.61.018-.848s-.6068-.256-.8463-.027c-.0368.032-.0736.063-.1089.104-.5774.524-1.5398,1.176-2.0784,1.111-.0951-.008-.2042-.048-.3106-.215-.5671-.888,1.0282-2.513,1.486-2.899.1089-.103,7.6006-7.428,14.6926-11.768.2828-.177.3694-.547.1998-.83-.1779-.281-.5503-.367-.8345-.198-7.215,4.412-14.7991,11.838-14.8795,11.911-.2739.226-2.8947,2.532-1.6875,4.43.2829.44.6972.712,1.1917.768.2521.032.5186.001.7793-.062-.1879.659-.1499,1.345.3246,1.953.4076.519.8832.612,1.22.595.2613-.013.5258-.102.7815-.24-.0025.271.028.535.1215.772.146.388.4997.891,1.3289,1.108.3918.099.7345.114,1.0311.062Z"/><path d="M113.529,225.009l-2.272-35.427l6.636-11.194l5.837,10.892-3.11,34.413-7.091,1.316Z" fill="#afb1b4"/><path d="M113.635,225.598l7.082-1.314c.264-.047.47-.269.491-.535l3.119-34.414c.012-.121-.017-.234-.061-.336l-5.837-10.892c-.102-.192-.303-.317-.525-.32-.221-.003-.422.108-.533.297l-6.638,11.185c-.058.104-.087.227-.083.345l2.273,35.427c.015.174.093.329.232.44.137.102.307.148.48.117Zm6.418-2.412l-5.963,1.107-2.221-34.566l6-10.101l5.238,9.781-3.054,33.779Z"/><path d="M117.156,221.917c.28-.05.492-.29.499-.587l.464-36.039c.009-.331-.261-.604-.594-.612-.331-.001-.608.259-.616.59l-.473,36.041c-.009.331.261.604.594.612.041-.007.076-.005.117-.012l.009.007Z" fill="#848689"/><path d="M120.893,222.42l-1.476,11.2-5.426-.255-.355-11.221l7.257.276Z" fill="#876355"/><path d="M119.945,234.244l1.635-12.402-8.569-.339.393,12.431l6.539.302.002.008Zm.261-11.246l-1.319,9.989-4.303-.2-.318-10.02l5.94.231Z"/><path d="M119.24,220.551c0,0-10.489-.954-11.018,1.784-.527,2.745,7.125,2.572,7.125,2.572s10.67.777,10.813-1.36c.144-2.137-3.577-2.651-6.929-3.003l.009.007Z" fill="#737577"/><path d="M124.02,225.354c.988-.175,1.8-.437,2.248-.829.383-.33.481-.685.496-.932.188-2.838-4.421-3.322-7.47-3.643-2.593-.242-11.085-.772-11.67,2.271-.109.577.032,1.126.42,1.581c1.518,1.784,6.734,1.721,7.318,1.71c1.095.085,5.676.371,8.658-.158Zm-4.842-4.201c2.27.24,6.497.681,6.383,2.366.002.016-.031.064-.083.107-1.11.966-6.776.939-10.091.699-2.057.044-5.563-.264-6.426-1.285-.151-.176-.199-.353-.154-.572.266-1.365,5.588-1.734,10.365-1.305l.006-.01Z"/><path d="M117.109,241.129c-2.395.289-4.568-1.372-4.854-3.71-.286-2.339,1.423-4.47,3.818-4.76c2.394-.289,4.567,1.372,4.853,3.71.287,2.339-1.423,4.47-3.817,4.76Z" fill="#876355"/><path d="M117.453,241.679c2.579-.457,4.383-2.812,4.067-5.383-.155-1.29-.822-2.447-1.865-3.242s-2.339-1.148-3.662-.99c-1.315.157-2.489.813-3.318,1.83-.819,1.024-1.185,2.305-1.03,3.595.325,2.662,2.807,4.562,5.527,4.232.091-.016.189-.034.28-.05l.001.008Zm-1.529-8.386c.074-.013.14-.025.214-.038.999-.118,1.982.147,2.778.749.788.604,1.284,1.47,1.406,2.437.248,2-1.232,3.842-3.287,4.088s-3.934-1.178-4.175-3.188c-.115-.968.155-1.928.774-2.696.576-.719,1.384-1.192,2.298-1.354l-.008.002Z"/><path d="M101.816,232.111c.115-.021,9.745-5.427,9.745-5.427s-.546-3.231,2.209-3.415c2.763-.186,2.438,2.507,2.438,2.507s-.128,1.416-2.118,1.693l.171,5.13-11.497,8.593-.959-9.096.011.015Z" fill="#ffd200"/><path d="M102.882,241.796c.09-.016.176-.057.26-.114l11.497-8.592c.157-.121.251-.306.242-.499l-.158-4.626c1.923-.51,2.095-2.061,2.1-2.129.009-.044.162-1.465-.736-2.395-.554-.578-1.339-.835-2.347-.767-.907.06-1.619.406-2.119,1.026-.687.865-.733,2.031-.697,2.658-3.652,2.049-8.881,4.978-9.335,5.193-.247.095-.405.351-.381.625l.959,9.096c.022.216.157.403.359.486.111.047.232.06.347.039l.009-.001Zm10.777-9.478l-10.388,7.762-.808-7.636c.853-.455,3.11-1.709,9.404-5.24.224-.124.341-.373.295-.626-.001-.009-.211-1.365.415-2.143.278-.345.687-.528,1.241-.567.63-.044,1.104.092,1.388.396.503.528.41,1.431.411,1.439-.015.104-.173.977-1.6,1.171-.316.039-.532.305-.519.615l.159,4.821.002.008Z"/><path d="M120.002,223.659c0,0-3.133-.644-3.462,1.028-.329,1.671,2.307,1.728,2.307,1.728s-2.797-.383-2.655,1.687c.141,2.069,3.531,1.73,3.531,1.73s1.877.039,2.168-2.842-1.897-3.329-1.897-3.329l.008-.002Z" fill="#ffd200"/><path d="M120.064,230.405c.89-.157,2.187-.978,2.433-3.353.28-2.702-1.428-3.793-2.371-3.981-.221-.045-2.228-.432-3.39.339-.418.277-.694.681-.786,1.162-.105.551.01,1.054.328,1.453.066.082.138.153.209.217-.098.068-.196.136-.292.221-.306.282-.662.809-.608,1.678.04.601.304,1.129.764,1.512c1.111.935,3.052.81,3.404.782.093,0,.202-.011.309-.03Zm-.186-6.158c.178.045,1.646.46,1.417,2.688-.225,2.211-1.433,2.298-1.569,2.297-.016.003-.041.007-.058.01-.485.044-1.886.048-2.538-.504-.209-.174-.316-.392-.333-.676-.026-.426.111-.611.22-.715.335-.312,1.014-.365,1.448-.358.191.017.32.028.371.028.315.003.596-.233.614-.557.028-.318-.201-.598-.523-.642-.044-.009-.183-.027-.38-.034-.452-.055-1.084-.213-1.325-.517-.066-.081-.14-.212-.084-.467.038-.167.118-.291.269-.394.631-.416,2.021-.248,2.471-.159Z"/><path d="M86.016,211.777c0,0,21.137,6.347,18.752,30.208-2.385,23.862-15.791,28.586-15.791,28.586s-19.6942,9.707-33.8309-6.234-5.8366-39.424.4893-45.334c0,0,10.9115-12.332,30.3903-7.22l-.0097-.006Z" fill="#ffd200"/><path d="M81.2271,273.516c4.4976-.797,7.6069-2.227,7.9764-2.394.918-.331,13.8005-5.461,16.1605-29.082c1.256-12.571-4.021-20.293-8.6691-24.554-5.0331-4.607-10.2855-6.218-10.5023-6.29l-.0164.003c-19.6141-5.156-30.8904,7.274-31.0046,7.396-6.5452,6.11-14.8734,29.91-.4832,46.127c8.6177,9.715,19.346,10.06,26.5455,8.784l-.0068.01Zm4.6209-61.161c.9801.3,20.608,6.576,18.314,29.569-1.21,12.115-5.3368,19.106-8.5853,22.84-3.5106,4.026-6.7711,5.229-6.8122,5.237l-.063.028c-.1957.094-19.4511,9.309-33.1085-6.092-7.6591-8.635-8.1872-18.88-7.2806-25.958c1.0797-8.435,4.7036-15.716,7.7326-18.542.1495-.162,10.9508-12.018,29.8113-7.083l-.0083.001Z"/><path d="M82.4224,253.97c5.0906-.902,7.6823-4.081,7.8206-4.258.2563-.324.2056-.797-.1302-1.058-.3262-.255-.8016-.204-1.0661.121-.1737.217-4.3698,5.302-12.8234,3.565-8.2591-1.695-7.9654-7.735-7.9435-7.992.0284-.411-.2907-.768-.7051-.805-.413-.028-.7741.281-.8107.693-.0033.077-.44,7.595,9.1525,9.569c2.4888.514,4.651.485,6.4879.16l.018.005Z"/><path d="M76.212,192.981c0,0,8.9971-.446,12.3874,9.883c0,0,1.1712,4.683,7.4955,8.765c6.9401,4.479,5.0631,7.667,5.0631,7.667s-1.9408,4.626-8.8874,2.335c-6.9452-2.282-12.0155-4.821-23.9593-1.944s-13.6902,3.423-16.6926,1.278c-3.0024-2.146-2.7233-5.329,2.273-7.895c4.9962-2.567,6.8133-3.193,8.869-10.593c2.0558-7.4,9.4262-9.619,13.4513-9.496Z"/><path d="M97.1659,222.436c3.1801-.563,4.2551-3.001,4.2661-3.037.066-.104,1.923-3.449-5.1804-8.035-6.1511-3.969-7.3526-8.537-7.3614-8.586-1.7948-5.459-5.1419-7.915-7.6346-9.019-2.6309-1.164-4.8381-1.102-5.0485-1.09-4.4007-.132-11.6912,2.343-13.7348,9.715-1.9262,6.939-3.6003,7.793-8.062,10.07l-.6537.336c-3.4481,1.768-4.2777,3.587-4.3741,4.804-.0937,1.326.6136,2.569,2.0558,3.597c2.9927,2.138,4.9162,1.679,15.5867-.905l1.3528-.324c10.6143-2.565,15.7487-.806,21.6799,1.225.6877.233,1.3948.48,2.1087.716c2.0586.674,3.7048.754,4.9898.526l.0097.007ZM73.582,193.481c.939-.167,1.8283-.231,2.6155-.202l.0247-.004c.0853.001,8.8103-.303,12.0866,9.674.0405.179,1.2732,4.825,7.617,8.921c6.6222,4.274,4.9842,7.225,4.9732,7.261-.098.211-1.9452,4.365-8.5285,2.204-.7221-.235-1.4195-.475-2.1072-.708-6.0307-2.064-11.2368-3.845-22.0227-1.24l-1.3527.324c-10.6803,2.577-12.3169,2.977-15.0849,1.001-1.2661-.899-1.8902-1.962-1.8077-3.066.1138-1.499,1.5464-3.036,4.0452-4.315l.6538-.336c4.4999-2.301,6.3697-3.249,8.3686-10.445c1.5918-5.722,6.491-8.355,10.5273-9.071l-.0082.002Z"/><path d="M79.5716,207.357c-2.582.075-4.7304-1.743-4.7986-4.061-.0682-2.319,1.9697-4.259,4.5518-4.334c2.582-.076,4.7305,1.742,4.7986,4.061.0682,2.318-1.9697,4.258-4.5518,4.334Z" fill="#bbb"/><path d="M79.3998,205.383l.4265-.012c1.104-.033,2.025.831,2.0573,1.928l.0017.058c.0323,1.097-.8365,2.013-1.9405,2.045l-.4265.012c-1.1039.033-2.025-.831-2.0573-1.928l-.0017-.058c-.0323-1.097.8365-2.013,1.9405-2.045Z" fill="#bbb"/><path d="M80.8284,201.909l.0251-.001c.3234-.009.5931.244.6026.565l.0347,1.18c.0094.322-.245.59-.5684.599l-.0251.001c-.3233.009-.5931-.244-.6025-.565l-.0347-1.18c-.0095-.321.245-.59.5683-.599Z"/><path d="M80.9151,204.276c.3466-.01.6185-.295.6077-.639l-.0363-1.151c-.0108-.345-.2972-.615-.6437-.604s-.6185.295-.6077.64l.0363,1.151c.0108.344.2972.614.6437.603Zm-.0703-2.335c.3136-.005.5777.235.5923.554l.0363,1.15c.0049.312-.237.574-.5574.589-.3203.015-.5776-.235-.5922-.554l-.0364-1.151c-.0049-.311.237-.574.5574-.588Z" fill="#231815"/><path d="M78.2571,201.984l.0251-.001c.3234-.009.5931.244.6026.565l.0347,1.18c.0094.322-.245.59-.5684.599l-.025.001c-.3234.009-.5931-.244-.6026-.565l-.0347-1.18c-.0094-.322.245-.59.5683-.599Z"/><path d="M78.3365,204.353c.3465-.01.6185-.295.6077-.64l-.0363-1.15c-.0108-.345-.2972-.615-.6438-.604s-.6184.295-.6077.64l.0364,1.15c.0108.345.2972.615.6437.604Zm-.0621-2.337c.3136-.005.5777.236.5923.554l.0363,1.151c.0049.311-.237.574-.5574.588-.3203.015-.5776-.235-.5922-.553l-.0364-1.151c-.0048-.312.2371-.574.5574-.589Z" fill="#231815"/><path d="M73.9532,214.32c.0674-.004.1415-.017.2142-.038l11.9474-4.516c.3342-.127.5047-.504.3771-.836-.1275-.332-.5064-.501-.8406-.375L73.704,213.072c-.3343.127-.5047.503-.3772.835.0993.27.357.427.6279.421l-.0015-.008Z" fill="#bbb"/><path d="M86.0887,213.554c.2874-.008.541-.205.6161-.497.0828-.344-.1247-.696-.4807-.785l-12.4252-2.984c-.3462-.082-.7002.124-.7898.478-.0828.344.1248.696.4807.785l12.4253,2.983c.0621.015.1144.022.1736.02Z" fill="#bbb"/><path d="M93.3464,227.252c.4119-.073.6812-.467.6092-.868-.2466-1.376-1.6111-4.056-4.9681-4.34-.1227-.02-3.2869-.414-5.3995,1.692-.7843-1.483-2.5786-3.715-6.3207-3.871-.1362-.002-3.3561-.09-5.6466,2.352-.2854.304-.2676.782.0382,1.066.3058.283.7871.266,1.0726-.038c1.8051-1.925,4.4497-1.87,4.4841-1.868c4.4687.179,5.4319,3.987,5.4392,4.028.0708.3.3237.525.6296.573.306.047.6111-.1.7677-.365c1.4455-2.46,4.6495-2.082,4.7804-2.063c3.0637.259,3.6228,2.998,3.6434,3.113.0734.409.4698.677.8734.605l-.0029-.016Z"/><path d="M75.8985,241.307c-3.8831-.244-6.8085-3.93-6.534-8.234.2744-4.304,3.6447-7.595,7.5279-7.351s6.8085,3.931,6.534,8.234c-.2744,4.304-3.6448,7.595-7.5279,7.351Z" fill="#fff"/><path d="M77.5316,241.812c1.4333-.254,2.7859-.958,3.8988-2.051c1.5253-1.495,2.45-3.542,2.5858-5.771.1441-2.23-.5129-4.377-1.8331-6.052-1.3396-1.688-3.2108-2.691-5.2578-2.827-4.2042-.268-7.8756,3.288-8.1674,7.918s2.8868,8.61,7.0992,8.877c.5672.035,1.1308.003,1.6745-.094Zm-2.0583-15.413c.4449-.079.9067-.11,1.3721-.074c1.7014.104,3.2641.95,4.3846,2.365c1.1415,1.436,1.7044,3.296,1.5749,5.228-.1214,1.93-.9157,3.71-2.2329,4.99-1.2939,1.269-2.9471,1.908-4.65,1.796-3.542-.225-6.2175-3.628-5.9609-7.601.2157-3.442,2.5783-6.192,5.5108-6.712l.0014.008Z"/><path d="M72.5861,238.392c-2.0661-.129-3.5893-2.613-3.4023-5.546s2.0136-5.206,4.0796-5.076s3.5894,2.613,3.4023,5.546c-.187,2.934-2.0136,5.206-4.0796,5.076Z"/><path d="M87.1982,241.797c-3.5972-.226-6.3069-3.645-6.0524-7.637.2546-3.992,3.3771-7.045,6.9742-6.819c3.5972.226,6.3069,3.645,6.0524,7.637s-3.377,7.045-6.9742,6.819Z" fill="#fff"/><path d="M88.7115,242.306c3.2372-.574,5.8297-3.559,6.0696-7.293.272-4.313-2.6972-8.027-6.6178-8.278-3.9289-.25-7.3457,3.067-7.6177,7.381-.2719,4.313,2.6973,8.027,6.6179,8.278.5245.034,1.0455.001,1.548-.088Zm-1.8916-14.294c.4119-.073.8325-.097,1.262-.072c3.2585.208,5.7245,3.344,5.4879,7.001-.2285,3.656-3.0747,6.457-6.3317,6.258-3.2585-.208-5.7245-3.344-5.4879-7.001.2051-3.17,2.3679-5.707,5.0697-6.186Z"/><path d="M84.2951,239.636c-2.0246-.127-3.5172-2.56-3.334-5.433.1833-2.874,1.973-5.101,3.9976-4.973c2.0246.127,3.5173,2.56,3.334,5.433-.1832,2.874-1.973,5.101-3.9976,4.973Z"/><path d="M80.9828,248.642c-3.2255.572-6.2451-1.222-6.7445-4.007s1.7106-5.507,4.9361-6.078c3.2255-.572,6.2451,1.222,6.7444,4.007s-1.7105,5.506-4.936,6.078Z" fill="#f5333f"/><path d="M81.0884,249.231c3.5503-.629,5.9798-3.669,5.4234-6.772-.5563-3.103-3.9012-5.12-7.4432-4.492-3.5421.628-5.9798,3.67-5.4235,6.773.5563,3.102,3.9012,5.119,7.4433,4.491Zm-1.807-10.077c2.8913-.512,5.6054,1.068,6.0443,3.515.4388,2.448-1.5589,4.863-4.4502,5.375-2.8913.513-5.6053-1.067-6.0442-3.515-.4389-2.447,1.5588-4.862,4.4501-5.375Z"/></g><clipPath id="eyuf8SQV2KH101"><rect width="101.158" height="104.06" rx="0" ry="0" transform="matrix(-1.108943 0.196554 0.216543 1.207666 122.145 177.027)" fill="#fff"/></clipPath></g><g transform="translate(.000001 0)"><g transform="translate(0 0.000001)"><path d="M168.488,209.434c3.579-10.447,8.725-12.864,8.725-12.864c8.617-3.975,11.467,3.236,11.467,3.236c5.051,12.233-20.273,17.684-20.273,17.684l-.283-.107c0,0-24.973-5.344-19.922-17.577c0,0,2.836-7.211,11.467-3.236c0,0,5.146,2.403,8.725,12.864h.108-.014Z" fill="#f5333f"/><path d="M147.982,201.957c-3.341,11.924,20.272,17.151,20.272,17.151l.284.111c0,0,23.993-5.343,20.613-17.298-2.656,8.819-20.613,12.819-20.613,12.819l-.284-.112c0,0-17.65-3.907-20.272-12.671Z" fill="#ca323d"/><path d="M168.326,218.417l-.459-.188c-1.337-.296-16.208-3.72-20.219-11.293-1.242-2.35-1.337-4.861-.27-7.452.041-.121,1.27-3.143,4.484-4.418c2.35-.94,5.105-.698,8.171.711.216.094,4.822,2.337,8.415,11.266c3.579-8.916,8.198-11.158,8.4-11.252c3.066-1.41,5.822-1.652,8.172-.725c3.214,1.289,4.43,4.31,4.484,4.431c1.053,2.551.959,5.049-.27,7.385-4.147,7.842-19.963,11.333-20.638,11.481l-.27.054Zm-13.479-22.156c-.824,0-1.607.148-2.323.43-2.499.993-3.512,3.437-3.525,3.451-.878,2.135-.811,4.082.189,5.975c3.741,7.05,18.949,10.38,19.098,10.42l.162.054c2.053-.484,15.694-3.908,19.192-10.528.999-1.88,1.067-3.813.202-5.908-.013-.04-1.026-2.471-3.525-3.464-1.877-.739-4.146-.511-6.753.684-.04.014-4.875,2.458-8.265,12.341l-.203.59h-1.364l-.203-.59c-3.39-9.897-8.225-12.327-8.266-12.354-1.607-.739-3.079-1.115-4.416-1.115v.014Z" fill="#9f3f53"/></g><g><path d="M182.778,315.579l-3.591-15.461c4.429-3.596,12.792-9.447,14.005-4.674c1.4,5.506,3.887,20.135,3.591,25.168-.359,6.113-10.773,12.585-16.16,8.989-4.309-2.876-.359-10.547,2.155-14.022Z" fill="#3e2b2f"/><path d="M181.445,330.049c5.571,2.372,14.881-3.722,15.221-9.495.295-5.034-2.192-19.663-3.592-25.169-.263-1.034-.862-1.57-1.683-1.737c1.454,6.01,3.904,20.798,3.606,25.955-.309,5.343-7.849,10.948-13.552,10.446Z" fill="#331b20"/><path d="M182.778,315.629l-3.591-15.46c4.429-3.596,12.792-9.448,14.005-4.675c1.4,5.507,3.887,20.135,3.591,25.169-.359,6.112-10.773,12.584-16.16,8.989-4.309-2.877-.359-10.547,2.155-14.023Z" fill="none" stroke="#1b1919" stroke-width="2"/></g><g transform="translate(.000001 0.000001)"><path d="M159.245,316.02l-3.591-15.461c4.429-3.595,12.792-9.447,14.006-4.674c1.399,5.506,3.886,20.135,3.591,25.169-.359,6.112-10.774,12.584-16.161,8.988-4.309-2.876-.359-10.546,2.155-14.022Z" fill="#3e2b2f"/><path d="M157.912,330.491c5.571,2.372,14.882-3.723,15.221-9.496.296-5.034-2.191-19.663-3.591-25.169-.263-1.034-.862-1.57-1.684-1.737c1.454,6.01,3.905,20.798,3.607,25.955-.309,5.343-7.85,10.948-13.553,10.447Z" fill="#331b20"/><path d="M159.245,316.07l-3.591-15.46c4.429-3.596,12.792-9.447,14.006-4.674c1.399,5.506,3.886,20.134,3.591,25.168-.359,6.113-10.774,12.584-16.161,8.989-4.309-2.876-.359-10.547,2.155-14.023Z" fill="none" stroke="#1b1919" stroke-width="2"/></g><g transform="translate(.000004 0)"><g transform="translate(.000003 0)"><path d="M169.541,304.611c0,0-31.158.899-40.761-23.513c0,0-8.779-28.319,7.644-50.515c0,0,11.656-17.188,32.969-16.678h-.297c21.569-.268,32.968,16.678,32.968,16.678c15.6,21.659,7.307,51.147,7.307,51.147-6.55,23.284-40.41,22.881-40.41,22.881" fill="#f280a1"/><path d="M130.218,282.851c12.232,18.095,38.033,17.349,38.033,17.349h-.339c3.136-.019,34.548-.779,40.881-23.3c0,0,4.154-14.778,1.152-31.215c5.151,18.149.118,36.044.118,36.044-6.222,22.116-37.081,22.862-40.162,22.881h.333c0,0-29.648.856-40.016-21.759Z" clip-rule="evenodd" fill="#e76c90" fill-rule="evenodd"/><path d="M169.244,305.483c-3.363,0-32.104-.711-41.288-24.076-.108-.349-8.739-29.058,7.766-51.362.094-.147,12.115-17.496,33.59-17.04.094,0,.189,0,.27,0c21.475,0,33.09,16.906,33.211,17.067c15.654,21.727,7.51,51.577,7.429,51.872-6.159,21.888-35.94,23.419-40.654,23.513c0,0-.121,0-.324,0v.026Zm-.77-90.719c-19.989,0-31.199,16.141-31.307,16.302-16.005,21.619-7.631,49.482-7.55,49.764c8.549,21.753,35.157,22.854,39.344,22.894.324,0,33.265.121,39.559-22.25.081-.295,7.996-29.353-7.172-50.395-.121-.188-11.25-16.315-31.753-16.315-.067,0-.135,0-.189,0h-.297c-.203,0-.419,0-.621,0h-.014Z" fill="#9f3f53"/></g><g><path d="M148.459,239.565c-.364,0-.688-.214-.824-.577l-1.796-4.807c-.175-.457.068-.954.513-1.128.46-.175.973.067,1.135.51l1.796,4.807c.176.457-.067.954-.513,1.128-.108.041-.203.054-.311.054v.013Z" fill="#9f3f53"/><path d="M156.225,238.303c0,0-.108,0-.162-.013-.486-.081-.797-.537-.716-1.021l.77-4.216c.081-.484.554-.792,1.027-.712.486.081.796.537.715,1.021l-.769,4.216c-.081.43-.446.725-.865.725Z" fill="#9f3f53"/><path d="M152.254,237.967c-.459,0-.851-.362-.878-.832l-.229-4.243c-.027-.484.351-.9.837-.927.5-.027.905.349.932.833l.23,4.243c.027.483-.351.9-.838.926-.013,0-.027,0-.054,0Z" fill="#9f3f53"/><path d="M152.835,258.499c5.259,0,9.522-4.726,9.522-10.555s-4.263-10.554-9.522-10.554c-5.258,0-9.522,4.725-9.522,10.554s4.264,10.555,9.522,10.555Z" fill="#ffd200"/><path d="M152.835,259.385c-5.74,0-10.399-5.13-10.399-11.441s4.659-11.44,10.399-11.44s10.4,5.129,10.4,11.44-4.66,11.441-10.4,11.441Zm0-21.122c-4.754,0-8.63,4.337-8.63,9.681c0,5.345,3.876,9.682,8.63,9.682s8.631-4.337,8.631-9.682c0-5.344-3.877-9.681-8.631-9.681Z" fill="#9f3f53"/><path d="M148.536,247.895c1.609,2.099,5.611,5.039,8.749,0" fill="none" stroke="#320e23" stroke-width="3" stroke-linecap="round"/><g transform="translate(150.839485 241.05173)" opacity="0"><path d="M5.14611,13.4933c2.54575,0,4.60949-2.9558,4.60949-6.602s-2.06374-6.602024-4.60949-6.602024-4.609489,2.955824-4.609489,6.602024s2.063739,6.602,4.609489,6.602Z" fill="#4c1e27"/><circle r="1.79181" transform="translate(5.58704 4.07167)" fill="#fff"/></g></g><g><path d="M174.324,239.565c-.108,0-.203-.013-.311-.053-.459-.175-.689-.672-.513-1.128l1.796-4.808c.176-.456.676-.684,1.135-.51.459.175.689.672.513,1.128l-1.796,4.807c-.135.349-.473.578-.824.578v-.014Z" fill="#9f3f53"/><path d="M166.544,238.303c-.419,0-.797-.295-.864-.725l-.77-4.216c-.081-.484.229-.94.716-1.021.472-.094.945.229,1.026.712l.77,4.216c.081.484-.23.94-.716,1.021-.054,0-.108.013-.162.013Z" fill="#9f3f53"/><path d="M170.529,237.967c0,0-.027,0-.055,0-.486-.026-.864-.443-.837-.926l.23-4.243c.027-.484.445-.86.932-.833.486.027.864.443.837.927l-.23,4.243c-.027.47-.418.832-.877.832Z" fill="#9f3f53"/><path d="M169.326,258.834c5.669,0,10.265-5.098,10.265-11.387c0-6.288-4.596-11.386-10.265-11.386s-10.264,5.098-10.264,11.386c0,6.289,4.595,11.387,10.264,11.387Z" fill="#ffd200"/><path d="M169.326,259.707c-6.145,0-11.142-5.505-11.142-12.26c0-6.754,4.997-12.259,11.142-12.259s11.143,5.505,11.143,12.259c0,6.755-4.998,12.26-11.143,12.26Zm0-22.774c-5.173,0-9.387,4.714-9.387,10.514c0,5.801,4.214,10.514,9.387,10.514s9.387-4.713,9.387-10.514c0-5.8-4.214-10.514-9.387-10.514Z" fill="#9f3f53"/><path d="M166.034,248.195c1.609,2.099,5.612,5.039,8.75,0" fill="none" stroke="#320e23" stroke-width="3" stroke-linecap="round"/><g transform="translate(167.804923 239.57733)" opacity="0"><path d="M5.14611,13.4933c2.54575,0,4.60949-2.9558,4.60949-6.602s-2.06374-6.602024-4.60949-6.602024-4.609489,2.955824-4.609489,6.602024s2.063739,6.602,4.609489,6.602Z" fill="#4c1e27"/><circle r="1.79181" transform="translate(5.58704 4.07167)" fill="#fff"/></g></g><g><path d="M161.494,273.384c4.126,0,7.471-2.001,7.471-4.47s-3.345-4.47-7.471-4.47-7.471,2.001-7.471,4.47s3.345,4.47,7.471,4.47Z" opacity="0.5" fill="#d04871"/><path d="M160.453,270.034c4.774,0,8.644-3.343,8.644-7.466c0-4.124-3.87-7.466-8.644-7.466s-8.644,3.342-8.644,7.466c0,4.123,3.87,7.466,8.644,7.466Z" fill="#f5333f"/><path d="M160.453,270.92c-5.254,0-9.536-3.747-9.536-8.339s4.282-8.339,9.536-8.339s9.535,3.747,9.535,8.339-4.281,8.339-9.535,8.339Zm0-14.932c-4.282,0-7.766,2.954-7.766,6.593s3.484,6.593,7.766,6.593c4.281,0,7.766-2.954,7.766-6.593s-3.485-6.593-7.766-6.593Z" fill="#9f3f53"/><rect width="4" height="4" rx="2" ry="2" transform="translate(155.135 258.91)" fill="#f99f93"/></g><path d="M174.482,273.691c-8.931,5.04-19.812,2.1-24.136,0c.704,5.599,4.344,16.798,13.275,16.798c8.93,0,10.961-11.199,10.861-16.798Z" opacity="0" fill="#5b0308"/><ellipse rx="5.461847" ry="8.235641" transform="translate(162.415547 281.926641)" opacity="0" fill="#5b0308" stroke-width="0"/><path d="M155.654002,281.944q6.317,4.063,12.752999-.214" transform="translate(.000001-2.999999)" fill="none" stroke="#5b0308" stroke-width="2" stroke-linecap="round"/><g transform="matrix(.704965-.709242 0.709242 0.704965-150.558609 178.136456)"><path d="M137.032,265.289c0,0-11.211-2.396-15-4.257c0,0-5.451-7.18-8.23-4.588-2.779,2.593,2.107,5.246,2.107,5.246s-6.187-3.549-7.154-.622c-.967,2.928,4.599,4.372,4.599,4.372s-4.358-1.523-4.7.977c-.341,2.5,2.238,3.054,6.141,4.101c3.904,1.047,24.039,8.5,24.039,8.5" fill="#f280a1"/><path d="M139.115,279.874c.244-.078.45-.272.55-.53.164-.449-.059-.957-.528-1.131-.822-.3-20.228-7.479-24.119-8.53l-.576-.154c-3.81-1.02-5.118-1.504-4.922-2.981.044-.297.164-.406.28-.486.578-.356,1.827-.179,2.697.05.319.109.55.162.631.193.464.119.931-.145,1.065-.598.135-.454-.106-.928-.553-1.08-.081-.031-.303-.101-.631-.193-1.065-.35-2.789-1.109-3.343-2.104-.174-.312-.206-.626-.089-.961.078-.237.203-.376.429-.464c1.116-.402,3.718.612,5.327,1.493.068.035.119.061.14.082.43.23.96.073,1.193-.341.233-.415.086-.947-.335-1.193-.034-.017-.068-.035-.119-.061-.668-.392-2.259-1.52-2.394-2.579-.02-.149-.082-.596.57-1.202.27-.257.578-.356.974-.314c2.014.171,5.043,3.606,5.946,4.8.08.116.191.193.31.254c3.84,1.887,14.736,4.23,15.209,4.332s.94-.204,1.041-.675c.1-.471-.209-.937-.682-1.039-.106-.022-10.802-2.316-14.608-4.101-.785-1.006-4.131-5.06-7.066-5.316-.891-.08-1.695.193-2.338.782-1.077.997-1.193,2.024-1.111,2.705.028.259.1.519.205.754-1.031-.248-2.064-.325-2.898-.014-.718.274-1.224.805-1.476,1.551-.26.804-.192,1.617.222,2.36.254.47.632.885,1.074,1.238-.116.037-.21.095-.317.158-.625.385-.999.973-1.102,1.741-.43,3.136,2.511,3.928,6.214,4.926l.575.154c3.815,1.033,23.766,8.403,23.962,8.482.192.065.392.071.585.009l.008-.017Z" fill="#9f3f53"/></g><g transform="translate(.000003 0)"><path d="M200.676,259.058c0,0,9.934-5.683,12.962-8.602c0,0,2.949-8.475,6.408-6.857s-.367,5.622-.367,5.622s4.786-5.25,6.623-2.764c1.837,2.487-3.015,5.55-3.015,5.55s3.677-2.77,4.784-.499c1.108,2.27-1.177,3.58-4.569,5.761-3.393,2.18-20.249,15.376-20.249,15.376" fill="#f280a1"/><path d="M203.253,273.544c-.257,0-.514-.122-.689-.337-.298-.376-.243-.926.149-1.234.689-.536,16.937-13.25,20.316-15.43l.5-.321c3.312-2.127,4.406-2.984,3.758-4.327-.135-.269-.284-.336-.419-.377-.662-.162-1.797.385-2.554.867-.27.201-.473.321-.541.375-.405.254-.932.145-1.202-.245-.271-.389-.189-.913.189-1.194.068-.053.257-.187.541-.374.905-.656,2.311-1.901,2.528-3.015.067-.348,0-.657-.216-.939-.149-.202-.311-.296-.554-.31-1.189-.043-3.352,1.71-4.609,3.036-.054.054-.095.094-.109.121-.337.348-.892.36-1.243.037s-.378-.873-.054-1.235c.027-.026.055-.053.095-.093.514-.576,1.676-2.131,1.474-3.178-.027-.148-.108-.591-.919-.968-.337-.162-.662-.163-1.027-.002-1.865.774-3.677,4.957-4.164,6.365-.041.135-.122.242-.216.336-3.069,2.959-12.72,8.494-13.139,8.735s-.959.092-1.202-.325c-.243-.416-.095-.953.324-1.194.095-.053,9.57-5.481,12.639-8.333.432-1.194,2.353-6.062,5.07-7.196.824-.348,1.675-.332,2.473.032c1.337.62,1.77,1.56,1.904,2.232.054.255.068.523.041.778.905-.548,1.865-.935,2.757-.893.77.042,1.419.392,1.892,1.024.499.686.688,1.478.526,2.31-.095.523-.325,1.032-.636,1.502.122,0,.23.027.352.054.716.176,1.256.62,1.594,1.319c1.391,2.848-1.163,4.493-4.38,6.566l-.501.321c-3.311,2.141-20.019,15.203-20.181,15.337-.162.12-.351.187-.554.187l-.013-.014Z" fill="#9f3f53"/></g></g></g><g transform="translate(.000003 0)"><ellipse rx="13.001619" ry="3.014596" transform="matrix(.94264 0.11551-.210339 1.716502 106.58568 330.443726)" fill-opacity="0.2" stroke-width="0"/><rect width="26.9415" height="8.54754" rx="4" ry="4" transform="matrix(.987183-.15959 0.161399 0.986889 106.17 272.348)" fill="#7e8084" stroke="#5f5d52" stroke-width="2"/><path d="M113.184,271.397c1.286,1.037,2.251,5.183,1.929,7.947" fill="none" stroke="#5f5d52"/><path d="M138.086,260.477c5.501,0,9.957,4.447,9.957,9.927s-4.455,9.927-9.957,9.927-9.957-4.447-9.957-9.927s4.455-9.927,9.957-9.927Z" fill="#d9d9d9" stroke="#5f5d52" stroke-width="2"/><path d="M130.822,264.581l16.764,8.177" fill="none" stroke="#5f5d52" stroke-width="2" stroke-linecap="round"/><path d="M128.292,269.927c.253.252,10.463,5.439,15.945,8.269" fill="none" stroke="#5f5d52" stroke-width="2" stroke-linecap="round"/><path d="M137.148,261.751l-7.274,14.152" fill="none" stroke="#5f5d52" stroke-width="2" stroke-linecap="round"/><path d="M142.525,262.695l-8.726,16.722" fill="none" stroke="#5f5d52" stroke-width="2" stroke-linecap="round"/><path d="M146.637,266.783l-7.005,13.55" fill="none" stroke="#5f5d52" stroke-width="2" stroke-linecap="round"/><ellipse rx="0.920817" ry="1.00746" transform="matrix(.984392-.175991 0.177975 0.984035 109.787747 276.10732)" fill="#5f5d52"/><path d="M113.845,279.417l-6.754,49.141" fill="none" stroke="#5f5d52" stroke-width="2"/><path d="M96.0391,329.474l12.8939-15.261L115.38,331" fill="none" stroke="#5f5d52" stroke-width="2"/></g><g><path d="M272.65,12.5L306.5,46.3496v291.7244L272.727,371.5h-226.4536L12.5,338.074v-291.7244L46.3496,12.5h226.3004ZM299.5,49.835L270.165,20.5h-221.33L19.5,49.835v284.736l.1484.147l29.9463,29.637.1465.145h219.5178l.146-.145l29.947-29.637.148-.147v-284.736Z" fill="#fe80ce" stroke="#98005e"/><path d="M21.5,50.6631v283.0739L50.5635,362.5h213.8735L293.5,333.737v-283.0739L265.337,22.5h-215.6739L21.5,50.6631Zm283,288.2459l-.445.441-34.068,33.716-.438.434h-224.0978l-.4385-.434L10.9453,339.35l-.4453-.441v-293.3885L45.5205,10.5h223.9585L304.5,45.5205v293.3885Z" transform="translate(2 1)" fill="#fe80ce" stroke-width="3"/><g mask="url(#eyuf8SQV2KH174)"><g id="eyuf8SQV2KH172_to" transform="translate(143.387258,-556.789938)"><rect width="31" height="404.079" rx="0" ry="0" transform="rotate(44.047527) scale(1,2.023701) translate(272.878,28)" fill="#fff" fill-opacity="0.2"/></g><g id="eyuf8SQV2KH173_to" transform="translate(171.079462,-567.30894)"><rect width="13.5674" height="404.079" rx="0" ry="0" transform="rotate(44.047527) scale(1,2.023701) translate(300.878,60)" fill="#fff" fill-opacity="0.2"/></g><mask id="eyuf8SQV2KH174" mask-type="luminance" x="-150%" y="-150%" height="400%" width="400%"><path d="M47.0127,13Q45.719482,13,13,46.5566L13,337.5L46.4795,371h225.7495L306,337.5L307,47L273.601,14Q48.3272,13,47.0127,13Z" fill="#fff" stroke-width="0.768"/></mask></g><path d="M24,51.1421v282.1709L51.0975,360h216.8045L295,333.313L295,51L268,24h-216.8579L24,51.1421ZM47,14L14,47v290.5L47,370h225l33-32.5L305,47L272,14h-225Z" clip-rule="evenodd" fill="#ffd2ee" fill-rule="evenodd"/><path d="M31.7666,354.997L47.0004,370L272,370l33-32.5L305,47l-9.498-9.4983-6.352,7.6475L295,51v282.313L267.903,360h-216.8051L38.1793,347.277l-6.4127,7.72Z" fill="#dc8abd"/><path d="M272,370l-4-10l27-27l10,4.5L272,370Z" fill="#cd6da8"/><path d="M268,24l4-10l33,33-10,4-27-27Z" fill="#f3a9d7"/><path d="M47,14l4,10L24,51L14,47L47,14Z" fill="#fff1fa"/><path d="M47,370l4.5-10L24,333.5l-10,4L47,370Z" fill="#f3a9d7"/><path d="M13,46.5566v291.3084L46.4795,371h59.8855l8.866-10.641.3-.359h87.938l.3.359L212.635,371h59.775L306,337.864v-291.3074L272.443,13h-63.474l-7.2,8.6406-.3.3594h-87.938l-.3-.3594L106.031,13h-59.4744L13,46.5566ZM318,362.922l-.302.294-20,19.5-.291.284h-274.7996l-.2881-.268-20.99996-19.5L1,362.937L1,22.5859L22.5859,1h274.8281L318,21.5859v341.3361Z" fill="#fe80ce" stroke="#98005e" stroke-width="2"/><path d="M5.34316,49.6002L2,47v2.5337l2.65694,2.0665L12,51.6004v-2l-6.65684-.0002Z" clip-rule="evenodd" fill="#98005e" fill-rule="evenodd"/><path d="M5.34316,334L2,336.601v-2.534L4.65694,332L12,332v2h-6.65684Z" clip-rule="evenodd" fill="#98005e" fill-rule="evenodd"/><path d="M22.5,358L14,366.5" fill="none" stroke="#98005e" stroke-width="3"/><path d="M22.5,27L14,18.5" fill="none" stroke="#98005e" stroke-width="3"/><path d="M27,362.5L18.5,371" fill="none" stroke="#98005e" stroke-width="3"/><path d="M27,22.5L18.5,14" fill="none" stroke="#98005e" stroke-width="3"/><path d="M7.5,51L7,333.5" fill="none" stroke="#98005e"/><path d="M312.5,51l.5,282.5" fill="none" stroke="#98005e"/><path d="M313.657,49.6002L317,47v2.5337l-2.657,2.0665-7.343.0002v-2l6.657-.0002Z" clip-rule="evenodd" fill="#98005e" fill-rule="evenodd"/><path d="M313.657,334L317,336.601v-2.534L314.343,332h-7.343v2h6.657Z" clip-rule="evenodd" fill="#98005e" fill-rule="evenodd"/><path d="M296.5,358l8.5,8.5" fill="none" stroke="#98005e" stroke-width="3"/><path d="M296.5,27l8.5-8.5" fill="none" stroke="#98005e" stroke-width="3"/><path d="M292,362.5l8.5,8.5" fill="none" stroke="#98005e" stroke-width="3"/><path d="M292,22.5l8.5-8.5" fill="none" stroke="#98005e" stroke-width="3"/></g></svg>
