<svg width="29" height="28" viewBox="0 0 29 28" fill="none" xmlns="http://www.w3.org/2000/svg">
<g clip-path="url(#clip0_695_4153)">
<path d="M22.5961 5C25.011 7.17921 26.5 10.1643 26.5 13.4571C26.5 16.7933 24.9714 20.8137 22.5 23" stroke="black" stroke-width="3" stroke-linecap="round"/>
<path d="M17.5 9C18.7372 10.2886 19.5 12.0534 19.5 14C19.5 15.9466 18.7372 17.7114 17.5 19" stroke="black" stroke-width="3" stroke-linecap="round"/>
<path d="M4.94444 18.8834H1.5C0.947715 18.8834 0.5 18.3927 0.5 17.7875V11.2125C0.5 10.6073 0.947715 10.1166 1.5 10.1166H4.94444L9.83103 6.28346C10.4746 5.64878 11.5 6.14924 11.5 7.09799V21.902C11.5 22.8508 10.4746 23.3512 9.83104 22.7165L4.94444 18.8834Z" fill="black"/>
</g>
<defs>
<clipPath id="clip0_695_4153">
<rect width="28" height="28" fill="white" transform="translate(0.5)"/>
</clipPath>
</defs>
</svg>
