<svg width="28" height="28" viewBox="0 0 28 28" fill="none" xmlns="http://www.w3.org/2000/svg">
<path d="M22.0961 5C24.511 7.17921 26 10.1643 26 13.4571C26 16.7933 24.4714 20.8137 22 23" stroke="white" stroke-width="3" stroke-linecap="round"/>
<path d="M17 9C18.2372 10.2886 19 12.0534 19 14C19 15.9466 18.2372 17.7114 17 19" stroke="white" stroke-width="3" stroke-linecap="round"/>
<path d="M4.44444 18.8834H1C0.447715 18.8834 0 18.3927 0 17.7875V11.2125C0 10.6073 0.447715 10.1166 1 10.1166H4.44444L9.33103 6.28346C9.97456 5.64878 11 6.14924 11 7.09799V21.902C11 22.8508 9.97456 23.3512 9.33104 22.7165L4.44444 18.8834Z" fill="white"/>
</svg>
