<svg width="194" height="224" viewBox="0 0 194 224" fill="none" xmlns="http://www.w3.org/2000/svg">
<path d="M98.1397 178.553C122.992 178.553 143.14 174.076 143.14 168.553C143.14 163.03 122.992 158.553 98.1397 158.553C73.2868 158.553 53.1396 163.03 53.1396 168.553C53.1396 174.076 73.2868 178.553 98.1397 178.553Z" fill="#1D4FC9"/>
<g clip-path="url(#clip0_809_3985)">
<path d="M160.886 61.7227C165.715 57.9368 165.735 49.8914 160.929 43.7529C156.124 37.6143 148.313 35.707 143.483 39.4929C138.654 43.2788 138.634 51.3242 143.439 57.4628C148.245 63.6014 156.056 65.5086 160.886 61.7227Z" fill="#1747BE" stroke="#002F9F" stroke-width="3" stroke-miterlimit="10"/>
<circle cx="100.5" cy="83.5" r="65" fill="#255FEC" stroke="#002F9F" stroke-width="3"/>
<ellipse cx="40" cy="86.5" rx="11" ry="16.5" fill="#255FEC"/>
<path d="M39.5 97.001C42.2614 97.001 44.5 92.5238 44.5 87.001C44.5 81.4781 42.2614 77.001 39.5 77.001C36.7386 77.001 34.5 81.4781 34.5 87.001C34.5 92.5238 36.7386 97.001 39.5 97.001Z" fill="#1D4FC9"/>
<path d="M45 105C43.5 103.5 41.3333 103.167 40 103C33.9249 103 29 95.6127 29 86.5C29 77.3873 33.9249 70 40 70C42 70 43.5 69 44.5 68" stroke="#002F9F" stroke-width="3" stroke-linecap="round"/>
<path d="M40.5 77.001C44.1152 78.1336 45.5 82.8781 45.5 87.001C45.5 91.1239 43.8939 96.0687 40.6646 97.001" stroke="#002F9F" stroke-width="3" stroke-miterlimit="10" stroke-linecap="round"/>
<path d="M155.686 131.605C162.493 122.694 162.956 116.192 162.142 112.983C161.861 111.887 161.391 110.659 160.731 109.739C159.11 107.499 158.584 107.38 157.111 106.102C152.669 102.268 142.185 105.561 135.077 113.818C127.961 122.076 126.052 130.551 129.414 136.372C130.929 138.416 132.459 139.539 136.234 140.536C141.638 142.123 149.286 139.041 155.693 131.605H155.686Z" fill="#255FEC"/>
<path d="M156.685 101.683C156.685 103.683 159.111 107.499 160.732 109.739C161.391 110.659 161.862 111.887 162.142 112.983C162.956 116.192 162.493 122.694 155.686 131.605H155.693C149.287 139.041 141.638 142.123 136.235 140.536C132.46 139.539 129.185 136.683 126.185 136.683" stroke="#002F9F" stroke-width="3" stroke-miterlimit="10" stroke-linecap="round" stroke-linejoin="round"/>
<path d="M150.679 128.261C155.146 123.249 156.886 117.507 154.564 115.435C152.243 113.363 146.74 115.746 142.273 120.758C137.806 125.77 136.066 131.512 138.388 133.584C140.709 135.655 146.212 133.272 150.679 128.261Z" fill="#1D4FC9"/>
<path d="M154.564 115.435C151 114.001 146.74 115.746 142.273 120.758C137.806 125.77 137 130.501 138.388 133.584" stroke="#002F9F" stroke-width="3" stroke-linecap="round"/>
<path d="M86.4898 99.1008C95.0197 99.1008 101.935 91.9991 101.935 83.2387C101.935 74.4783 95.0197 67.3766 86.4898 67.3766C77.9598 67.3766 71.0449 74.4783 71.0449 83.2387C71.0449 91.9991 77.9598 99.1008 86.4898 99.1008Z" fill="#1D4FC9"/>
<path d="M102.187 39.3466C108.024 39.3466 112.755 37.0391 112.755 34.1927C112.755 31.3462 108.024 29.0387 102.187 29.0387C96.3505 29.0387 91.6191 31.3462 91.6191 34.1927C91.6191 37.0391 96.3505 39.3466 102.187 39.3466Z" fill="#1D4FC9"/>
<path d="M131.33 63.8587C133.949 63.8587 136.073 61.9159 136.073 59.5192C136.073 57.1226 133.949 55.1798 131.33 55.1798C128.71 55.1798 126.586 57.1226 126.586 59.5192C126.586 61.9159 128.71 63.8587 131.33 63.8587Z" fill="#1D4FC9"/>
<path d="M68.6027 57.3496C72.3425 57.3496 75.3742 54.7403 75.3742 51.5215C75.3742 48.3028 72.3425 45.6935 68.6027 45.6935C64.8628 45.6935 61.8311 48.3028 61.8311 51.5215C61.8311 54.7403 64.8628 57.3496 68.6027 57.3496Z" fill="#1D4FC9"/>
<path d="M113.449 125.671C116.666 125.671 119.274 123.062 119.274 119.843C119.274 116.624 116.666 114.015 113.449 114.015C110.233 114.015 107.625 116.624 107.625 119.843C107.625 123.062 110.233 125.671 113.449 125.671Z" fill="#1D4FC9"/>
<path d="M70.5046 127.834C73.047 127.834 75.1079 125.771 75.1079 123.227C75.1079 120.684 73.047 118.621 70.5046 118.621C67.9623 118.621 65.9014 120.684 65.9014 123.227C65.9014 125.771 67.9623 127.834 70.5046 127.834Z" fill="#1D4FC9"/>
<path d="M102.608 144.11C103.879 144.11 104.91 143.139 104.91 141.94C104.91 140.742 103.879 139.771 102.608 139.771C101.337 139.771 100.307 140.742 100.307 141.94C100.307 143.139 101.337 144.11 102.608 144.11Z" fill="#1D4FC9"/>
</g>
<path d="M161.072 20.7677C149.347 27.2662 130.065 35.8261 118.059 34.7844C101.958 33.3875 100.075 18.1262 101.146 12.7457C107.09 -4.50772 120.118 7.51718 119.261 13.3689C118.061 21.5613 113.671 25.8963 111.625 27.0398C100.183 36.9798 85.4819 37.7539 73.5009 35.5839" stroke="#002F9F" stroke-width="3" stroke-linecap="round" stroke-dasharray="5 10"/>
<path opacity="0.4" d="M39.5787 56.0252C47.636 39.2277 59.389 32.8869 59.8954 25.7071L70.7978 27.0403C72.3089 29.1471 75.4376 37.3308 75.1777 38.9095C66.0732 57.2744 61.2357 59.7516 57.6488 61.0191C50.9684 61.0191 46.5436 58.5252 39.5787 56.0252Z" fill="#002F9F"/>
<path d="M19.2944 38.4375C33.4992 29.0788 40 17.5 44 6.5L67.8029 13.0788C69.5757 15.1426 73.9299 27.4047 73.8029 29.0788C65.3029 45.5788 58.7557 50.0252 55.1224 51.6789C41.2791 51.0497 25.469 42.5891 19.2944 38.4375Z" fill="#6893FA" stroke="#002F9F" stroke-width="3" stroke-linejoin="round"/>
<path d="M63.2128 24.1285L67.899 15.3031C70.0945 16.6173 73.3524 26.6192 73.3092 27.1897C71.4677 28.7714 64.8378 25.3994 63.2128 24.1285Z" fill="#3560C9" stroke="#002F9F" stroke-width="3" stroke-linejoin="round"/>
<path d="M51.3768 21.778C52.4339 20.1723 54.1982 20.4871 55.3356 21.157C56.473 21.8268 57.6039 23.2171 56.7123 24.9202C55.8573 26.5613 53.3668 30.5537 52.1856 32.0863C51.1592 33.4037 49.8666 33.8958 48.357 33.0067C46.6405 31.9959 46.6509 30.7486 47.3051 29.2121C48.0726 27.4359 50.3563 23.3217 51.3768 21.778ZM44.842 39.0697C43.0842 38.0345 42.7235 36.708 43.5517 35.3017C44.3799 33.8954 45.7149 33.5676 47.4727 34.6028C49.2305 35.638 49.5913 36.9646 48.7631 38.3708C47.9349 39.7771 46.5999 40.1049 44.842 39.0697Z" fill="#002F9F"/>
<path opacity="0.6" d="M65.4116 221V209.8H67.4276L72.3716 219.112V209.8H73.8116V221H71.8276L66.8516 211.752V221H65.4116ZM79.7168 221.192C78.9275 221.192 78.2181 221.011 77.5888 220.648C76.9595 220.275 76.4635 219.763 76.1008 219.112C75.7488 218.451 75.5728 217.693 75.5728 216.84C75.5728 215.944 75.7541 215.171 76.1168 214.52C76.4795 213.869 76.9755 213.368 77.6048 213.016C78.2341 212.664 78.9381 212.488 79.7168 212.488C80.4955 212.488 81.1941 212.664 81.8128 213.016C82.4421 213.368 82.9381 213.869 83.3008 214.52C83.6741 215.16 83.8608 215.923 83.8608 216.808C83.8608 217.693 83.6795 218.467 83.3168 219.128C82.9541 219.779 82.4581 220.285 81.8288 220.648C81.2101 221.011 80.5061 221.192 79.7168 221.192ZM79.7168 219.912C80.5595 219.912 81.2155 219.629 81.6848 219.064C82.1541 218.488 82.3888 217.747 82.3888 216.84C82.3888 216.285 82.2715 215.779 82.0368 215.32C81.8021 214.851 81.4821 214.477 81.0768 214.2C80.6821 213.912 80.2288 213.768 79.7168 213.768C78.8741 213.768 78.2181 214.045 77.7488 214.6C77.2795 215.155 77.0448 215.891 77.0448 216.808C77.0448 217.363 77.1621 217.88 77.3968 218.36C77.6315 218.829 77.9461 219.208 78.3408 219.496C78.7461 219.773 79.2048 219.912 79.7168 219.912ZM92.9242 221L88.8122 210.2L90.3002 209.624L93.8202 219.336L97.3562 209.672L98.7322 210.2L94.6362 221H92.9242ZM99.8466 221V212.68H101.287V221H99.8466ZM100.567 211.256C100.289 211.256 100.049 211.155 99.8466 210.952C99.6546 210.749 99.5586 210.515 99.5586 210.248C99.5586 209.939 99.6492 209.693 99.8306 209.512C100.012 209.331 100.257 209.24 100.567 209.24C100.844 209.24 101.079 209.341 101.271 209.544C101.473 209.736 101.575 209.971 101.575 210.248C101.575 210.547 101.484 210.792 101.303 210.984C101.121 211.165 100.876 211.256 100.567 211.256ZM106.679 221.192C105.996 221.192 105.372 221.016 104.807 220.664C104.241 220.312 103.793 219.816 103.463 219.176C103.132 218.525 102.967 217.763 102.967 216.888C102.967 216.045 103.132 215.293 103.463 214.632C103.804 213.971 104.252 213.448 104.807 213.064C105.372 212.68 105.991 212.488 106.663 212.488C107.217 212.488 107.692 212.6 108.087 212.824C108.492 213.048 108.807 213.277 109.031 213.512V209.16H110.471V218.984C110.471 219.389 110.567 219.656 110.759 219.784C110.961 219.901 111.18 219.96 111.415 219.96L111.111 221.08C110.097 221.08 109.479 220.675 109.255 219.864C109.02 220.195 108.689 220.499 108.263 220.776C107.847 221.053 107.319 221.192 106.679 221.192ZM106.999 219.912C107.393 219.912 107.767 219.821 108.119 219.64C108.481 219.448 108.785 219.203 109.031 218.904V214.776C108.828 214.52 108.545 214.285 108.183 214.072C107.82 213.848 107.42 213.736 106.983 213.736C106.471 213.736 106.023 213.875 105.639 214.152C105.255 214.429 104.956 214.803 104.743 215.272C104.54 215.731 104.439 216.253 104.439 216.84C104.439 217.427 104.551 217.955 104.775 218.424C104.999 218.883 105.303 219.245 105.687 219.512C106.081 219.779 106.519 219.912 106.999 219.912ZM116.191 221.192C114.996 221.192 114.047 220.813 113.343 220.056C112.649 219.288 112.303 218.216 112.303 216.84C112.303 216.008 112.457 215.267 112.767 214.616C113.087 213.955 113.529 213.437 114.095 213.064C114.66 212.68 115.316 212.488 116.063 212.488C116.863 212.488 117.524 212.664 118.047 213.016C118.58 213.357 118.98 213.821 119.247 214.408C119.513 214.995 119.647 215.64 119.647 216.344C119.647 216.717 119.631 217.08 119.599 217.432H113.775C113.871 218.211 114.143 218.819 114.591 219.256C115.039 219.693 115.631 219.912 116.367 219.912C116.847 219.912 117.279 219.864 117.663 219.768C118.047 219.661 118.415 219.528 118.767 219.368L119.103 220.6C118.719 220.771 118.287 220.909 117.807 221.016C117.327 221.133 116.788 221.192 116.191 221.192ZM113.759 216.264H118.319C118.319 215.453 118.116 214.829 117.711 214.392C117.305 213.955 116.745 213.736 116.031 213.736C115.412 213.736 114.9 213.955 114.495 214.392C114.089 214.819 113.844 215.443 113.759 216.264ZM124.75 221.192C123.961 221.192 123.251 221.011 122.622 220.648C121.993 220.275 121.497 219.763 121.134 219.112C120.782 218.451 120.606 217.693 120.606 216.84C120.606 215.944 120.787 215.171 121.15 214.52C121.513 213.869 122.009 213.368 122.638 213.016C123.267 212.664 123.971 212.488 124.75 212.488C125.529 212.488 126.227 212.664 126.846 213.016C127.475 213.368 127.971 213.869 128.334 214.52C128.707 215.16 128.894 215.923 128.894 216.808C128.894 217.693 128.713 218.467 128.35 219.128C127.987 219.779 127.491 220.285 126.862 220.648C126.243 221.011 125.539 221.192 124.75 221.192ZM124.75 219.912C125.593 219.912 126.249 219.629 126.718 219.064C127.187 218.488 127.422 217.747 127.422 216.84C127.422 216.285 127.305 215.779 127.07 215.32C126.835 214.851 126.515 214.477 126.11 214.2C125.715 213.912 125.262 213.768 124.75 213.768C123.907 213.768 123.251 214.045 122.782 214.6C122.313 215.155 122.078 215.891 122.078 216.808C122.078 217.363 122.195 217.88 122.43 218.36C122.665 218.829 122.979 219.208 123.374 219.496C123.779 219.773 124.238 219.912 124.75 219.912Z" fill="white"/>
<defs>
<clipPath id="clip0_809_3985">
<rect width="142" height="135" fill="white" transform="translate(26.71 16.5532)"/>
</clipPath>
</defs>
</svg>
