<svg width="194" height="224" viewBox="0 0 194 224" fill="none" xmlns="http://www.w3.org/2000/svg">
<path d="M98.1397 178.553C122.992 178.553 143.14 174.076 143.14 168.553C143.14 163.03 122.992 158.553 98.1397 158.553C73.2868 158.553 53.1396 163.03 53.1396 168.553C53.1396 174.076 73.2868 178.553 98.1397 178.553Z" fill="#1D4FC9"/>
<g clip-path="url(#clip0_809_3985)">
<path d="M160.886 61.7227C165.715 57.9368 165.735 49.8914 160.929 43.7529C156.124 37.6143 148.313 35.707 143.483 39.4929C138.654 43.2788 138.634 51.3242 143.439 57.4628C148.245 63.6014 156.056 65.5086 160.886 61.7227Z" fill="#1747BE" stroke="#002F9F" stroke-width="3" stroke-miterlimit="10"/>
<circle cx="100.5" cy="83.5" r="65" fill="#255FEC" stroke="#002F9F" stroke-width="3"/>
<ellipse cx="40" cy="86.5" rx="11" ry="16.5" fill="#255FEC"/>
<path d="M39.5 97.001C42.2614 97.001 44.5 92.5238 44.5 87.001C44.5 81.4781 42.2614 77.001 39.5 77.001C36.7386 77.001 34.5 81.4781 34.5 87.001C34.5 92.5238 36.7386 97.001 39.5 97.001Z" fill="#1D4FC9"/>
<path d="M45 105C43.5 103.5 41.3333 103.167 40 103C33.9249 103 29 95.6127 29 86.5C29 77.3873 33.9249 70 40 70C42 70 43.5 69 44.5 68" stroke="#002F9F" stroke-width="3" stroke-linecap="round"/>
<path d="M40.5 77.001C44.1152 78.1336 45.5 82.8781 45.5 87.001C45.5 91.1239 43.8939 96.0687 40.6646 97.001" stroke="#002F9F" stroke-width="3" stroke-miterlimit="10" stroke-linecap="round"/>
<path d="M155.686 131.605C162.493 122.694 162.956 116.192 162.142 112.983C161.861 111.887 161.391 110.659 160.731 109.739C159.11 107.499 158.584 107.38 157.111 106.102C152.669 102.268 142.185 105.561 135.077 113.818C127.961 122.076 126.052 130.551 129.414 136.372C130.929 138.416 132.459 139.539 136.234 140.536C141.638 142.123 149.286 139.041 155.693 131.605H155.686Z" fill="#255FEC"/>
<path d="M156.685 101.683C156.685 103.683 159.111 107.499 160.732 109.739C161.391 110.659 161.862 111.887 162.142 112.983C162.956 116.192 162.493 122.694 155.686 131.605H155.693C149.287 139.041 141.638 142.123 136.235 140.536C132.46 139.539 129.185 136.683 126.185 136.683" stroke="#002F9F" stroke-width="3" stroke-miterlimit="10" stroke-linecap="round" stroke-linejoin="round"/>
<path d="M150.679 128.261C155.146 123.249 156.886 117.507 154.564 115.435C152.243 113.363 146.74 115.746 142.273 120.758C137.806 125.77 136.066 131.512 138.388 133.584C140.709 135.655 146.212 133.272 150.679 128.261Z" fill="#1D4FC9"/>
<path d="M154.564 115.435C151 114.001 146.74 115.746 142.273 120.758C137.806 125.77 137 130.501 138.388 133.584" stroke="#002F9F" stroke-width="3" stroke-linecap="round"/>
<path d="M86.4898 99.1008C95.0197 99.1008 101.935 91.9991 101.935 83.2387C101.935 74.4783 95.0197 67.3766 86.4898 67.3766C77.9598 67.3766 71.0449 74.4783 71.0449 83.2387C71.0449 91.9991 77.9598 99.1008 86.4898 99.1008Z" fill="#1D4FC9"/>
<path d="M102.187 39.3466C108.024 39.3466 112.755 37.0391 112.755 34.1927C112.755 31.3462 108.024 29.0387 102.187 29.0387C96.3505 29.0387 91.6191 31.3462 91.6191 34.1927C91.6191 37.0391 96.3505 39.3466 102.187 39.3466Z" fill="#1D4FC9"/>
<path d="M131.33 63.8587C133.949 63.8587 136.073 61.9159 136.073 59.5192C136.073 57.1226 133.949 55.1798 131.33 55.1798C128.71 55.1798 126.586 57.1226 126.586 59.5192C126.586 61.9159 128.71 63.8587 131.33 63.8587Z" fill="#1D4FC9"/>
<path d="M68.6027 57.3496C72.3425 57.3496 75.3742 54.7403 75.3742 51.5215C75.3742 48.3028 72.3425 45.6935 68.6027 45.6935C64.8628 45.6935 61.8311 48.3028 61.8311 51.5215C61.8311 54.7403 64.8628 57.3496 68.6027 57.3496Z" fill="#1D4FC9"/>
<path d="M113.449 125.671C116.666 125.671 119.274 123.062 119.274 119.843C119.274 116.624 116.666 114.015 113.449 114.015C110.233 114.015 107.625 116.624 107.625 119.843C107.625 123.062 110.233 125.671 113.449 125.671Z" fill="#1D4FC9"/>
<path d="M70.5046 127.834C73.047 127.834 75.1079 125.771 75.1079 123.227C75.1079 120.684 73.047 118.621 70.5046 118.621C67.9623 118.621 65.9014 120.684 65.9014 123.227C65.9014 125.771 67.9623 127.834 70.5046 127.834Z" fill="#1D4FC9"/>
<path d="M102.608 144.11C103.879 144.11 104.91 143.139 104.91 141.94C104.91 140.742 103.879 139.771 102.608 139.771C101.337 139.771 100.307 140.742 100.307 141.94C100.307 143.139 101.337 144.11 102.608 144.11Z" fill="#1D4FC9"/>
</g>
<path d="M161.072 20.7677C149.347 27.2662 130.065 35.8261 118.059 34.7844C101.958 33.3875 100.075 18.1262 101.146 12.7457C107.09 -4.50772 120.118 7.51718 119.261 13.3689C118.061 21.5613 113.671 25.8963 111.625 27.0398C100.183 36.9798 85.4819 37.7539 73.5009 35.5839" stroke="#002F9F" stroke-width="3" stroke-linecap="round" stroke-dasharray="5 10"/>
<path opacity="0.4" d="M39.5787 56.0252C47.636 39.2277 59.389 32.8869 59.8954 25.7071L70.7978 27.0403C72.3089 29.1471 75.4376 37.3308 75.1777 38.9095C66.0732 57.2744 61.2357 59.7516 57.6488 61.0191C50.9684 61.0191 46.5436 58.5252 39.5787 56.0252Z" fill="#002F9F"/>
<path d="M19.2944 38.4375C33.4992 29.0788 40 17.5 44 6.5L67.8029 13.0788C69.5757 15.1426 73.9299 27.4047 73.8029 29.0788C65.3029 45.5788 58.7557 50.0252 55.1224 51.6789C41.2791 51.0497 25.469 42.5891 19.2944 38.4375Z" fill="#6893FA" stroke="#002F9F" stroke-width="3" stroke-linejoin="round"/>
<path d="M63.2128 24.1285L67.899 15.3031C70.0945 16.6173 73.3524 26.6192 73.3092 27.1897C71.4677 28.7714 64.8378 25.3994 63.2128 24.1285Z" fill="#3560C9" stroke="#002F9F" stroke-width="3" stroke-linejoin="round"/>
<path d="M51.3768 21.778C52.4339 20.1723 54.1982 20.4871 55.3356 21.157C56.473 21.8268 57.6039 23.2171 56.7123 24.9202C55.8573 26.5613 53.3668 30.5537 52.1856 32.0863C51.1592 33.4037 49.8666 33.8958 48.357 33.0067C46.6405 31.9959 46.6509 30.7486 47.3051 29.2121C48.0726 27.4359 50.3563 23.3217 51.3768 21.778ZM44.842 39.0697C43.0842 38.0345 42.7235 36.708 43.5517 35.3017C44.3799 33.8954 45.7149 33.5676 47.4727 34.6028C49.2305 35.638 49.5913 36.9646 48.7631 38.3708C47.9349 39.7771 46.5999 40.1049 44.842 39.0697Z" fill="#002F9F"/>
<path opacity="0.6" d="M45.5272 221V211.144H42.0872V209.8H50.4872V211.144H47.0472V221H45.5272ZM51.6059 221V209.16H53.0459V214.008C53.3446 213.571 53.7233 213.208 54.1819 212.92C54.6406 212.632 55.1793 212.488 55.7979 212.488C56.7366 212.488 57.4353 212.771 57.8939 213.336C58.3633 213.901 58.5979 214.648 58.5979 215.576V221H57.1579V215.736C57.1579 215.139 57.0193 214.659 56.7419 214.296C56.4646 213.933 56.0753 213.752 55.5739 213.752C55.0833 213.752 54.6139 213.928 54.1659 214.28C53.7286 214.621 53.3553 215.027 53.0459 215.496V221H51.6059ZM64.0827 221.192C62.888 221.192 61.9387 220.813 61.2347 220.056C60.5414 219.288 60.1947 218.216 60.1947 216.84C60.1947 216.008 60.3494 215.267 60.6587 214.616C60.9787 213.955 61.4214 213.437 61.9867 213.064C62.552 212.68 63.208 212.488 63.9547 212.488C64.7547 212.488 65.416 212.664 65.9387 213.016C66.472 213.357 66.872 213.821 67.1387 214.408C67.4054 214.995 67.5387 215.64 67.5387 216.344C67.5387 216.717 67.5227 217.08 67.4907 217.432H61.6667C61.7627 218.211 62.0347 218.819 62.4827 219.256C62.9307 219.693 63.5227 219.912 64.2587 219.912C64.7387 219.912 65.1707 219.864 65.5547 219.768C65.9387 219.661 66.3067 219.528 66.6587 219.368L66.9947 220.6C66.6107 220.771 66.1787 220.909 65.6987 221.016C65.2187 221.133 64.68 221.192 64.0827 221.192ZM61.6507 216.264H66.2107C66.2107 215.453 66.008 214.829 65.6027 214.392C65.1974 213.955 64.6374 213.736 63.9227 213.736C63.304 213.736 62.792 213.955 62.3867 214.392C61.9814 214.819 61.736 215.443 61.6507 216.264ZM69.1378 221V212.68H70.5298V214.488C70.6685 214.136 70.8552 213.811 71.0898 213.512C71.3245 213.203 71.6178 212.957 71.9698 212.776C72.3218 212.584 72.7325 212.488 73.2018 212.488C73.3618 212.488 73.5218 212.499 73.6818 212.52C73.8418 212.531 73.9752 212.552 74.0818 212.584L73.6498 214.072C73.4472 213.987 73.2072 213.944 72.9298 213.944C72.5352 213.944 72.1565 214.056 71.7938 214.28C71.4418 214.504 71.1485 214.851 70.9138 215.32C70.6898 215.789 70.5778 216.387 70.5778 217.112V221H69.1378ZM78.0521 221.192C76.8574 221.192 75.9081 220.813 75.2041 220.056C74.5107 219.288 74.1641 218.216 74.1641 216.84C74.1641 216.008 74.3187 215.267 74.6281 214.616C74.9481 213.955 75.3907 213.437 75.9561 213.064C76.5214 212.68 77.1774 212.488 77.9241 212.488C78.7241 212.488 79.3854 212.664 79.9081 213.016C80.4414 213.357 80.8414 213.821 81.1081 214.408C81.3747 214.995 81.5081 215.64 81.5081 216.344C81.5081 216.717 81.4921 217.08 81.4601 217.432H75.6361C75.7321 218.211 76.0041 218.819 76.4521 219.256C76.9001 219.693 77.4921 219.912 78.2281 219.912C78.7081 219.912 79.1401 219.864 79.5241 219.768C79.9081 219.661 80.2761 219.528 80.6281 219.368L80.9641 220.6C80.5801 220.771 80.1481 220.909 79.6681 221.016C79.1881 221.133 78.6494 221.192 78.0521 221.192ZM75.6201 216.264H80.1801C80.1801 215.453 79.9774 214.829 79.5721 214.392C79.1667 213.955 78.6067 213.736 77.8921 213.736C77.2734 213.736 76.7614 213.955 76.3561 214.392C75.9507 214.819 75.7054 215.443 75.6201 216.264ZM87.5841 221V212.68H89.0241V221H87.5841ZM88.3041 211.256C88.0267 211.256 87.7867 211.155 87.5841 210.952C87.3921 210.749 87.2961 210.515 87.2961 210.248C87.2961 209.939 87.3867 209.693 87.5681 209.512C87.7494 209.331 87.9947 209.24 88.3041 209.24C88.5814 209.24 88.8161 209.341 89.0081 209.544C89.2107 209.736 89.3121 209.971 89.3121 210.248C89.3121 210.547 89.2214 210.792 89.0401 210.984C88.8587 211.165 88.6134 211.256 88.3041 211.256ZM93.5041 221.192C92.8747 221.192 92.3041 221.112 91.7921 220.952C91.2907 220.792 90.8747 220.584 90.5441 220.328L91.1521 219.128C91.4294 219.363 91.7761 219.56 92.1921 219.72C92.6187 219.869 93.0721 219.944 93.5521 219.944C94.1494 219.944 94.5974 219.848 94.8961 219.656C95.2054 219.453 95.3601 219.197 95.3601 218.888C95.3601 218.664 95.3014 218.467 95.1841 218.296C95.0774 218.125 94.8747 217.96 94.5761 217.8C94.2774 217.629 93.8454 217.448 93.2801 217.256C92.5014 216.989 91.9147 216.675 91.5201 216.312C91.1361 215.939 90.9441 215.427 90.9441 214.776C90.9441 214.136 91.2214 213.597 91.7761 213.16C92.3414 212.712 93.1201 212.488 94.1121 212.488C94.6454 212.488 95.1201 212.547 95.5361 212.664C95.9521 212.771 96.3254 212.909 96.6561 213.08L96.2561 214.264C95.9681 214.093 95.6374 213.955 95.2641 213.848C94.9014 213.741 94.4961 213.688 94.0481 213.688C93.4934 213.688 93.0721 213.8 92.7841 214.024C92.4961 214.248 92.3521 214.493 92.3521 214.76C92.3521 215.016 92.4641 215.235 92.6881 215.416C92.9121 215.597 93.3494 215.795 94.0001 216.008C95.0561 216.36 95.7921 216.749 96.2081 217.176C96.6241 217.603 96.8321 218.136 96.8321 218.776C96.8321 219.523 96.5281 220.115 95.9201 220.552C95.3227 220.979 94.5174 221.192 93.5041 221.192ZM102.905 221V212.68H104.297V214.072C104.596 213.624 104.975 213.251 105.433 212.952C105.903 212.643 106.457 212.488 107.097 212.488C108.036 212.488 108.735 212.771 109.193 213.336C109.663 213.901 109.897 214.648 109.897 215.576V221H108.457V215.736C108.457 215.139 108.313 214.659 108.025 214.296C107.748 213.933 107.359 213.752 106.857 213.752C106.367 213.752 105.903 213.928 105.465 214.28C105.028 214.621 104.655 215.027 104.345 215.496V221H102.905ZM115.558 221.192C114.769 221.192 114.059 221.011 113.43 220.648C112.801 220.275 112.305 219.763 111.942 219.112C111.59 218.451 111.414 217.693 111.414 216.84C111.414 215.944 111.595 215.171 111.958 214.52C112.321 213.869 112.817 213.368 113.446 213.016C114.075 212.664 114.779 212.488 115.558 212.488C116.337 212.488 117.035 212.664 117.654 213.016C118.283 213.368 118.779 213.869 119.142 214.52C119.515 215.16 119.702 215.923 119.702 216.808C119.702 217.693 119.521 218.467 119.158 219.128C118.795 219.779 118.299 220.285 117.67 220.648C117.051 221.011 116.347 221.192 115.558 221.192ZM115.558 219.912C116.401 219.912 117.057 219.629 117.526 219.064C117.995 218.488 118.23 217.747 118.23 216.84C118.23 216.285 118.113 215.779 117.878 215.32C117.643 214.851 117.323 214.477 116.918 214.2C116.523 213.912 116.07 213.768 115.558 213.768C114.715 213.768 114.059 214.045 113.59 214.6C113.121 215.155 112.886 215.891 112.886 216.808C112.886 217.363 113.003 217.88 113.238 218.36C113.473 218.829 113.787 219.208 114.182 219.496C114.587 219.773 115.046 219.912 115.558 219.912ZM125.933 221V214.232H124.653V212.984H125.933V212.008C125.933 211.069 126.195 210.328 126.717 209.784C127.24 209.24 127.923 208.968 128.765 208.968C129.203 208.968 129.587 209.021 129.917 209.128C130.248 209.224 130.563 209.347 130.861 209.496L130.429 210.712C130.205 210.595 129.965 210.488 129.709 210.392C129.453 210.296 129.171 210.248 128.861 210.248C128.413 210.248 128.051 210.392 127.773 210.68C127.507 210.957 127.373 211.368 127.373 211.912V212.984H129.837V214.232H127.373V221H125.933ZM131.016 221V212.68H132.456V221H131.016ZM131.736 211.256C131.459 211.256 131.219 211.155 131.016 210.952C130.824 210.749 130.728 210.515 130.728 210.248C130.728 209.939 130.819 209.693 131 209.512C131.181 209.331 131.427 209.24 131.736 209.24C132.013 209.24 132.248 209.341 132.44 209.544C132.643 209.736 132.744 209.971 132.744 210.248C132.744 210.547 132.653 210.792 132.472 210.984C132.291 211.165 132.045 211.256 131.736 211.256ZM137.224 221.192C136.733 221.192 136.291 221.101 135.896 220.92C135.501 220.728 135.187 220.424 134.952 220.008C134.728 219.592 134.616 219.053 134.616 218.392V209.16H136.056V218.248C136.056 218.824 136.173 219.251 136.408 219.528C136.653 219.805 136.989 219.944 137.416 219.944C137.619 219.944 137.816 219.923 138.008 219.88C138.211 219.827 138.381 219.768 138.52 219.704L138.872 220.872C138.68 220.957 138.44 221.032 138.152 221.096C137.875 221.16 137.565 221.192 137.224 221.192ZM143.001 221.192C141.806 221.192 140.857 220.813 140.153 220.056C139.459 219.288 139.113 218.216 139.113 216.84C139.113 216.008 139.267 215.267 139.577 214.616C139.897 213.955 140.339 213.437 140.905 213.064C141.47 212.68 142.126 212.488 142.873 212.488C143.673 212.488 144.334 212.664 144.857 213.016C145.39 213.357 145.79 213.821 146.057 214.408C146.323 214.995 146.457 215.64 146.457 216.344C146.457 216.717 146.441 217.08 146.409 217.432H140.585C140.681 218.211 140.953 218.819 141.401 219.256C141.849 219.693 142.441 219.912 143.177 219.912C143.657 219.912 144.089 219.864 144.473 219.768C144.857 219.661 145.225 219.528 145.577 219.368L145.913 220.6C145.529 220.771 145.097 220.909 144.617 221.016C144.137 221.133 143.598 221.192 143.001 221.192ZM140.569 216.264H145.129C145.129 215.453 144.926 214.829 144.521 214.392C144.115 213.955 143.555 213.736 142.841 213.736C142.222 213.736 141.71 213.955 141.305 214.392C140.899 214.819 140.654 215.443 140.569 216.264ZM149.176 221.192C148.888 221.192 148.637 221.085 148.424 220.872C148.211 220.659 148.104 220.408 148.104 220.12C148.104 219.789 148.2 219.528 148.392 219.336C148.584 219.144 148.845 219.048 149.176 219.048C149.453 219.048 149.699 219.155 149.912 219.368C150.136 219.581 150.248 219.832 150.248 220.12C150.248 220.44 150.147 220.701 149.944 220.904C149.741 221.096 149.485 221.192 149.176 221.192Z" fill="white"/>
<defs>
<clipPath id="clip0_809_3985">
<rect width="142" height="135" fill="white" transform="translate(26.71 16.5532)"/>
</clipPath>
</defs>
</svg>
