<svg width="28" height="28" viewBox="0 0 28 28" fill="none" xmlns="http://www.w3.org/2000/svg">
<path d="M9.5 21V5.83333L23.5 3.5V18.6667" stroke="white" stroke-width="4" stroke-linecap="round" stroke-linejoin="round"/>
<path d="M6 24.5C7.933 24.5 9.5 22.933 9.5 21C9.5 19.067 7.933 17.5 6 17.5C4.067 17.5 2.5 19.067 2.5 21C2.5 22.933 4.067 24.5 6 24.5Z" stroke="white" stroke-width="4" stroke-linecap="round" stroke-linejoin="round"/>
<path d="M20 22.1667C21.933 22.1667 23.5 20.5997 23.5 18.6667C23.5 16.7337 21.933 15.1667 20 15.1667C18.067 15.1667 16.5 16.7337 16.5 18.6667C16.5 20.5997 18.067 22.1667 20 22.1667Z" stroke="white" stroke-width="4" stroke-linecap="round" stroke-linejoin="round"/>
</svg>
