<svg width="28" height="28" viewBox="0 0 28 28" fill="none" xmlns="http://www.w3.org/2000/svg">
<path d="M12.6665 22.1667V9.88889L23.9998 8V20.2778" stroke="#F2F2F2" stroke-width="4" stroke-linecap="round" stroke-linejoin="round"/>
<path d="M9.83333 24.9999C11.3981 24.9999 12.6667 23.7314 12.6667 22.1666C12.6667 20.6018 11.3981 19.3333 9.83333 19.3333C8.26853 19.3333 7 20.6018 7 22.1666C7 23.7314 8.26853 24.9999 9.83333 24.9999Z" stroke="#F2F2F2" stroke-width="4" stroke-linecap="round" stroke-linejoin="round"/>
<path d="M21.1668 23.1112C22.7316 23.1112 24.0002 21.8427 24.0002 20.2779C24.0002 18.713 22.7316 17.4445 21.1668 17.4445C19.602 17.4445 18.3335 18.713 18.3335 20.2779C18.3335 21.8427 19.602 23.1112 21.1668 23.1112Z" stroke="#F2F2F2" stroke-width="4" stroke-linecap="round" stroke-linejoin="round"/>
<path d="M2 3L8 9M8 3L2 9" stroke="white" stroke-width="4" stroke-linecap="round"/>
</svg>
