<svg id="ebgX0hFHl1S1" xmlns="http://www.w3.org/2000/svg" xmlns:xlink="http://www.w3.org/1999/xlink" viewBox="0 0 804 720" shape-rendering="geometricPrecision" text-rendering="geometricPrecision" project-id="babeb6491b4142f7ba616d22473627fd" export-id="d96daf8a61014c368abfee2f202ca99c" cached="false">
<style><![CDATA[
#ebgX0hFHl1S65_ts {animation: ebgX0hFHl1S65_ts__ts 1911.764705882353ms linear 1 normal forwards}@keyframes ebgX0hFHl1S65_ts__ts { 0% {transform: translate(363.686001px,354.238502px) scale(1,1);animation-timing-function: cubic-bezier(0.271958,0.298545,0,0.991081)} 6.153846% {transform: translate(363.686001px,354.238502px) scale(1.4,1.4);animation-timing-function: cubic-bezier(0.271958,0.298545,0,0.991081)} 15.384615% {transform: translate(363.686001px,354.238502px) scale(1,1)} 21.538462% {transform: translate(363.686001px,354.238502px) scale(1.4,1.4);animation-timing-function: cubic-bezier(0.271958,0.298545,0,0.991081)} 30.769231% {transform: translate(363.686001px,354.238502px) scale(1,1)} 36.923077% {transform: translate(363.686001px,354.238502px) scale(1.4,1.4);animation-timing-function: cubic-bezier(0.271958,0.298545,0,0.991081)} 46.153846% {transform: translate(363.686001px,354.238502px) scale(1,1)} 52.307692% {transform: translate(363.686001px,354.238502px) scale(1.4,1.4);animation-timing-function: cubic-bezier(0.271958,0.298545,0,0.991081)} 61.538462% {transform: translate(363.686001px,354.238502px) scale(1,1)} 67.692308% {transform: translate(363.686001px,354.238502px) scale(1.4,1.4);animation-timing-function: cubic-bezier(0.271958,0.298545,0,0.991081)} 76.923077% {transform: translate(363.686001px,354.238502px) scale(1,1)} 83.076923% {transform: translate(363.686001px,354.238502px) scale(1.4,1.4);animation-timing-function: cubic-bezier(0.271958,0.298545,0,0.991081)} 92.307692% {transform: translate(363.686001px,354.238502px) scale(1,1)} 98.461538% {transform: translate(363.686001px,354.238502px) scale(1.4,1.4);animation-timing-function: cubic-bezier(0.271958,0.298545,0,0.991081)} 100% {transform: translate(363.686001px,354.238502px) scale(1.333333,1.333333)}} #ebgX0hFHl1S77_ts {animation: ebgX0hFHl1S77_ts__ts 1911.764705882353ms linear 1 normal forwards}@keyframes ebgX0hFHl1S77_ts__ts { 0% {transform: translate(216.190981px,354.238502px) scale(1,1);animation-timing-function: cubic-bezier(0.271958,0.298545,0,0.991081)} 6.153846% {transform: translate(216.190981px,354.238502px) scale(1.4,1.4);animation-timing-function: cubic-bezier(0.271958,0.298545,0,0.991081)} 15.384615% {transform: translate(216.190981px,354.238502px) scale(1,1)} 21.538462% {transform: translate(216.190981px,354.238502px) scale(1.4,1.4);animation-timing-function: cubic-bezier(0.271958,0.298545,0,0.991081)} 30.769231% {transform: translate(216.190981px,354.238502px) scale(1,1)} 36.923077% {transform: translate(216.190981px,354.238502px) scale(1.4,1.4);animation-timing-function: cubic-bezier(0.271958,0.298545,0,0.991081)} 46.153846% {transform: translate(216.190981px,354.238502px) scale(1,1)} 52.307692% {transform: translate(216.190981px,354.238502px) scale(1.4,1.4);animation-timing-function: cubic-bezier(0.271958,0.298545,0,0.991081)} 61.538462% {transform: translate(216.190981px,354.238502px) scale(1,1)} 67.692308% {transform: translate(216.190981px,354.238502px) scale(1.4,1.4);animation-timing-function: cubic-bezier(0.271958,0.298545,0,0.991081)} 76.923077% {transform: translate(216.190981px,354.238502px) scale(1,1)} 83.076923% {transform: translate(216.190981px,354.238502px) scale(1.4,1.4);animation-timing-function: cubic-bezier(0.271958,0.298545,0,0.991081)} 92.307692% {transform: translate(216.190981px,354.238502px) scale(1,1)} 98.461538% {transform: translate(216.190981px,354.238502px) scale(1.4,1.4);animation-timing-function: cubic-bezier(0.271958,0.298545,0,0.991081)} 100% {transform: translate(216.190981px,354.238502px) scale(1.333333,1.333333)}} #ebgX0hFHl1S93_tr {animation: ebgX0hFHl1S93_tr__tr 1911.764705882353ms linear 1 normal forwards}@keyframes ebgX0hFHl1S93_tr__tr { 0% {transform: translate(165.887541px,435.083002px) rotate(0deg)} 6.153846% {transform: translate(165.887541px,435.083002px) rotate(3.803724deg)} 15.384615% {transform: translate(165.887541px,435.083002px) rotate(0deg)} 21.538462% {transform: translate(165.887541px,435.083002px) rotate(3.803724deg)} 30.769231% {transform: translate(165.887541px,435.083002px) rotate(0deg)} 36.923077% {transform: translate(165.887541px,435.083002px) rotate(3.803724deg)} 46.153846% {transform: translate(165.887541px,435.083002px) rotate(0deg)} 52.307692% {transform: translate(165.887541px,435.083002px) rotate(3.803724deg)} 61.538462% {transform: translate(165.887541px,435.083002px) rotate(0deg)} 67.692308% {transform: translate(165.887541px,435.083002px) rotate(3.803724deg)} 76.923077% {transform: translate(165.887541px,435.083002px) rotate(0deg)} 83.076923% {transform: translate(165.887541px,435.083002px) rotate(3.803724deg)} 92.307692% {transform: translate(165.887541px,435.083002px) rotate(0deg)} 98.461538% {transform: translate(165.887541px,435.083002px) rotate(3.803724deg)} 100% {transform: translate(165.887541px,435.083002px) rotate(3.16977deg)}} #ebgX0hFHl1S120_tr {animation: ebgX0hFHl1S120_tr__tr 1911.764705882353ms linear 1 normal forwards}@keyframes ebgX0hFHl1S120_tr__tr { 0% {transform: translate(402px,360px) rotate(0deg)} 78.461538% {transform: translate(402px,360px) rotate(0deg)} 84.615385% {transform: translate(402px,360px) rotate(360deg)} 100% {transform: translate(402px,360px) rotate(360deg)}} #ebgX0hFHl1S120_ts {animation: ebgX0hFHl1S120_ts__ts 1911.764705882353ms linear 1 normal forwards}@keyframes ebgX0hFHl1S120_ts__ts { 0% {transform: scale(0.1,0.1)} 78.461538% {transform: scale(0.1,0.1)} 81.538462% {transform: scale(0.1,0.1)} 84.615385% {transform: scale(0.1,0.1)} 100% {transform: scale(0.1,0.1)}} #ebgX0hFHl1S120 {animation: ebgX0hFHl1S120_c_o 1911.764705882353ms linear 1 normal forwards}@keyframes ebgX0hFHl1S120_c_o { 0% {opacity: 0} 76.923077% {opacity: 0} 78.461538% {opacity: 1} 83.076923% {opacity: 1} 84.615385% {opacity: 0} 100% {opacity: 0}} #ebgX0hFHl1S121_to {animation: ebgX0hFHl1S121_to__to 1911.764705882353ms linear 1 normal forwards}@keyframes ebgX0hFHl1S121_to__to { 0% {transform: translate(401.910001px,585.290168px)} 15.384615% {transform: translate(401.910001px,578.144881px);animation-timing-function: cubic-bezier(0.271958,0.298545,0,0.991081)} 78.461538% {transform: translate(401.910001px,361.999999px)} 100% {transform: translate(401.910001px,361.999999px)}} #ebgX0hFHl1S121_ts {animation: ebgX0hFHl1S121_ts__ts 1911.764705882353ms linear 1 normal forwards}@keyframes ebgX0hFHl1S121_ts__ts { 0% {transform: scale(0.509223,0.509223)} 15.384615% {transform: scale(1.1,1.1);animation-timing-function: cubic-bezier(0.271958,0.298545,0,0.991081)} 78.461538% {transform: scale(0.03,0.03)} 100% {transform: scale(0.03,0.03)}} #ebgX0hFHl1S121 {animation: ebgX0hFHl1S121_c_o 1911.764705882353ms linear 1 normal forwards}@keyframes ebgX0hFHl1S121_c_o { 0% {opacity: 1} 73.846154% {opacity: 1} 78.461538% {opacity: 0} 100% {opacity: 0}} #ebgX0hFHl1S187_to {animation: ebgX0hFHl1S187_to__to 1911.764705882353ms linear 1 normal forwards}@keyframes ebgX0hFHl1S187_to__to { 0% {transform: translate(408.097672px,465.864139px)} 3.076923% {transform: translate(408.097672px,486.742371px)} 7.692308% {transform: translate(408.097672px,465.864139px)} 10.769231% {transform: translate(408.097672px,486.742371px)} 13.846154% {transform: translate(408.097672px,465.864139px)} 16.923077% {transform: translate(408.097672px,486.742371px)} 20% {transform: translate(408.097672px,465.864139px)} 23.076923% {transform: translate(408.097672px,486.742371px)} 26.153846% {transform: translate(408.097672px,465.864139px)} 29.230769% {transform: translate(408.097672px,486.742371px)} 32.307692% {transform: translate(408.097672px,465.864139px)} 35.384615% {transform: translate(408.097672px,486.742371px)} 38.461538% {transform: translate(408.097672px,465.864139px)} 41.538462% {transform: translate(408.097672px,486.742371px)} 44.615385% {transform: translate(408.097672px,465.864139px)} 47.692308% {transform: translate(408.097672px,486.742371px)} 50.769231% {transform: translate(408.097672px,465.864139px)} 53.846154% {transform: translate(408.097672px,486.742371px)} 56.923077% {transform: translate(408.097672px,465.864139px)} 60% {transform: translate(408.097672px,486.742371px)} 63.076923% {transform: translate(408.097672px,465.864139px)} 66.153846% {transform: translate(408.097672px,486.742371px)} 69.230769% {transform: translate(408.097672px,465.864139px)} 72.307692% {transform: translate(408.097672px,486.742371px)} 100% {transform: translate(408.097672px,486.742371px)}} #ebgX0hFHl1S187_ts {animation: ebgX0hFHl1S187_ts__ts 1911.764705882353ms linear 1 normal forwards}@keyframes ebgX0hFHl1S187_ts__ts { 0% {transform: scale(0.7,0.7)} 3.076923% {transform: scale(1,1)} 7.692308% {transform: scale(0.7,0.7)} 10.769231% {transform: scale(1,1)} 13.846154% {transform: scale(0.7,0.7)} 16.923077% {transform: scale(1,1)} 20% {transform: scale(0.7,0.7)} 23.076923% {transform: scale(1,1)} 26.153846% {transform: scale(0.7,0.7)} 29.230769% {transform: scale(1,1)} 32.307692% {transform: scale(0.7,0.7)} 35.384615% {transform: scale(1,1)} 38.461538% {transform: scale(0.7,0.7)} 41.538462% {transform: scale(1,1)} 44.615385% {transform: scale(0.7,0.7)} 47.692308% {transform: scale(1,1)} 50.769231% {transform: scale(0.7,0.7)} 53.846154% {transform: scale(1,1)} 56.923077% {transform: scale(0.7,0.7)} 60% {transform: scale(1,1)} 63.076923% {transform: scale(0.7,0.7)} 66.153846% {transform: scale(1,1)} 69.230769% {transform: scale(0.7,0.7)} 72.307692% {transform: scale(1,1)} 100% {transform: scale(1,1)}}
]]></style>
<defs><linearGradient id="ebgX0hFHl1S3-fill" x1="289.5" y1="250.069" x2="290.65" y2="606.974" spreadMethod="pad" gradientUnits="userSpaceOnUse" gradientTransform="translate(0 0)"><stop id="ebgX0hFHl1S3-fill-0" offset="17.3077%" stop-color="#003dcd"/><stop id="ebgX0hFHl1S3-fill-1" offset="65.3846%" stop-color="#040060"/><stop id="ebgX0hFHl1S3-fill-2" offset="89.4231%" stop-color="#3a0082"/></linearGradient><linearGradient id="ebgX0hFHl1S53-fill" x1="3.94287" y1="471.231" x2="576" y2="471.231" spreadMethod="pad" gradientUnits="userSpaceOnUse" gradientTransform="translate(0 0)"><stop id="ebgX0hFHl1S53-fill-0" offset="0%" stop-color="#0b2e86"/><stop id="ebgX0hFHl1S53-fill-1" offset="50%" stop-color="#3b0182"/><stop id="ebgX0hFHl1S53-fill-2" offset="100%" stop-color="#0b2e86"/></linearGradient><linearGradient id="ebgX0hFHl1S54-fill" x1="3.94287" y1="471.231" x2="576" y2="471.231" spreadMethod="pad" gradientUnits="userSpaceOnUse" gradientTransform="translate(0 0)"><stop id="ebgX0hFHl1S54-fill-0" offset="0%" stop-color="#0b2e86"/><stop id="ebgX0hFHl1S54-fill-1" offset="50%" stop-color="#3b0182"/><stop id="ebgX0hFHl1S54-fill-2" offset="100%" stop-color="#0b2e86"/></linearGradient><linearGradient id="ebgX0hFHl1S55-fill" x1="3.94287" y1="471.231" x2="576" y2="471.231" spreadMethod="pad" gradientUnits="userSpaceOnUse" gradientTransform="translate(0 0)"><stop id="ebgX0hFHl1S55-fill-0" offset="0%" stop-color="#0b2e86"/><stop id="ebgX0hFHl1S55-fill-1" offset="50%" stop-color="#3b0182"/><stop id="ebgX0hFHl1S55-fill-2" offset="100%" stop-color="#0b2e86"/></linearGradient><linearGradient id="ebgX0hFHl1S56-fill" x1="3.94287" y1="471.231" x2="576" y2="471.231" spreadMethod="pad" gradientUnits="userSpaceOnUse" gradientTransform="translate(0 0)"><stop id="ebgX0hFHl1S56-fill-0" offset="0%" stop-color="#0b2e86"/><stop id="ebgX0hFHl1S56-fill-1" offset="50%" stop-color="#3b0182"/><stop id="ebgX0hFHl1S56-fill-2" offset="100%" stop-color="#0b2e86"/></linearGradient><linearGradient id="ebgX0hFHl1S57-fill" x1="3.94287" y1="471.231" x2="576" y2="471.231" spreadMethod="pad" gradientUnits="userSpaceOnUse" gradientTransform="translate(0 0)"><stop id="ebgX0hFHl1S57-fill-0" offset="0%" stop-color="#0b2e86"/><stop id="ebgX0hFHl1S57-fill-1" offset="50%" stop-color="#3b0182"/><stop id="ebgX0hFHl1S57-fill-2" offset="100%" stop-color="#0b2e86"/></linearGradient><linearGradient id="ebgX0hFHl1S63-fill" x1="288.505" y1="239.843" x2="291.7" y2="622.204" spreadMethod="pad" gradientUnits="userSpaceOnUse" gradientTransform="translate(0 0)"><stop id="ebgX0hFHl1S63-fill-0" offset="0%" stop-color="#0a1b41"/><stop id="ebgX0hFHl1S63-fill-1" offset="100%" stop-color="#30a"/></linearGradient><linearGradient id="ebgX0hFHl1S64-fill" x1="83.4321" y1="518.456" x2="502.276" y2="518.456" spreadMethod="pad" gradientUnits="userSpaceOnUse" gradientTransform="translate(0 0)"><stop id="ebgX0hFHl1S64-fill-0" offset="0%" stop-color="rgba(254,20,187,0.3)"/><stop id="ebgX0hFHl1S64-fill-1" offset="50%" stop-color="#fe14bb"/><stop id="ebgX0hFHl1S64-fill-2" offset="100%" stop-color="rgba(254,20,187,0.3)"/></linearGradient><filter id="ebgX0hFHl1S89-filter" x="-150%" y="-150%" width="400%" height="400%"><feGaussianBlur id="ebgX0hFHl1S89-filter-drop-shadow-0-blur" in="SourceAlpha" stdDeviation="7,7"/><feOffset id="ebgX0hFHl1S89-filter-drop-shadow-0-offset" dx="0" dy="4" result="tmp"/><feFlood id="ebgX0hFHl1S89-filter-drop-shadow-0-flood" flood-color="#000"/><feComposite id="ebgX0hFHl1S89-filter-drop-shadow-0-composite" operator="in" in2="tmp"/><feMerge id="ebgX0hFHl1S89-filter-drop-shadow-0-merge" result="result"><feMergeNode id="ebgX0hFHl1S89-filter-drop-shadow-0-merge-node-1"/><feMergeNode id="ebgX0hFHl1S89-filter-drop-shadow-0-merge-node-2" in="SourceGraphic"/></feMerge></filter><linearGradient id="ebgX0hFHl1S90-fill" x1="285.476" y1="378.49" x2="284.77" y2="496.696" spreadMethod="pad" gradientUnits="userSpaceOnUse" gradientTransform="translate(0 0)"><stop id="ebgX0hFHl1S90-fill-0" offset="32.0491%" stop-color="#ff0fa8"/><stop id="ebgX0hFHl1S90-fill-1" offset="100%" stop-color="#0092ff"/></linearGradient><linearGradient id="ebgX0hFHl1S158-fill" x1="141.35" y1="238.62" x2="665.33" y2="238.62" spreadMethod="pad" gradientUnits="userSpaceOnUse" gradientTransform="translate(0 0)"><stop id="ebgX0hFHl1S158-fill-0" offset="0%" stop-color="#348e9d"/><stop id="ebgX0hFHl1S158-fill-1" offset="50%" stop-color="#154968"/><stop id="ebgX0hFHl1S158-fill-2" offset="100%" stop-color="#348e9d"/></linearGradient><linearGradient id="ebgX0hFHl1S188-fill" x1="423.097" y1="1231.18" x2="376.328" y2="473.873" spreadMethod="pad" gradientUnits="userSpaceOnUse" gradientTransform="translate(0 0)"><stop id="ebgX0hFHl1S188-fill-0" offset="41%" stop-color="#f87f00"/><stop id="ebgX0hFHl1S188-fill-1" offset="83%" stop-color="#da5100"/></linearGradient><linearGradient id="ebgX0hFHl1S189-fill" x1="390.254" y1="1033.36" x2="396.069" y2="519.072" spreadMethod="pad" gradientUnits="userSpaceOnUse" gradientTransform="translate(0 0)"><stop id="ebgX0hFHl1S189-fill-0" offset="0%" stop-color="#ff9628"/><stop id="ebgX0hFHl1S189-fill-1" offset="96%" stop-color="#f57a02"/></linearGradient></defs><g transform="matrix(.2 0 0 0.2 344.080862 270.113316)"><path d="M468.339,428.509c0,102.095-79.81,185.831-178.265,185.831-98.456,0-178.266-83.736-178.266-185.831s79.81-184.849,178.266-184.849c98.455,0,178.265,82.766,178.265,184.849Z" fill="url(#ebgX0hFHl1S3-fill)"/><g opacity="0.5"><path d="M127.865,372.973c0,0-8.124,29.581-7.142,48.067l-9.361-2.221c0,0,5.165-43.624,8.124-49.05l8.366,3.204h.013Z" fill="#103e9c"/><path d="M122.942,460.718c0,0,6.9,34.253,14.029,48.552l-12.562-6.166-13.047-49.05l11.568,6.652.012.012Z" fill="#103e9c"/><path d="M165.296,554.86c0,0,22.152,24.652,32.993,31.546l-7.627.243-34.472-32.045l9.106.243v.013Z" fill="#103e9c"/><path d="M176.379,289.671c0,0-16.49,18.486-28.07,37.215l-5.165-1.724c0,0,22.407-30.563,33.235-35.491Z" fill="#103e9c"/><path d="M265.907,303.804c0,0,28.809.983,44.317-.498l5.166,39.193c0,0-45.555,2.222-54.419.983l4.923-39.678h.013Z" fill="#fff" fill-opacity="0.1"/><path d="M212.407,340.278l47.098,3.115-2.946,46.662-55.477-2.298l11.325-47.479Z" fill="#fff" fill-opacity="0.2"/><path d="M327.709,268.555c0,0,29.295,39.193,35.697,69.744c0,0,25.851-1.966,40.135-5.911c0,0-14.526-40.662-52.939-67.778l-22.893,3.945Z" fill="#fff" fill-opacity="0.1"/><path d="M403.541,332.388c0,0,21.17-2.796,25.353-6.983c0,0,16.745,24.154,19.691,46.087c0,0-15.508,5.426-28.07,6.167c0,0-9.603-32.862-16.987-45.271h.013Z" fill="#fff" fill-opacity="0.2"/><path d="M456.964,368.531l-8.213,2.63c0,0,6.402,16.596,7.882,48.641l10.342-4.43c0,0-3.443-38.62-10.011-46.828v-.013Z" fill="#fff" fill-opacity="0.3"/><path d="M455.332,455.625c0,0-5.586,35.823-12.639,48.641l10.012-3.613c0,0,12.804-35.824,13.136-48.641l-.817-2.63-9.679,6.243h-.013Z" fill="#fff" fill-opacity="0.3"/><path d="M416.268,549.613c0,0-18.058,24.487-33.975,33.193l10.178-1.646c0,0,30.697-27.436,34.14-33.526L416.268,549.6v.013Z" fill="#fff" fill-opacity="0.3"/><path d="M147.237,327.371l26.259,6.332c0,0-13.454,25.227-16.413,47.403c0,0-25.851-5.426-29.052-7.635c0,0,10.585-34.751,19.206-46.088v-.012Z" fill="#fff" fill-opacity="0.1"/><path d="M229.637,299.859c0,0-15.1,29.58-17.077,39.104c0,0-32.177-1.315-39.063-5.26c0,0,8.863-24.652,22.981-38.453c0,0,22.318,3.613,33.159,4.596v.013Z" fill="#fff" fill-opacity="0.1"/><path d="M415.12,513.624l27.241-8.541c0,0-19.538,40.253-26.093,44.862l-22.981,6.741c0,0,13.289-19.878,21.833-43.049v-.013Z" fill="#fff" fill-opacity="0.3"/><path d="M150.681,430.398c0,0-1.314,19.469,1.811,41.823c0,0-23.071-4.532-29.716-11.17-.165-.166-3.277-32.045-2.461-39.105l30.366,8.465v-.013Z" fill="#fff" fill-opacity="0.3"/><path d="M163.485,517.237c0,0,17.727,37.138,23.313,42.717l-21.336-4.596c0,0-19.041-24.321-28.555-47.16c0,0,11.325,6.409,26.591,9.039h-.013Z" fill="#fff" fill-opacity="0.3"/><path d="M426.93,427.078c0,0,26.718-6.408,30.289-8.26c0,0-.497,30.194-1.722,36.73c0,0-11.197,9.115-29.294,12.575c0,0,2.959-29.082.74-41.032l-.013-.013Z" fill="#fff" fill-opacity="0.3"/><path d="M157.083,381.106c0,0,22.739,5.425,43.986,6.651c0,0-5.331,34.508-5.089,49.535c0,0-21.667-1.239-45.299-6.907c0,0-.498-27.117,6.402-49.292v.013Z" fill="#fff" fill-opacity="0.3"/><path d="M256.559,390.055c0,0,23.632,2.388,62.045.409l.982,48.066c0,0-14.526,2.707-65.004,1.724l1.964-50.199h.013Z" fill="#fff" fill-opacity="0.2"/><path d="M223.068,566.452l-36.27-6.485c0,0,20.265,26.695,35.288,33.602l24.372,4.43c0,0-21.426-26.376-23.39-31.547Z" fill="#fff" fill-opacity="0.3"/><path d="M265.754,570.307l44.318-.331c0,0-4.515,24.805-7.958,28.75l-27.331.741c0,0-7.958-19.878-9.029-29.16Z" fill="#fff" fill-opacity="0.3"/><path d="M354.708,565.214c0,0-15.431,25.635-21.833,28.84l29.549-5.669c0,0,23.058-20.541,30.863-31.712l-38.579,8.541Z" fill="#fff" fill-opacity="0.3"/><path d="M249.659,597.999l25.111,1.48c0,0,4.184,8.873,10.101,15.04c0,0-20.928,0-35.212-16.508v-.012Z" fill="#fff" fill-opacity="0.3"/><path d="M302.101,598.739c0,0-.982,6.907-7.627,14.299l10.343-.243c0,0,22.153-11.094,27.573-17.005l-30.289,2.962v-.013Z" fill="#fff" fill-opacity="0.3"/><path d="M380.891,584.198l-18.467,4.187c0,0-18.709,14.044-37.916,21.933-19.206,7.89,42.596-12.077,56.383-26.12Z" fill="#fff" fill-opacity="0.3"/><path d="M315.645,342.653c0,0,30.531-.741,48.258-3.205c0,0,7.384,21.691,12.065,45.347c0,0-25.851,4.686-57.365,5.669l-2.958-47.811Z" fill="#fff" fill-opacity="0.2"/><path d="M256.227,487.503c0,0,37.75,1.392,62.861.204l-2.793,41.198c0,0-31.845,3.613-56.14.332l-3.941-41.734h.013Z" fill="#fff" fill-opacity="0.3"/><path d="M195.993,437.305c0,0,34.638,3.038,58.602,2.962l1.645,47.236c0,0-49.241-1.647-56.791-4.928l-3.443-45.27h-.013Z" fill="#fff" fill-opacity="0.3"/><path d="M320.325,440.011c0,0,6.9.128,60.693-4.928l-1.683,45.513c0,0-42.507,6.486-60.234,7.111l1.237-47.696h-.013Z" fill="#fff" fill-opacity="0.3"/><path d="M376.95,385.549l43.82-6.167c0,0,7.384,31.304,5.905,46.586l-44.815,8.63c0,0-1.237-33.27-4.923-49.049h.013Z" fill="#fff" fill-opacity="0.2"/><path d="M207.637,525.777c0,0,10.177,36.641,17.077,41.237l41.04,3.281-6.402-40.088-51.702-4.43h-.013Z" fill="#fff" fill-opacity="0.3"/><path d="M198.939,483.06c0,0,4.107,31.215,8.698,42.232l-43.004-7.558c0,0-10.177-28.099-11.656-44.364l45.962,9.69Z" fill="#fff" fill-opacity="0.3"/><path d="M379.335,480.597l45.873-10.89c0,0-6.644,38.197-9.731,43.125l-44.317,9.984c0,0,8.213-30.104,8.162-42.232l.013.013Z" fill="#fff" fill-opacity="0.3"/><path d="M315.313,529.072l55.847-6.243c0,0-9.884,34.176-16.452,42.398l-44.649,4.762c0,0,4.272-23.172,5.254-40.917Z" fill="#fff" fill-opacity="0.3"/><path d="M272.309,270.278l-6.402,33.526c0,0-36.271-1.647-36.271-3.945l20.023-31.879l22.65,2.298Z" fill="#fff" fill-opacity="0.1"/></g><path d="M457.193,428.509c0,102.095-75.333,185.831-168.267,185.831-92.933,0-168.267-83.736-168.267-185.831s75.334-184.849,168.267-184.849c92.934,0,168.267,82.766,168.267,184.849Z" fill="none" stroke="#0a1b41" stroke-width="2" stroke-miterlimit="10"/><path d="M381.247,440.982c0,101.814-41.333,173.358-92.334,173.358-51,0-92.333-71.544-92.333-173.358s51.23-197.322,92.346-197.322c37.674,0,92.334,95.508,92.334,197.322h-.013Z" fill="none" stroke="#0a1b41" stroke-width="2" stroke-miterlimit="10"/><path d="M319.585,442.309c0,101.547-12.843,172.031-30.659,172.031s-33.847-70.484-33.847-172.031c0-101.546,16.031-198.649,33.847-198.649s30.659,97.103,30.659,198.649Z" fill="none" stroke="#0a1b41" stroke-width="2" stroke-miterlimit="10"/><path d="M427.427,438.365c0,102.095-61.943,175.975-138.501,175.975s-138.73-73.893-138.73-175.975c0-102.083,62.172-194.705,138.73-194.705s138.501,92.622,138.501,194.705Z" fill="none" stroke="#0a1b41" stroke-width="2" stroke-miterlimit="10"/><path d="M209.779,263.538c0,0,61.548,16.596,156.585-1.149" fill="none" stroke="#0a1b41" stroke-width="2" stroke-linecap="round" stroke-miterlimit="10"/><path d="M172.514,289.339c0,0,35.62,12.818,113.581,14.618c0,0,83.712.498,120.314-14.299" fill="none" stroke="#0a1b41" stroke-width="2" stroke-linecap="round" stroke-miterlimit="10"/><path d="M141.664,325.163c0,0,35.62,17.579,140.171,18.728c0,0,105.7.166,153.473-20.375" fill="none" stroke="#0a1b41" stroke-width="2" stroke-linecap="round" stroke-miterlimit="10"/><path d="M457.627,369.029c0,0-60.566,21.027-170.538,22.176-132.787,1.391-167.093-21.691-167.093-21.691" fill="none" stroke="#0a1b41" stroke-width="2" stroke-linecap="round" stroke-miterlimit="10"/><path d="M112.114,418.487c0,0,52.365,24.805,170.703,22.341c0,0,129.829-.651,183.673-25.967" fill="none" stroke="#0a1b41" stroke-width="2" stroke-linecap="round" stroke-miterlimit="10"/><path d="M114.741,454.961c0,0,29.868,32.861,177.603,33.844c0,0,121.998-1.723,172.883-39.193" fill="none" stroke="#0a1b41" stroke-width="2" stroke-linecap="round" stroke-miterlimit="10"/><path d="M125.237,501.623c0,0,29.55,27.27,162.822,28.917c0,0,89.949-.332,163.816-29.581" fill="none" stroke="#0a1b41" stroke-width="2" stroke-linecap="round" stroke-miterlimit="10"/><path d="M158.077,552.894c0,0,132.29,43.05,267.552-5.911" fill="none" stroke="#0a1b41" stroke-width="2" stroke-linecap="round" stroke-miterlimit="10"/><path d="M188.812,583.521c0,0,44.076,17.682,100.535,16.699c0,0,53.181-1.315,102.09-19.712" fill="none" stroke="#0a1b41" stroke-width="2" stroke-linecap="round" stroke-miterlimit="10"/><path d="M575.952,452.676c-1.646-25.674-44.713-48.105-110.699-61.242c1.008,5.579,1.773,11.235,2.296,16.98c29.409,7.89,47.289,18.677,48.092,31.278.919,14.312-20.328,29.874-55.897,42.96-5.484,17.695-13.455,34.253-23.479,49.215c85.256-18.767,141.625-48.858,139.687-79.191Z" fill="url(#ebgX0hFHl1S53-fill)"/><path d="M69.1609,461.357c-.7907-12.435,15.1382-24.716,42.6471-35.3c0-.102,0-.204,0-.306c0-6.32.306-12.575.905-18.742C45.0826,426.606,2.29533,453.94,3.99152,480.431C5.94277,510.93,66.3424,535.48,154.174,545.796c-11.707-14.388-21.361-30.627-28.478-48.22-34.4081-9.498-55.6551-22.431-56.5351-36.206v-.013Z" fill="url(#ebgX0hFHl1S54-fill)"/><path d="M467.549,408.414c-.511-5.745-1.288-11.401-2.296-16.98l2.296,16.98Z" fill="url(#ebgX0hFHl1S55-fill)"/><path d="M295.927,512.22c-67.541,3.281-128.54-3.167-170.231-14.657c7.117,17.606,16.771,33.845,28.478,48.22c41.895,4.915,90.013,6.588,141.014,4.111c51.587-2.502,99.731-8.937,141.077-18.039c10.024-14.963,17.995-31.521,23.479-49.216-40.122,14.771-98.469,26.402-163.829,29.568l.012.013Z" fill="url(#ebgX0hFHl1S56-fill)"/><path d="M295.927,512.22c-67.541,3.281-128.54-3.167-170.231-14.657c7.117,17.606,16.771,33.845,28.478,48.22c41.895,4.915,90.013,6.588,141.014,4.111c51.587-2.502,99.731-8.937,141.077-18.039c10.024-14.963,17.995-31.521,23.479-49.216-40.122,14.771-98.469,26.402-163.829,29.568l.012.013Z" fill="url(#ebgX0hFHl1S57-fill)"/><path d="M83.7893,513.496c-30.7483-10.57-49.164-24.32-49.8017-39.959-.8034-19.852,28.848-38.479,74.9254-53.493" fill="none" stroke="#fba052" stroke-opacity="0.3" stroke-miterlimit="10"/><path d="M465.853,402.273c49.649,11.235,80.958,28.623,81.787,49.152.625,15.524-16.363,30.614-45.759,43.572" fill="none" stroke="#fba052" stroke-opacity="0.3" stroke-miterlimit="10"/><path d="M110.214,409.92C43.5784,429.466,1.55625,456.57,3.23969,482.831C6.12193,527.884,136.499,559.967,294.436,552.307s283.646-52.19,280.764-97.231c-1.633-25.585-44.407-47.952-109.997-61.101" fill="none" stroke="#fe14bb" stroke-width="5" stroke-miterlimit="10"/><path d="M467.562,409.92c28.95,7.877,46.524,18.576,47.315,31.074c1.951,30.449-96.428,66.553-219.714,72.541-123.299,5.987-224.828-20.414-226.7665-50.863-.7652-12.013,15.8014-24.55,41.6145-34.891" fill="none" stroke="#fe14bb" stroke-width="3" stroke-miterlimit="10"/><path d="M288.466,618.872c-52.454,0-105.431-26.478-139.903-68.034c0,0,2.55.638,8.646,1.021c33.375,38.505,81.609,61.906,131.244,61.906c55.248,0,107.472-27.602,140.682-73.779c3.329-.663,7.384-1.583,7.384-1.583-33.949,50.39-89.298,80.469-148.066,80.469h.013Z" fill="#0a1b41"/><path d="M119.511,495.316c-7.652-21.141-11.529-43.368-11.529-66.105c0-103.347,81.111-187.415,180.816-187.415c99.706,0,180.817,84.068,180.817,187.402c0,17.388-2.283,34.649-6.798,51.258-.944.37-5.114,2.004-5.956,2.234c5.076-17.273,7.652-35.312,7.652-53.492c0-100.525-78.828-182.295-175.715-182.295s-175.715,81.783-175.715,182.308c0,23.107,4.464,46.483,12.575,67.854c0,0-6.134-1.787-6.147-1.749Z" fill="url(#ebgX0hFHl1S63-fill)"/><path d="M83.853,511.568c4.5657,1.239,9.0548,2.477,13.5057,4.162c4.5023,1.673,8.6723,4.252,12.4983,7.022c1.671,1.481,4.425,1.685,6.989,1.136c3.877-.83,7.524-3.102,10.509-5.77c5.509-6.345,9.118-2.26,10.865,4.085.97,2.821.855,6.332,2.156,8.911.089.166.178.077-.217-.025-.191-.039-.37.012-.408.038-.051.013-.026.013.025-.038.102-.09.268-.294.421-.537c2.984-4.966,2.972-11.183,6.568-16.098c6.236-6.92,11.861,12.422,13.735,16.366.995,2.184,2.526,8.758,5.599,5.886c2.895-2.694,4.566-6.69,6.134-10.367.574-1.519,1.263-2.91,2.27-4.187c2.704-3.741,6.913-4.009,9.706-.255c2.78,3.715,4.068,8.157,5.318,12.46l-.102-.281c.459.894,1.237,2.017,2.13,2.285.165.026.28.013.497-.076c2.691-1.813,3.214-5.835,4.668-8.656.867-1.966,3.15-3.434,5.076-1.532c2.614,3.332,2.971,7.507,3.787,11.464.064.396.179.817.306,1.149.115.319.319.536.255.46-.038,0-.153-.077-.204-.051-.051,0-.025,0,.077-.038c1.785-1.162,2.92-3.358,4.157-5.375c2.5-3.664,4.375-12.243,9.986-11.809c3.01.651,4.247,3.536,5.153,6c.752,2.323,1.709,4.749,2.997,6.805.548.842,1.173,1.621,1.721,1.812c1.518-1.225,1.99-4.034,3.329-5.732c2.831-4.481,7.282-3.83,9.425.97c1.135,1.992,4.655,7.954,6.81,4.584c1.645-2.605,2.5-5.899,4.527-8.401c2.041-2.911,5.497-3.689,7.997-.842c2.767,3.038,3.826,7.583,6.937,10.226c2.36,2.247,4.145-4.826,4.923-6.46c1.212-2.783,2.666-5.949,5.79-7.175c6.313-1.749,8.877,5.975,11.874,9.754c4.042,5.196,5.458,5.17,8.238-.626c2.755-5.413,6.619-11.094,11.504-3.715c1.568,2.311,3.545,5.362,5.586,7.047c1.186.856,2.002,1.596,3.111.511c2.385-2.898,2.462-7.826,4.681-11.26c4.03-6.741,9.45-2.311,12.587,2.591c1.773,2.426,3.138,5.145,5.459,6.728.637.358.905.345,1.352.192c1.249-.639,2.359-2.502,3.06-3.92c1.518-2.923,3.049-5.885,5.217-8.477.803-.881,1.683-1.876,3.29-2.476c5.178-1.634,7.193,5.489,11.006,7.034.23.051.293.038.408,0c.791-.46,1.275-1.545,1.696-2.604.944-2.771,1.799-6.447,3.546-9.205c1.16-2.132,3.941-3.894,6.351-2.4c3.635,2.362,4.591,6.664,6.428,10.251c1.262,2.349,2.499,5.375,4.552,6.805.205.089.052,0-.051.064c1.059-1.302,1.531-3.817,1.824-5.681.778-4.392,1.199-8.503,2.882-12.831c1.059-2.885,3.992-4.379,6.505-2.094c3.673,3.575,5.037,8.541,7.766,12.563.511.804,1.123,1.596,1.582,1.94.242.179.268.115.115.128.931-.843,2.257-3.524,2.818-5.119c1.594-3.907,2.615-8.056,4.107-12.065c2.257-5.655,7.052-5.209,10.126-.23.676,1.022,1.224,2.005,1.747,3.141.893,2.834,1.977,5.911,3.775,8.234.523.69,1.186,1.111,1.352,1.073c1.109-.307,1.887-2.005,2.461-3.141c2.296-4.749,4.056-11.107,7.984-14.911c6.836-5.222,11.439,6.498,16.63,8.426-.025,0,0,.025.191-.166.702-.958,1.212-2.336,1.569-3.639l.408-1.493.191-.766.102-.383c1.314-6.001,7.767-6.779,12.754-6.448c4.387.179,8.608.549,12.842.332c4.222-.191,8.418-.944,12.371-2.489l.51,1.187c-3.992,1.864-8.34,2.949-12.702,3.434-6.249.92-12.996-.255-18.939,1.315-3.112.869-3.048,3.856-3.839,6.409-.816,2.541-1.747,6.001-4.986,6.524-5.42.906-11.567-11.95-14.628-9.294-2.053,1.953-3.099,4.966-4.387,7.622-1.237,2.515-2.691,7.034-4.515,9.153-6.364,7.009-11.312-4.57-12.728-9.766l.09.255c-.919-1.813-2.054-3.996-3.61-4.698-.382.153-.905.945-1.262,1.826-2.334,5.719-6.708,28.495-15.279,15.69-2.563-3.805-4.298-9.128-7.307-11.975.102,0,.255-.039.28-.064.039-.026-.012,0-.089.102-.153.179-.357.536-.523.919-1.428,3.575-1.913,8.005-2.627,11.912-.485,3.485-2.079,10.647-7.18,8.387-1.492-.817-2.207-1.8-2.946-2.745-3.278-4.238-4.324-9.587-7.448-13.762-.306-.319-.689-.677-.944-.702-.064-.064-.714.485-1.135,1.2-2.959,4.098-2.525,14.682-9.807,13.43-2.717-.919-4.043-2.744-5.739-4.596-.944-1.034-1.62-2.093-2.64-2.527-.74-.128-1.326.587-2.092,1.391-1.913,2.285-3.303,5.03-4.718,7.724-1.582,3.511-5.331,7.954-9.642,5.26-3.048-1.928-4.719-5.158-6.632-7.813-1.39-1.839-2.64-3.856-4.463-4.418-.778,0-1.25.664-1.85,1.609-2.716,4.366-2.448,14.043-9.692,13.545-3.915-.855-6.071-4.225-8.162-7.009-.816-1.097-2.436-3.855-3.405-4.506-.102-.077-.128-.064-.102-.064.025,0,.127,0,.14,0c.051-.038-.217.115-.472.383-1.951,2.158-3.163,5.285-4.731,7.8-6.16,9.129-13.162-1.57-16.427-7.251-6.389-9.805-7.792,6.422-11.669,9.664-5.611,5.184-10.241-3.868-12.422-8.094-.663-1.098-1.313-2.259-2.295-2.859-.204-.09-.23-.077-.345-.064-3.724,2.323-3.787,8.324-7.384,11.068-4.808,3.486-9.45-2.834-11.376-6.536-.229-.511-.65-1.251-1.02-1.634-.357-.332-.536-.575-.893-.473-2.27,1.366-2.805,5.12-4.629,7.162-2.678,3.167-6.173.932-7.754-1.889-1.518-2.438-2.513-4.979-3.392-7.686-.345-1.072-1.097-2.642-1.85-3.281-.446-.331-.459-.395-.943-.191-1.212.779-2.347,2.758-3.036,4.226-2.015,4.008-3.724,7.877-6.95,11.285-.753.741-1.901,1.571-3.201,1.609-2.424.013-3.571-2.566-3.801-4.468-.497-2.911-1.058-6.039-2.257-8.694-.179-.383-.421-.754-.523-.843-.051-.064-.026.026.255.077.293.051.561-.09.548-.103-1.505,2.324-2.015,5.656-3.775,8.056-2.946,4.775-7.664,3.894-10.036-1.059-1.238-3.984-2.309-8.235-4.783-11.541-1.696-2.132-2.818-1.801-4.438.204-.753,1.059-1.377,2.042-1.811,3.37-1.11,2.745-2.372,5.426-4.017,7.992-1.735,2.758-5.178,6.69-8.889,4.622-2.972-1.788-3.788-5.337-4.974-8.197-1.543-3.97-3.086-7.966-4.999-11.745-.88-1.404-1.658-3.357-2.908-4.034c0,0,.102-.026.038,0-.051.025-.204.14-.357.319-2.206,3.268-2.933,7.622-4.387,11.528-.867,2.017-1.556,4.737-3.775,5.962-.37.179-.918.294-1.454.205-.931-.166-1.416-.715-1.875-1.328-1.135-1.775-1.403-3.996-1.683-5.822-.638-2.962-1.123-6.664-3.265-8.86-.319-.217-.357-.204-.612-.153-.268.077-.689.37-1.123.817-1.594,1.609-3.315,3.064-5.203,4.328-5.037,3.332-12.511,6.166-17.944,1.941-1.122-.996-3.953-2.72-5.586-3.805-3.9022-2.451-8.1236-4.226-12.4214-5.898-2.1553-.907-4.3489-1.749-6.4915-2.707l.4209-1.212v.063Z" fill="url(#ebgX0hFHl1S64-fill)"/><g id="ebgX0hFHl1S65_ts" transform="translate(363.686001,354.238502) scale(1,1)"><g transform="translate(-363.686001,-354.238502)"><path d="M380.767,320.608c.47-.02.922.181,1.221.544l4.09,4.964c.27-.032.542-.06.817-.085c9.49-.853,19.053,2.939,26.765,9.517c7.689,6.559,13.633,15.965,15.926,26.591.012.039.023.078.031.118c1.387,6.505,1.773,12.604,1.059,17.994l8.482,10.295c.315.383.421.898.282,1.374s-.505.853-.977,1.007l-20.805,6.764c-2.625,1.211-5.634,1.998-9.024,2.303l-.181.005c-17.165-.535-34.698-11.566-42.169-35.28-.014-.046-.026-.092-.036-.139-2.24-10.506-1.957-20.147,1.355-27.448.934-2.06,2.104-3.92,3.511-5.551l8.481-12.325.108-.138c.268-.307.652-.492,1.064-.51Z" fill="#002c99" stroke="#0a1b41" stroke-width="3" stroke-linejoin="round"/><path d="M454.644,344.631c7.459,24.523-6.327,47.935-27.927,51.744C408.5,399.588,382.96,383.523,375.5,359c-7.459-24.523,4.211-48.669,25.811-52.478c21.599-3.809,45.873,13.586,53.329,38.109h.004Z" fill="#0039c6"/><path d="M378.151,361.906c-7.013-24.314,5.535-49.227,25.84-53.004c8.725-1.623,18.808,1.309,27.009,6.346-8.934-6.452-19.364-9.559-29.2-7.728-20.305,3.772-32.853,28.69-25.84,53.004c3.873,13.425,12.44,24.175,22.75,30.476-8.922-6.456-17.084-17.03-20.559-29.094Z" fill="#0649ed"/><path d="M447.428,340.53c9.339,19.776,3.48,41.342-13.085,48.17-16.564,6.828-37.56-3.669-46.899-23.446-9.339-19.776-3.48-41.342,13.085-48.17c16.565-6.827,37.561,3.669,46.899,23.446Z" fill="#0649ed"/><path d="M444.796,338.712c9.339,19.776,3.479,41.342-13.085,48.17-16.565,6.828-37.561-3.669-46.9-23.445-9.339-19.777-3.479-41.342,13.085-48.17c16.565-6.828,37.561,3.669,46.9,23.445Z" fill="#0039c6"/><path d="M390.096,368.019c-10.168-19.361-5.227-41.157,11.034-48.684c11.033-5.109,24.442-2.328,35.102,6.034-11.156-11.25-26.81-15.663-39.378-9.843-16.261,7.527-21.201,29.323-11.033,48.684c3.266,6.223,7.697,11.435,12.748,15.396-3.274-3.303-6.163-7.19-8.469-11.583l-.004-.004Z" fill="#0649ed"/><path d="M421.791,366.882c6.165-4.401,6.986-13.848,1.834-21.099-5.152-7.252-14.327-9.562-20.492-5.16-6.165,4.401-6.986,13.848-1.833,21.1c5.152,7.251,14.326,9.561,20.491,5.159Z" fill="#0b2e86"/><path d="M410.468,349.254c2.72.106,4.996-1.517,5.082-3.625s-2.05-3.903-4.771-4.009c-2.72-.106-4.995,1.517-5.081,3.625-.086,2.109,2.05,3.903,4.77,4.009Z" fill="#0e3eb4"/><path d="M454.931,344.66c7.459,24.523-6.327,47.935-27.927,51.744-21.599,3.809-45.434-11.871-52.894-36.394s5.888-49.65,27.487-53.459c21.6-3.809,45.874,13.586,53.33,38.109h.004Z" fill="none" stroke="#0a1b41" stroke-width="4" stroke-miterlimit="10"/><path d="M445.112,338.724c9.339,19.777,3.48,41.342-13.085,48.17s-37.561-3.669-46.899-23.445c-9.339-19.777-3.48-41.342,13.085-48.17c16.564-6.828,37.56,3.669,46.899,23.445Z" fill="none" stroke="#0a1b41" stroke-width="3" stroke-miterlimit="10"/><path d="M422.109,366.882c6.165-4.402,6.986-13.849,1.834-21.1-5.152-7.252-14.327-9.562-20.492-5.16s-6.986,13.848-1.834,21.1c5.153,7.251,14.327,9.561,20.492,5.16Z" fill="none" stroke="#0a1b41" stroke-width="3" stroke-miterlimit="10"/></g></g><g id="ebgX0hFHl1S77_ts" transform="translate(216.190981,354.238502) scale(1,1)"><g transform="translate(-216.190981,-354.238502)"><path d="M200.233,320.608c-.47-.02-.922.181-1.221.544l-4.09,4.964c-.27-.032-.542-.06-.817-.085-9.49-.853-19.053,2.939-26.765,9.517-7.689,6.559-13.633,15.965-15.926,26.591-.012.039-.023.078-.031.118-1.387,6.505-1.773,12.604-1.059,17.994l-8.482,10.295c-.315.383-.421.898-.282,1.374s.505.853.977,1.007l20.805,6.764c2.625,1.211,5.634,1.998,9.024,2.303l.181.005c17.165-.535,34.698-11.566,42.169-35.28.014-.046.026-.092.036-.139c2.24-10.506,1.957-20.147-1.355-27.448-.934-2.06-2.104-3.92-3.511-5.551l-8.481-12.325-.108-.138c-.268-.307-.652-.492-1.064-.51Z" fill="#002c99" stroke="#0a1b41" stroke-width="3" stroke-linejoin="round"/><path d="M126.356,344.631c-7.459,24.523,6.327,47.935,27.927,51.744C172.5,399.588,198.04,383.523,205.5,359c7.459-24.523-4.211-48.669-25.811-52.478-21.599-3.809-45.873,13.586-53.329,38.109h-.004Z" fill="#0039c6"/><path d="M202.849,361.906c7.013-24.314-5.535-49.227-25.84-53.004-8.725-1.623-18.808,1.309-27.009,6.346c8.934-6.452,19.364-9.559,29.2-7.728c20.305,3.772,32.853,28.69,25.84,53.004-3.873,13.425-12.44,24.175-22.75,30.476c8.922-6.456,17.084-17.03,20.559-29.094Z" fill="#0649ed"/><path d="M133.572,340.53c-9.339,19.776-3.48,41.342,13.085,48.17c16.564,6.828,37.56-3.669,46.899-23.446c9.339-19.776,3.48-41.342-13.085-48.17-16.565-6.827-37.561,3.669-46.899,23.446Z" fill="#0649ed"/><path d="M136.204,338.712c-9.339,19.776-3.479,41.342,13.085,48.17c16.565,6.828,37.561-3.669,46.9-23.445c9.339-19.777,3.479-41.342-13.085-48.17-16.565-6.828-37.561,3.669-46.9,23.445Z" fill="#0039c6"/><path d="M190.904,368.019c10.168-19.361,5.227-41.157-11.034-48.684-11.033-5.109-24.442-2.328-35.102,6.034c11.156-11.25,26.81-15.663,39.378-9.843c16.261,7.527,21.201,29.323,11.033,48.684-3.266,6.223-7.697,11.435-12.748,15.396c3.274-3.303,6.163-7.19,8.469-11.583l.004-.004Z" fill="#0649ed"/><path d="M159.209,366.882c-6.165-4.401-6.986-13.848-1.834-21.099c5.152-7.252,14.327-9.562,20.492-5.16c6.165,4.401,6.986,13.848,1.833,21.1-5.152,7.251-14.326,9.561-20.491,5.159Z" fill="#0b2e86"/><path d="M170.532,349.254c-2.72.106-4.996-1.517-5.082-3.625s2.05-3.903,4.771-4.009c2.72-.106,4.995,1.517,5.081,3.625.086,2.109-2.05,3.903-4.77,4.009Z" fill="#0e3eb4"/><path d="M126.069,344.66c-7.459,24.523,6.327,47.935,27.927,51.744c21.599,3.809,45.434-11.871,52.894-36.394s-5.888-49.65-27.487-53.459c-21.6-3.809-45.874,13.586-53.33,38.109h-.004Z" fill="none" stroke="#0a1b41" stroke-width="4" stroke-miterlimit="10"/><path d="M135.888,338.724c-9.339,19.777-3.48,41.342,13.085,48.17s37.561-3.669,46.899-23.445c9.339-19.777,3.48-41.342-13.085-48.17-16.564-6.828-37.56,3.669-46.899,23.445Z" fill="none" stroke="#0a1b41" stroke-width="3" stroke-miterlimit="10"/><path d="M158.891,366.882c-6.165-4.402-6.986-13.849-1.834-21.1c5.152-7.252,14.327-9.562,20.492-5.16s6.986,13.848,1.834,21.1c-5.153,7.251-14.327,9.561-20.492,5.16Z" fill="none" stroke="#0a1b41" stroke-width="3" stroke-miterlimit="10"/></g></g><g filter="url(#ebgX0hFHl1S89-filter)"><path d="M313.235,483.624c1.164-.088,2.175.82,2.219,1.989l.329,7.977c.043,1.154-.834,2.109-1.969,2.167l-20.726.986c-1.134.057-2.085-.808-2.172-1.931l-.421-8.108c-.073-1.154.788-2.138,1.922-2.225l20.817-.87.001.015Zm-35.609,1.294c1.121-.013,2.058.867,2.101,1.992l.299,7.37c.059,1.198-.906,2.185-2.087,2.17l-22.216-.221c-1.077-.018-1.969-.856-2.04-1.935l-.493-6.833c-.089-1.197.847-2.198,2.041-2.228l22.41-.301-.015-.014Zm-34.179-1.157l-.014.016c.93.022,1.686.758,1.754,1.689l.529,7.72c.086,1.094-.821,2.006-1.915,1.944l-20.308-1.217c-.886-.052-1.597-.746-1.693-1.632l-.723-7.197c-.1-1.094.776-2.034,1.869-2.002l20.501.679Zm109.081-3.204c1.178-.103,2.203.805,2.248,1.989l.301,7.43c.042,1.095-.776,2.049-1.866,2.15L329.7,494.454c-1.207.119-2.264-.833-2.279-2.047l-.086-7.657c-.012-1.081.808-1.99,1.883-2.091l23.295-2.086.015-.016Zm-163.15-.794l21.85,2.113.029-.001c.888.097,1.57.805,1.636,1.692l.529,7.691c.072,1.139-.908,2.066-2.033,1.931l-21.672-2.65c-.843-.097-1.509-.777-1.589-1.619l-.722-7.152c-.117-1.153.833-2.11,1.972-2.005Zm192.861-5.31c1.204-.251,2.332.61,2.421,1.837l.504,7.232c.069,1.02-.631,1.941-1.63,2.129l-19.183,3.733c-1.204.237-2.347-.669-2.393-1.912l-.262-7.015c-.039-.992.634-1.852,1.602-2.054l18.941-3.95Zm-225.435.974c-.149-1.256.976-2.276,2.208-1.995l18.656,4.279.001-.014c.786.173,1.363.855,1.413,1.654l.415,6.063c.074,1.213-1.024,2.173-2.211,1.907l-18.297-4.081c-.757-.159-1.318-.783-1.411-1.551l-.774-6.262Zm255.884-8.08c1.304-.358,2.583.632,2.557,1.981l-.115,7.306c-.007.919-.637,1.704-1.517,1.933l-19.096,4.828c-1.261.327-2.481-.636-2.498-1.939l-.048-6.724c-.008-.918.593-1.718,1.472-1.962l19.259-5.409-.014-.014Zm-135.575-2.075c1.121-.013,2.043.868,2.1,1.992l.38,8.242c.058,1.169-.847,2.154-2.012,2.183l-22.006.543c-1.091.027-2.012-.795-2.113-1.888l-.755-8.485c-.103-1.197.831-2.227,2.04-2.257l22.38-.316-.014-.014Zm35.811-2.084c1.121-.013,2.043.868,2.1,1.992l.122,9.152c.058,1.154-.848,2.14-2.013,2.169l-19.917.876-.014-.014c-1.091.027-2.012-.795-2.113-1.888l-.27-9.756c-.103-1.198.831-2.229,2.04-2.259l20.065-.272Zm-71.821,1.491c.931.051,1.672.774,1.739,1.691l.639,8.591-.015-.015c.086,1.079-.793,1.99-1.871,1.958l-21.224-.706c-.886-.023-1.626-.701-1.737-1.601l-1.043-8.818c-.131-1.108.761-2.078,1.883-2.032l21.629.932Zm-55.197-4.252l21.82,2.113c.873.082,1.57.792,1.636,1.679l1.153,9.689c.071,1.11-.865,2.036-1.974,1.945l.03-.001-21.212-1.95c-.858-.083-1.552-.747-1.647-1.604l-1.778-9.837c-.146-1.151.818-2.138,1.972-2.034Zm165.523.462c1.149-.087,2.146.806,2.204,1.975l.38,8.242c.042,1.125-.79,2.079-1.91,2.165v-.014l-23.449,1.853c-1.134.087-2.129-.747-2.231-1.885l-.755-8.486c-.102-1.152.758-2.181,1.922-2.254l23.839-1.596ZM154.562,456.92c-.149-1.256.976-2.291,2.208-2.011l18.391,4.272c.757.189,1.334.842,1.397,1.625l.776,8.707c.118,1.226-.994,2.202-2.196,1.935l-17.972-4.059c-.756-.16-1.318-.783-1.41-1.551l-1.194-8.918Zm227.493-2.55c1.219-.208,2.334.728,2.35,1.972l.096,9.271c.01.992-.678,1.839-1.648,2.011l-19.188,3.481.015-.001c-1.175.222-2.289-.654-2.363-1.852l-.629-9.348c-.069-1.035.646-1.956,1.659-2.129l19.708-3.405Zm30.628-7.601c1.275-.357,2.537.59,2.556,1.923l.093,10.397c.023.933-.606,1.748-1.515,1.978l-19.111,4.842c-1.261.328-2.48-.606-2.512-1.893l-.3-9.815c-.023-.933.577-1.763,1.471-2.007l19.303-5.409.015-.016Zm-136.028-.67c1.121-.013,2.043.853,2.1,1.977l.341,7.266c.058,1.169-.847,2.154-2.012,2.182l-22.006.544-.015.015c-1.091.027-2.011-.795-2.111-1.888l-.717-7.509c-.104-1.212.83-2.242,2.04-2.272l22.38-.315Zm35.801-2.084c1.119-.011,2.037.854,2.095,1.977l.342,7.281c.058,1.168-.848,2.154-2.013,2.183l-20.531.506c-1.091.027-2.011-.795-2.112-1.888l-.717-7.508c-.103-1.212.831-2.243,2.04-2.273l20.896-.278Zm-128.714-2.526l21.82,2.113c.873.082,1.569.791,1.636,1.678l.57,7.6c.087,1.124-.864,2.051-1.973,1.96l.015-.029-21.416-1.872c-.858-.068-1.538-.733-1.648-1.589l-.976-7.828c-.146-1.151.819-2.138,1.972-2.033Zm166.898-1.276c1.149-.073,2.145.821,2.204,1.99l.392,8.746c.042,1.124-.79,2.078-1.91,2.165l-23.44,1.852c-1.132.084-2.123-.764-2.225-1.9l-.782-9.003c-.102-1.153.757-2.181,1.922-2.254l23.839-1.596Zm-22.763,14.754l.009-.001c.002,0,.004.001.006,0l-.015.001Zm84.982-32.734c1.276-.358,2.539.59,2.557,1.922l.167,13.358c.023.933-.607,1.749-1.516,1.978l-19.11,4.842c-1.262.328-2.48-.605-2.512-1.894l-.374-12.774c-.023-.933.577-1.763,1.471-2.007l19.304-5.41.013-.015Zm-136.675,4.752c1.121-.013,2.042.853,2.1,1.978l.341,7.265c.058,1.168-.847,2.154-2.012,2.183l-22.006.543-.014.015c-1.092.027-2.012-.794-2.113-1.888l-.716-7.508c-.104-1.212.83-2.243,2.04-2.273l22.38-.315Zm35.593-4.908c1.164-.088,2.176.82,2.219,1.989l.426,10.108c.058,1.154-.848,2.14-2.013,2.168l-20.531.507c-1.091.026-2.012-.81-2.112-1.904l-.786-9.121c-.087-1.153.773-2.166,1.922-2.254l20.89-1.509-.015.016Zm-129.799.522l21.821,2.114c.872.082,1.568.791,1.634,1.678l.571,7.6c.087,1.124-.864,2.051-1.973,1.96l-21.415-1.871.013-.03c-.857-.068-1.538-.733-1.647-1.589l-.975-7.827c-.147-1.152.817-2.139,1.971-2.035Zm167.595-2.314c1.149-.073,2.146.806,2.204,1.975l.369,8.837c.057,1.11-.79,2.08-1.909,2.166l-23.464,1.854.029-.001c-1.133.102-2.128-.733-2.23-1.871l-.745-9.095c-.117-1.168.758-2.197,1.922-2.27l23.824-1.595Zm-.809-20.854c1.149-.073,2.146.806,2.204,1.975l.341,7.266c.057,1.109-.79,2.078-1.909,2.165l-23.465,1.853.03-.001c-1.134.102-2.129-.732-2.23-1.87l-.717-7.523c-.117-1.167.758-2.196,1.922-2.269l23.824-1.596Zm-1.112-20.565c1.15-.073,2.146.807,2.204,1.975l.342,7.266c.057,1.11-.79,2.078-1.91,2.166l-23.464,1.853.029-.001c-1.134.102-2.128-.733-2.23-1.871l-.717-7.522c-.117-1.167.758-2.196,1.922-2.27l23.824-1.596Z" fill="url(#ebgX0hFHl1S90-fill)"/></g><g mask="url(#ebgX0hFHl1S118)"><g><g id="ebgX0hFHl1S93_tr" transform="translate(165.887541,435.083002) rotate(0)"><g transform="translate(-165.887541,-435.083)"><path d="M345.021,268.176c22.637,12.6,28.309-8.504,32.209-16.945c5.225-11.3,26.987-16.084,30.471,0c3.483,16.078-1.308,24.334-25.681,49.54s-16.978,29.984-15.236,62.579-24.812,70.402-69.207,68.663c-44.4-1.739-75.74-23.901-75.74-23.901-85.317-69.096-.434-117.336,9.142-124.291c9.577-6.956,24.813-14.779,26.989-47.802c2.176-33.022,16.538-46.501,22.197-50.845c5.659-4.345.294,3.436,3.343,10.386c3.05,6.956-7.322,24.162-7.322,24.162-7.835,23.468,22.699,44.665,22.699,44.665l46.142,3.789h-.006Z" fill="#97006c"/><path d="M222.538,408.131c0,0,31.34,22.162,75.74,23.901c44.401,1.739,70.949-36.067,69.208-68.663-1.742-32.595-9.143-37.373,15.236-62.579c24.378-25.206,29.164-33.462,25.68-49.54-3.483-16.078-26.482-15.999-31.707-4.704-3.906,8.447-6.657,40.424-29.288,27.824" fill="none" stroke="#0f174e" stroke-width="4" stroke-miterlimit="10"/><path d="M334.234,265.711c22.637,12.6,33.967-7.636,37.868-16.078c5.225-11.3,21.329-16.95,24.812-.867c3.484,16.079-1.307,24.334-25.68,49.54-24.373,25.207-16.978,29.984-15.236,62.58c1.741,32.595-24.813,70.401-69.208,68.662-44.4-1.739-75.74-23.9-75.74-23.9-85.317-69.096-.434-117.336,9.143-124.292s24.812-14.778,26.988-47.801s16.538-46.501,22.198-50.846c5.659-4.344,20.455-6.083,23.505.867c3.049,6.956-4.786,17.384-4.786,17.384-7.835,23.467,13.06,28.245,13.06,28.245l33.082,36.506h-.006Z" fill="#fe14bb"/><path d="M292.59,241.304c0,0-21.233-14.266-20.314,9.269.868,22.308-20.602,35.927-20.602,35.927s-37.727,24.914-11.026,48.381s42.946,26.652,42.946,26.652s16.251.287,21.764,22.601c5.602,22.679,22.924,13.906,28.437.287c5.512-13.619,2.903-37.666,0-56.496s11.025-29.264,11.025-29.264s14.509-9.561,5.806-28.391c0,0-14.802.867-18.28-5.217l-3.771,6.517-40.483-19.556l4.498-10.721v.011Z" fill="#10fee2"/><path d="M301.152,229.858c0,0-20.37-7.937-11.59-27.976c0,0,6.365-10.697,3.316-17.653-3.05-6.956-17.846-5.217-23.505-.867-5.66,4.345-20.022,17.818-22.198,50.846-2.175,33.029-17.411,40.851-26.988,47.801s-94.454,55.19-9.143,124.292c0,0,31.34,22.162,75.74,23.901c44.401,1.738,70.949-36.068,69.208-68.663-1.742-32.595-9.143-37.373,15.236-62.579c24.378-25.207,31.648-32.596,28.165-48.674-4.838-15.211-22.072-11.294-27.297,0-3.907,8.447-18.066,28.465-40.697,15.865" fill="none" stroke="#0f174e" stroke-width="4" stroke-miterlimit="10"/><path d="M417.877,97.5298L328.575,271.581l-40.483-19.556L388.572,82.7573l29.305,14.7725Z" fill="#fe14bb"/><path d="M288.092,252.025l40.483,19.556L419.546,94.7104c0,0,2.609-6.0835,13.494-8.2557c10.884-2.1723,12.186-6.5168,12.186-17.3838c0-8.9648.592-17.3331.801-19.9893.034-.4165.05-.8385.062-1.255.045-1.3844.823-6.0778,9.148-7.0007c10.281-1.1425,18.72-19.5561,9.577-30.85633s-22.637-6.95575-29.164-.86665C429.122,15.192,388.206,58.2096,388.206,58.2096s-3.484,4.564.868,10.8669c3.28,4.7554,3.917,6.7363-.434,14.3392-3.676,6.4268-100.548,168.6153-100.548,168.6153v-.006Z" fill="#6745ff"/><path d="M288.092,252.025l39.545,20.88L419.546,94.7104c0,0,2.609-6.0835,13.494-8.2557c10.884-2.1723,12.186-6.5168,12.186-17.3838c0-8.9648.592-17.3331.801-19.9893.034-.4165.05-.8385.062-1.255.045-1.3844.823-6.0778,9.148-7.0007c10.281-1.1425,18.72-19.5561,9.577-30.85633s-22.637-6.95575-29.164-.86665C429.122,15.192,388.206,58.2096,388.206,58.2096s-3.484,4.564.868,10.8669c3.28,4.7554,3.917,6.7363-.434,14.3392-3.676,6.4268-100.548,168.6153-100.548,168.6153v-.006Z" fill="none" stroke="#0f174e" stroke-width="4" stroke-linejoin="round" stroke-miterlimit="10"/><path d="M408.606,68.6875c3.067,0,5.552-2.4818,5.552-5.5432s-2.485-5.5432-5.552-5.5432c-3.066,0-5.552,2.4818-5.552,5.5432s2.486,5.5432,5.552,5.5432Z" fill="#0f174e"/><path d="M422.641,53.6958c3.066,0,5.552-2.4818,5.552-5.5432s-2.486-5.5432-5.552-5.5432-5.552,2.4818-5.552,5.5432s2.486,5.5432,5.552,5.5432Z" fill="#0f174e"/><path d="M437.658,38.7036c3.066,0,5.552-2.4818,5.552-5.5432s-2.486-5.5432-5.552-5.5432-5.552,2.4818-5.552,5.5432s2.486,5.5432,5.552,5.5432Z" fill="#0f174e"/><path d="M388.645,83.4043l29.232,14.705" fill="none" stroke="#0f174e" stroke-width="3" stroke-miterlimit="10"/><path d="M410.376,64.2275c-.327,5.5433-162.107,289.0555-162.107,289.0555" fill="none" stroke="#0f174e" stroke-width="3" stroke-linecap="round" stroke-miterlimit="10"/><path d="M418.847,72.166L262.632,359.147" fill="none" stroke="#0f174e" stroke-width="3" stroke-linecap="round" stroke-miterlimit="10"/><path d="M378.195,102.527l28.443,14.779" fill="none" stroke="#0f174e" stroke-width="3" stroke-miterlimit="10"/><path d="M364.56,122.809l31.34,16.804" fill="none" stroke="#0f174e" stroke-width="3" stroke-miterlimit="10"/><path d="M353.241,143.665l31.053,17.097" fill="none" stroke="#0f174e" stroke-width="3" stroke-miterlimit="10"/><path d="M341.635,163.08l32.208,18.25" fill="none" stroke="#0f174e" stroke-width="3" stroke-miterlimit="10"/><path d="M329.736,181.91l33.95,18.83" fill="none" stroke="#0f174e" stroke-width="3" stroke-miterlimit="10"/><path d="M317.837,200.161l37.315,19.73" fill="none" stroke="#0f174e" stroke-width="3" stroke-miterlimit="10"/><path d="M309.715,217.257l36.419,20.08" fill="none" stroke="#0f174e" stroke-width="3" stroke-miterlimit="10"/><path d="M299.264,232.609l36.858,20.569" fill="none" stroke="#0f174e" stroke-width="3" stroke-miterlimit="10"/><path d="M308.72,289.098l-28.613-13.467c-4.057-1.91-8.897-.174-10.81,3.877l-.003.005c-1.913,4.051-.174,8.884,3.884,10.793l28.613,13.467c4.058,1.91,8.898.174,10.81-3.877l.003-.005c1.913-4.051.174-8.883-3.884-10.793Z" fill="#0f174e"/><path d="M292.612,320.672l-28.613-13.467c-4.058-1.91-8.898-.174-10.811,3.877l-.002.005c-1.913,4.051-.174,8.884,3.883,10.793l28.614,13.468c4.057,1.909,8.897.173,10.81-3.878l.002-.005c1.913-4.051.175-8.883-3.883-10.793Z" fill="#0f174e"/></g></g></g><mask id="ebgX0hFHl1S118" mask-type="alpha" x="-150%" y="-150%" height="400%" width="400%"><path d="M525.5,163.5L455.345,317.655902L356,320.869c-123.059-59.42-32.265,11.519-215.624-72.102998L345.942,-39.0136L438.2,-91l69.559,24.8949L525.5,163.5Z"/></mask></g></g><g id="ebgX0hFHl1S120_tr" transform="translate(402,360) rotate(0)"><g id="ebgX0hFHl1S120_ts" transform="scale(0.1,0.1)"><polygon id="ebgX0hFHl1S120" points="0,-166.579828 25.91374,-25.91374 166.579828,0 25.91374,25.91374 0,166.579828 -25.91374,25.91374 -166.579828,0 -25.91374,-25.91374 0,-166.579828" transform="translate(0,0)" opacity="0" fill="#fff" stroke-width="0"/></g></g><g id="ebgX0hFHl1S121_to" transform="translate(401.910001,585.290168)"><g id="ebgX0hFHl1S121_ts" transform="scale(0.509223,0.509223)"><g id="ebgX0hFHl1S121" transform="translate(-401.909995,-13.492399)"><g clip-path="url(#ebgX0hFHl1S184)"><g><path d="M404.37,52.8799c33.67,0,65.6,3.81,94.23,10.48.7.16,1.1-.77.5-1.16-35.77-23.51-69.37-40.94-85.61-46.9-6.57-2.41-13.77-2.41-20.34,0-16.41,6.02-50.58,23.77-86.79,47.67-.6.4-.19,1.33.51,1.16c29.46-7.16,62.54-11.26,97.5-11.26v.01Z" fill="#015699"/><path d="M404.381,15.8999c4.9,3.57,19.15,15.85,36.08,36.46c6.4.54,12.72,1.21,18.93,2.02c2.41.31,4.81.71,7.19,1.15-17.72-15.33-38.4-29.83-61.17-39.71-.28-.03-.55-.05-.83-.07-.06.05-.13.09-.2.15Z" opacity="0.5" fill="#fff"/><path d="M407.621,14.9199c0,0-.04.02-.06.02.03,0,.07,0,.1,0-.01,0-.03-.02-.04-.03v.01Z" opacity="0.2"/><path d="M343.241,56.1899c7.16-.99,13.2-1.33,20.63-1.97c19.18-20.43,34.92-35.77,38.74-38.56-.08-.06,1.9-.69,1.82-.74-.03,0-2.13.56-2.16.56-24.11,10.99-55.63,30.97-77.25,44.19c7.03-2.23,10.86-2.47,18.22-3.48Z" opacity="0.2"/><path d="M404.37,52.8799c33.67,0,65.6,3.81,94.23,10.48.7.16,1.1-.77.5-1.16-35.77-23.51-69.37-40.94-85.61-46.9-6.57-2.41-13.77-2.41-20.34,0-16.41,6.02-50.58,23.77-86.79,47.67-.6.4-.19,1.33.51,1.16c29.46-7.16,62.54-11.26,97.5-11.26v.01Z" fill="none" stroke="#000" stroke-width="5" stroke-miterlimit="10"/><path d="M519.26,73.36c-17.53-12.44-37.78-20.54-59.1-23.31-17.83-2.32-36.52-3.57-55.78-3.57-20.44,0-40.24,1.41-59.05,4-21.14,2.92-41.22,10.98-58.61,23.36-46.46,33.08-91.64,74.54-102.98,112.89h439.18c-11.4-38.53-56.97-80.22-103.66-113.37Z" fill="#e34103" stroke="#000" stroke-width="5" stroke-miterlimit="10"/><path d="M459.72,50.47c-9.28-1.54-13.45-1.22-23.23-2.14c9.74,12.5,20.93,31.57,31.44,50.74c14.82,2.6,29.32,5.12,42.52,9.11-12.68-19.51-33.76-41.8-50.74-57.71h.01Z" opacity="0.5" fill="#fff"/><path d="M368.61,48.3199c-16.12,1.61-12.31-1.09-26.98,2.14-33.23,15.9-65.57,49.6701-85.28,72.5701c20.15-8.71,43.52-15.76,69.12-20.56c11.99-18.8901,31.49-41.1501,43.14-54.1501Z" opacity="0.2"/><path d="M626.46,202.29c0,56.2-99.9,96.4-223.13,96.4s-223.13-40.2-223.13-96.4s99.9-107.13,223.13-107.13s223.13,50.93,223.13,107.13Z" fill="#9b2a07"/><path d="M180.21,201.9c0-56.2,99.9-107.13,223.13-107.13s223.13,50.93,223.13,107.13" fill="none" stroke="#891000" stroke-width="5" stroke-miterlimit="10"/><path d="M519.17,73.3c-17.47-12.4-37.69-20.47-58.93-23.24-17.85-2.33-36.57-3.58-55.86-3.58-20.29,0-39.95,1.39-58.64,3.95-21.27,2.92-41.52,10.96-59.02,23.42-39.39,28.05-78.9,62.31-96.6,95.4-4.94,9.24-14.48,28.38-8.69,45.56c0,0,15.83,80.7,221.89,84.56c204.37-3.47,221.36-81.47,221.36-81.47c5.79-17.37-2.58-37.21-6.18-44.6-16.79-34.5-58.16-70.77-99.35-100h.02Z" fill="none" stroke="#000" stroke-width="5" stroke-linecap="round" stroke-linejoin="round" stroke-miterlimit="10"/><path d="M448.73,152.646c-.896-11.848-10.376-21.493-22.206-22.545-12.36-1.103-23.033,6.98-25.977,18.193-3.565-1.342-7.517-1.879-11.654-1.378-11.59,1.399-20.682,11.058-21.444,22.716-.939,14.307,10.383,26.206,24.472,26.206c2.513,0,4.941-.382,7.229-1.081c4.609,6.888,12.607,11.311,21.606,10.873c12.396-.6,22.525-10.612,23.273-23.012.24-3.992-.48-7.793-1.941-11.199c4.56-4.825,7.186-11.488,6.642-18.766v-.007Z" fill="#feeec1" stroke="#ab703d" stroke-width="5" stroke-linecap="round" stroke-linejoin="round"/><path d="M526.529,177.893c-.43,0-.861.014-1.284.035-.276-13.523-11.302-24.404-24.883-24.404-4.228,0-8.202,1.06-11.689,2.918-5.287-10.202-17.4-16.286-30.289-12.16-7.214,2.311-12.96,7.984-15.325,15.184-5.696,17.325,7.038,33.342,23.513,33.342c4.228,0,8.202-1.06,11.689-2.918c4.144,7.998,12.487,13.467,22.108,13.467.431,0,.862-.014,1.285-.036.282,13.813,11.781,24.871,25.758,24.39c12.628-.431,23.082-10.513,23.957-23.132c1.01-14.562-10.496-26.686-24.833-26.686h-.007Z" fill="#feeec1" stroke="#ab703d" stroke-width="5" stroke-linecap="round" stroke-linejoin="round"/><path d="M541.241,254.108c15.352,0,27.797-12.457,27.797-27.824c0-15.366-12.445-27.824-27.797-27.824s-27.798,12.458-27.798,27.824c0,15.367,12.446,27.824,27.798,27.824Z" fill="#feeec1" stroke="#ab703d" stroke-width="5" stroke-linecap="round" stroke-linejoin="round"/><path d="M307.186,223.152c17.161,0,31.073-13.924,31.073-31.102c0-17.177-13.912-31.102-31.073-31.102s-31.073,13.925-31.073,31.102c0,17.178,13.912,31.102,31.073,31.102Z" fill="#feeec1" stroke="#ab703d" stroke-width="5" stroke-linecap="round" stroke-linejoin="round"/><path d="M483.197,178.614c0,0,9.812-5.095,4.723-22.186l-4.723,22.186Z" fill="#feeec1"/><path d="M483.197,178.614c0,0,9.812-5.095,4.723-22.186" fill="none" stroke="#ab703d" stroke-width="5" stroke-linecap="round" stroke-linejoin="round"/><path d="M501.106,198.826c.113-1.017.169-2.056.169-3.109c0-16.441-13.877-29.632-30.55-28.481-14.068.968-25.461,12.379-26.435,26.46-1.151,16.689,12.035,30.58,28.454,30.58.487,0,.974-.014,1.454-.036c1.412,12.188,12.31,21.479,25.115,20.278c11.153-1.045,20.047-10.23,20.781-21.415.791-12.061-7.687-22.285-18.995-24.27l.007-.007Z" fill="#feeec1" stroke="#ab703d" stroke-width="5" stroke-linecap="round" stroke-linejoin="round"/><path d="M286.574,192.188c-5.788-.445-11.181,1.152-15.55,4.14c0-.134.007-.261.007-.395c0-10.33-8.683-18.625-19.144-17.975-8.964.558-16.256,7.857-16.814,16.83-.649,10.471,7.645,19.161,17.958,19.161c2.795,0,5.449-.635,7.807-1.78-.233,1.342-.36,2.727-.36,4.133c0,13.361,10.821,24.192,24.169,24.192s25.08-11.771,24.106-25.902c-.819-11.848-10.348-21.479-22.186-22.397l.007-.007Z" fill="#feeec1" stroke="#ab703d" stroke-width="5" stroke-linecap="round" stroke-linejoin="round"/><path d="M262.086,207.102c-5.224-.367-9.974,1.674-13.278,5.115-3.346-2.098-7.306-3.313-11.548-3.313-7.355,0-13.856,3.652-17.809,9.234-3.974-6.408-11.167-10.598-19.32-10.315-11.04.388-20.174,9.185-20.965,20.214-.289,4.034.53,7.857,2.167,11.199-6.826,2.331-11.668,8.952-11.315,16.646.388,8.457,7.214,15.41,15.656,15.932c9.735.608,17.81-7.115,17.81-16.724c0-1.285-.148-2.536-.424-3.744c6.466-.629,12.099-4.098,15.664-9.129c3.847,6.197,10.708,10.33,18.529,10.33c8.689,0,16.186-5.087,19.694-12.449c1.264.303,2.576.466,3.932.466c9.6,0,17.315-8.09,16.708-17.833-.515-8.295-7.221-15.064-15.508-15.643l.007.014Z" fill="#feeec1" stroke="#ab703d" stroke-width="5" stroke-linecap="round" stroke-linejoin="round"/><path d="M218.733,283.831c13.044,0,23.619-10.584,23.619-23.641c0-13.056-10.575-23.641-23.619-23.641s-23.619,10.585-23.619,23.641c0,13.057,10.575,23.641,23.619,23.641Z" fill="#feeec1" stroke="#ab703d" stroke-width="5" stroke-linecap="round" stroke-linejoin="round"/><path d="M282.946,221.696c-11.859-.862-21.974,7.327-24.163,18.377-2.632-.798-5.47-1.137-8.407-.904-11.287.869-20.364,10.089-21.056,21.401-.819,13.312,9.727,24.362,22.849,24.362c11.111,0,20.372-7.928,22.454-18.434c2.097.636,4.313.975,6.622.975c13.178,0,23.759-11.149,22.835-24.545-.777-11.27-9.876-20.412-21.134-21.225v-.007Z" fill="#feeec1" stroke="#ab703d" stroke-width="5" stroke-linecap="round" stroke-linejoin="round"/><path d="M324.919,232.139c-13.624-.636-25.024,9.446-26.513,22.539-1.616-.29-3.275-.453-4.976-.453-16.045,0-28.927,13.58-27.791,29.887.953,13.665,11.951,24.758,25.595,25.803c16.094,1.237,29.57-11.227,30.035-26.954.798.077,1.603.12,2.422.12c14.604,0,26.336-12.308,25.404-27.125-.804-12.837-11.35-23.21-24.183-23.81l.007-.007Z" fill="#feeec1" stroke="#ab703d" stroke-width="5" stroke-linecap="round" stroke-linejoin="round"/><path d="M304.494,274.737c0,0-8.725-7.362-5.725-21.005l5.725,21.005Z" fill="#feeec1"/><path d="M304.494,274.737c0,0-8.725-7.362-5.725-21.005" fill="none" stroke="#ab703d" stroke-width="5" stroke-linecap="round" stroke-linejoin="round"/><path d="M392.55,162.956c-3.932-.29-7.68.36-11.054,1.731-3.007-9.525-12.176-16.314-22.835-15.672-11.033.665-20.068,9.475-21.007,20.497-.346,4.091.402,7.97,1.983,11.39-13.03.219-23.414,11.326-22.447,24.63.826,11.255,9.946,20.349,21.198,21.133c13.383.932,24.529-9.659,24.529-22.857c0-3.519-.797-6.853-2.216-9.835c2.124-.064,4.172-.41,6.113-1.017c2.498,10.902,12.247,19.041,23.901,19.041c13.757,0,24.868-11.34,24.522-25.188-.318-12.513-10.214-22.935-22.687-23.853Z" fill="#feeec1" stroke="#ab703d" stroke-width="5" stroke-linecap="round" stroke-linejoin="round"/><path d="M384.541,249.275c17.609,0,31.884-14.289,31.884-31.915s-14.275-31.914-31.884-31.914c-17.61,0-31.885,14.288-31.885,31.914s14.275,31.915,31.885,31.915Z" fill="#feeec1" stroke="#ab703d" stroke-width="5" stroke-linecap="round" stroke-linejoin="round"/><path d="M457.637,220.058c.028-.516.049-1.032.049-1.562c0-13.876-11.237-25.124-25.101-25.124-11.456,0-21.12,7.687-24.127,18.193-.423-.021-.847-.035-1.277-.035-14.45,0-26.047,12.223-25.038,26.905.861,12.442,10.963,22.496,23.4,23.288c11.901.756,22.158-6.797,25.553-17.424-.007.276-.021.552-.021.827c0,14.463,12.211,26.072,26.88,25.061c12.268-.848,22.256-10.725,23.23-22.991c1.144-14.307-9.699-26.347-23.555-27.145l.007.007Z" fill="#feeec1" stroke="#ab703d" stroke-width="5" stroke-linecap="round" stroke-linejoin="round"/><path d="M360.234,301.198c17.836,0,32.294-14.472,32.294-32.324c0-17.853-14.458-32.325-32.294-32.325-17.835,0-32.294,14.472-32.294,32.325c0,17.852,14.459,32.324,32.294,32.324Z" fill="#feeec1" stroke="#ab703d" stroke-width="5" stroke-linecap="round" stroke-linejoin="round"/><path d="M466.113,267.644c16.256,0,29.435-13.191,29.435-29.463s-13.179-29.463-29.435-29.463c-16.257,0-29.435,13.191-29.435,29.463s13.178,29.463,29.435,29.463Z" fill="#feeec1" stroke="#ab703d" stroke-width="5" stroke-linecap="round" stroke-linejoin="round"/><path d="M448.672,249.639c-3.211,0-6.296.53-9.183,1.498-5.513-9.538-15.812-15.961-27.614-15.961-17.612,0-31.885,14.294-31.885,31.915s14.28,31.915,31.885,31.915c4.906,0,9.55-1.11,13.701-3.095c5.273,7.009,13.652,11.545,23.096,11.545c15.953,0,28.885-12.944,28.885-28.912s-12.932-28.912-28.885-28.912v.007Z" fill="#feeec1" stroke="#ab703d" stroke-width="5" stroke-linecap="round" stroke-linejoin="round"/><path d="M509.998,245.408c-3.501,0-6.861.594-9.988,1.675-1.39-11.319-11.026-20.087-22.715-20.087-12.642,0-22.892,10.259-22.892,22.913s10.25,22.913,22.892,22.913c.755,0,1.496-.035,2.231-.113-.12,1.11-.191,2.24-.191,3.385c0,16.95,13.729,30.692,30.663,30.692s30.664-13.742,30.664-30.692-13.73-30.693-30.664-30.693v.007Z" fill="#feeec1" stroke="#ab703d" stroke-width="5" stroke-linecap="round" stroke-linejoin="round"/><path d="M596.839,211.571c-3.932-.29-7.68.36-11.054,1.731-3.007-9.525-12.176-16.314-22.835-15.672-11.033.665-20.068,9.475-21.007,20.497-.346,4.091.402,7.97,1.983,11.39-13.03.219-23.414,11.326-22.447,24.63.826,11.255,9.946,20.349,21.198,21.133c13.384.932,24.529-9.659,24.529-22.857c0-3.519-.797-6.853-2.216-9.835c2.125-.064,4.172-.41,6.113-1.017c2.499,10.902,12.247,19.041,23.901,19.041c13.757,0,24.868-11.34,24.522-25.188-.318-12.513-10.214-22.935-22.687-23.853Z" fill="#feeec1" stroke="#ab703d" stroke-width="5" stroke-linecap="round" stroke-linejoin="round"/><path d="M440.87,357.76l224.45-.05c0,0,1.33-49.27-40.3-142.55-20.58-55.47-112.6-97.31-220.92-97.31s-196.32,38.6-222.12,90.61c-3.13,8.72-33.11,47.02-40.64,149.36l226.01-.05c11.99,1.06,24.27,1.62,36.75,1.62s24.78-.57,36.77-1.64v.01Z" fill="#4c9194" fill-opacity="0.6"/><path d="M404.11,137.85c49.31,0,97.34,9.28,135.23,26.13c35.03,15.58,58.8,36.23,66.94,58.14l.22.6.26.59c20.26,45.39,29.67,79.43,33.99,100c1.14,5.44,2,10.25,2.65,14.4l-202.53.04h-.89l-.89.08c-11.57,1.03-23.34,1.56-34.99,1.56s-23.41-.52-34.99-1.54l-.88-.08h-.89l-204.04.04c7.77-67.43,25.79-100.27,32.98-113.38c1.68-3.07,2.98-5.43,3.96-7.77c10.59-20.66,35.82-40,71.18-54.51c38.17-15.67,85.29-24.3,132.68-24.3m.01-20c-103.69,0-196.32,38.6-222.12,90.61-3.13,8.72-33.11,47.02-40.64,149.36l226.01-.05c11.99,1.06,24.27,1.62,36.75,1.62s24.78-.57,36.77-1.64l224.45-.05c0,0,1.33-49.27-40.3-142.55-20.58-55.47-112.6-97.31-220.92-97.31v.01Z" fill="url(#ebgX0hFHl1S158-fill)" fill-opacity="0.7"/><path d="M440.87,357.76l224.45-.05c0,0,1.33-49.27-40.3-142.55-20.58-55.47-112.6-97.31-220.92-97.31s-196.32,38.6-222.12,90.61c-3.13,8.72-33.11,47.02-40.64,149.36l226.01-.05c11.99,1.06,24.27,1.62,36.75,1.62s24.78-.57,36.77-1.64v.01Z" fill="none" stroke="#000" stroke-width="5" stroke-miterlimit="10"/><path d="M135.26,323.24c-.97-10.04,1.7-20.13,7.58-28.32c26.46-36.88,109.4-91.35,257.25-87.72c162.56,3.99,237.43,51.62,264.25,89.69c5.97,8.47,8.43,18.92,7.12,29.2-3.85,30.15-23.66,132.61-48.34,171.52-8,12.6-22.17,19.91-37.08,19.32L209.36,501.34c-14.72-.58-28.11-8.8-35.18-21.73-10.77-19.68-32.69-92.12-38.92-156.37Z" fill="#e34103"/><path d="M555.97,228.13c-15.05-6.19-35.64-7.74-55.27-12.54c7.45,42.81,11.99,92.05,12.02,148.51c22.62,10.66,48.6,12.85,61.78,27.75c1.54-24.71,1.54-128.19-18.53-163.71v-.01Z" opacity="0.5" fill="#fff"/><path d="M290.18,217.23c-30.21,7.69-61.28,14.43-81.47,25.73-30.01,72.89,2.97,182.94,7.48,201.39c17.83-19.22,38.37-36.82,71.28-48.31l5.14-3.52c-11.01-41.66-15.3-138.13-2.44-175.29h.01Z" opacity="0.2"/><path d="M629.51,463.06c0,66.31-107.42,120.06-227.6,120.06s-227.6-53.75-227.6-120.06s107.42-120.06,227.6-120.06s227.6,53.75,227.6,120.06Z" fill="#9b2a07" stroke="#891000" stroke-width="5" stroke-miterlimit="10"/><path d="M135.16,323.26c-.97-10.04,1.7-20.13,7.58-28.32c26.46-36.88,109.4-91.35,257.25-87.72c162.56,3.99,237.43,51.62,264.25,89.69c5.97,8.47,8.43,18.92,7.12,29.2-3.85,30.15-24.49,129.72-49.18,168.64-8,12.6-29.34,39.38-46.91,40.73L210.01,523.12c-13.13-1.54-28.86-30.56-35.94-43.49-10.77-19.68-32.69-92.12-38.92-156.37h.01Z" fill="none" stroke="#000" stroke-width="5" stroke-miterlimit="10"/><path d="M602.02,462.61c-14.24-53.57-97.87-94.71-198.93-94.71s-184.77,41.17-198.95,94.78c-.05,0-.08,0-.08,0s-11.02,67.16,4.94,102.17c3.08,6.75,11.77-6.7,53.82-5.74c1.02.02,2.02.28,2.92.75c35.94,18.56,84.24,29.92,137.35,29.92c60.69,0,115.09-14.84,151.96-38.3.98-.63,2.11-1,3.27-1.05c18.3-.86,25.99,8.61,31.96,11.05c3.81,1.56,8.11-.71,9.04-4.72c3.97-17.04,13.65-62.48,2.69-94.16l.01.01Z" fill="#015699" stroke="#000" stroke-width="5" stroke-miterlimit="10"/><path d="M511.76,384.7v74.13L556,478.5v-75.68L511.76,384.7Z" opacity="0.5" fill="#fff"/><path d="M403.41,650.04c108.734,0,196.88-46.115,196.88-103s-88.146-103-196.88-103-196.88,46.115-196.88,103s88.146,103,196.88,103Z" fill="#1a3a4e" stroke="#0b3042" stroke-width="5" stroke-miterlimit="10"/><path d="M403.41,640.46c96.97,0,175.58-40.017,175.58-89.38s-78.61-89.38-175.58-89.38-175.58,40.017-175.58,89.38s78.61,89.38,175.58,89.38Z" fill="#4f3f2a" stroke="#47331a" stroke-width="5" stroke-miterlimit="10"/><path d="M403.41,623.18c77.574,0,140.46-28.81,140.46-64.35s-62.886-64.35-140.46-64.35-140.46,28.81-140.46,64.35s62.886,64.35,140.46,64.35Z" fill="#211c0c" stroke="#110d01" stroke-width="5" stroke-miterlimit="10"/><path d="M403.41,623.18c77.574,0,140.46-28.81,140.46-64.35s-62.886-64.35-140.46-64.35-140.46,28.81-140.46,64.35s62.886,64.35,140.46,64.35Z" fill="#211c0c" stroke="#110d01" stroke-width="5" stroke-miterlimit="10"/><path d="M603.6,461.69c-14.24-53.57-97.87-94.71-198.93-94.71-50.33,0-96.34,10.21-131.61,27.07-12.31,4.92-31.08,15.66-55.33,39.1c0,0-.02,1.44-.04,3.91-5.63,7.84-9.7,16.11-11.97,24.7-.05,0-.08,0-.08,0s-5.43,33.12-3.14,64.97c1.04-17.38,3.14-30.22,3.14-30.22s.03,0,.08,0c2.22-8.41,6.16-16.51,11.6-24.19-.18,17.65-.36,35.34-.36,38.82c35.91-41.31,71.43-47.11,71.43-47.11l.88-42.22c32.66-12.65,72.46-20.08,115.4-20.08c101.06,0,184.69,41.13,198.93,94.71c2.04,5.91,3.37,12.3,4.15,18.89c1.66-17.73,1.44-37.48-4.15-53.64Z" opacity="0.2"/><path d="M602.4,462.61c-14.24-53.57-97.87-94.71-198.93-94.71s-184.77,41.17-198.95,94.78c-.05,0-.08,0-.08,0s-11.02,67.16,4.94,102.17c.26.58.57,1,.93,1.3c17.13,47.75,97.24,83.89,193.48,83.89c103.39,0,188.15-41.69,196.24-94.69c4.14-18.02,13.03-61.9,2.36-92.74h.01Z" fill="none" stroke="#000" stroke-width="5" stroke-miterlimit="10"/><path d="M160.46,457.35c-46.59-10.3-75.1597,8.62-89.4497,17.89-18.98,12.31-43.63,31.27-57.53,18.15-13.940028-14.86-25.71-73.02,48.46-146.34c0,0,57.9197-64.67,86.4897-53.09c0,0-9.27,83.01,23.42,136.49c4.31,5.08-3.11,21.89-3.15,22.01-1.8,5.41-5.46,5.5-8.24,4.89Z" fill="#2a6b93"/><path d="M73.3301,347.44c0,0,48.6499-48.26,74.9099-42.09.24-3.24.79-10.35.79-10.35-28.57-11.58-86.4899,53.09-86.4899,53.09-74.17,73.31-65.96003,130.06-52.02,144.91c2.71,2.56,2.26,2.68,5.66,3.09-15.06003-11.97-29.75-56.25,57.14-148.65h.01Z" fill="#72b6ca"/><path d="M23.3501,497.74c13.82.22,31.72-13.12,46.28-22.57c14.29-9.27,42.8599-28.19,89.4499-17.89c2.78.61,6.44.51,8.24-4.89.04-.12,7.36-15.05,3.05-20.13c0,0-60.49-15.44-147.0199,65.48Z" opacity="0.6" fill="#093d51"/><path d="M170.82,433.54c-59.27-7.02-100.5699,26.8-100.9299,27.07-36.33,26.99-42.95,43.45-59.81,30.98" fill="none" stroke="#074760" stroke-width="5" stroke-miterlimit="10"/><path d="M172.42,431.67c-.23-.69-.58-1.43-.63-1.48-18.07-29.83-24.45-70.53-23.94-97.81.31-16.57,1.41-28.75,2.11-35.01.29-2.64-1.79-5-4.45-4.92-34.93,1.05-75.7799,44.93-75.7799,44.93C-4.42993,410.69,-4.23993,476.34,9.70007,491.2c1.59003,1.18,3.88003,2.8,5.33003,3.48c18.28,8.37,37.13-7.84,55.6-19.82c14.29-9.27,42.8599-28.19,89.4499-17.89c2.78.61,6.44.51,8.24-4.89.03-.11,5.68-14.93,4.1-20.4v-.01Z" fill="none" stroke="#000" stroke-width="5" stroke-miterlimit="10"/><path d="M642.59,452.72c46.59-10.3,75.16,8.62,89.45,17.89c18.98,12.31,43.63,31.27,57.53,18.15c13.94-14.86,25.71-73.02-48.46-146.34c0,0-57.92-64.67-86.49-53.09c0,0,9.27,83.01-23.42,136.49-4.31,5.08,3.11,21.89,3.15,22.01c1.8,5.41,5.46,5.5,8.24,4.89Z" fill="#2a6b93"/><path d="M729.73,342.81c0,0-48.65-48.26-74.91-42.09-.24-3.24-.79-10.35-.79-10.35c28.57-11.58,86.49,53.09,86.49,53.09c74.17,73.31,65.95,130.06,52.01,144.91-2.71,2.56-2.26,2.68-5.66,3.09c15.06-11.97,29.75-56.25-57.14-148.65Z" fill="#72b6ca"/><path d="M779.7,493.1c-13.82.22-31.72-13.12-46.28-22.57-14.29-9.27-42.86-28.19-89.45-17.89-2.78.61-6.44.51-8.24-4.89-.04-.12-7.36-15.05-3.05-20.13c0,0,60.49-15.44,147.02,65.48Z" opacity="0.6" fill="#093d51"/><path d="M632.229,428.91c59.27-7.02,100.57,26.8,100.93,27.07c36.33,26.99,42.95,43.45,59.81,30.98" fill="none" stroke="#074760" stroke-width="5" stroke-miterlimit="10"/><path d="M630.64,427.04c.23-.69.58-1.43.63-1.48c18.07-29.83,24.45-70.53,23.94-97.81-.31-16.57-1.41-28.75-2.11-35.01-.29-2.64,1.79-5,4.45-4.92c34.93,1.05,75.78,44.93,75.78,44.93c74.17,73.31,73.97,138.97,60.03,153.82-1.59,1.18-3.88,2.8-5.33,3.48-18.28,8.37-37.13-7.84-55.6-19.82-14.29-9.27-42.86-28.19-89.45-17.89-2.78.61-6.44.51-8.24-4.89-.03-.11-5.68-14.93-4.1-20.4v-.01Z" fill="none" stroke="#000" stroke-width="5" stroke-miterlimit="10"/><path d="M236.92091,181.483944c-4.797,2.736-11.955819,8.900511-15.701819,11.521511l-5.598182,9.839098m43.846-31.315189c0,0,16.329787-6.474,16.329787-6.474" transform="translate(-9.090909 6.363636)" fill="none" stroke="#fff" stroke-width="21" stroke-opacity="0.6" stroke-linecap="round" stroke-linejoin="round"/></g><clipPath id="ebgX0hFHl1S184"><rect width="803.06" height="652.54" rx="0" ry="0" fill="#fff"/></clipPath></g><g transform="translate(0 11)" mask="url(#ebgX0hFHl1S192)"><g id="ebgX0hFHl1S187_to" transform="translate(408.097672,465.864139)"><g id="ebgX0hFHl1S187_ts" transform="scale(0.7,0.7)"><g transform="translate(-408.097651,-486.74237)"><path d="M287.571,487.597c0,0-98.542,232.801-73.811,284.113c0,0-6.313,28.426,20.65-4.309c0,0-35.406,146.595,15.263,208.593c0,0,11.425,3.355,13.264-28.936c0,0,54.561,238.922,121.824,328.592c4.466,5.95,13.468,5.66,17.556-.55c22.218-33.73,83.852-139.25,117.338-316.064l11.057,17.37c0,0,6.917,37.244,21.704-28.149c14.787-65.394,21.441-127.394.268-187.359c0,0,9.874,20.243,17.805,14.078s23.102-85.504-74.885-278.257c0,0-98.351-56.814-208.042-9.112l.009-.01Z" transform="translate(13 2)" fill="url(#ebgX0hFHl1S188-fill)"/><path d="M299.5,505.519c0,0-68.867,168.208-49.088,209.264c0,0-5.044,22.739,16.523-3.445c0,0-28.328,117.27,12.21,166.874c0,0,9.141,2.69,10.609-23.146c0,0,43.646,191.144,97.464,262.874c3.567,4.77,10.779,4.53,14.045-.44c17.778-26.98,67.079-111.4,93.868-252.856l8.847,13.892c0,0,5.539,29.795,17.363-22.517c11.824-52.313,17.149-101.913.213-149.885c0,0,7.893,16.197,14.25,11.26c6.356-4.937,23.078-63.673-55.304-217.874c0,0-91.479-49.637-181,5.999Z" transform="translate(13 2)" fill="url(#ebgX0hFHl1S189-fill)"/><path d="M340.252,478.852c-4.902,3.587-8.935,8.214-11.812,13.558-20.181,37.452-96.148,250.561,59.519,482.73c2.51,3.747,8.596,3.331,11.232-.391c14.049-19.838,157.491-284.369,57.517-488.247-4.136-8.431-11.135-15.148-19.708-18.982-21.58-9.631-51.647-21.678-96.76,11.312l.012.02Z" transform="translate(13 2)" fill="#fec108"/><path d="M359.999,530.319c-7.522,3.529-20.244,36.359-22.999,44.201-11.801,33.58-6,191.499,51.812,276.239c5.407,7.925,6.85,2.216,8.988-.357c9.98-12.01,73.7-90.882,56.7-275.882-7-29.5-14.194-38.8-25.5-51.5-5.86-6.583-40.187-28-69.001,7.299Z" transform="translate(13 2)" fill="#ffe443"/></g></g></g><mask id="ebgX0hFHl1S192" mask-type="luminance" x="-150%" y="-150%" height="400%" width="400%"><path d="M266.32366,557.6136c0-37.37115,61.25168-67.66645,136.80945-67.66645s136.80945,30.2953,136.80945,67.66645c0,.00004,0,.00008,0,.00012h264.05745v770.37016h-804v-770.37016h266.32366c0-.00004,0-.00008,0-.00012h-.00001Z" fill="#fff" stroke-width="0"/></mask></g></g></g></g></svg>
