<svg id="erYpoxU1edC1" xmlns="http://www.w3.org/2000/svg" xmlns:xlink="http://www.w3.org/1999/xlink" viewBox="0 0 100 150" shape-rendering="geometricPrecision" text-rendering="geometricPrecision" project-id="d681d9c25c0e4d659729ac5363da03c2" export-id="999a9400e7f44b5bbbe6171280cf2bd5" cached="false">
<style><![CDATA[
#erYpoxU1edC3_to {animation: erYpoxU1edC3_to__to 2000ms linear infinite normal forwards}@keyframes erYpoxU1edC3_to__to { 0% {transform: translate(81.687992px,241.382492px)} 40% {transform: translate(81.687992px,241.382492px);animation-timing-function: cubic-bezier(0.79,0.015,0.165,1)} 50% {transform: translate(81.687992px,231.382492px);animation-timing-function: cubic-bezier(0.79,0.015,0.165,1)} 60% {transform: translate(81.687992px,241.382492px)} 100% {transform: translate(81.687992px,241.382492px)}} #erYpoxU1edC5_tr {animation: erYpoxU1edC5_tr__tr 2000ms linear infinite normal forwards}@keyframes erYpoxU1edC5_tr__tr { 0% {transform: translate(107.713612px,240.159333px) rotate(0deg)} 40% {transform: translate(107.713612px,240.159333px) rotate(0deg);animation-timing-function: cubic-bezier(0.79,0.015,0.165,1)} 50% {transform: translate(107.713612px,240.159333px) rotate(-19.736688deg);animation-timing-function: cubic-bezier(0.79,0.015,0.165,1)} 60% {transform: translate(107.713612px,240.159333px) rotate(0deg);animation-timing-function: cubic-bezier(0.79,0.015,0.165,1)} 63.333333% {transform: translate(107.713612px,240.159333px) rotate(-19.736688deg);animation-timing-function: cubic-bezier(0.79,0.015,0.165,1)} 66.666667% {transform: translate(107.713612px,240.159333px) rotate(0deg);animation-timing-function: cubic-bezier(0.79,0.015,0.165,1)} 70% {transform: translate(107.713612px,240.159333px) rotate(-19.736688deg);animation-timing-function: cubic-bezier(0.79,0.015,0.165,1)} 73.333333% {transform: translate(107.713612px,240.159333px) rotate(0deg)} 76.666667% {transform: translate(107.713612px,240.159333px) rotate(-19.736688deg);animation-timing-function: cubic-bezier(0.79,0.015,0.165,1)} 80% {transform: translate(107.713612px,240.159333px) rotate(0deg);animation-timing-function: cubic-bezier(0.79,0.015,0.165,1)} 83.333333% {transform: translate(107.713612px,240.159333px) rotate(-19.736688deg);animation-timing-function: cubic-bezier(0.79,0.015,0.165,1)} 86.666667% {transform: translate(107.713612px,240.159333px) rotate(0deg)} 90% {transform: translate(107.713612px,240.159333px) rotate(-19.736688deg);animation-timing-function: cubic-bezier(0.79,0.015,0.165,1)} 93.333333% {transform: translate(107.713612px,240.159333px) rotate(0deg);animation-timing-function: cubic-bezier(0.79,0.015,0.165,1)} 96.666667% {transform: translate(107.713612px,240.159333px) rotate(-19.736688deg);animation-timing-function: cubic-bezier(0.79,0.015,0.165,1)} 100% {transform: translate(107.713612px,240.159333px) rotate(0deg)}} #erYpoxU1edC13_tr {animation: erYpoxU1edC13_tr__tr 2000ms linear infinite normal forwards}@keyframes erYpoxU1edC13_tr__tr { 0% {transform: translate(72.643931px,273.576px) rotate(0deg)} 43.333333% {transform: translate(72.643931px,273.576px) rotate(0deg);animation-timing-function: cubic-bezier(0.79,0.015,0.165,1)} 53.333333% {transform: translate(72.643931px,273.576px) rotate(31.690268deg);animation-timing-function: cubic-bezier(0.79,0.015,0.165,1)} 63.333333% {transform: translate(72.643931px,273.576px) rotate(0deg)} 100% {transform: translate(72.643931px,273.576px) rotate(0deg)}} #erYpoxU1edC16_tr {animation: erYpoxU1edC16_tr__tr 2000ms linear infinite normal forwards}@keyframes erYpoxU1edC16_tr__tr { 0% {transform: translate(92.704501px,273.576px) rotate(0deg)} 40% {transform: translate(92.704501px,273.576px) rotate(0deg);animation-timing-function: cubic-bezier(0.79,0.015,0.165,1)} 50% {transform: translate(92.704501px,273.576px) rotate(24.790031deg);animation-timing-function: cubic-bezier(0.79,0.015,0.165,1)} 60% {transform: translate(92.704501px,273.576px) rotate(0deg)} 100% {transform: translate(92.704501px,273.576px) rotate(0deg)}} #erYpoxU1edC23_to {animation: erYpoxU1edC23_to__to 2000ms linear infinite normal forwards}@keyframes erYpoxU1edC23_to__to { 0% {transform: translate(75.75692px,220.138535px)} 46.666667% {transform: translate(75.75692px,220.138535px);animation-timing-function: cubic-bezier(0.79,0.015,0.165,1)} 53.333333% {transform: translate(75.75692px,215.138535px);animation-timing-function: cubic-bezier(0.79,0.015,0.165,1)} 60% {transform: translate(75.75692px,220.138535px)} 100% {transform: translate(75.75692px,220.138535px)}} #erYpoxU1edC23_ts {animation: erYpoxU1edC23_ts__ts 2000ms linear infinite normal forwards}@keyframes erYpoxU1edC23_ts__ts { 0% {transform: scale(1,1)} 46.666667% {transform: scale(1,1);animation-timing-function: cubic-bezier(0.79,0.015,0.165,1)} 53.333333% {transform: scale(0.8,0.8);animation-timing-function: cubic-bezier(0.79,0.015,0.165,1)} 60% {transform: scale(1,1)} 100% {transform: scale(1,1)}} #erYpoxU1edC35_to {animation: erYpoxU1edC35_to__to 2000ms linear infinite normal forwards}@keyframes erYpoxU1edC35_to__to { 0% {transform: translate(75.553849px,246.219505px)} 40% {transform: translate(75.553849px,246.219505px);animation-timing-function: cubic-bezier(0.79,0.015,0.165,1)} 50% {transform: translate(75.553849px,242.219505px);animation-timing-function: cubic-bezier(0.79,0.015,0.165,1)} 60% {transform: translate(75.553849px,246.219505px)} 100% {transform: translate(75.553849px,246.219505px)}} #erYpoxU1edC40_to {animation: erYpoxU1edC40_to__to 2000ms linear infinite normal forwards}@keyframes erYpoxU1edC40_to__to { 0% {transform: translate(76.769329px,207.457611px)} 50% {transform: translate(76.769329px,207.457611px);animation-timing-function: cubic-bezier(0.79,0.015,0.165,1)} 60% {transform: translate(76.769329px,188.457611px);animation-timing-function: cubic-bezier(0.79,0.015,0.165,1)} 66.666667% {transform: translate(76.769329px,207.457611px)} 100% {transform: translate(76.769329px,207.457611px)}} #erYpoxU1edC40_tr {animation: erYpoxU1edC40_tr__tr 2000ms linear infinite normal forwards}@keyframes erYpoxU1edC40_tr__tr { 0% {transform: rotate(0deg)} 50% {transform: rotate(0deg);animation-timing-function: cubic-bezier(0.79,0.015,0.165,1)} 60% {transform: rotate(10deg);animation-timing-function: cubic-bezier(0.79,0.015,0.165,1)} 66.666667% {transform: rotate(0deg)} 100% {transform: rotate(0deg)}}
]]></style>
<g transform="translate(-31.687992-154.800079)"><g id="erYpoxU1edC3_to" transform="translate(81.687992,241.382492)"><g transform="translate(-81.687992,-241.382492)" clip-path="url(#erYpoxU1edC52)"><g><g id="erYpoxU1edC5_tr" transform="translate(107.713612,240.159333) rotate(0)"><g transform="translate(-107.713609,-240.159333)"><path d="M107.194,238.03c0,0,8.237-4.756,10.746-7.19c0,0,2.439-7.069,5.312-5.726c2.874,1.343-.303,4.696-.303,4.696s3.966-4.383,5.494-2.313-2.499,4.625-2.499,4.625s3.056-2.312,3.966-.424c.911,1.889-.981,2.989-3.784,4.817-2.813,1.828-16.787,12.855-16.787,12.855" fill="#ffd200"/><path d="M109.329,250.097c-.212,0-.435-.09-.577-.282-.253-.313-.192-.778.122-1.03.577-.455,14.034-11.068,16.837-12.896l.415-.273c2.742-1.777,3.652-2.494,3.106-3.615-.111-.222-.233-.283-.344-.303-.546-.131-1.497.334-2.115.727-.222.162-.384.273-.445.313-.334.212-.769.122-.992-.202-.222-.323-.151-.767.162-.999.051-.041.213-.162.446-.313.748-.556,1.922-1.586,2.094-2.515.051-.293,0-.545-.182-.787-.121-.172-.263-.243-.465-.253-1.002-.04-2.783,1.424-3.815,2.535-.041.05-.071.081-.091.101-.273.293-.739.303-1.032.03-.294-.273-.314-.727-.051-1.03.02-.02.041-.05.071-.081.435-.485,1.396-1.777,1.224-2.656-.02-.121-.091-.494-.759-.808-.283-.131-.556-.131-.86,0-1.548.657-3.015,4.05-3.45,5.312-.041.111-.101.202-.182.283-2.54,2.474-10.554,7.099-10.888,7.301-.354.202-.799.081-1.001-.263-.203-.353-.081-.797.263-.999.081-.051,7.933-4.585,10.482-6.968.365-.99,1.953-5.059,4.21-6.009.688-.292,1.396-.282,2.044.031c1.113.515,1.467,1.292,1.578,1.858.041.212.051.434.041.646.748-.454,1.548-.788,2.286-.747.638.03,1.184.323,1.569.848.415.566.566,1.232.445,1.929-.081.434-.273.858-.526,1.252.101,0,.192.03.283.051.587.141,1.042.515,1.326,1.09c1.153,2.373-.962,3.747-3.633,5.473l-.415.273c-2.752,1.788-16.594,12.704-16.736,12.815-.131.111-.293.161-.455.161h.01Z" fill="#a05f35"/></g></g><g><path d="M43.4078,240.585c0,0-11.3529,5.12-10.078,11.886c1.2851,6.766,18.6786,10.603,18.6786,10.603" fill="#ffd200"/><path d="M52.0185,263.801c-.0505,0-.1011,0-.1618-.02-.7286-.162-17.8894-4.03-19.2453-11.179-1.3761-7.241,10.0071-12.461,10.4928-12.684.3643-.161.7994,0,.9714.364.1619.363,0,.798-.3643.969-.1113.051-10.8166,4.959-9.6529,11.078.9814,5.16,13.4069,8.988,18.122,10.018.3947.091.6476.474.5566.868-.0709.344-.3744.576-.7185.576v.01Z" fill="#a05f35"/><path d="M39.0166,249.906c0,0,6.405,4.019,7.1436,4.2l-7.1436-4.2Z" fill="#ffd200"/><path d="M46.15,254.844c-.0607,0-.1113,0-.172-.02-.7589-.192-5.3931-3.07-7.3561-4.292-.344-.212-.4452-.667-.2327-1.01s.6678-.444,1.0118-.232c3.0254,1.898,6.4455,3.958,6.9413,4.12.3744.121.6071.525.4958.898-.0911.324-.3744.536-.6881.536Z" fill="#a05f35"/></g><g id="erYpoxU1edC13_tr" transform="translate(72.643931,273.576) rotate(0)"><g transform="translate(-72.643931,-273.576)"><path d="M61.4284,274.384v15.905c0,0-6.496-.424-6.071,4.079c0,0-.6071,5.605,8.1757,5.363c0,0,6.84-.182,6.9614-4.02v-20.348l-9.0661-.979Z" fill="#4b3c3f"/><path d="M62.9766,300.468c-3.1974,0-5.5348-.778-6.9614-2.323-1.4369-1.555-1.4267-3.363-1.3964-3.766-.1012-1.253.2429-2.303,1.0321-3.111c1.3862-1.424,3.8045-1.686,5.039-1.717v-15.975l10.5332,1.131v21.004c-.1416,4.504-7.3662,4.747-7.6697,4.757-.1923,0-.3845,0-.5667,0h-.0101Zm-2.0135-9.462c-1.1232,0-3.2379.222-4.27,1.272-.4958.515-.6982,1.171-.6172,2.02v.07.071c0,.061-.1316,1.495,1.032,2.727c1.2142,1.292,3.3695,1.908,6.405,1.827.0607,0,6.152-.262,6.2431-3.312v-19.671l-7.599-.818v15.864l-.7791-.05c-.1113,0-.253-.01-.4148-.01v.01Z" fill="#352427"/></g></g><g id="erYpoxU1edC16_tr" transform="translate(92.704501,273.576) rotate(0)"><g transform="translate(-92.7045,-273.576)"><path d="M83.6384,274.384v15.905c0,0-6.496-.424-6.0711,4.079c0,0-.6071,5.605,8.1757,5.363c0,0,6.8401-.182,6.9615-4.02v-20.348l-9.0661-.979Z" fill="#4b3c3f"/><path d="M85.1968,300.468c-3.1974,0-5.5347-.778-6.9614-2.323-1.4368-1.555-1.4267-3.363-1.3964-3.766-.1012-1.253.2429-2.303,1.0321-3.111c1.3862-1.424,3.8045-1.686,5.039-1.717v-15.975l10.5332,1.131v21.004c-.1416,4.504-7.3662,4.747-7.6697,4.757-.1923,0-.3845,0-.5666,0h-.0102Zm-2.0135-9.462c-1.1232,0-3.2379.222-4.27,1.272-.4958.515-.6982,1.171-.6172,2.02v.07.071c0,.051-.1316,1.495,1.0321,2.727c1.2142,1.292,3.3795,1.908,6.4049,1.827.0607,0,6.152-.262,6.2431-3.312v-19.671l-7.599-.818v15.864l-.7791-.05c-.1113,0-.2529-.01-.4148-.01v.01Z" fill="#352427"/></g></g><g transform="translate(.000001 0)"><path d="M76.6568,208.169c0,0,28.4432-.333,34.4332,18.52c0,0,6.718,22.176-6.223,40.212c0,0-10.4018,14.319-28.0787,13.885h.2429c-17.8894.222-28.0787-13.885-28.0787-13.885-12.9414-18.036-6.2228-40.212-6.2228-40.212c5.4336-19.389,34.433-18.52,34.433-18.52" fill="#ffd200"/><path d="M113.252,237.075c.57,8.111-.329,19.946-7.825,30.392-.039.054-10.4353,14.318-28.0789,13.885h-.5898c-13.8743-.172-22.9639-8.928-26.0625-12.446c5.0373,3.961,12.7906,8.245,22.8721,8.369h.6406c19.18.47,30.4725-14.996,30.4935-15.024c5.986-8.313,8.098-17.438,8.55-25.176Z" fill="#dba01d"/><path d="M77.537,281.523c-.2328,0-.4655,0-.6982,0-.0708,0-.1518,0-.2226,0-17.8084,0-28.1697-14.057-28.2709-14.198-13.0021-18.116-6.4049-40.626-6.3341-40.848c5.5246-19.702,34.8579-19.045,35.1514-19.035c3.936.091,28.9894,1.313,34.6154,19.025.071.232,6.668,22.742-6.324,40.858-.112.152-10.5235,14.208-27.9069,14.208l-.0101-.01Zm-.5161-1.464c16.9585.303,27.1381-13.451,27.2391-13.592c12.587-17.531,6.182-39.354,6.121-39.566-5.747-18.096-33.441-18.015-33.7142-18.005-3.6831,0-28.3923.687-33.239,17.985-.0709.232-6.4556,22.065,6.1115,39.586.1012.131,10.0375,13.582,27.0769,13.582.0506,0,.1113,0,.1619,0h.2428v.01Z" fill="#a05f35"/></g><g id="erYpoxU1edC23_to" transform="translate(75.75692,220.138535)"><g id="erYpoxU1edC23_ts" transform="scale(1,1)"><path d="M62.9159,223.943c-.0709,0-.1518,0-.2328-.031-.4856-.121-.7791-.616-.6577-1.11.4149-1.646,2.2868-4.777,6.3645-4.827.1417-.01,4.0069-.223,6.3645,2.504c1.0726-1.737,3.4302-4.282,7.9531-4.15.172,0,4.0474.171,6.6073,3.322.3137.394.253.969-.1315,1.282-.3946.314-.9714.253-1.2851-.131-2.0135-2.484-5.211-2.646-5.2413-2.646-5.4032-.151-6.8906,4.373-6.9109,4.413-.1113.354-.4351.606-.7993.637-.3643.03-.7286-.172-.8905-.505-1.538-3.131-5.5449-2.909-5.5853-2.899-3.7236.051-4.6343,3.323-4.6646,3.464-.1113.414-.4756.687-.8904.687v-.01Z" transform="translate(-75.75692,-220.138535)" fill="#a05f35"/></g></g><path d="M74.9465,256.974c-10.0779,0-13.3057-6.382-13.4372-6.655-.2226-.454-.0304-.999.4249-1.221.4554-.223,1.0018-.031,1.2244.414.1315.262,3.1266,6.018,12.8301,5.614.1518,0,9.5923.152,14.3075-6.614.2934-.414.86-.515,1.2749-.232.4148.292.516.858.2327,1.272-5.2919,7.594-15.3699,7.412-15.7948,7.402-.3542.02-.7083.02-1.0524.02h-.0101Z" fill="#a05f35"/><g transform="translate(.000001 0)"><path d="M69.24,242.837c4.3589,0,7.8924-3.938,7.8924-8.796s-3.5335-8.796-7.8924-8.796c-4.3588,0-7.8923,3.938-7.8923,8.796s3.5335,8.796,7.8923,8.796Z" fill="#fff"/><path d="M69.2399,243.564c-4.7557,0-8.631-4.272-8.631-9.523s3.8652-9.523,8.631-9.523s8.631,4.272,8.631,9.523-3.8652,9.523-8.631,9.523Zm0-17.592c-3.9462,0-7.1638,3.616-7.1638,8.059s3.2176,8.058,7.1638,8.058s7.1638-3.615,7.1638-8.058-3.2176-8.059-7.1638-8.059Z" fill="#a05f35"/><path d="M70.6654,238.273c2.342,0,4.2406-2.532,4.2406-5.654c0-3.123-1.8986-5.654-4.2406-5.654s-4.2406,2.531-4.2406,5.654c0,3.122,1.8986,5.654,4.2406,5.654Z" fill="#4d3023"/><ellipse rx="1.69623" ry="1.69623" transform="translate(70.9477 230.922)" fill="#fff"/></g><g transform="translate(.000001 0)"><path d="M82.9201,243.099c4.7053,0,8.5197-4.245,8.5197-9.482s-3.8144-9.483-8.5197-9.483-8.5197,4.246-8.5197,9.483s3.8144,9.482,8.5197,9.482Z" fill="#fff"/><path d="M82.9201,243.836c-5.0997,0-9.2482-4.584-9.2482-10.219s4.1485-10.22,9.2482-10.22s9.2482,4.585,9.2482,10.22-4.1485,10.219-9.2482,10.219Zm0-18.964c-4.2902,0-7.7811,3.928-7.7811,8.755s3.4909,8.755,7.7811,8.755s7.7811-3.928,7.7811-8.755-3.4909-8.755-7.7811-8.755Z" fill="#a05f35"/><path d="M84.8006,238.273c2.342,0,4.2406-2.532,4.2406-5.655c0-3.122-1.8986-5.654-4.2406-5.654s-4.2405,2.532-4.2405,5.654c0,3.123,1.8985,5.655,4.2405,5.655Z" fill="#4d3023"/><ellipse rx="1.69623" ry="1.69623" transform="translate(85.6484 230.922)" fill="#fff"/></g><g id="erYpoxU1edC35_to" transform="translate(75.553849,246.219505)"><g transform="translate(-75.553848,-246.219505)"><path d="M75.5538,255.267c3.9621,0,7.174-2.785,7.174-6.22c0-3.436-3.2119-6.221-7.174-6.221-3.962,0-7.1739,2.785-7.1739,6.221c0,3.435,3.2119,6.22,7.1739,6.22Z" fill="#a05f35" fill-opacity="0.4"/><path d="M75.5538,252.44c3.9621,0,7.174-2.785,7.174-6.22c0-3.436-3.2119-6.221-7.174-6.221-3.962,0-7.1739,2.785-7.1739,6.221c0,3.435,3.2119,6.22,7.1739,6.22Z" fill="#f5333f"/><path d="M75.5538,253.167c-4.361,0-7.9024-3.12-7.9024-6.947c0-3.828,3.5515-6.948,7.9024-6.948c4.351,0,7.9025,3.12,7.9025,6.948c0,3.827-3.5515,6.947-7.9025,6.947Zm0-12.431c-3.5515,0-6.4454,2.464-6.4454,5.484c0,3.019,2.8939,5.483,6.4454,5.483c3.5516,0,6.4455-2.464,6.4455-5.483c0-3.02-2.8939-5.484-6.4455-5.484Z" fill="#963d1e"/><circle r="1.69623" transform="translate(74.3403 245.058)" fill="#ff998d"/></g></g><g id="erYpoxU1edC40_to" transform="translate(76.769329,207.457611)"><g id="erYpoxU1edC40_tr" transform="rotate(0)"><g transform="translate(-76.769329,-207.457611)"><path d="M76.8286,183.167c.3111.006.7091.019,1.1729.054c1.1809.089,2.7814.306,4.4668.814c3.3719,1.017,7.0111,3.171,8.4082,7.736l.0019.008c.0018.006.0046.015.0078.027.0067.024.0163.059.0293.104.0261.092.0654.224.1172.394.1037.339.2592.825.4688,1.417.4188,1.182,1.0546,2.79,1.9199,4.493c1.7157,3.376,4.394,7.241,8.1846,8.779h.001l.001.001c.001.001.002.001.003.001.003.002.009.004.015.007.015.006.037.016.066.029.057.025.143.063.251.113.217.1.526.25.894.441.738.384,1.702.936,2.619,1.613.922.68,1.768,1.464,2.3,2.305.527.832.724,1.682.44,2.549l-.011.033-.006.034v.002c-.001.006-.004.017-.008.033-.008.032-.022.084-.045.151-.045.135-.125.331-.257.562-.263.46-.738,1.061-1.584,1.579-1.69,1.032-4.962,1.787-11.2054.209-.0018-.001-.0039-.001-.0059-.001-.0187-.007-.0469-.016-.083-.028-.0722-.024-.1783-.059-.3164-.103-.2766-.089-.6811-.215-1.1943-.367-1.0265-.302-2.4901-.705-4.2412-1.108-3.3378-.768-7.738-1.537-12.1573-1.606v-.007h-.6377v.007c-4.4189.069-8.8186.838-12.1562,1.606-1.7511.403-3.2147.806-4.2412,1.108-.5133.152-.9177.278-1.1943.367-.1384.044-.2452.079-.3174.103-.0359.012-.0634.021-.0821.028-.0022,0-.0048,0-.0068.001-6.2373,1.573-9.5096.818-11.2012-.213-.8472-.517-1.3233-1.117-1.5869-1.577-.1324-.23-.2121-.428-.2578-.562-.0228-.067-.0368-.118-.0449-.15-.0039-.016-.0066-.027-.0078-.033-.0006-.002-.0009-.004-.001-.005v.002l-.0059-.032-.0107-.032-.0469-.162c-.2086-.811-.0026-1.607.4912-2.387.5327-.841,1.3793-1.626,2.3008-2.306.9164-.677,1.8793-1.229,2.6162-1.613.3675-.191.677-.341.8936-.441.1079-.05.1927-.088.25-.113.0284-.013.0501-.023.0644-.029.0072-.003.0133-.005.0166-.007.0013,0,.0023,0,.003-.001l.0009-.001c3.7909-1.538,6.4698-5.402,8.1856-8.779.8653-1.703,1.5001-3.311,1.9189-4.493.2096-.592.366-1.078.4698-1.417.0518-.169.0901-.303.1162-.394.0129-.045.0226-.08.0293-.104.0032-.012.006-.021.0078-.027.0008-.004.0015-.006.0019-.008l.001-.002v-.001c1.4004-4.573,4.8916-6.722,8.0957-7.735c1.6042-.506,3.1234-.723,4.2432-.812.4196-.033.7821-.047,1.0703-.053l.001.003h.7685v-.004Z" fill="#201f1f" stroke="#201f1f"/><path d="M76.126,182.299c2.1154-.009,12.1223.396,14.836,8.765-3.3663-6.729-11.8997-7.077-13.8155-7.069-1.9833-.009-11.4253.406-13.9824,9.031-.0173.066-3.1595,12.048-10.2207,14.987-.0386.017-8.0573,3.506-6.7236,7.723.0022.013.0484.259.2148.622-1.6402-1.104-1.9042-2.494-1.9082-2.515-1.3601-4.183,6.8005-7.645,6.8701-7.675c7.2347-2.928,10.4424-14.895,10.4424-14.895c2.6128-8.572,12.2612-8.983,14.2871-8.974Zm16.3184,12.957c1.5799,3.761,4.5236,9.089,9.0286,10.912c0,0,7.498,3.158,7.002,7.094-1.409-3.035-6.521-5.249-6.521-5.249-5.1617-2.149-8.2264-9.131-9.5096-12.757Z" fill="#515254"/><path d="M101.416,218.429c-1.8917,0-4.0874-.313-6.5664-.939-.1214-.041-9.1976-3.11-18.0816-3.181-8.8941.071-17.9602,3.151-18.0614,3.181-5.4639,1.383-9.5113,1.252-12.0409-.374-1.8618-1.191-2.1552-2.757-2.1653-2.827-1.4469-4.423,6.7389-7.928,7.0829-8.079c6.9918-2.828,10.1993-14.532,10.2297-14.653c2.5296-8.341,11.5755-9.189,14.267-9.26.0708,0,.2023,0,.3946,0c.0708,0,.1315,0,.1922,0c2.5904.03,12.4659.737,15.0562,9.23.0304.131,3.2481,11.845,10.23,14.663.354.151,8.54,3.655,7.083,8.129c0,.02-.304,1.585-2.156,2.777-1.376.889-3.197,1.333-5.443,1.333h-.021Zm-24.3343-4.857c8.9042.141,17.8792,3.181,17.9703,3.211c6.466,1.636,9.764.747,11.383-.283c1.599-1.02,1.862-2.302,1.872-2.363c1.265-3.888-6.567-7.24-6.648-7.271-7.3153-2.958-10.5127-14.642-10.6442-15.137-2.3981-7.846-11.5148-8.634-14.1962-8.695h-.769c-2.5903.071-11.1606.889-13.5485,8.715-.1316.485-3.329,12.169-10.6547,15.127-.0709.031-7.9126,3.383-6.658,7.221.0203.101.2834,1.393,1.8821,2.403c1.629,1.03,4.9276,1.919,11.4135.273.0608-.02,9.0358-3.06,17.9501-3.201h.6375.0101Z" fill="#201f1f"/><path d="M76.1914,199.757c3.1238,0,5.6561-2.283,5.6561-5.099c0-2.817-2.5323-5.1-5.6561-5.1-3.1239,0-5.6562,2.283-5.6562,5.1c0,2.816,2.5323,5.099,5.6562,5.099Z" fill="#bbb"/><path d="M76.3225,197.354h-.516c-1.3356,0-2.4183,1.08-2.4183,2.413v.071c0,1.333,1.0827,2.413,2.4183,2.413h.516c1.3356,0,2.4183-1.08,2.4183-2.413v-.071c0-1.333-1.0827-2.413-2.4183-2.413Z" fill="#bbb"/><path d="M74.4711,193.193h-.0304c-.3912,0-.7083.317-.7083.707v1.434c0,.39.3171.707.7083.707h.0304c.3911,0,.7083-.317.7083-.707v-1.434c0-.39-.3172-.707-.7083-.707Z" fill="#201f1f"/><path d="M77.5878,193.193h-.0304c-.3912,0-.7083.317-.7083.707v1.434c0,.39.3171.707.7083.707h.0304c.3911,0,.7083-.317.7083-.707v-1.434c0-.39-.3172-.707-.7083-.707Z" fill="#201f1f"/><path d="M83.2338,208.007c-.081,0-.172-.01-.2631-.04l-14.6009-5.059c-.4148-.142-.6273-.596-.4857-1c.1417-.414.597-.626,1.0018-.485l14.6008,5.06c.4149.141.6274.595.4857.999-.1113.323-.4148.525-.7488.525h.0102Z" fill="#bbb"/><path d="M68.5417,207.513c-.344,0-.6678-.233-.7589-.586-.1113-.424.1315-.848.5565-.969l14.9146-4.06c.4249-.111.8499.131.9713.555.1113.425-.1315.849-.5565.97l-14.9145,4.059c-.0709.021-.1417.031-.2125.031Z" fill="#bbb"/><path d="M74.461,196.071c-.4148,0-.7589-.343-.7589-.757v-1.404c0-.414.3441-.757.7589-.757.4149,0,.7589.343.7589.757v1.404c0,.414-.344.757-.7589.757Zm0-2.847c-.3845,0-.688.313-.688.686v1.404c0,.384.3136.687.688.687s.6881-.313.6881-.687v-1.404c0-.384-.3137-.686-.6881-.686Z" fill="#231815"/><path d="M77.5772,196.071c-.4148,0-.7588-.343-.7588-.757v-1.404c0-.414.344-.757.7588-.757s.7589.343.7589.757v1.404c0,.414-.344.757-.7589.757Zm0-2.847c-.3845,0-.688.313-.688.686v1.404c0,.384.3137.687.688.687s.6881-.313.6881-.687v-1.404c0-.384-.3137-.686-.6881-.686Z" fill="#201f1f"/></g></g></g></g><clipPath id="erYpoxU1edC52"><rect width="98.3814" height="118.171" rx="0" ry="0" transform="matrix(1 0 0 1.458897 32.5 143.297)" fill="#fff"/></clipPath></g></g></g></svg>
