<svg id="eZ6SkAnJyXG1" xmlns="http://www.w3.org/2000/svg" xmlns:xlink="http://www.w3.org/1999/xlink" viewBox="0 0 100 180" shape-rendering="geometricPrecision" text-rendering="geometricPrecision" project-id="5045f26472784cbfaa3013a45e99d188" export-id="02f4012ad00d47618137db98a7a196c4" cached="false">
<style><![CDATA[
#eZ6SkAnJyXG3_to {animation: eZ6SkAnJyXG3_to__to 2000ms linear infinite normal forwards}@keyframes eZ6SkAnJyXG3_to__to { 0% {transform: translate(230.21151px,226.990105px);animation-timing-function: cubic-bezier(0.79,0.015,0.165,1)} 23.333333% {transform: translate(230.21151px,216.990105px);animation-timing-function: cubic-bezier(0.79,0.015,0.165,1)} 33.333333% {transform: translate(230.21151px,226.990105px)} 100% {transform: translate(230.21151px,226.990105px)}} #eZ6SkAnJyXG4_tr {animation: eZ6SkAnJyXG4_tr__tr 2000ms linear infinite normal forwards}@keyframes eZ6SkAnJyXG4_tr__tr { 0% {transform: translate(222.345373px,260.803002px) rotate(0deg)} 16.666667% {transform: translate(222.345373px,260.803002px) rotate(0deg);animation-timing-function: cubic-bezier(0.79,0.015,0.165,1)} 30% {transform: translate(222.345373px,260.803002px) rotate(29.50874deg);animation-timing-function: cubic-bezier(0.79,0.015,0.165,1)} 40% {transform: translate(222.345373px,260.803002px) rotate(0deg)} 100% {transform: translate(222.345373px,260.803002px) rotate(0deg)}} #eZ6SkAnJyXG7_tr {animation: eZ6SkAnJyXG7_tr__tr 2000ms linear infinite normal forwards}@keyframes eZ6SkAnJyXG7_tr__tr { 0% {transform: translate(245.225001px,260.803001px) rotate(0deg)} 10% {transform: translate(245.225001px,260.803001px) rotate(0deg);animation-timing-function: cubic-bezier(0.79,0.015,0.165,1)} 23.333333% {transform: translate(245.225001px,260.803001px) rotate(22.164428deg);animation-timing-function: cubic-bezier(0.79,0.015,0.165,1)} 33.333333% {transform: translate(245.225001px,260.803001px) rotate(0deg)} 100% {transform: translate(245.225001px,260.803001px) rotate(0deg)}} #eZ6SkAnJyXG10_to {animation: eZ6SkAnJyXG10_to__to 2000ms linear infinite normal forwards}@keyframes eZ6SkAnJyXG10_to__to { 0% {transform: translate(228.137787px,227.693077px)} 10% {transform: translate(228.137787px,227.693077px);animation-timing-function: cubic-bezier(0.79,0.015,0.165,1)} 23.333333% {transform: translate(228.137787px,227.693077px);animation-timing-function: cubic-bezier(0.79,0.015,0.165,1)} 30% {transform: translate(228.137787px,241.693077px);animation-timing-function: cubic-bezier(0.79,0.015,0.165,1)} 33.333333% {transform: translate(228.137787px,227.693077px)} 100% {transform: translate(228.137787px,227.693077px)}} #eZ6SkAnJyXG15_to {animation: eZ6SkAnJyXG15_to__to 2000ms linear infinite normal forwards}@keyframes eZ6SkAnJyXG15_to__to { 0% {transform: translate(224.937996px,205.97789px)} 10% {transform: translate(224.937996px,205.97789px);animation-timing-function: cubic-bezier(0.79,0.015,0.165,1)} 23.333333% {transform: translate(224.937996px,202.97789px);animation-timing-function: cubic-bezier(0.79,0.015,0.165,1)} 33.333333% {transform: translate(224.937996px,205.97789px)} 100% {transform: translate(224.937996px,205.97789px)}} #eZ6SkAnJyXG15_ts {animation: eZ6SkAnJyXG15_ts__ts 2000ms linear infinite normal forwards}@keyframes eZ6SkAnJyXG15_ts__ts { 0% {transform: scale(1,1)} 10% {transform: scale(1,1);animation-timing-function: cubic-bezier(0.79,0.015,0.165,1)} 23.333333% {transform: scale(0.8,1);animation-timing-function: cubic-bezier(0.79,0.015,0.165,1)} 33.333333% {transform: scale(1,1)} 100% {transform: scale(1,1)}} #eZ6SkAnJyXG16_tr {animation: eZ6SkAnJyXG16_tr__tr 2000ms linear infinite normal forwards}@keyframes eZ6SkAnJyXG16_tr__tr { 0% {transform: translate(256.655px,236.06418px) rotate(0deg)} 10% {transform: translate(256.655px,236.06418px) rotate(0deg);animation-timing-function: cubic-bezier(0.79,0.015,0.165,1)} 23.333333% {transform: translate(256.655px,236.06418px) rotate(-25.883664deg);animation-timing-function: cubic-bezier(0.79,0.015,0.165,1)} 33.333333% {transform: translate(256.655px,236.06418px) rotate(0deg)} 60% {transform: translate(256.655px,236.06418px) rotate(0deg);animation-timing-function: cubic-bezier(0.79,0.015,0.165,1)} 63.333333% {transform: translate(256.655px,236.06418px) rotate(-25.883664deg);animation-timing-function: cubic-bezier(0.79,0.015,0.165,1)} 66.666667% {transform: translate(256.655px,236.06418px) rotate(0deg)} 70% {transform: translate(256.655px,236.06418px) rotate(-25.883664deg);animation-timing-function: cubic-bezier(0.79,0.015,0.165,1)} 73.333333% {transform: translate(256.655px,236.06418px) rotate(0deg)} 76.666667% {transform: translate(256.655px,236.06418px) rotate(-25.883664deg);animation-timing-function: cubic-bezier(0.79,0.015,0.165,1)} 80% {transform: translate(256.655px,236.06418px) rotate(0deg)} 83.333333% {transform: translate(256.655px,236.06418px) rotate(0deg);animation-timing-function: cubic-bezier(0.79,0.015,0.165,1)} 86.666667% {transform: translate(256.655px,236.06418px) rotate(-25.883664deg);animation-timing-function: cubic-bezier(0.79,0.015,0.165,1)} 90% {transform: translate(256.655px,236.06418px) rotate(0deg)} 93.333333% {transform: translate(256.655px,236.06418px) rotate(0deg);animation-timing-function: cubic-bezier(0.79,0.015,0.165,1)} 96.666667% {transform: translate(256.655px,236.06418px) rotate(-25.883664deg);animation-timing-function: cubic-bezier(0.79,0.015,0.165,1)} 100% {transform: translate(256.655px,236.06418px) rotate(0deg)}} #eZ6SkAnJyXG21_tr {animation: eZ6SkAnJyXG21_tr__tr 2000ms linear infinite normal forwards}@keyframes eZ6SkAnJyXG21_tr__tr { 0% {transform: translate(196.732713px,234.755882px) rotate(0deg)} 10% {transform: translate(196.732713px,234.755882px) rotate(0deg);animation-timing-function: cubic-bezier(0.79,0.015,0.165,1)} 23.333333% {transform: translate(196.732713px,234.755882px) rotate(24.871726deg);animation-timing-function: cubic-bezier(0.79,0.015,0.165,1)} 33.333333% {transform: translate(196.732713px,234.755882px) rotate(0deg)} 60% {transform: translate(196.732713px,234.755882px) rotate(0deg);animation-timing-function: cubic-bezier(0.79,0.015,0.165,1)} 63.333333% {transform: translate(196.732713px,234.755882px) rotate(24.871726deg);animation-timing-function: cubic-bezier(0.79,0.015,0.165,1)} 66.666667% {transform: translate(196.732713px,234.755882px) rotate(0deg)} 70% {transform: translate(196.732713px,234.755882px) rotate(24.871726deg);animation-timing-function: cubic-bezier(0.79,0.015,0.165,1)} 73.333333% {transform: translate(196.732713px,234.755882px) rotate(0deg)} 76.666667% {transform: translate(196.732713px,234.755882px) rotate(24.871726deg);animation-timing-function: cubic-bezier(0.79,0.015,0.165,1)} 80% {transform: translate(196.732713px,234.755882px) rotate(0deg)} 83.333333% {transform: translate(196.732713px,234.755882px) rotate(0deg);animation-timing-function: cubic-bezier(0.79,0.015,0.165,1)} 86.666667% {transform: translate(196.732713px,234.755882px) rotate(-25.883664deg);animation-timing-function: cubic-bezier(0.79,0.015,0.165,1)} 90% {transform: translate(196.732713px,234.755882px) rotate(0deg)} 93.333333% {transform: translate(196.732713px,234.755882px) rotate(0deg);animation-timing-function: cubic-bezier(0.79,0.015,0.165,1)} 96.666667% {transform: translate(196.732713px,234.755882px) rotate(-25.883664deg);animation-timing-function: cubic-bezier(0.79,0.015,0.165,1)} 100% {transform: translate(196.732713px,234.755882px) rotate(0deg)}} #eZ6SkAnJyXG37_to {animation: eZ6SkAnJyXG37_to__to 2000ms linear infinite normal forwards}@keyframes eZ6SkAnJyXG37_to__to { 0% {transform: translate(221.096504px,232.311333px)} 10% {transform: translate(221.096504px,232.311333px);animation-timing-function: cubic-bezier(0.79,0.015,0.165,1)} 23.333333% {transform: translate(221.096504px,230.311333px);animation-timing-function: cubic-bezier(0.79,0.015,0.165,1)} 33.333333% {transform: translate(221.096504px,232.311333px)} 100% {transform: translate(221.096504px,232.311333px)}} #eZ6SkAnJyXG42_to {animation: eZ6SkAnJyXG42_to__to 2000ms linear infinite normal forwards}@keyframes eZ6SkAnJyXG42_to__to { 0% {transform: translate(229.731499px,182.854996px)} 23.333333% {transform: translate(229.731499px,182.854996px);animation-timing-function: cubic-bezier(0.79,0.015,0.165,1)} 33.333333% {transform: translate(237.731499px,159.854996px);animation-timing-function: cubic-bezier(0.79,0.015,0.165,1)} 40% {transform: translate(229.731499px,182.854996px)} 100% {transform: translate(229.731499px,182.854996px)}} #eZ6SkAnJyXG42_tr {animation: eZ6SkAnJyXG42_tr__tr 2000ms linear infinite normal forwards}@keyframes eZ6SkAnJyXG42_tr__tr { 0% {transform: rotate(0deg)} 23.333333% {transform: rotate(0deg);animation-timing-function: cubic-bezier(0.79,0.015,0.165,1)} 33.333333% {transform: rotate(40deg);animation-timing-function: cubic-bezier(0.79,0.015,0.165,1)} 40% {transform: rotate(0deg)} 100% {transform: rotate(0deg)}}
]]></style>
<g transform="translate(-178.137786-108.031708)"><g id="eZ6SkAnJyXG3_to" transform="translate(230.21151,226.990105)"><g transform="translate(-230.211509,-226.990105)"><g id="eZ6SkAnJyXG4_tr" transform="translate(222.345373,260.803002) rotate(0)"><g transform="translate(-222.345373,-260.803)"><path d="M213.253,261.623v16.089c0,0-6.561-.432-6.129,4.134c0,0-.614,5.67,8.255,5.42c0,0,6.89-.182,7.015-4.065v-20.588l-9.141-.99Z" transform="translate(0 0.757699)" fill="#3e2b2f"/><path d="M214.822,288.029c-3.229,0-5.583-.786-7.027-2.357-1.455-1.572-1.432-3.405-1.41-3.815-.102-1.264.251-2.334,1.046-3.154c1.399-1.446,3.832-1.697,5.083-1.731v-16.169l10.62,1.15v21.259c-.148,4.555-7.425,4.805-7.743,4.805-.194,0-.387,0-.58,0l.011.012Zm-2.035-9.588c-1.126,0-3.275.228-4.309,1.298-.501.513-.705,1.184-.626,2.038v.08.08c0,.057-.125,1.514,1.035,2.755c1.228,1.31,3.4,1.936,6.458,1.845.057,0,6.208-.262,6.299-3.348v-19.904l-7.663-.831v16.055l-.785-.045c-.114,0-.25-.012-.409-.012v-.011Z" fill="#301e21"/></g></g><g id="eZ6SkAnJyXG7_tr" transform="translate(245.225001,260.803001) rotate(0)"><g transform="translate(-245.225,-260.802999)"><path d="M237.756,261.623v16.089c0,0-6.561-.432-6.129,4.134c0,0-.614,5.67,8.255,5.42c0,0,6.89-.182,7.015-4.065v-20.588l-9.141-.99Z" fill="#3e2b2f"/><path d="M239.325,288.029c-3.229,0-5.583-.786-7.027-2.357-1.455-1.572-1.432-3.405-1.41-3.815-.102-1.264.251-2.334,1.046-3.154c1.399-1.446,3.832-1.697,5.083-1.731v-16.169l10.62,1.15v21.259c-.148,4.555-7.425,4.805-7.743,4.805-.194,0-.387,0-.58,0l.011.012Zm-2.035-9.588c-1.126,0-3.275.228-4.31,1.298-.5.513-.704,1.184-.625,2.038v.08.08c0,.057-.125,1.514,1.035,2.755c1.228,1.31,3.411,1.936,6.458,1.845.057,0,6.208-.262,6.299-3.348v-19.904l-7.663-.831v16.055l-.785-.045c-.114,0-.25-.012-.409-.012v-.011Z" fill="#301e21"/></g></g><g id="eZ6SkAnJyXG10_to" transform="translate(228.137787,227.693077)"><g transform="translate(-228.137786,-227.693077)"><g transform="translate(.000001 0)"><path d="M243.259,195.26c0,0,8.869-7.026,16.009-.866c0,0,3.445,4.065,1.967,8.757c0,0,6.527-.615,8.255,4.93c0,0,1.603,4.931-2.342,8.381c0,0,7.39,1.845,6.776,8.016c0,0,.364,5.307-4.923,7.641c0,0,4.923,4.19,3.206,9.121c0,0-1.728,5.306-7.515,5.056c0,0,3.32,5.056-.739,9.986c0,0-4.31,4.441-10.222,1.731c0,0,1.103,6.661-5.048,8.381c0,0-7.755,1.97-10.586-3.451c0,0-.864,5.796-8.619,5.056h1.479c-7.755.74-8.619-5.056-8.619-5.056-2.831,5.421-10.586,3.451-10.586,3.451-6.151-1.731-5.048-8.381-5.048-8.381-5.912,2.71-10.222-1.731-10.222-1.731-4.059-4.93-.739-9.986-.739-9.986-5.787.25-7.515-5.056-7.515-5.056-1.729-4.931,3.206-9.121,3.206-9.121-5.298-2.346-4.923-7.641-4.923-7.641-.614-6.16,6.776-8.016,6.776-8.016-3.945-3.45-2.342-8.381-2.342-8.381c1.728-5.545,8.255-4.93,8.255-4.93-1.478-4.692,1.967-8.757,1.967-8.757c7.14-6.16,16.009.866,16.009.866s2.342-8.017,12.439-7.891c0,0,8.255-1.481,13.667,7.891h-.023Z" fill="#fff"/><path d="M188.25,236.978c.058.436.167.902.34,1.396.02.043,2.86,6.366,8.563,6.12-.017.022-2.99,3.872,1.013,8.725.028.038,3.999,5.503,9.825,2.838c0,0,0,5.963,3.861,7.141c0,0,7.668,1.944,10.468-3.405.007.044.828,5.349,7.79,5.04c6.964.31,7.785-4.997,7.792-5.04c2.799,5.349,10.468,3.405,10.468,3.405c6.082-1.697,4.991-8.271,4.991-8.271c5.846,2.674,10.108-1.708,10.108-1.708c1.432-1.737,1.84-3.345,1.775-4.695.672,1.876,1.2,5.178-1.474,8.426c0,0-4.309,4.441-10.222,1.731.011.065,1.073,6.669-5.048,8.38c0,0-7.755,1.97-10.586-3.45c0,0-.808,5.423-7.879,5.108-7.071.315-7.88-5.108-7.88-5.108-2.822,5.402-10.533,3.463-10.585,3.45-6.123-1.723-5.059-8.32-5.049-8.38-5.912,2.71-10.222-1.731-10.222-1.731-4.059-4.931-.739-9.986-.739-9.986-5.787.25-7.516-5.056-7.516-5.056-.629-1.797-.373-3.496.206-4.93Zm83.641.199c.523,1.391.73,3.016.133,4.731-.001.004-1.641,5.032-7.07,5.063-.503-1.521-1.465-2.458-1.485-2.477c5.703.246,8.146-6.077,8.162-6.12.147-.42.229-.819.26-1.197Zm1.401-15.186c.38.897.569,1.943.449,3.155c0,0,.349,5.107-4.635,7.504-1.249-.786-2.45-1.154-2.478-1.162c4.772-2.103,6.413-8.411,6.664-9.497Zm-86.399-.159c-.005.045-.838,7.348,4.385,9.656c0,0-.505.235-1.108.732-4.162-2.534-3.842-7.074-3.842-7.074-.132-1.321.105-2.445.558-3.394.003.026.004.053.007.08Zm4.067-13.642c.034,1.687.555,3.916,2.633,5.731-.024.006-1.053.266-2.299.909-1.524-2.979-.544-6.044-.532-6.08.061-.194.127-.381.198-.56Zm8.12-9.509c.023.677.133,1.382.36,2.102-.004,0-.295-.025-.767-.016.057-.745.208-1.446.407-2.086Zm62.033.437c.136.516.236,1.068.28,1.645-.378-.001-.606.019-.611.02.179-.566.283-1.124.331-1.665Z" fill="#c7d2d8"/><path d="M229.626,268.819c-4.696,0-6.697-2.505-7.504-4.202-3.491,4.248-10.256,2.597-10.563,2.517-5.026-1.412-5.674-5.819-5.674-7.994-5.742,1.902-9.903-2.277-9.937-2.323-3.218-3.905-2.195-7.902-1.399-9.792-5.31-.467-7.015-5.489-7.026-5.546-1.433-4.111,1.239-7.663,2.649-9.166-4.4-2.517-4.435-7.163-4.412-7.8-.432-4.646,3.332-7.299,6.14-8.37-3.127-3.621-1.728-8.073-1.671-8.278c1.444-4.646,5.958-5.363,8.004-5.454-.887-4.589,2.217-8.324,2.354-8.484.023-.034.057-.057.079-.079c6.231-5.375,13.713-1.31,16.146.284.375-.831,1.069-2.095,2.24-3.347c1.762-1.902,4.98-4.134,10.324-4.134.057,0,.114,0,.17,0c.421-.057,2.456-.307,5.06.467c2.502.729,6.026,2.562,8.88,7.105c2.297-1.525,9.926-5.83,16.271-.364.034.023.057.057.079.08.137.171,3.252,3.905,2.354,8.483c2.047.08,6.561.808,8.005,5.454.068.194,1.455,4.646-1.672,8.267c2.809,1.071,6.572,3.735,6.14,8.37.023.649,0,5.283-4.412,7.811c1.41,1.503,4.082,5.056,2.638,9.178-.011.045-1.705,5.067-7.026,5.523.795,1.89,1.83,5.875-1.353,9.747-.08.091-4.242,4.281-9.983,2.368c0,2.175-.637,6.582-5.651,7.982-.33.08-7.095,1.743-10.586-2.516-.841,1.776-2.968,4.407-8.084,4.19-.205,0-.398.012-.58.012v.011Zm-.148-1.549h1.478c.103,0,.194.023.285.057c5.389-.216,6.094-4.292,6.128-4.486.046-.319.296-.569.614-.615.318-.057.625.103.773.387c2.536,4.851,9.676,3.097,9.756,3.075c5.435-1.526,4.536-7.299,4.502-7.55-.045-.273.069-.546.285-.706.216-.171.511-.193.761-.08c5.344,2.46,9.222-1.4,9.381-1.571c3.627-4.418.682-9.018.648-9.064-.148-.228-.159-.535-.023-.774.137-.239.398-.387.671-.376c5.151.216,6.708-4.35,6.777-4.543c1.546-4.419-2.934-8.29-2.979-8.336-.194-.159-.285-.421-.251-.671.035-.251.205-.467.432-.57c4.765-2.106,4.492-6.866,4.492-6.912c0-.045,0-.079,0-.125.545-5.443-5.947-7.151-6.22-7.219-.261-.069-.477-.273-.534-.547-.068-.262.023-.546.227-.729c3.514-3.074,2.183-7.412,2.126-7.606-1.523-4.908-7.231-4.441-7.481-4.418s-.489-.08-.648-.273c-.159-.194-.205-.456-.125-.684c1.262-3.996-1.467-7.595-1.797-8.016-6.594-5.625-14.929.854-15.02.922-.17.137-.386.183-.591.148-.216-.045-.398-.17-.5-.353-5.105-8.824-12.826-7.549-12.894-7.538-.045,0-.102,0-.136.012-.08,0-.148,0-.228,0-9.198,0-11.404,7.06-11.495,7.367-.068.239-.25.421-.489.49-.227.079-.489.022-.682-.126-.341-.273-8.437-6.536-15.02-.922-.33.421-3.058,4.02-1.796,8.016.079.24.022.49-.125.684-.16.193-.398.296-.649.273-.238-.023-5.958-.478-7.47,4.418-.057.194-1.387,4.532,2.115,7.606.205.183.296.467.228.729-.069.262-.273.478-.535.547-.273.068-6.765,1.776-6.219,7.219c0,.046,0,.08,0,.125-.012.194-.25,4.817,4.491,6.912.227.103.398.319.432.57.034.25-.057.501-.25.671-.046.035-4.514,3.929-2.979,8.313.068.205,1.648,4.782,6.776,4.566.273-.011.535.137.671.376.137.239.125.535-.023.774-.125.182-2.967,4.68.694,9.11.125.113,3.991,3.974,9.346,1.525.25-.113.535-.079.762.08.216.171.33.444.284.706-.034.239-.909,6.024,4.514,7.55.057.011,7.209,1.753,9.733-3.086.148-.285.466-.444.773-.387.319.057.557.307.603.626.034.182.739,4.27,6.128,4.486.091-.034.182-.057.285-.057h-.012Z" fill="#7a8189"/></g><g id="eZ6SkAnJyXG15_to" transform="translate(224.937996,205.97789)"><g id="eZ6SkAnJyXG15_ts" transform="scale(1,1)"><path d="M237.886,209.835c-.41,0-.785-.274-.898-.695-.046-.159-.967-3.45-4.662-3.496-.216-.011-4.139-.205-5.685,2.938-.171.342-.523.547-.898.513-.376-.035-.694-.285-.808-.649-.057-.183-1.569-4.624-6.97-4.476-.022,0-3.251.16-5.275,2.676-.319.399-.899.456-1.297.137-.397-.319-.454-.9-.136-1.298c2.581-3.188,6.492-3.359,6.663-3.359c4.571-.137,6.947,2.448,8.027,4.202c2.388-2.767,6.277-2.551,6.47-2.54c4.07.057,5.958,3.223,6.378,4.885.126.49-.17,1.002-.67,1.128-.08.022-.148.034-.228.034h-.011Z" transform="translate(-224.937996,-205.97789)" fill="#7a8189"/></g></g><g id="eZ6SkAnJyXG16_tr" transform="translate(256.655,236.06418) rotate(0)"><g transform="translate(-256.655,-236.064178)"><path d="M259.072,240.299l-2.417-8.329c6.38-.816,9.085-4.361,9.639-6.032.024-.47.409-1.395,1.765-1.328c1.355.068,1.215,2.136.975,3.162.96-1.084,2.301-.735,2.852-.424.87.722-.117,2.353-.719,3.077l1.157-.508c2.767-.995,2.001,1.514,1.272,2.893-3.398,4.587-11.098,6.904-14.524,7.489Z" fill="#fff"/><path d="M272.712,227.859c.026.123.052.245.048.385.064,1.161-.646,2.408-2.135,3.717-.302.275-.773.248-1.05-.064-.275-.302-.248-.773.067-1.038c1.447-1.289,1.651-2.124,1.639-2.505-.008-.359-.219-.581-.28-.649-.648-.303-1.849.933-2.376,1.675-.23.34-.691.416-1.032.187-.329-.231-.416-.689-.187-1.03.23-.34,2.358-3.276,4.372-2.093.121.078.731.529.92,1.407l.014.008Z" fill="#7a8189"/><path d="M269.783,225.513c.232,1.078-.201,2.474-1.293,4.163-.218.338-.686.439-1.024.221s-.436-.674-.22-1.023c1.293-2,1.168-2.903,1.045-3.202-.134-.355-.457-.449-.493-.452-.45-.09-1.129,1.034-1.411,1.885-1.655,4.265-9.323,5.278-9.642,5.312-.408.053-.774-.241-.824-.637-.053-.407.241-.773.638-.824c1.973-.25,7.339-1.511,8.438-4.354.099-.3,1.132-3.233,3.117-2.835.11.023,1.105.262,1.54,1.308.053.14.104.269.138.424l-.009.014Z" fill="#7a8189"/><path d="M274.835,230.472c.151.7-.056,1.466-.63,2.264-.219.28-4.975,6.155-14.761,8.311-.401.086-.793-.166-.879-.567-.087-.4.167-.792.567-.878c9.252-2.04,13.857-7.697,13.903-7.753.287-.399.427-.778.367-1.056-.039-.236-.229-.358-.242-.367-.561-.333-1.841.757-2.367,1.394-.259.312-.728.355-1.04.096-.312-.258-.354-.726-.095-1.038.241-.284,2.425-2.802,4.267-1.71.065.032.735.435.933,1.299l.002.011-.025-.006Z" fill="#7a8189"/></g></g><g id="eZ6SkAnJyXG21_tr" transform="translate(196.732713,234.755882) rotate(0)"><g transform="translate(-196.732709,-234.755881)"><path d="M196.21,238.87l3.229-8.048c-6.268-1.443-8.609-5.239-8.995-6.956.023-.471-.269-1.429-1.625-1.496-1.355-.067-1.42,2.005-1.283,3.05-.848-1.174-2.217-.959-2.796-.705-.937.633-.116,2.353.411,3.134l-1.101-.621c-2.655-1.263-2.141,1.31-1.552,2.754c2.927,4.9,10.361,7.967,13.712,8.888Z" fill="#fff"/><path d="M181.496,227.533c-.22.682-.089,1.464.403,2.315.19.3,4.342,6.617,13.867,9.73.39.126.805-.087.931-.477.125-.389-.088-.804-.479-.93-9.004-2.945-13.027-9.03-13.067-9.09-.246-.426-.348-.817-.261-1.087.063-.231.263-.334.278-.341.591-.276,1.756.935,2.217,1.621.227.336.689.425,1.025.198.336-.226.424-.687.197-1.023-.212-.307-2.135-3.028-4.077-2.124-.068.026-.774.36-1.056,1.201l-.004.011.026-.004Z" fill="#7a8189"/><path d="M183.868,225.143c-.039.119-.077.238-.086.378-.179,1.149.405,2.459,1.756,3.91.273.303.745.323,1.052.04.303-.273.323-.744.035-1.04-1.311-1.426-1.432-2.277-1.382-2.655.043-.356.275-.556.342-.618.675-.237,1.748,1.112,2.199,1.902.195.361.646.483,1.008.288.351-.197.483-.645.288-1.006s-2.022-3.493-4.143-2.515c-.129.066-.78.453-1.055,1.308l-.014.008Z" fill="#7a8189"/><path d="M187.014,223.097c-.338,1.05-.045,2.482.875,4.271.183.358.639.504.997.321s.501-.627.32-.996c-1.089-2.118-.875-3.005-.723-3.29.169-.34.5-.401.536-.401.456-.044,1.02,1.14,1.217,2.016c1.225,4.408,8.755,6.174,9.069,6.239.401.093.794-.163.883-.552.093-.4-.163-.793-.553-.883-1.938-.444-7.153-2.23-7.967-5.167-.068-.309-.806-3.329-2.82-3.13-.112.012-1.126.152-1.662,1.15-.067.134-.131.256-.179.408l.007.014Z" fill="#7a8189"/></g></g><path d="M225.697,243.267c-.352,0-.705,0-1.069-.023-.363.011-10.54.194-15.872-7.493-.296-.421-.182-.99.227-1.286.421-.296,1.001-.182,1.285.227c4.775,6.878,14.281,6.696,14.372,6.696c9.915.421,12.973-5.614,12.996-5.671.227-.455.773-.649,1.239-.432.455.227.648.774.432,1.241-.136.284-3.399,6.741-13.61,6.741Z" fill="#7a8189"/><g transform="translate(0 0.000001)"><path d="M218.011,229.227c4.434,0,8.027-4.298,8.027-9.6c0-5.301-3.593-9.599-8.027-9.599-4.433,0-8.027,4.298-8.027,9.599c0,5.302,3.594,9.6,8.027,9.6Z" transform="translate(0-.113333)" fill="#ffd200"/><path d="M218.011,229.967c-4.832,0-8.766-4.635-8.766-10.34c0-5.704,3.934-10.339,8.766-10.339s8.766,4.635,8.766,10.339c0,5.705-3.934,10.34-8.766,10.34Zm0-19.199c-4.025,0-7.288,3.974-7.288,8.859s3.274,8.859,7.288,8.859s7.288-3.974,7.288-8.859-3.274-8.859-7.288-8.859Z" fill="#7a8189"/><path d="M215.285,223.29c2.274,0,4.116-2.595,4.116-5.796s-1.842-5.796-4.116-5.796c-2.273,0-4.116,2.595-4.116,5.796s1.843,5.796,4.116,5.796Z" fill="#313744"/><ellipse rx="1.69623" ry="1.69623" transform="translate(214.562 215.656)" fill="#fff"/></g><g transform="translate(-.383627 0.000001)"><path d="M230.916,228.953c4.113,0,7.448-3.986,7.448-8.904s-3.335-8.905-7.448-8.905-7.447,3.987-7.447,8.905s3.334,8.904,7.447,8.904Z" transform="translate(-.383628 0)" fill="#ffd200"/><path d="M230.916,229.682c-4.514,0-8.187-4.327-8.187-9.633s3.673-9.633,8.187-9.633s8.186,4.327,8.186,9.633-3.672,9.633-8.186,9.633Zm0-17.798c-3.695,0-6.708,3.656-6.708,8.165s3.013,8.164,6.708,8.164s6.708-3.655,6.708-8.164-3.013-8.165-6.708-8.165Z" fill="#7a8189"/><path d="M228.816,223.856c2.273,0,4.116-2.595,4.116-5.796s-1.843-5.796-4.116-5.796c-2.274,0-4.116,2.595-4.116,5.796s1.842,5.796,4.116,5.796Z" fill="#313744"/><circle r="1.69623" transform="translate(227.566 216.222)" fill="#fff"/></g><g id="eZ6SkAnJyXG37_to" transform="translate(221.096504,232.311333)"><g transform="translate(-221.096504,-232.311332)"><path d="M221.912,239.969c3.748,0,6.785-2.025,6.785-4.523s-3.037-4.524-6.785-4.524c-3.747,0-6.785,2.026-6.785,4.524s3.038,4.523,6.785,4.523Z" transform="translate(0-.113333)" fill="#cdc6dd"/><path d="M221.001,238.112c3.736,0,6.765-2.819,6.765-6.297c0-3.477-3.029-6.297-6.765-6.297-3.737,0-6.766,2.82-6.766,6.297c0,3.478,3.029,6.297,6.766,6.297Z" fill="#f5333f"/><path d="M221,238.841c-4.138,0-7.504-3.154-7.504-7.037s3.366-7.037,7.504-7.037c4.139,0,7.505,3.154,7.505,7.037s-3.366,7.037-7.505,7.037Zm0-12.582c-3.32,0-6.026,2.493-6.026,5.556s2.706,5.557,6.026,5.557s6.027-2.494,6.027-5.557-2.707-5.556-6.027-5.556Z" fill="#993247"/><circle r="1.41352" transform="translate(222.761 230.074)" fill="#ff998d"/></g></g></g></g><g id="eZ6SkAnJyXG42_to" transform="translate(229.731499,182.854996)"><g id="eZ6SkAnJyXG42_tr" transform="rotate(0)"><g transform="translate(-229.731498,-182.854995)"><path d="M208.943,192.42l6.655-24.032c0,0,16.73-7.134,32.858,3.011l2.064,24.705c0,0-19.722,3.396-41.577-3.684Z" fill="#ff4438"/><g mask="url(#eZ6SkAnJyXG50)"><g><path d="M220.911,163.224l-8.139,36.159l2.884.65l8.139-36.158-2.884-.651Z" fill="#fff"/><path d="M227.412,163.811l-5.275,36.687l2.926.421l5.275-36.687-2.926-.421Z" fill="#fff"/><path d="M236.974,164.691l-2.954-.117-1.481,37.034l2.954.118l1.481-37.035Z" fill="#fff"/><path d="M243.794,165.335l-2.954.115l1.431,37.036l2.954-.115-1.431-37.036Z" fill="#fff"/></g><mask id="eZ6SkAnJyXG50" mask-type="luminance" x="-150%" y="-150%" height="400%" width="400%"><path d="M209.045,192.669l6.656-24.031c0,0,16.73-7.135,32.858,3.011l2.063,24.705c0,0-19.721,3.395-41.577-3.685Z" transform="translate(0 0.000001)" fill="#fff"/></mask></g><path d="M228.999,197.208c-6.137-.562-13.106-1.761-20.28-4.088-.377-.126-.592-.523-.488-.903l6.655-24.031c.065-.212.218-.392.421-.488.167-.076,17.27-7.164,33.538,3.074.194.121.323.338.347.569l2.064,24.705c.033.381-.238.722-.609.791-.128.022-9.159,1.516-21.648.371Zm-19.155-5.277c18.944,5.955,36.304,4.036,39.877,3.54l-1.977-23.645c-14.311-8.801-29.18-3.783-31.545-2.891l-6.366,22.995.011.001Z" fill="#94334b"/><path d="M220.621,194.984c15.868.319,24.626-5.408,28.802-10.703l.887,12.005c-6.323.84-12.441,2.55-29.689-1.302Z" fill-opacity="0.1"/></g></g></g></g></g></g></svg>
