<svg id="eFIcWuqnMTr1" xmlns="http://www.w3.org/2000/svg" xmlns:xlink="http://www.w3.org/1999/xlink" viewBox="0 0 100 150" shape-rendering="geometricPrecision" text-rendering="geometricPrecision" project-id="cf522853fe174547a120df31c9c40fcc" export-id="a91e2861439f428aaab37c51b87b867f" cached="false">
<style><![CDATA[
#eFIcWuqnMTr3_to {animation: eFIcWuqnMTr3_to__to 2000ms linear infinite normal forwards}@keyframes eFIcWuqnMTr3_to__to { 0% {transform: translate(154.908443px,268.236336px)} 23.333333% {transform: translate(154.908443px,268.236336px);animation-timing-function: cubic-bezier(0.79,0.015,0.165,1)} 40% {transform: translate(154.908443px,252.236336px);animation-timing-function: cubic-bezier(0.79,0.015,0.165,1)} 50% {transform: translate(154.908443px,268.236336px)} 100% {transform: translate(154.908443px,268.236336px)}} #eFIcWuqnMTr5_tr {animation: eFIcWuqnMTr5_tr__tr 2000ms linear infinite normal forwards}@keyframes eFIcWuqnMTr5_tr__tr { 0% {transform: translate(147.933001px,301.603px) rotate(0deg)} 23.333333% {transform: translate(147.933001px,301.603px) rotate(0deg);animation-timing-function: cubic-bezier(0.79,0.015,0.165,1)} 40% {transform: translate(147.933001px,301.603px) rotate(37deg);animation-timing-function: cubic-bezier(0.79,0.015,0.165,1)} 50% {transform: translate(147.933001px,301.603px) rotate(0deg)} 100% {transform: translate(147.933001px,301.603px) rotate(0deg)}} #eFIcWuqnMTr8_tr {animation: eFIcWuqnMTr8_tr__tr 2000ms linear infinite normal forwards}@keyframes eFIcWuqnMTr8_tr__tr { 0% {transform: translate(170.213px,300.872252px) rotate(0deg)} 28.333333% {transform: translate(170.213px,300.872252px) rotate(0deg);animation-timing-function: cubic-bezier(0.79,0.015,0.165,1)} 45% {transform: translate(170.213px,300.872252px) rotate(19.450138deg);animation-timing-function: cubic-bezier(0.79,0.015,0.165,1)} 55% {transform: translate(170.213px,300.872252px) rotate(0deg)} 100% {transform: translate(170.213px,300.872252px) rotate(0deg)}} #eFIcWuqnMTr11_to {animation: eFIcWuqnMTr11_to__to 2000ms linear infinite normal forwards}@keyframes eFIcWuqnMTr11_to__to { 0% {transform: translate(154.908444px,266.245491px)} 23.333333% {transform: translate(154.908444px,266.245491px);animation-timing-function: cubic-bezier(0.79,0.015,0.165,1)} 40% {transform: translate(154.908444px,266.245491px);animation-timing-function: cubic-bezier(0.79,0.015,0.165,1)} 46.666667% {transform: translate(154.908444px,279.245491px);animation-timing-function: cubic-bezier(0.79,0.015,0.165,1)} 50% {transform: translate(154.908444px,266.245491px)} 100% {transform: translate(154.908444px,266.245491px)}} #eFIcWuqnMTr12_ts {animation: eFIcWuqnMTr12_ts__ts 2000ms linear infinite normal forwards}@keyframes eFIcWuqnMTr12_ts__ts { 0% {transform: translate(154.378624px,224.332168px) scale(1,1)} 23.333333% {transform: translate(154.378624px,224.332168px) scale(1,1);animation-timing-function: cubic-bezier(0.79,0.015,0.165,1)} 40% {transform: translate(154.378624px,224.332168px) scale(0.56,1.2);animation-timing-function: cubic-bezier(0.79,0.015,0.165,1)} 50% {transform: translate(154.378624px,224.332168px) scale(1,1)} 100% {transform: translate(154.378624px,224.332168px) scale(1,1)}} #eFIcWuqnMTr35 {animation: eFIcWuqnMTr35_c_o 2000ms linear infinite normal forwards}@keyframes eFIcWuqnMTr35_c_o { 0% {opacity: 0} 33.333333% {opacity: 0} 33.666667% {opacity: 1} 41.666667% {opacity: 1} 42% {opacity: 0} 50% {opacity: 0} 50.333333% {opacity: 1} 58.333333% {opacity: 1} 58.666667% {opacity: 0} 66.666667% {opacity: 0} 67% {opacity: 1} 75% {opacity: 1} 75.333333% {opacity: 0} 83.333333% {opacity: 0} 83.666667% {opacity: 1} 91.666667% {opacity: 1} 92% {opacity: 0} 100% {opacity: 0}} #eFIcWuqnMTr43 {animation: eFIcWuqnMTr43_c_o 2000ms linear infinite normal forwards}@keyframes eFIcWuqnMTr43_c_o { 0% {opacity: 0} 33.333333% {opacity: 0} 33.666667% {opacity: 1} 41.666667% {opacity: 1} 42% {opacity: 0} 50% {opacity: 0} 50.333333% {opacity: 1} 58.333333% {opacity: 1} 58.666667% {opacity: 0} 66.666667% {opacity: 0} 67% {opacity: 1} 75% {opacity: 1} 75.333333% {opacity: 0} 83.333333% {opacity: 0} 83.666667% {opacity: 1} 91.666667% {opacity: 1} 92% {opacity: 0} 100% {opacity: 0}} #eFIcWuqnMTr51_to {animation: eFIcWuqnMTr51_to__to 2000ms linear infinite normal forwards}@keyframes eFIcWuqnMTr51_to__to { 0% {transform: translate(153.682px,269.873993px)} 23.333333% {transform: translate(153.682px,269.873993px);animation-timing-function: cubic-bezier(0.79,0.015,0.165,1)} 40% {transform: translate(153.682px,266.873993px);animation-timing-function: cubic-bezier(0.79,0.015,0.165,1)} 50% {transform: translate(153.682px,269.873993px)} 100% {transform: translate(153.682px,269.873993px)}} #eFIcWuqnMTr56_tr {animation: eFIcWuqnMTr56_tr__tr 2000ms linear infinite normal forwards}@keyframes eFIcWuqnMTr56_tr__tr { 0% {transform: translate(132.996872px,283.724886px) rotate(0deg)} 40% {transform: translate(132.996872px,283.724886px) rotate(0deg)} 46.666667% {transform: translate(132.996872px,283.724886px) rotate(-10deg)} 53.333333% {transform: translate(132.996872px,283.724886px) rotate(0deg)} 60% {transform: translate(132.996872px,283.724886px) rotate(13deg)} 66.666667% {transform: translate(132.996872px,283.724886px) rotate(0deg)} 73.333333% {transform: translate(132.996872px,283.724886px) rotate(13deg)} 80% {transform: translate(132.996872px,283.724886px) rotate(0deg)} 86.666667% {transform: translate(132.996872px,283.724886px) rotate(13deg)} 93.333333% {transform: translate(132.996872px,283.724886px) rotate(0deg)} 100% {transform: translate(132.996872px,283.724886px) rotate(13deg)}} #eFIcWuqnMTr61_tr {animation: eFIcWuqnMTr61_tr__tr 2000ms linear infinite normal forwards}@keyframes eFIcWuqnMTr61_tr__tr { 0% {transform: translate(172.707291px,282.914599px) rotate(0deg)} 40% {transform: translate(172.707291px,282.914599px) rotate(0deg)} 46.666667% {transform: translate(172.707291px,282.914599px) rotate(13deg)} 53.333333% {transform: translate(172.707291px,282.914599px) rotate(0deg)} 60% {transform: translate(172.707291px,282.914599px) rotate(13deg)} 66.666667% {transform: translate(172.707291px,282.914599px) rotate(0deg)} 73.333333% {transform: translate(172.707291px,282.914599px) rotate(13deg)} 80% {transform: translate(172.707291px,282.914599px) rotate(0deg)} 86.666667% {transform: translate(172.707291px,282.914599px) rotate(13deg)} 93.333333% {transform: translate(172.707291px,282.914599px) rotate(0deg)} 100% {transform: translate(172.707291px,282.914599px) rotate(13deg)}}
]]></style>
<g transform="translate(-104.908443-181)"><g id="eFIcWuqnMTr3_to" transform="translate(154.908443,268.236336)"><g transform="translate(-154.908443,-268.236336)" clip-path="url(#eFIcWuqnMTr67)"><g><g id="eFIcWuqnMTr5_tr" transform="translate(147.933001,301.603) rotate(0)"><g transform="translate(-147.932994,-301.603)"><path d="M136.937,301.603v17.92c0,0-7.303-.478-6.818,4.597c0,0-.683,6.32,9.186,6.039c0,0,7.674-.206,7.814-4.531v-22.929l-10.182-1.096Z" fill="#4b3c3f"/><path d="M138.681,331c-3.594,0-6.218-.882-7.822-2.62-1.612-1.755-1.595-3.782-1.571-4.252-.115-1.417.272-2.595,1.16-3.509c1.563-1.607,4.268-1.895,5.658-1.928v-18.003l11.827,1.278v23.67c-.156,5.067-8.265,5.347-8.611,5.355-.214,0-.428.009-.641.009Zm-2.254-10.67c-1.258,0-3.643.247-4.795,1.442-.559.577-.781,1.318-.691,2.274v.082.083c0,.066-.139,1.681,1.16,3.073c1.365,1.458,3.783,2.15,7.188,2.06.066,0,6.909-.289,7.016-3.733v-22.162l-8.537-.923v17.878l-.872-.057c-.123,0-.28-.017-.461-.017h-.008Z" fill="#301e21"/></g></g><g id="eFIcWuqnMTr8_tr" transform="translate(170.213,300.872252) rotate(0)"><g transform="translate(-170.212998,-300.872249)"><path d="M159.209,301.603v17.92c0,0-7.303-.478-6.818,4.597c0,0-.683,6.32,9.186,6.039c0,0,7.674-.206,7.814-4.531v-22.929l-10.182-1.096Z" transform="translate(.000001 0)" fill="#4b3c3f"/><path d="M160.96,331c-3.594,0-6.217-.882-7.821-2.62-1.612-1.755-1.596-3.782-1.571-4.252-.115-1.417.272-2.595,1.16-3.509c1.562-1.607,4.268-1.895,5.658-1.928v-18.003l11.827,1.278v23.67c-.156,5.067-8.266,5.347-8.611,5.355-.214,0-.428.009-.642.009Zm-2.261-10.67c-1.259,0-3.644.247-4.795,1.442-.559.577-.781,1.318-.691,2.274v.082.083c0,.066-.14,1.681,1.16,3.073c1.365,1.458,3.783,2.15,7.188,2.06.066,0,6.908-.289,7.015-3.733v-22.162l-8.537-.923v17.878l-.872-.057c-.123,0-.279-.017-.46-.017h-.008Z" fill="#301e21"/></g></g><g id="eFIcWuqnMTr11_to" transform="translate(154.908444,266.245491)"><g transform="translate(-154.908443,-266.245491)"><g id="eFIcWuqnMTr12_ts" transform="translate(154.378624,224.332168) scale(1,1)"><g transform="translate(-154.378603,-223.332152)"><path d="M154.43,219.493c3.331-9.812,8.126-12.07,8.126-12.07c8.027-3.732,10.675,3.04,10.675,3.04c4.704,11.477-18.883,16.602-18.883,16.602l-.255-.107c0,0-23.259-5.018-18.563-16.495c0,0,2.649-6.772,10.676-3.04c0,0,4.795,2.258,8.125,12.07h.099Z" fill="#f5333f"/><path d="M154.063,222.724c-4.523,0-14.324-5.277-18.659-7.916c3.11,8.481,16.397,13.287,27.988,9.612c9.273-2.94,10.46-8.952,9.895-11.591-1.414,4.241-13.57,9.895-19.224,9.895Z" fill="#d1303d"/><path d="M154.274,227.922l-.428-.173c-1.242-.272-15.092-3.485-18.834-10.604-1.159-2.208-1.242-4.564-.246-6.995.041-.107,1.176-2.941,4.169-4.152c2.188-.882,4.746-.651,7.608.675.197.091,4.49,2.2,7.829,10.571c3.34-8.371,7.633-10.472,7.83-10.562c2.862-1.327,5.42-1.558,7.616-.676c2.993,1.203,4.128,4.045,4.178,4.161.978,2.397.896,4.737-.255,6.929-3.866,7.365-18.595,10.636-19.221,10.776l-.246.05Zm-12.551-20.796c-.773,0-1.488.132-2.154.396-2.328.931-3.265,3.221-3.282,3.246-.814,1.994-.757,3.831.173,5.611c3.479,6.616,17.649,9.747,17.789,9.78l.156.049c1.917-.453,14.615-3.666,17.872-9.879.929-1.771.987-3.584.181-5.553-.017-.033-.954-2.323-3.282-3.254-1.752-.692-3.865-.478-6.283.643-.033.016-4.548,2.298-7.698,11.584l-.189.56h-1.275l-.189-.56c-3.183-9.368-7.657-11.568-7.698-11.584-1.497-.692-2.879-1.047-4.129-1.047l.008.008Z" fill="#a23a53"/></g></g><g transform="translate(.000001 0)"><path d="M155.409,308.82c0,0-29.024.849-37.964-22.072c0,0-8.175-26.579,7.122-47.415c0,0,10.857-16.141,30.702-15.655h-.271c20.083-.247,30.701,15.655,30.701,15.655c14.533,20.325,6.802,48,6.802,48-6.103,21.858-37.643,21.479-37.643,21.479" fill="#f280a1"/><path d="M120.138,292.448c13.003,12.83,33.434,12.23,33.434,12.23l-.597-.009c0,0,33.13.4,40.471-22.295-.524,3.2-1.06,5.12-1.06,5.12-6.103,21.858-37.643,21.479-37.643,21.479l.551.008c0,0-24.119.705-35.156-16.533Z" fill="#e76c90"/><path d="M155.129,309.644c-3.133,0-29.904-.659-38.457-22.599-.107-.33-8.134-27.271,7.229-48.198.091-.14,11.284-16.413,31.294-15.992c20.149-.099,31.08,15.86,31.187,16.025c14.573,20.383,6.99,48.404,6.916,48.684-5.732,20.54-33.481,21.973-37.865,22.072c0,0-.115.008-.296.008h-.008Zm-.716-85.15c-18.652,0-29.056,15.144-29.163,15.3-14.903,20.293-7.098,46.451-7.024,46.707c7.97,20.416,32.75,21.454,36.64,21.487.304,0,30.981.116,36.845-20.877.074-.272,7.443-27.543-6.678-47.3-.115-.173-10.486-15.317-29.583-15.317-.058,0-.124,0-.181,0h-.272c-.197,0-.394,0-.584,0Z" fill="#a23a53"/></g><path d="M152.999,281.294c-11.309,0-14.936-7.184-15.092-7.506-.246-.511-.033-1.129.477-1.376s1.127-.033,1.374.47c.14.28,3.487,6.797,14.409,6.327.181.009,10.774.174,16.07-7.456.321-.469.962-.585,1.431-.255.469.321.584.964.255,1.433-5.938,8.561-17.255,8.355-17.74,8.338-.403.017-.798.025-1.176.025h-.008Z" fill="#a23a53"/><g transform="translate(.000001 0.000001)"><path d="M163.066,246.081c0,0-.033,0-.049,0-.453-.025-.798-.412-.774-.866l.214-3.987c.025-.453.411-.808.864-.775.452.025.798.412.773.865l-.214,3.988c-.025.437-.386.783-.822.783l.008-.008Z" fill="#a23a53"/><path d="M166.602,247.58c-.099,0-.189-.016-.288-.049-.428-.157-.641-.635-.485-1.063l1.678-4.515c.156-.429.633-.643,1.061-.486.427.156.641.634.485,1.063l-1.678,4.514c-.123.33-.436.536-.773.536Z" fill="#a23a53"/><path d="M159.365,246.385c-.387,0-.74-.28-.806-.675l-.716-3.955c-.082-.445.214-.873.666-.956.445-.082.872.215.954.668l.716,3.954c.082.445-.214.874-.666.956-.05.008-.099.017-.148.017v-.009Z" fill="#a23a53"/><path d="M161.947,265.656c5.278,0,9.557-4.784,9.557-10.686c0-5.901-4.279-10.686-9.557-10.686s-9.557,4.785-9.557,10.686c0,5.902,4.279,10.686,9.557,10.686Z" fill="#ffd200"/><path d="M161.947,266.48c-5.724,0-10.379-5.166-10.379-11.51s4.655-11.51,10.379-11.51s10.379,5.166,10.379,11.51-4.655,11.51-10.379,11.51Zm0-21.38c-4.819,0-8.734,4.424-8.734,9.862s3.923,9.862,8.734,9.862s8.734-4.424,8.734-9.862-3.923-9.862-8.734-9.862Z" fill="#a23a53"/><path d="M1.53409,2.19466c1.60907,2.09973,5.61165,5.03935,8.74931,0" transform="translate(157.380623 252.420707)" fill="none" stroke="#320e23" stroke-width="3" stroke-linecap="round"/></g><g transform="matrix(1.15 0 0 1.15-21.987524-38.314724)"><path d="M142.513,247.58c-.337,0-.65-.206-.773-.536l-1.678-4.514c-.156-.429.058-.899.486-1.063.427-.157.896.057,1.06.486l1.678,4.515c.157.428-.057.898-.485,1.063-.09.033-.189.049-.288.049Z" transform="translate(0 0.833333)" fill="#a23a53"/><path d="M149.75,246.385c-.049,0-.098,0-.148-.016-.444-.083-.74-.511-.666-.956l.716-3.955c.082-.445.51-.749.954-.667s.74.511.666.956l-.716,3.954c-.074.396-.419.676-.806.676v.008Z" transform="translate(0 0.833333)" fill="#a23a53"/><path d="M146.049,246.081c-.436,0-.798-.338-.822-.783l-.214-3.988c-.025-.453.321-.84.773-.865.444-.016.839.321.864.775l.213,3.987c.025.453-.32.841-.773.865-.016,0-.033,0-.041,0v.009Z" transform="translate(0 0.833333)" fill="#a23a53"/><path d="M146.268934,264.566916c4.896,0,8.610817-4.081834,8.610817-9.555834s-3.068169-8.970749-7.964169-8.970749c-4.897,0-8.768314,4.24675-8.768314,9.72075s3.224666,8.805833,8.121666,8.805833Z" fill="#ffd200"/><path d="M146.584,266.167c-5.338,0-9.688-4.811-9.688-10.735s4.342-10.736,9.688-10.736s9.688,4.812,9.688,10.736-4.342,10.735-9.688,10.735Zm0-19.815c-4.433,0-8.044,4.079-8.044,9.088s3.611,9.088,8.044,9.088s8.043-4.079,8.043-9.088-3.61-9.088-8.043-9.088Z" transform="matrix(.91505 0 0 0.91505 12.452311 21.698906)" fill="#a23a53"/><path d="M1.53409,2.19466c1.60907,2.09973,5.61165,5.03935,8.74931,0" transform="matrix(.95 0 0 0.95 140.806495 252.467682)" fill="none" stroke="#320e23" stroke-width="3" stroke-linecap="round"/></g><g id="eFIcWuqnMTr35" transform="translate(.000001 0.000001)" opacity="0"><path d="M163.066,246.081c0,0-.033,0-.049,0-.453-.025-.798-.412-.774-.866l.214-3.987c.025-.453.411-.808.864-.775.452.025.798.412.773.865l-.214,3.988c-.025.437-.386.783-.822.783l.008-.008Z" fill="#a23a53"/><path d="M166.602,247.58c-.099,0-.189-.016-.288-.049-.428-.157-.641-.635-.485-1.063l1.678-4.515c.156-.429.633-.643,1.061-.486.427.156.641.634.485,1.063l-1.678,4.514c-.123.33-.436.536-.773.536Z" fill="#a23a53"/><path d="M159.365,246.385c-.387,0-.74-.28-.806-.675l-.716-3.955c-.082-.445.214-.873.666-.956.445-.082.872.215.954.668l.716,3.954c.082.445-.214.874-.666.956-.05.008-.099.017-.148.017v-.009Z" fill="#a23a53"/><path d="M161.947,265.656c5.278,0,9.557-4.784,9.557-10.686c0-5.901-4.279-10.686-9.557-10.686s-9.557,4.785-9.557,10.686c0,5.902,4.279,10.686,9.557,10.686Z" fill="#ffd200"/><path d="M166.298,261.965c2.812,0,5.091-3.264,5.091-7.291s-2.279-7.292-5.091-7.292-5.091,3.265-5.091,7.292s2.279,7.291,5.091,7.291Z" fill="#4c1e27"/><circle r="1.97894" transform="translate(166.785 251.56)" fill="#fff"/><path d="M161.947,266.48c-5.724,0-10.379-5.166-10.379-11.51s4.655-11.51,10.379-11.51s10.379,5.166,10.379,11.51-4.655,11.51-10.379,11.51Zm0-21.38c-4.819,0-8.734,4.424-8.734,9.862s3.923,9.862,8.734,9.862s8.734-4.424,8.734-9.862-3.923-9.862-8.734-9.862Z" fill="#a23a53"/></g><g id="eFIcWuqnMTr43" transform="matrix(1.15 0 0 1.15-21.987524-38.314724)" opacity="0"><path d="M142.513,247.58c-.337,0-.65-.206-.773-.536l-1.678-4.514c-.156-.429.058-.899.486-1.063.427-.157.896.057,1.06.486l1.678,4.515c.157.428-.057.898-.485,1.063-.09.033-.189.049-.288.049Z" transform="translate(0 0.833333)" fill="#a23a53"/><path d="M149.75,246.385c-.049,0-.098,0-.148-.016-.444-.083-.74-.511-.666-.956l.716-3.955c.082-.445.51-.749.954-.667s.74.511.666.956l-.716,3.954c-.074.396-.419.676-.806.676v.008Z" transform="translate(0 0.833333)" fill="#a23a53"/><path d="M146.049,246.081c-.436,0-.798-.338-.822-.783l-.214-3.988c-.025-.453.321-.84.773-.865.444-.016.839.321.864.775l.213,3.987c.025.453-.32.841-.773.865-.016,0-.033,0-.041,0v.009Z" transform="translate(0 0.833333)" fill="#a23a53"/><path d="M146.268934,264.566916c4.896,0,8.610817-4.081834,8.610817-9.555834s-3.068169-8.970749-7.964169-8.970749c-4.897,0-8.768314,4.24675-8.768314,9.72075s3.224666,8.805833,8.121666,8.805833Z" fill="#ffd200"/><path d="M150.326,262.641c2.753,0,4.984-3.195,4.984-7.135c0-3.941-2.231-7.135-4.984-7.135-2.752,0-4.984,3.194-4.984,7.135c0,3.94,2.232,7.135,4.984,7.135Z" fill="#4c1e27"/><circle r="1.97894" transform="translate(150.388 251.56)" fill="#fff"/><path d="M146.584,266.167c-5.338,0-9.688-4.811-9.688-10.735s4.342-10.736,9.688-10.736s9.688,4.812,9.688,10.736-4.342,10.735-9.688,10.735Zm0-19.815c-4.433,0-8.044,4.079-8.044,9.088s3.611,9.088,8.044,9.088s8.043-4.079,8.043-9.088-3.61-9.088-8.043-9.088Z" transform="matrix(.91505 0 0 0.91505 12.452311 21.698906)" fill="#a23a53"/></g><g id="eFIcWuqnMTr51_to" transform="translate(153.682,269.873993)"><g transform="translate(-153.682,-269.873993)"><path d="M153.498,278.417c3.747,0,6.785-2.532,6.785-5.654c0-3.123-3.038-5.655-6.785-5.655s-6.785,2.532-6.785,5.655c0,3.122,3.038,5.654,6.785,5.654Z" fill="#d04871"/><path d="M153.682,276.178c4.446,0,8.051-3.14,8.051-7.012s-3.605-7.011-8.051-7.011c-4.447,0-8.052,3.139-8.052,7.011s3.605,7.012,8.052,7.012Z" fill="#f5333f"/><path d="M153.682,276.993c-4.894,0-8.874-3.51-8.874-7.827s3.98-7.835,8.874-7.835c4.893,0,8.874,3.51,8.874,7.835c0,4.326-3.981,7.827-8.874,7.827Zm0-14.014c-3.989,0-7.23,2.776-7.23,6.187s3.241,6.179,7.23,6.179s7.229-2.776,7.229-6.179-3.24-6.187-7.229-6.187Z" fill="#a23a53"/><circle r="1.97894" transform="translate(156.042 267.391)" fill="#ff998d"/></g></g><g id="eFIcWuqnMTr56_tr" transform="translate(132.996872,283.724886) rotate(0)"><g transform="translate(-132.996871,-283.724886)"><path d="M144.419,275.323c-3.034,8.658-10.582,7.674-11.06,8.088l3.553,9.304c4.107-1.053,6.609-2.452,11.417-5.553c6.011-3.875,4.621-7.021,3.73-7.084-.714-.051-2.301,1.27-3.006,1.937.295-.367,1.007-1.308,1.496-2.134.611-1.032.4-1.854-.702-2.739-.882-.707-2.465.632-3.146,1.39.113-.32.377-1.264.534-2.471.197-1.51-2.478-1.7-2.816-.738Z" fill="#f280a1"/><path d="M148.085,275.686c.317,1.184-.086,2.765-1.212,4.71-.227.393-.728.527-1.122.3-.393-.226-.527-.727-.3-1.12c1.329-2.297,1.139-3.293.992-3.62-.172-.388-.535-.47-.579-.475-.507-.077-1.201,1.216-1.465,2.172-1.612,4.842-10.071,6.377-10.436,6.449-.448.078-.869-.218-.954-.664-.077-.448.218-.876.666-.953c2.182-.389,8.073-2.087,9.139-5.301.096-.341,1.075-3.66,3.307-3.321.132.015,1.239.23,1.783,1.369.072.143.123.3.165.458l.016-.004Z" fill="#a23a53"/><path d="M151.47,278.134c.034.127.065.272.079.422.139,1.282-.593,2.721-2.16,4.257-.325.317-.846.312-1.163-.012s-.312-.845.012-1.161c1.54-1.511,1.715-2.452,1.678-2.877-.031-.4-.264-.635-.349-.698-.729-.299-2.016,1.136-2.545,1.993-.238.388-.751.508-1.133.261-.388-.236-.508-.749-.261-1.13.246-.39,2.444-3.772,4.754-2.568.141.081.839.55,1.096,1.511l-.008.002Z" fill="#a23a53"/><path d="M153.974,280.92c.206.77.011,1.632-.58,2.548-.228.325-5.199,7.115-15.961,10.049-.438.118-.89-.136-1.009-.581-.117-.437.137-.888.583-1.007c10.205-2.786,14.988-9.321,15.039-9.386.3-.472.431-.873.35-1.209-.064-.238-.268-.362-.268-.362-.657-.352-2.027.934-2.58,1.67-.278.364-.788.433-1.153.156-.364-.277-.432-.787-.154-1.151.252-.331,2.55-3.246,4.646-2.139.069.033.845.446,1.106,1.39l.005.015-.024.007Z" fill="#a23a53"/></g></g><g id="eFIcWuqnMTr61_tr" transform="translate(172.707291,282.914599) rotate(0)"><g transform="translate(-172.70729,-282.914577)"><path d="M159.434,275.59c.566.848,4.241,3.957,4.806,4.24l2.828,4.806c-.566,1.885-3.054,5.202-8.482,3.393-6.785-2.262-6.219-5.654-5.371-5.937.678-.226,2.544.66,3.392,1.131-.377-.283-1.3-1.018-1.979-1.696-.848-.849-.848-1.697,0-2.828.679-.904,2.545,0,3.393.566-.189-.283-.679-1.131-1.131-2.262-.565-1.413,1.979-2.262,2.544-1.413Z" fill="#f280a1"/><path d="M159.434,275.59c5.089,7.633,12.157,4.806,12.722,5.088l-1.131,9.895c-4.24,0-7.011-.735-12.439-2.544-6.785-2.262-6.219-5.654-5.371-5.937.678-.226,2.544.66,3.392,1.131-.377-.283-1.3-1.018-1.979-1.696-.848-.849-.848-1.697,0-2.828.679-.904,2.545,0,3.393.566-.189-.283-.679-1.131-1.131-2.262-.565-1.413,1.979-2.262,2.544-1.413Z" fill="#f280a1"/><path d="M156.135,276.901c0-.165.016-.329.041-.486.231-1.25,1.253-1.735,1.368-1.784c2.076-.905,3.88,2.039,4.086,2.385c1.838,2.788,7.976,2.911,10.184,2.722.453-.041.857.296.89.748.041.461-.297.847-.75.889-.363.033-8.939.732-11.724-3.488-.528-.888-1.533-1.957-2.019-1.743-.016.008-.346.189-.412.6-.057.346.017,1.366,1.895,3.241.322.32.322.839,0,1.159-.321.321-.84.321-1.161,0-1.591-1.587-2.39-3.01-2.39-4.235l-.008-.008Z" fill="#a23a53"/><path d="M153.498,280.133c0-.995.552-1.62.626-1.703c1.97-1.809,4.969.889,5.298,1.201.33.313.346.831.041,1.16-.304.329-.832.345-1.161.041-.742-.691-2.348-1.744-2.975-1.267-.066.091-.23.371-.156.765.074.42.486,1.283,2.364,2.344.396.222.536.724.314,1.119-.223.395-.726.534-1.121.312-1.92-1.077-2.991-2.27-3.188-3.544-.025-.148-.033-.288-.033-.428h-.009Z" fill="#a23a53"/><path d="M151.801,283.48v-.016c0-.987.643-1.579.717-1.645c1.722-1.596,4.696.617,5.026.88.363.279.42.798.148,1.151-.28.362-.799.428-1.153.148-.75-.575-2.373-1.455-2.908-.954c0,0-.206.173-.182.453c0,.304.247.69.684,1.085.033.025,6.377,5.099,16.923,5.149.453,0,.824.37.824.822s-.371.823-.824.823c-11.164-.05-17.714-5.33-17.994-5.552-.84-.765-1.252-1.538-1.252-2.344h-.009Z" fill="#a23a53"/></g></g></g></g></g><clipPath id="eFIcWuqnMTr67"><rect width="80.8537" height="125.521" rx="0" ry="0" transform="matrix(1 0 0 1.138415 114.484 195.479)" fill="#fff"/></clipPath></g></g></g></svg>
